<?xml version="1.0" encoding="UTF-8" standalone="no"?>
<!DOCTYPE svg PUBLIC "-//W3C//DTD SVG 1.1//EN"
 "http://www.w3.org/Graphics/SVG/1.1/DTD/svg11.dtd">
<!-- Generated by graphviz version 2.38.0 (20140413.2041)
 -->
<!-- Title: dependencies Pages: 1 -->
<svg width="537pt" height="284pt"
 viewBox="0.00 0.00 537.00 284.00" xmlns="http://www.w3.org/2000/svg" xmlns:xlink="http://www.w3.org/1999/xlink">
<g id="graph0" class="graph" transform="scale(1 1) rotate(0) translate(4 280)">
<title>dependencies</title>
<polygon fill="white" stroke="none" points="-4,4 -4,-280 533,-280 533,4 -4,4"/>
<text text-anchor="start" x="243.509" y="-42.4" font-family="sans-serif" font-weight="bold" font-size="14.00">Legend</text>
<polygon fill="#ffffb3" stroke="none" points="30.5,-10 30.5,-30 50.5,-30 50.5,-10 30.5,-10"/>
<text text-anchor="start" x="54.129" y="-15.4" font-family="sans-serif" font-size="14.00"> &#160;Declarations</text>
<polygon fill="#8dd3c7" stroke="none" points="143.5,-10 143.5,-30 163.5,-30 163.5,-10 143.5,-10"/>
<text text-anchor="start" x="167.225" y="-15.4" font-family="sans-serif" font-size="14.00"> &#160;Module</text>
<polygon fill="#80b1d3" stroke="none" points="229.5,-10 229.5,-30 249.5,-30 249.5,-10 229.5,-10"/>
<text text-anchor="start" x="253.281" y="-15.4" font-family="sans-serif" font-size="14.00"> &#160;Bootstrap</text>
<polygon fill="#fdb462" stroke="none" points="326.5,-10 326.5,-30 346.5,-30 346.5,-10 326.5,-10"/>
<text text-anchor="start" x="350.173" y="-15.4" font-family="sans-serif" font-size="14.00"> &#160;Providers</text>
<polygon fill="#fb8072" stroke="none" points="422.5,-10 422.5,-30 442.5,-30 442.5,-10 422.5,-10"/>
<text text-anchor="start" x="446.226" y="-15.4" font-family="sans-serif" font-size="14.00"> &#160;Exports</text>
<g id="clust1" class="cluster"><title>cluster_BookmarksModule</title>
<polygon fill="none" stroke="black" stroke-dasharray="1,5" points="8,-70 8,-268 521,-268 521,-70 8,-70"/>
</g>
<g id="clust2" class="cluster"><title>cluster_BookmarksModule_declarations</title>
<polygon fill="none" stroke="black" points="351,-78 351,-130 513,-130 513,-78 351,-78"/>
</g>
<g id="clust4" class="cluster"><title>cluster_BookmarksModule_imports</title>
<polygon fill="none" stroke="black" points="16,-78 16,-130 343,-130 343,-78 16,-78"/>
</g>
<g id="clust5" class="cluster"><title>cluster_BookmarksModule_exports</title>
<polygon fill="none" stroke="black" points="196,-208 196,-260 362,-260 362,-208 196,-208"/>
</g>
<!-- BookmarksComponent -->
<g id="node1" class="node"><title>BookmarksComponent</title>
<polygon fill="#ffffb3" stroke="black" points="504.879,-122 359.121,-122 359.121,-86 504.879,-86 504.879,-122"/>
<text text-anchor="middle" x="432" y="-99.8" font-family="Times,serif" font-size="14.00">BookmarksComponent</text>
</g>
<!-- BookmarksModule -->
<g id="node2" class="node"><title>BookmarksModule</title>
<polygon fill="#8dd3c7" stroke="black" points="341.097,-187 338.097,-191 317.097,-191 314.097,-187 216.903,-187 216.903,-151 341.097,-151 341.097,-187"/>
<text text-anchor="middle" x="279" y="-164.8" font-family="Times,serif" font-size="14.00">BookmarksModule</text>
</g>
<!-- BookmarksComponent&#45;&gt;BookmarksModule -->
<g id="edge1" class="edge"><title>BookmarksComponent&#45;&gt;BookmarksModule</title>
<path fill="none" stroke="black" d="M432,-122.106C432,-141.339 432,-169 432,-169 432,-169 351.231,-169 351.231,-169"/>
<polygon fill="black" stroke="black" points="351.231,-165.5 341.231,-169 351.231,-172.5 351.231,-165.5"/>
</g>
<!-- BookmarksComponent  -->
<g id="node5" class="node"><title>BookmarksComponent </title>
<polygon fill="#fb8072" stroke="black" points="353.88,-252 204.12,-252 204.12,-216 353.88,-216 353.88,-252"/>
<text text-anchor="middle" x="279" y="-229.8" font-family="Times,serif" font-size="14.00">BookmarksComponent </text>
</g>
<!-- BookmarksModule&#45;&gt;BookmarksComponent  -->
<g id="edge4" class="edge"><title>BookmarksModule&#45;&gt;BookmarksComponent </title>
<path fill="none" stroke="black" stroke-dasharray="5,2" d="M279,-187.106C279,-187.106 279,-205.991 279,-205.991"/>
<polygon fill="black" stroke="black" points="275.5,-205.991 279,-215.991 282.5,-205.991 275.5,-205.991"/>
</g>
<!-- CommonModule -->
<g id="node3" class="node"><title>CommonModule</title>
<polygon fill="#8dd3c7" stroke="black" points="334.668,-122 331.668,-126 310.668,-126 307.668,-122 223.332,-122 223.332,-86 334.668,-86 334.668,-122"/>
<text text-anchor="middle" x="279" y="-99.8" font-family="Times,serif" font-size="14.00">CommonModule</text>
</g>
<!-- CommonModule&#45;&gt;BookmarksModule -->
<g id="edge2" class="edge"><title>CommonModule&#45;&gt;BookmarksModule</title>
<path fill="none" stroke="black" d="M279,-122.106C279,-122.106 279,-140.991 279,-140.991"/>
<polygon fill="black" stroke="black" points="275.5,-140.991 279,-150.991 282.5,-140.991 275.5,-140.991"/>
</g>
<!-- RouterModule.forChild(args) -->
<g id="node4" class="node"><title>RouterModule.forChild(args)</title>
<polygon fill="#8dd3c7" stroke="black" points="205.732,-122 202.732,-126 181.732,-126 178.732,-122 24.2677,-122 24.2677,-86 205.732,-86 205.732,-122"/>
<text text-anchor="middle" x="115" y="-99.8" font-family="Times,serif" font-size="14.00">RouterModule.forChild(args)</text>
</g>
<!-- RouterModule.forChild(args)&#45;&gt;BookmarksModule -->
<g id="edge3" class="edge"><title>RouterModule.forChild(args)&#45;&gt;BookmarksModule</title>
<path fill="none" stroke="black" d="M114.347,-122.106C114.347,-141.339 114.347,-169 114.347,-169 114.347,-169 206.752,-169 206.752,-169"/>
<polygon fill="black" stroke="black" points="206.752,-172.5 216.752,-169 206.752,-165.5 206.752,-172.5"/>
</g>
</g>
</svg>
