<?xml version="1.0" encoding="UTF-8" standalone="no"?>
<!DOCTYPE svg PUBLIC "-//W3C//DTD SVG 1.1//EN"
 "http://www.w3.org/Graphics/SVG/1.1/DTD/svg11.dtd">
<!-- Generated by graphviz version 2.38.0 (20140413.2041)
 -->
<!-- Title: dependencies Pages: 1 -->
<svg width="504pt" height="284pt"
 viewBox="0.00 0.00 504.00 284.00" xmlns="http://www.w3.org/2000/svg" xmlns:xlink="http://www.w3.org/1999/xlink">
<g id="graph0" class="graph" transform="scale(1 1) rotate(0) translate(4 280)">
<title>dependencies</title>
<polygon fill="white" stroke="none" points="-4,4 -4,-280 500,-280 500,4 -4,4"/>
<text text-anchor="start" x="227.009" y="-42.4" font-family="sans-serif" font-weight="bold" font-size="14.00">Legend</text>
<polygon fill="#ffffb3" stroke="none" points="14,-10 14,-30 34,-30 34,-10 14,-10"/>
<text text-anchor="start" x="37.629" y="-15.4" font-family="sans-serif" font-size="14.00"> &#160;Declarations</text>
<polygon fill="#8dd3c7" stroke="none" points="127,-10 127,-30 147,-30 147,-10 127,-10"/>
<text text-anchor="start" x="150.725" y="-15.4" font-family="sans-serif" font-size="14.00"> &#160;Module</text>
<polygon fill="#80b1d3" stroke="none" points="213,-10 213,-30 233,-30 233,-10 213,-10"/>
<text text-anchor="start" x="236.781" y="-15.4" font-family="sans-serif" font-size="14.00"> &#160;Bootstrap</text>
<polygon fill="#fdb462" stroke="none" points="310,-10 310,-30 330,-30 330,-10 310,-10"/>
<text text-anchor="start" x="333.673" y="-15.4" font-family="sans-serif" font-size="14.00"> &#160;Providers</text>
<polygon fill="#fb8072" stroke="none" points="406,-10 406,-30 426,-30 426,-10 406,-10"/>
<text text-anchor="start" x="429.726" y="-15.4" font-family="sans-serif" font-size="14.00"> &#160;Exports</text>
<g id="clust1" class="cluster"><title>cluster_SharedModule</title>
<polygon fill="none" stroke="black" stroke-dasharray="1,5" points="33.5,-70 33.5,-268 462.5,-268 462.5,-70 33.5,-70"/>
</g>
<g id="clust2" class="cluster"><title>cluster_SharedModule_declarations</title>
<polygon fill="none" stroke="black" points="296.5,-78 296.5,-130 454.5,-130 454.5,-78 296.5,-78"/>
</g>
<g id="clust4" class="cluster"><title>cluster_SharedModule_imports</title>
<polygon fill="none" stroke="black" points="44.5,-78 44.5,-130 288.5,-130 288.5,-78 44.5,-78"/>
</g>
<g id="clust5" class="cluster"><title>cluster_SharedModule_exports</title>
<polygon fill="none" stroke="black" points="41.5,-208 41.5,-260 454.5,-260 454.5,-208 41.5,-208"/>
</g>
<!-- PaginationComponent -->
<g id="node1" class="node"><title>PaginationComponent</title>
<polygon fill="#ffffb3" stroke="black" points="446.216,-122 304.784,-122 304.784,-86 446.216,-86 446.216,-122"/>
<text text-anchor="middle" x="375.5" y="-99.8" font-family="Times,serif" font-size="14.00">PaginationComponent</text>
</g>
<!-- SharedModule -->
<g id="node2" class="node"><title>SharedModule</title>
<polygon fill="#8dd3c7" stroke="black" points="292.923,-187 289.923,-191 268.923,-191 265.923,-187 194.077,-187 194.077,-151 292.923,-151 292.923,-187"/>
<text text-anchor="middle" x="243.5" y="-164.8" font-family="Times,serif" font-size="14.00">SharedModule</text>
</g>
<!-- PaginationComponent&#45;&gt;SharedModule -->
<g id="edge1" class="edge"><title>PaginationComponent&#45;&gt;SharedModule</title>
<path fill="none" stroke="black" d="M308.984,-122.023C308.984,-139.373 308.984,-163 308.984,-163 308.984,-163 302.797,-163 302.797,-163"/>
<polygon fill="black" stroke="black" points="302.797,-159.5 292.797,-163 302.797,-166.5 302.797,-159.5"/>
</g>
<!-- CommonModule  -->
<g id="node5" class="node"><title>CommonModule </title>
<polygon fill="#fb8072" stroke="black" points="446.168,-252 330.832,-252 330.832,-216 446.168,-216 446.168,-252"/>
<text text-anchor="middle" x="388.5" y="-229.8" font-family="Times,serif" font-size="14.00">CommonModule </text>
</g>
<!-- SharedModule&#45;&gt;CommonModule  -->
<g id="edge4" class="edge"><title>SharedModule&#45;&gt;CommonModule </title>
<path fill="none" stroke="black" stroke-dasharray="5,2" d="M292.995,-175C335.001,-175 388.5,-175 388.5,-175 388.5,-175 388.5,-205.977 388.5,-205.977"/>
<polygon fill="black" stroke="black" points="385,-205.977 388.5,-215.977 392,-205.978 385,-205.977"/>
</g>
<!-- RouterModule  -->
<g id="node6" class="node"><title>RouterModule </title>
<polygon fill="#fb8072" stroke="black" points="313.152,-252 211.848,-252 211.848,-216 313.152,-216 313.152,-252"/>
<text text-anchor="middle" x="262.5" y="-229.8" font-family="Times,serif" font-size="14.00">RouterModule </text>
</g>
<!-- SharedModule&#45;&gt;RouterModule  -->
<g id="edge5" class="edge"><title>SharedModule&#45;&gt;RouterModule </title>
<path fill="none" stroke="black" stroke-dasharray="5,2" d="M252.317,-187.106C252.317,-187.106 252.317,-205.991 252.317,-205.991"/>
<polygon fill="black" stroke="black" points="248.818,-205.991 252.317,-215.991 255.818,-205.991 248.818,-205.991"/>
</g>
<!-- PaginationComponent  -->
<g id="node7" class="node"><title>PaginationComponent </title>
<polygon fill="#fb8072" stroke="black" points="193.716,-252 49.2837,-252 49.2837,-216 193.716,-216 193.716,-252"/>
<text text-anchor="middle" x="121.5" y="-229.8" font-family="Times,serif" font-size="14.00">PaginationComponent </text>
</g>
<!-- SharedModule&#45;&gt;PaginationComponent  -->
<g id="edge6" class="edge"><title>SharedModule&#45;&gt;PaginationComponent </title>
<path fill="none" stroke="black" stroke-dasharray="5,2" d="M203.106,-187.106C203.106,-206.339 203.106,-234 203.106,-234 203.106,-234 202.17,-234 202.17,-234"/>
<polygon fill="black" stroke="black" points="203.745,-230.5 193.745,-234 203.745,-237.5 203.745,-230.5"/>
</g>
<!-- CommonModule -->
<g id="node3" class="node"><title>CommonModule</title>
<polygon fill="#8dd3c7" stroke="black" points="280.168,-122 277.168,-126 256.168,-126 253.168,-122 168.832,-122 168.832,-86 280.168,-86 280.168,-122"/>
<text text-anchor="middle" x="224.5" y="-99.8" font-family="Times,serif" font-size="14.00">CommonModule</text>
</g>
<!-- CommonModule&#45;&gt;SharedModule -->
<g id="edge2" class="edge"><title>CommonModule&#45;&gt;SharedModule</title>
<path fill="none" stroke="black" d="M237.311,-122.106C237.311,-122.106 237.311,-140.991 237.311,-140.991"/>
<polygon fill="black" stroke="black" points="233.811,-140.991 237.311,-150.991 240.811,-140.991 233.811,-140.991"/>
</g>
<!-- RouterModule -->
<g id="node4" class="node"><title>RouterModule</title>
<polygon fill="#8dd3c7" stroke="black" points="150.153,-122 147.153,-126 126.153,-126 123.153,-122 52.8472,-122 52.8472,-86 150.153,-86 150.153,-122"/>
<text text-anchor="middle" x="101.5" y="-99.8" font-family="Times,serif" font-size="14.00">RouterModule</text>
</g>
<!-- RouterModule&#45;&gt;SharedModule -->
<g id="edge3" class="edge"><title>RouterModule&#45;&gt;SharedModule</title>
<path fill="none" stroke="black" d="M101.5,-122.106C101.5,-141.339 101.5,-169 101.5,-169 101.5,-169 184.234,-169 184.234,-169"/>
<polygon fill="black" stroke="black" points="184.234,-172.5 194.234,-169 184.234,-165.5 184.234,-172.5"/>
</g>
</g>
</svg>
