<?xml version="1.0" encoding="UTF-8" standalone="no"?>
<!DOCTYPE svg PUBLIC "-//W3C//DTD SVG 1.1//EN"
 "http://www.w3.org/Graphics/SVG/1.1/DTD/svg11.dtd">
<!-- Generated by graphviz version 2.38.0 (20140413.2041)
 -->
<!-- Title: dependencies Pages: 1 -->
<svg width="787pt" height="284pt"
 viewBox="0.00 0.00 787.00 284.00" xmlns="http://www.w3.org/2000/svg" xmlns:xlink="http://www.w3.org/1999/xlink">
<g id="graph0" class="graph" transform="scale(1 1) rotate(0) translate(4 280)">
<title>dependencies</title>
<polygon fill="white" stroke="none" points="-4,4 -4,-280 783,-280 783,4 -4,4"/>
<text text-anchor="start" x="368.509" y="-42.4" font-family="sans-serif" font-weight="bold" font-size="14.00">Legend</text>
<polygon fill="#ffffb3" stroke="none" points="155.5,-10 155.5,-30 175.5,-30 175.5,-10 155.5,-10"/>
<text text-anchor="start" x="179.129" y="-15.4" font-family="sans-serif" font-size="14.00"> &#160;Declarations</text>
<polygon fill="#8dd3c7" stroke="none" points="268.5,-10 268.5,-30 288.5,-30 288.5,-10 268.5,-10"/>
<text text-anchor="start" x="292.225" y="-15.4" font-family="sans-serif" font-size="14.00"> &#160;Module</text>
<polygon fill="#80b1d3" stroke="none" points="354.5,-10 354.5,-30 374.5,-30 374.5,-10 354.5,-10"/>
<text text-anchor="start" x="378.281" y="-15.4" font-family="sans-serif" font-size="14.00"> &#160;Bootstrap</text>
<polygon fill="#fdb462" stroke="none" points="451.5,-10 451.5,-30 471.5,-30 471.5,-10 451.5,-10"/>
<text text-anchor="start" x="475.173" y="-15.4" font-family="sans-serif" font-size="14.00"> &#160;Providers</text>
<polygon fill="#fb8072" stroke="none" points="547.5,-10 547.5,-30 567.5,-30 567.5,-10 547.5,-10"/>
<text text-anchor="start" x="571.226" y="-15.4" font-family="sans-serif" font-size="14.00"> &#160;Exports</text>
<g id="clust1" class="cluster"><title>cluster_SharedModule</title>
<polygon fill="none" stroke="black" stroke-dasharray="1,5" points="8,-70 8,-268 771,-268 771,-70 8,-70"/>
</g>
<g id="clust2" class="cluster"><title>cluster_SharedModule_declarations</title>
<polygon fill="none" stroke="black" points="322,-78 322,-130 697,-130 697,-78 322,-78"/>
</g>
<g id="clust6" class="cluster"><title>cluster_SharedModule_imports</title>
<polygon fill="none" stroke="black" points="70,-78 70,-130 314,-130 314,-78 70,-78"/>
</g>
<g id="clust7" class="cluster"><title>cluster_SharedModule_exports</title>
<polygon fill="none" stroke="black" points="16,-208 16,-260 763,-260 763,-208 16,-208"/>
</g>
<!-- PaginationComponent -->
<g id="node1" class="node"><title>PaginationComponent</title>
<polygon fill="#ffffb3" stroke="black" points="688.716,-122 547.284,-122 547.284,-86 688.716,-86 688.716,-122"/>
<text text-anchor="middle" x="618" y="-99.8" font-family="Times,serif" font-size="14.00">PaginationComponent</text>
</g>
<!-- SharedModule -->
<g id="node4" class="node"><title>SharedModule</title>
<polygon fill="#8dd3c7" stroke="black" points="424.423,-187 421.423,-191 400.423,-191 397.423,-187 325.577,-187 325.577,-151 424.423,-151 424.423,-187"/>
<text text-anchor="middle" x="375" y="-164.8" font-family="Times,serif" font-size="14.00">SharedModule</text>
</g>
<!-- PaginationComponent&#45;&gt;SharedModule -->
<g id="edge1" class="edge"><title>PaginationComponent&#45;&gt;SharedModule</title>
<path fill="none" stroke="black" d="M584.484,-122.267C584.484,-140.555 584.484,-166 584.484,-166 584.484,-166 434.38,-166 434.38,-166"/>
<polygon fill="black" stroke="black" points="434.38,-162.5 424.38,-166 434.379,-169.5 434.38,-162.5"/>
</g>
<!-- TruncatePipe -->
<g id="node2" class="node"><title>TruncatePipe</title>
<polygon fill="#ffffb3" stroke="black" points="529.136,-122 438.864,-122 438.864,-86 529.136,-86 529.136,-122"/>
<text text-anchor="middle" x="484" y="-99.8" font-family="Times,serif" font-size="14.00">TruncatePipe</text>
</g>
<!-- TruncatePipe&#45;&gt;SharedModule -->
<g id="edge2" class="edge"><title>TruncatePipe&#45;&gt;SharedModule</title>
<path fill="none" stroke="black" d="M470.52,-122.009C470.52,-138.049 470.52,-159 470.52,-159 470.52,-159 434.439,-159 434.439,-159"/>
<polygon fill="black" stroke="black" points="434.439,-155.5 424.439,-159 434.439,-162.5 434.439,-155.5"/>
</g>
<!-- StringifyPipe -->
<g id="node3" class="node"><title>StringifyPipe</title>
<polygon fill="#ffffb3" stroke="black" points="420.164,-122 329.836,-122 329.836,-86 420.164,-86 420.164,-122"/>
<text text-anchor="middle" x="375" y="-99.8" font-family="Times,serif" font-size="14.00">StringifyPipe</text>
</g>
<!-- StringifyPipe&#45;&gt;SharedModule -->
<g id="edge3" class="edge"><title>StringifyPipe&#45;&gt;SharedModule</title>
<path fill="none" stroke="black" d="M375,-122.106C375,-122.106 375,-140.991 375,-140.991"/>
<polygon fill="black" stroke="black" points="371.5,-140.991 375,-150.991 378.5,-140.991 371.5,-140.991"/>
</g>
<!-- CommonModule  -->
<g id="node7" class="node"><title>CommonModule </title>
<polygon fill="#fb8072" stroke="black" points="754.668,-252 639.332,-252 639.332,-216 754.668,-216 754.668,-252"/>
<text text-anchor="middle" x="697" y="-229.8" font-family="Times,serif" font-size="14.00">CommonModule </text>
</g>
<!-- SharedModule&#45;&gt;CommonModule  -->
<g id="edge6" class="edge"><title>SharedModule&#45;&gt;CommonModule </title>
<path fill="none" stroke="black" stroke-dasharray="5,2" d="M424.355,-173C506.9,-173 664.012,-173 664.012,-173 664.012,-173 664.012,-205.698 664.012,-205.698"/>
<polygon fill="black" stroke="black" points="660.512,-205.698 664.012,-215.698 667.512,-205.698 660.512,-205.698"/>
</g>
<!-- RouterModule  -->
<g id="node8" class="node"><title>RouterModule </title>
<polygon fill="#fb8072" stroke="black" points="621.652,-252 520.348,-252 520.348,-216 621.652,-216 621.652,-252"/>
<text text-anchor="middle" x="571" y="-229.8" font-family="Times,serif" font-size="14.00">RouterModule </text>
</g>
<!-- SharedModule&#45;&gt;RouterModule  -->
<g id="edge7" class="edge"><title>SharedModule&#45;&gt;RouterModule </title>
<path fill="none" stroke="black" stroke-dasharray="5,2" d="M424.489,-180C468.143,-180 524.871,-180 524.871,-180 524.871,-180 524.871,-205.718 524.871,-205.718"/>
<polygon fill="black" stroke="black" points="521.371,-205.718 524.871,-215.718 528.371,-205.718 521.371,-205.718"/>
</g>
<!-- PaginationComponent  -->
<g id="node9" class="node"><title>PaginationComponent </title>
<polygon fill="#fb8072" stroke="black" points="502.216,-252 357.784,-252 357.784,-216 502.216,-216 502.216,-252"/>
<text text-anchor="middle" x="430" y="-229.8" font-family="Times,serif" font-size="14.00">PaginationComponent </text>
</g>
<!-- SharedModule&#45;&gt;PaginationComponent  -->
<g id="edge8" class="edge"><title>SharedModule&#45;&gt;PaginationComponent </title>
<path fill="none" stroke="black" stroke-dasharray="5,2" d="M390.927,-187.106C390.927,-187.106 390.927,-205.991 390.927,-205.991"/>
<polygon fill="black" stroke="black" points="387.427,-205.991 390.927,-215.991 394.427,-205.991 387.427,-205.991"/>
</g>
<!-- TruncatePipe  -->
<g id="node10" class="node"><title>TruncatePipe </title>
<polygon fill="#fb8072" stroke="black" points="340.135,-252 245.865,-252 245.865,-216 340.135,-216 340.135,-252"/>
<text text-anchor="middle" x="293" y="-229.8" font-family="Times,serif" font-size="14.00">TruncatePipe </text>
</g>
<!-- SharedModule&#45;&gt;TruncatePipe  -->
<g id="edge9" class="edge"><title>SharedModule&#45;&gt;TruncatePipe </title>
<path fill="none" stroke="black" stroke-dasharray="5,2" d="M332.928,-187.106C332.928,-187.106 332.928,-205.991 332.928,-205.991"/>
<polygon fill="black" stroke="black" points="329.428,-205.991 332.928,-215.991 336.428,-205.991 329.428,-205.991"/>
</g>
<!-- StringifyPipe  -->
<g id="node11" class="node"><title>StringifyPipe </title>
<polygon fill="#fb8072" stroke="black" points="228.164,-252 133.836,-252 133.836,-216 228.164,-216 228.164,-252"/>
<text text-anchor="middle" x="181" y="-229.8" font-family="Times,serif" font-size="14.00">StringifyPipe </text>
</g>
<!-- SharedModule&#45;&gt;StringifyPipe  -->
<g id="edge10" class="edge"><title>SharedModule&#45;&gt;StringifyPipe </title>
<path fill="none" stroke="black" stroke-dasharray="5,2" d="M325.387,-180C277.154,-180 211.124,-180 211.124,-180 211.124,-180 211.124,-205.718 211.124,-205.718"/>
<polygon fill="black" stroke="black" points="207.624,-205.718 211.124,-215.718 214.624,-205.718 207.624,-205.718"/>
</g>
<!-- BusyModule  -->
<g id="node12" class="node"><title>BusyModule </title>
<polygon fill="#fb8072" stroke="black" points="115.831,-252 24.1688,-252 24.1688,-216 115.831,-216 115.831,-252"/>
<text text-anchor="middle" x="70" y="-229.8" font-family="Times,serif" font-size="14.00">BusyModule </text>
</g>
<!-- SharedModule&#45;&gt;BusyModule  -->
<g id="edge11" class="edge"><title>SharedModule&#45;&gt;BusyModule </title>
<path fill="none" stroke="black" stroke-dasharray="5,2" d="M325.627,-173C245.754,-173 97.0447,-173 97.0447,-173 97.0447,-173 97.0447,-205.698 97.0447,-205.698"/>
<polygon fill="black" stroke="black" points="93.5448,-205.698 97.0447,-215.698 100.545,-205.698 93.5448,-205.698"/>
</g>
<!-- CommonModule -->
<g id="node5" class="node"><title>CommonModule</title>
<polygon fill="#8dd3c7" stroke="black" points="305.668,-122 302.668,-126 281.668,-126 278.668,-122 194.332,-122 194.332,-86 305.668,-86 305.668,-122"/>
<text text-anchor="middle" x="250" y="-99.8" font-family="Times,serif" font-size="14.00">CommonModule</text>
</g>
<!-- CommonModule&#45;&gt;SharedModule -->
<g id="edge4" class="edge"><title>CommonModule&#45;&gt;SharedModule</title>
<path fill="none" stroke="black" d="M275.883,-122.009C275.883,-138.049 275.883,-159 275.883,-159 275.883,-159 315.732,-159 315.732,-159"/>
<polygon fill="black" stroke="black" points="315.732,-162.5 325.732,-159 315.732,-155.5 315.732,-162.5"/>
</g>
<!-- RouterModule -->
<g id="node6" class="node"><title>RouterModule</title>
<polygon fill="#8dd3c7" stroke="black" points="175.653,-122 172.653,-126 151.653,-126 148.653,-122 78.3472,-122 78.3472,-86 175.653,-86 175.653,-122"/>
<text text-anchor="middle" x="127" y="-99.8" font-family="Times,serif" font-size="14.00">RouterModule</text>
</g>
<!-- RouterModule&#45;&gt;SharedModule -->
<g id="edge5" class="edge"><title>RouterModule&#45;&gt;SharedModule</title>
<path fill="none" stroke="black" d="M154.872,-122.267C154.872,-140.555 154.872,-166 154.872,-166 154.872,-166 315.599,-166 315.599,-166"/>
<polygon fill="black" stroke="black" points="315.599,-169.5 325.599,-166 315.599,-162.5 315.599,-169.5"/>
</g>
</g>
</svg>
