<?xml version="1.0" encoding="UTF-8" standalone="no"?>
<!DOCTYPE svg PUBLIC "-//W3C//DTD SVG 1.1//EN"
 "http://www.w3.org/Graphics/SVG/1.1/DTD/svg11.dtd">
<!-- Generated by graphviz version 2.38.0 (20140413.2041)
 -->
<!-- Title: dependencies Pages: 1 -->
<svg width="565pt" height="284pt"
 viewBox="0.00 0.00 565.00 284.00" xmlns="http://www.w3.org/2000/svg" xmlns:xlink="http://www.w3.org/1999/xlink">
<g id="graph0" class="graph" transform="scale(1 1) rotate(0) translate(4 280)">
<title>dependencies</title>
<polygon fill="white" stroke="none" points="-4,4 -4,-280 561,-280 561,4 -4,4"/>
<text text-anchor="start" x="257.509" y="-42.4" font-family="sans-serif" font-weight="bold" font-size="14.00">Legend</text>
<polygon fill="#ffffb3" stroke="none" points="44.5,-10 44.5,-30 64.5,-30 64.5,-10 44.5,-10"/>
<text text-anchor="start" x="68.129" y="-15.4" font-family="sans-serif" font-size="14.00"> &#160;Declarations</text>
<polygon fill="#8dd3c7" stroke="none" points="157.5,-10 157.5,-30 177.5,-30 177.5,-10 157.5,-10"/>
<text text-anchor="start" x="181.225" y="-15.4" font-family="sans-serif" font-size="14.00"> &#160;Module</text>
<polygon fill="#80b1d3" stroke="none" points="243.5,-10 243.5,-30 263.5,-30 263.5,-10 243.5,-10"/>
<text text-anchor="start" x="267.281" y="-15.4" font-family="sans-serif" font-size="14.00"> &#160;Bootstrap</text>
<polygon fill="#fdb462" stroke="none" points="340.5,-10 340.5,-30 360.5,-30 360.5,-10 340.5,-10"/>
<text text-anchor="start" x="364.173" y="-15.4" font-family="sans-serif" font-size="14.00"> &#160;Providers</text>
<polygon fill="#fb8072" stroke="none" points="436.5,-10 436.5,-30 456.5,-30 456.5,-10 436.5,-10"/>
<text text-anchor="start" x="460.226" y="-15.4" font-family="sans-serif" font-size="14.00"> &#160;Exports</text>
<g id="clust1" class="cluster"><title>cluster_SharedModule</title>
<polygon fill="none" stroke="black" stroke-dasharray="1,5" points="8,-70 8,-268 549,-268 549,-70 8,-70"/>
</g>
<g id="clust2" class="cluster"><title>cluster_SharedModule_declarations</title>
<polygon fill="none" stroke="black" points="271,-78 271,-130 537,-130 537,-78 271,-78"/>
</g>
<g id="clust5" class="cluster"><title>cluster_SharedModule_imports</title>
<polygon fill="none" stroke="black" points="19,-78 19,-130 263,-130 263,-78 19,-78"/>
</g>
<g id="clust6" class="cluster"><title>cluster_SharedModule_exports</title>
<polygon fill="none" stroke="black" points="16,-208 16,-260 541,-260 541,-208 16,-208"/>
</g>
<!-- PaginationComponent -->
<g id="node1" class="node"><title>PaginationComponent</title>
<polygon fill="#ffffb3" stroke="black" points="528.716,-122 387.284,-122 387.284,-86 528.716,-86 528.716,-122"/>
<text text-anchor="middle" x="458" y="-99.8" font-family="Times,serif" font-size="14.00">PaginationComponent</text>
</g>
<!-- SharedModule -->
<g id="node3" class="node"><title>SharedModule</title>
<polygon fill="#8dd3c7" stroke="black" points="313.423,-187 310.423,-191 289.423,-191 286.423,-187 214.577,-187 214.577,-151 313.423,-151 313.423,-187"/>
<text text-anchor="middle" x="264" y="-164.8" font-family="Times,serif" font-size="14.00">SharedModule</text>
</g>
<!-- PaginationComponent&#45;&gt;SharedModule -->
<g id="edge1" class="edge"><title>PaginationComponent&#45;&gt;SharedModule</title>
<path fill="none" stroke="black" d="M393.484,-122.023C393.484,-139.373 393.484,-163 393.484,-163 393.484,-163 323.322,-163 323.322,-163"/>
<polygon fill="black" stroke="black" points="323.322,-159.5 313.322,-163 323.322,-166.5 323.322,-159.5"/>
</g>
<!-- TruncatePipe -->
<g id="node2" class="node"><title>TruncatePipe</title>
<polygon fill="#ffffb3" stroke="black" points="369.136,-122 278.864,-122 278.864,-86 369.136,-86 369.136,-122"/>
<text text-anchor="middle" x="324" y="-99.8" font-family="Times,serif" font-size="14.00">TruncatePipe</text>
</g>
<!-- TruncatePipe&#45;&gt;SharedModule -->
<g id="edge2" class="edge"><title>TruncatePipe&#45;&gt;SharedModule</title>
<path fill="none" stroke="black" d="M295.947,-122.106C295.947,-122.106 295.947,-140.991 295.947,-140.991"/>
<polygon fill="black" stroke="black" points="292.447,-140.991 295.947,-150.991 299.447,-140.991 292.447,-140.991"/>
</g>
<!-- CommonModule  -->
<g id="node6" class="node"><title>CommonModule </title>
<polygon fill="#fb8072" stroke="black" points="532.668,-252 417.332,-252 417.332,-216 532.668,-216 532.668,-252"/>
<text text-anchor="middle" x="475" y="-229.8" font-family="Times,serif" font-size="14.00">CommonModule </text>
</g>
<!-- SharedModule&#45;&gt;CommonModule  -->
<g id="edge5" class="edge"><title>SharedModule&#45;&gt;CommonModule </title>
<path fill="none" stroke="black" stroke-dasharray="5,2" d="M313.268,-175C375.061,-175 473.012,-175 473.012,-175 473.012,-175 473.012,-205.977 473.012,-205.977"/>
<polygon fill="black" stroke="black" points="469.512,-205.977 473.012,-215.977 476.512,-205.978 469.512,-205.977"/>
</g>
<!-- RouterModule  -->
<g id="node7" class="node"><title>RouterModule </title>
<polygon fill="#fb8072" stroke="black" points="399.652,-252 298.348,-252 298.348,-216 399.652,-216 399.652,-252"/>
<text text-anchor="middle" x="349" y="-229.8" font-family="Times,serif" font-size="14.00">RouterModule </text>
</g>
<!-- SharedModule&#45;&gt;RouterModule  -->
<g id="edge6" class="edge"><title>SharedModule&#45;&gt;RouterModule </title>
<path fill="none" stroke="black" stroke-dasharray="5,2" d="M305.817,-187.106C305.817,-187.106 305.817,-205.991 305.817,-205.991"/>
<polygon fill="black" stroke="black" points="302.318,-205.991 305.817,-215.991 309.318,-205.991 302.318,-205.991"/>
</g>
<!-- PaginationComponent  -->
<g id="node8" class="node"><title>PaginationComponent </title>
<polygon fill="#fb8072" stroke="black" points="280.216,-252 135.784,-252 135.784,-216 280.216,-216 280.216,-252"/>
<text text-anchor="middle" x="208" y="-229.8" font-family="Times,serif" font-size="14.00">PaginationComponent </text>
</g>
<!-- SharedModule&#45;&gt;PaginationComponent  -->
<g id="edge7" class="edge"><title>SharedModule&#45;&gt;PaginationComponent </title>
<path fill="none" stroke="black" stroke-dasharray="5,2" d="M247.573,-187.106C247.573,-187.106 247.573,-205.991 247.573,-205.991"/>
<polygon fill="black" stroke="black" points="244.074,-205.991 247.573,-215.991 251.074,-205.991 244.074,-205.991"/>
</g>
<!-- TruncatePipe  -->
<g id="node9" class="node"><title>TruncatePipe </title>
<polygon fill="#fb8072" stroke="black" points="118.135,-252 23.8645,-252 23.8645,-216 118.135,-216 118.135,-252"/>
<text text-anchor="middle" x="71" y="-229.8" font-family="Times,serif" font-size="14.00">TruncatePipe </text>
</g>
<!-- SharedModule&#45;&gt;TruncatePipe  -->
<g id="edge8" class="edge"><title>SharedModule&#45;&gt;TruncatePipe </title>
<path fill="none" stroke="black" stroke-dasharray="5,2" d="M214.531,-175C153.432,-175 57.4718,-175 57.4718,-175 57.4718,-175 57.4718,-205.977 57.4718,-205.977"/>
<polygon fill="black" stroke="black" points="53.9719,-205.977 57.4718,-215.977 60.9719,-205.978 53.9719,-205.977"/>
</g>
<!-- CommonModule -->
<g id="node4" class="node"><title>CommonModule</title>
<polygon fill="#8dd3c7" stroke="black" points="254.668,-122 251.668,-126 230.668,-126 227.668,-122 143.332,-122 143.332,-86 254.668,-86 254.668,-122"/>
<text text-anchor="middle" x="199" y="-99.8" font-family="Times,serif" font-size="14.00">CommonModule</text>
</g>
<!-- CommonModule&#45;&gt;SharedModule -->
<g id="edge3" class="edge"><title>CommonModule&#45;&gt;SharedModule</title>
<path fill="none" stroke="black" d="M234.811,-122.106C234.811,-122.106 234.811,-140.991 234.811,-140.991"/>
<polygon fill="black" stroke="black" points="231.311,-140.991 234.811,-150.991 238.311,-140.991 231.311,-140.991"/>
</g>
<!-- RouterModule -->
<g id="node5" class="node"><title>RouterModule</title>
<polygon fill="#8dd3c7" stroke="black" points="124.653,-122 121.653,-126 100.653,-126 97.6528,-122 27.3472,-122 27.3472,-86 124.653,-86 124.653,-122"/>
<text text-anchor="middle" x="76" y="-99.8" font-family="Times,serif" font-size="14.00">RouterModule</text>
</g>
<!-- RouterModule&#45;&gt;SharedModule -->
<g id="edge4" class="edge"><title>RouterModule&#45;&gt;SharedModule</title>
<path fill="none" stroke="black" d="M87.7698,-122.023C87.7698,-139.373 87.7698,-163 87.7698,-163 87.7698,-163 204.441,-163 204.441,-163"/>
<polygon fill="black" stroke="black" points="204.441,-166.5 214.441,-163 204.441,-159.5 204.441,-166.5"/>
</g>
</g>
</svg>
