<?xml version="1.0" encoding="UTF-8" standalone="no"?>
<!DOCTYPE svg PUBLIC "-//W3C//DTD SVG 1.1//EN"
 "http://www.w3.org/Graphics/SVG/1.1/DTD/svg11.dtd">
<!-- Generated by graphviz version 2.38.0 (20140413.2041)
 -->
<!-- Title: dependencies Pages: 1 -->
<svg width="582pt" height="284pt"
 viewBox="0.00 0.00 582.00 284.00" xmlns="http://www.w3.org/2000/svg" xmlns:xlink="http://www.w3.org/1999/xlink">
<g id="graph0" class="graph" transform="scale(1 1) rotate(0) translate(4 280)">
<title>dependencies</title>
<polygon fill="white" stroke="none" points="-4,4 -4,-280 578,-280 578,4 -4,4"/>
<text text-anchor="start" x="266.009" y="-42.4" font-family="sans-serif" font-weight="bold" font-size="14.00">Legend</text>
<polygon fill="#ffffb3" stroke="none" points="53,-10 53,-30 73,-30 73,-10 53,-10"/>
<text text-anchor="start" x="76.629" y="-15.4" font-family="sans-serif" font-size="14.00"> &#160;Declarations</text>
<polygon fill="#8dd3c7" stroke="none" points="166,-10 166,-30 186,-30 186,-10 166,-10"/>
<text text-anchor="start" x="189.725" y="-15.4" font-family="sans-serif" font-size="14.00"> &#160;Module</text>
<polygon fill="#80b1d3" stroke="none" points="252,-10 252,-30 272,-30 272,-10 252,-10"/>
<text text-anchor="start" x="275.781" y="-15.4" font-family="sans-serif" font-size="14.00"> &#160;Bootstrap</text>
<polygon fill="#fdb462" stroke="none" points="349,-10 349,-30 369,-30 369,-10 349,-10"/>
<text text-anchor="start" x="372.673" y="-15.4" font-family="sans-serif" font-size="14.00"> &#160;Providers</text>
<polygon fill="#fb8072" stroke="none" points="445,-10 445,-30 465,-30 465,-10 445,-10"/>
<text text-anchor="start" x="468.726" y="-15.4" font-family="sans-serif" font-size="14.00"> &#160;Exports</text>
<g id="clust1" class="cluster"><title>cluster_SharedModule</title>
<polygon fill="none" stroke="black" stroke-dasharray="1,5" points="8,-70 8,-268 566,-268 566,-70 8,-70"/>
</g>
<g id="clust2" class="cluster"><title>cluster_SharedModule_declarations</title>
<polygon fill="none" stroke="black" points="357,-78 357,-130 515,-130 515,-78 357,-78"/>
</g>
<g id="clust4" class="cluster"><title>cluster_SharedModule_imports</title>
<polygon fill="none" stroke="black" points="105,-78 105,-130 349,-130 349,-78 105,-78"/>
</g>
<g id="clust5" class="cluster"><title>cluster_SharedModule_exports</title>
<polygon fill="none" stroke="black" points="16,-208 16,-260 558,-260 558,-208 16,-208"/>
</g>
<!-- PaginationComponent -->
<g id="node1" class="node"><title>PaginationComponent</title>
<polygon fill="#ffffb3" stroke="black" points="506.716,-122 365.284,-122 365.284,-86 506.716,-86 506.716,-122"/>
<text text-anchor="middle" x="436" y="-99.8" font-family="Times,serif" font-size="14.00">PaginationComponent</text>
</g>
<!-- SharedModule -->
<g id="node2" class="node"><title>SharedModule</title>
<polygon fill="#8dd3c7" stroke="black" points="334.423,-187 331.423,-191 310.423,-191 307.423,-187 235.577,-187 235.577,-151 334.423,-151 334.423,-187"/>
<text text-anchor="middle" x="285" y="-164.8" font-family="Times,serif" font-size="14.00">SharedModule</text>
</g>
<!-- PaginationComponent&#45;&gt;SharedModule -->
<g id="edge1" class="edge"><title>PaginationComponent&#45;&gt;SharedModule</title>
<path fill="none" stroke="black" d="M390.984,-122.023C390.984,-139.373 390.984,-163 390.984,-163 390.984,-163 344.269,-163 344.269,-163"/>
<polygon fill="black" stroke="black" points="344.269,-159.5 334.269,-163 344.269,-166.5 344.269,-159.5"/>
</g>
<!-- CommonModule  -->
<g id="node5" class="node"><title>CommonModule </title>
<polygon fill="#fb8072" stroke="black" points="549.668,-252 434.332,-252 434.332,-216 549.668,-216 549.668,-252"/>
<text text-anchor="middle" x="492" y="-229.8" font-family="Times,serif" font-size="14.00">CommonModule </text>
</g>
<!-- SharedModule&#45;&gt;CommonModule  -->
<g id="edge4" class="edge"><title>SharedModule&#45;&gt;CommonModule </title>
<path fill="none" stroke="black" stroke-dasharray="5,2" d="M334.227,-175C389.186,-175 470.512,-175 470.512,-175 470.512,-175 470.512,-205.977 470.512,-205.977"/>
<polygon fill="black" stroke="black" points="467.012,-205.977 470.512,-215.977 474.012,-205.978 467.012,-205.977"/>
</g>
<!-- RouterModule  -->
<g id="node6" class="node"><title>RouterModule </title>
<polygon fill="#fb8072" stroke="black" points="416.652,-252 315.348,-252 315.348,-216 416.652,-216 416.652,-252"/>
<text text-anchor="middle" x="366" y="-229.8" font-family="Times,serif" font-size="14.00">RouterModule </text>
</g>
<!-- SharedModule&#45;&gt;RouterModule  -->
<g id="edge5" class="edge"><title>SharedModule&#45;&gt;RouterModule </title>
<path fill="none" stroke="black" stroke-dasharray="5,2" d="M324.817,-187.106C324.817,-187.106 324.817,-205.991 324.817,-205.991"/>
<polygon fill="black" stroke="black" points="321.318,-205.991 324.817,-215.991 328.318,-205.991 321.318,-205.991"/>
</g>
<!-- MaterialModule  -->
<g id="node7" class="node"><title>MaterialModule </title>
<polygon fill="#fb8072" stroke="black" points="297.472,-252 186.528,-252 186.528,-216 297.472,-216 297.472,-252"/>
<text text-anchor="middle" x="242" y="-229.8" font-family="Times,serif" font-size="14.00">MaterialModule </text>
</g>
<!-- SharedModule&#45;&gt;MaterialModule  -->
<g id="edge6" class="edge"><title>SharedModule&#45;&gt;MaterialModule </title>
<path fill="none" stroke="black" stroke-dasharray="5,2" d="M266.512,-187.106C266.512,-187.106 266.512,-205.991 266.512,-205.991"/>
<polygon fill="black" stroke="black" points="263.012,-205.991 266.512,-215.991 270.012,-205.991 263.012,-205.991"/>
</g>
<!-- PaginationComponent  -->
<g id="node8" class="node"><title>PaginationComponent </title>
<polygon fill="#fb8072" stroke="black" points="168.216,-252 23.7837,-252 23.7837,-216 168.216,-216 168.216,-252"/>
<text text-anchor="middle" x="96" y="-229.8" font-family="Times,serif" font-size="14.00">PaginationComponent </text>
</g>
<!-- SharedModule&#45;&gt;PaginationComponent  -->
<g id="edge7" class="edge"><title>SharedModule&#45;&gt;PaginationComponent </title>
<path fill="none" stroke="black" stroke-dasharray="5,2" d="M235.766,-175C193.983,-175 140.766,-175 140.766,-175 140.766,-175 140.766,-205.977 140.766,-205.977"/>
<polygon fill="black" stroke="black" points="137.266,-205.977 140.766,-215.977 144.266,-205.978 137.266,-205.977"/>
</g>
<!-- CommonModule -->
<g id="node3" class="node"><title>CommonModule</title>
<polygon fill="#8dd3c7" stroke="black" points="340.668,-122 337.668,-126 316.668,-126 313.668,-122 229.332,-122 229.332,-86 340.668,-86 340.668,-122"/>
<text text-anchor="middle" x="285" y="-99.8" font-family="Times,serif" font-size="14.00">CommonModule</text>
</g>
<!-- CommonModule&#45;&gt;SharedModule -->
<g id="edge2" class="edge"><title>CommonModule&#45;&gt;SharedModule</title>
<path fill="none" stroke="black" d="M285,-122.106C285,-122.106 285,-140.991 285,-140.991"/>
<polygon fill="black" stroke="black" points="281.5,-140.991 285,-150.991 288.5,-140.991 281.5,-140.991"/>
</g>
<!-- RouterModule -->
<g id="node4" class="node"><title>RouterModule</title>
<polygon fill="#8dd3c7" stroke="black" points="210.653,-122 207.653,-126 186.653,-126 183.653,-122 113.347,-122 113.347,-86 210.653,-86 210.653,-122"/>
<text text-anchor="middle" x="162" y="-99.8" font-family="Times,serif" font-size="14.00">RouterModule</text>
</g>
<!-- RouterModule&#45;&gt;SharedModule -->
<g id="edge3" class="edge"><title>RouterModule&#45;&gt;SharedModule</title>
<path fill="none" stroke="black" d="M198.795,-122.023C198.795,-139.373 198.795,-163 198.795,-163 198.795,-163 225.354,-163 225.354,-163"/>
<polygon fill="black" stroke="black" points="225.354,-166.5 235.354,-163 225.354,-159.5 225.354,-166.5"/>
</g>
</g>
</svg>
