<?xml version="1.0" encoding="UTF-8" standalone="no"?>
<!DOCTYPE svg PUBLIC "-//W3C//DTD SVG 1.1//EN"
 "http://www.w3.org/Graphics/SVG/1.1/DTD/svg11.dtd">
<!-- Generated by graphviz version 2.38.0 (20140413.2041)
 -->
<!-- Title: dependencies Pages: 1 -->
<svg width="582pt" height="284pt"
 viewBox="0.00 0.00 582.00 284.00" xmlns="http://www.w3.org/2000/svg" xmlns:xlink="http://www.w3.org/1999/xlink">
<g id="graph0" class="graph" transform="scale(1 1) rotate(0) translate(4 280)">
<title>dependencies</title>
<polygon fill="white" stroke="none" points="-4,4 -4,-280 578,-280 578,4 -4,4"/>
<text text-anchor="start" x="266.009" y="-42.4" font-family="sans-serif" font-weight="bold" font-size="14.00">Legend</text>
<polygon fill="#ffffb3" stroke="none" points="53,-10 53,-30 73,-30 73,-10 53,-10"/>
<text text-anchor="start" x="76.629" y="-15.4" font-family="sans-serif" font-size="14.00"> &#160;Declarations</text>
<polygon fill="#8dd3c7" stroke="none" points="166,-10 166,-30 186,-30 186,-10 166,-10"/>
<text text-anchor="start" x="189.725" y="-15.4" font-family="sans-serif" font-size="14.00"> &#160;Module</text>
<polygon fill="#80b1d3" stroke="none" points="252,-10 252,-30 272,-30 272,-10 252,-10"/>
<text text-anchor="start" x="275.781" y="-15.4" font-family="sans-serif" font-size="14.00"> &#160;Bootstrap</text>
<polygon fill="#fdb462" stroke="none" points="349,-10 349,-30 369,-30 369,-10 349,-10"/>
<text text-anchor="start" x="372.673" y="-15.4" font-family="sans-serif" font-size="14.00"> &#160;Providers</text>
<polygon fill="#fb8072" stroke="none" points="445,-10 445,-30 465,-30 465,-10 445,-10"/>
<text text-anchor="start" x="468.726" y="-15.4" font-family="sans-serif" font-size="14.00"> &#160;Exports</text>
<g id="clust1" class="cluster"><title>cluster_SharedModule</title>
<polygon fill="none" stroke="black" stroke-dasharray="1,5" points="8,-70 8,-268 566,-268 566,-70 8,-70"/>
</g>
<g id="clust2" class="cluster"><title>cluster_SharedModule_declarations</title>
<polygon fill="none" stroke="black" points="300,-78 300,-130 458,-130 458,-78 300,-78"/>
</g>
<g id="clust4" class="cluster"><title>cluster_SharedModule_imports</title>
<polygon fill="none" stroke="black" points="164,-78 164,-130 292,-130 292,-78 164,-78"/>
</g>
<g id="clust5" class="cluster"><title>cluster_SharedModule_exports</title>
<polygon fill="none" stroke="black" points="16,-208 16,-260 558,-260 558,-208 16,-208"/>
</g>
<!-- PaginationComponent -->
<g id="node1" class="node"><title>PaginationComponent</title>
<polygon fill="#ffffb3" stroke="black" points="449.716,-122 308.284,-122 308.284,-86 449.716,-86 449.716,-122"/>
<text text-anchor="middle" x="379" y="-99.8" font-family="Times,serif" font-size="14.00">PaginationComponent</text>
</g>
<!-- SharedModule -->
<g id="node2" class="node"><title>SharedModule</title>
<polygon fill="#8dd3c7" stroke="black" points="353.423,-187 350.423,-191 329.423,-191 326.423,-187 254.577,-187 254.577,-151 353.423,-151 353.423,-187"/>
<text text-anchor="middle" x="304" y="-164.8" font-family="Times,serif" font-size="14.00">SharedModule</text>
</g>
<!-- PaginationComponent&#45;&gt;SharedModule -->
<g id="edge1" class="edge"><title>PaginationComponent&#45;&gt;SharedModule</title>
<path fill="none" stroke="black" d="M330.802,-122.106C330.802,-122.106 330.802,-140.991 330.802,-140.991"/>
<polygon fill="black" stroke="black" points="327.302,-140.991 330.802,-150.991 334.302,-140.991 327.302,-140.991"/>
</g>
<!-- CommonModule  -->
<g id="node4" class="node"><title>CommonModule </title>
<polygon fill="#fb8072" stroke="black" points="549.668,-252 434.332,-252 434.332,-216 549.668,-216 549.668,-252"/>
<text text-anchor="middle" x="492" y="-229.8" font-family="Times,serif" font-size="14.00">CommonModule </text>
</g>
<!-- SharedModule&#45;&gt;CommonModule  -->
<g id="edge3" class="edge"><title>SharedModule&#45;&gt;CommonModule </title>
<path fill="none" stroke="black" stroke-dasharray="5,2" d="M353.436,-169C393.037,-169 442.012,-169 442.012,-169 442.012,-169 442.012,-205.894 442.012,-205.894"/>
<polygon fill="black" stroke="black" points="438.512,-205.894 442.012,-215.894 445.512,-205.894 438.512,-205.894"/>
</g>
<!-- RouterModule  -->
<g id="node5" class="node"><title>RouterModule </title>
<polygon fill="#fb8072" stroke="black" points="416.652,-252 315.348,-252 315.348,-216 416.652,-216 416.652,-252"/>
<text text-anchor="middle" x="366" y="-229.8" font-family="Times,serif" font-size="14.00">RouterModule </text>
</g>
<!-- SharedModule&#45;&gt;RouterModule  -->
<g id="edge4" class="edge"><title>SharedModule&#45;&gt;RouterModule </title>
<path fill="none" stroke="black" stroke-dasharray="5,2" d="M334.317,-187.106C334.317,-187.106 334.317,-205.991 334.317,-205.991"/>
<polygon fill="black" stroke="black" points="330.818,-205.991 334.317,-215.991 337.818,-205.991 330.818,-205.991"/>
</g>
<!-- MaterialModule  -->
<g id="node6" class="node"><title>MaterialModule </title>
<polygon fill="#fb8072" stroke="black" points="297.472,-252 186.528,-252 186.528,-216 297.472,-216 297.472,-252"/>
<text text-anchor="middle" x="242" y="-229.8" font-family="Times,serif" font-size="14.00">MaterialModule </text>
</g>
<!-- SharedModule&#45;&gt;MaterialModule  -->
<g id="edge5" class="edge"><title>SharedModule&#45;&gt;MaterialModule </title>
<path fill="none" stroke="black" stroke-dasharray="5,2" d="M276.012,-187.106C276.012,-187.106 276.012,-205.991 276.012,-205.991"/>
<polygon fill="black" stroke="black" points="272.512,-205.991 276.012,-215.991 279.512,-205.991 272.512,-205.991"/>
</g>
<!-- PaginationComponent  -->
<g id="node7" class="node"><title>PaginationComponent </title>
<polygon fill="#fb8072" stroke="black" points="168.216,-252 23.7837,-252 23.7837,-216 168.216,-216 168.216,-252"/>
<text text-anchor="middle" x="96" y="-229.8" font-family="Times,serif" font-size="14.00">PaginationComponent </text>
</g>
<!-- SharedModule&#45;&gt;PaginationComponent  -->
<g id="edge6" class="edge"><title>SharedModule&#45;&gt;PaginationComponent </title>
<path fill="none" stroke="black" stroke-dasharray="5,2" d="M254.707,-169C193.198,-169 96,-169 96,-169 96,-169 96,-205.894 96,-205.894"/>
<polygon fill="black" stroke="black" points="92.5001,-205.894 96,-215.894 99.5001,-205.894 92.5001,-205.894"/>
</g>
<!-- CommonModule -->
<g id="node3" class="node"><title>CommonModule</title>
<polygon fill="#8dd3c7" stroke="black" points="283.668,-122 280.668,-126 259.668,-126 256.668,-122 172.332,-122 172.332,-86 283.668,-86 283.668,-122"/>
<text text-anchor="middle" x="228" y="-99.8" font-family="Times,serif" font-size="14.00">CommonModule</text>
</g>
<!-- CommonModule&#45;&gt;SharedModule -->
<g id="edge2" class="edge"><title>CommonModule&#45;&gt;SharedModule</title>
<path fill="none" stroke="black" d="M269.311,-122.106C269.311,-122.106 269.311,-140.991 269.311,-140.991"/>
<polygon fill="black" stroke="black" points="265.811,-140.991 269.311,-150.991 272.811,-140.991 265.811,-140.991"/>
</g>
</g>
</svg>
