<?xml version="1.0" encoding="UTF-8" standalone="no"?>
<!DOCTYPE svg PUBLIC "-//W3C//DTD SVG 1.1//EN"
 "http://www.w3.org/Graphics/SVG/1.1/DTD/svg11.dtd">
<!-- Generated by graphviz version 2.38.0 (20140413.2041)
 -->
<!-- Title: dependencies Pages: 1 -->
<svg width="862pt" height="211pt"
 viewBox="0.00 0.00 862.00 211.00" xmlns="http://www.w3.org/2000/svg" xmlns:xlink="http://www.w3.org/1999/xlink">
<g id="graph0" class="graph" transform="scale(1 1) rotate(0) translate(4 207)">
<title>dependencies</title>
<polygon fill="white" stroke="none" points="-4,4 -4,-207 858,-207 858,4 -4,4"/>
<text text-anchor="start" x="406.009" y="-42.4" font-family="sans-serif" font-weight="bold" font-size="14.00">Legend</text>
<polygon fill="#ffffb3" stroke="none" points="193,-10 193,-30 213,-30 213,-10 193,-10"/>
<text text-anchor="start" x="216.629" y="-15.4" font-family="sans-serif" font-size="14.00"> &#160;Declarations</text>
<polygon fill="#8dd3c7" stroke="none" points="306,-10 306,-30 326,-30 326,-10 306,-10"/>
<text text-anchor="start" x="329.725" y="-15.4" font-family="sans-serif" font-size="14.00"> &#160;Module</text>
<polygon fill="#80b1d3" stroke="none" points="392,-10 392,-30 412,-30 412,-10 392,-10"/>
<text text-anchor="start" x="415.781" y="-15.4" font-family="sans-serif" font-size="14.00"> &#160;Bootstrap</text>
<polygon fill="#fdb462" stroke="none" points="489,-10 489,-30 509,-30 509,-10 489,-10"/>
<text text-anchor="start" x="512.673" y="-15.4" font-family="sans-serif" font-size="14.00"> &#160;Providers</text>
<polygon fill="#fb8072" stroke="none" points="585,-10 585,-30 605,-30 605,-10 585,-10"/>
<text text-anchor="start" x="608.726" y="-15.4" font-family="sans-serif" font-size="14.00"> &#160;Exports</text>
<g id="clust1" class="cluster"><title>cluster_ArticleModule</title>
<polygon fill="none" stroke="black" stroke-dasharray="1,5" points="8,-70 8,-195 846,-195 846,-70 8,-70"/>
</g>
<g id="clust2" class="cluster"><title>cluster_ArticleModule_declarations</title>
<polygon fill="none" stroke="black" points="338,-78 338,-130 838,-130 838,-78 338,-78"/>
</g>
<g id="clust6" class="cluster"><title>cluster_ArticleModule_imports</title>
<polygon fill="none" stroke="black" points="16,-78 16,-130 330,-130 330,-78 16,-78"/>
</g>
<!-- ArticleListComponent -->
<g id="node1" class="node"><title>ArticleListComponent</title>
<polygon fill="#ffffb3" stroke="black" points="829.979,-122 688.021,-122 688.021,-86 829.979,-86 829.979,-122"/>
<text text-anchor="middle" x="759" y="-99.8" font-family="Times,serif" font-size="14.00">ArticleListComponent</text>
</g>
<!-- ArticleModule -->
<g id="node4" class="node"><title>ArticleModule</title>
<polygon fill="#8dd3c7" stroke="black" points="475.419,-187 472.419,-191 451.419,-191 448.419,-187 376.581,-187 376.581,-151 475.419,-151 475.419,-187"/>
<text text-anchor="middle" x="426" y="-164.8" font-family="Times,serif" font-size="14.00">ArticleModule</text>
</g>
<!-- ArticleListComponent&#45;&gt;ArticleModule -->
<g id="edge1" class="edge"><title>ArticleListComponent&#45;&gt;ArticleModule</title>
<path fill="none" stroke="black" d="M759,-122.284C759,-143.321 759,-175 759,-175 759,-175 485.494,-175 485.494,-175"/>
<polygon fill="black" stroke="black" points="485.494,-171.5 475.494,-175 485.494,-178.5 485.494,-171.5"/>
</g>
<!-- ArticleItemComponent -->
<g id="node2" class="node"><title>ArticleItemComponent</title>
<polygon fill="#ffffb3" stroke="black" points="669.857,-122 524.143,-122 524.143,-86 669.857,-86 669.857,-122"/>
<text text-anchor="middle" x="597" y="-99.8" font-family="Times,serif" font-size="14.00">ArticleItemComponent</text>
</g>
<!-- ArticleItemComponent&#45;&gt;ArticleModule -->
<g id="edge2" class="edge"><title>ArticleItemComponent&#45;&gt;ArticleModule</title>
<path fill="none" stroke="black" d="M597,-122.023C597,-139.373 597,-163 597,-163 597,-163 485.46,-163 485.46,-163"/>
<polygon fill="black" stroke="black" points="485.46,-159.5 475.46,-163 485.46,-166.5 485.46,-159.5"/>
</g>
<!-- ArticleDetailsComponent -->
<g id="node3" class="node"><title>ArticleDetailsComponent</title>
<polygon fill="#ffffb3" stroke="black" points="505.853,-122 346.147,-122 346.147,-86 505.853,-86 505.853,-122"/>
<text text-anchor="middle" x="426" y="-99.8" font-family="Times,serif" font-size="14.00">ArticleDetailsComponent</text>
</g>
<!-- ArticleDetailsComponent&#45;&gt;ArticleModule -->
<g id="edge3" class="edge"><title>ArticleDetailsComponent&#45;&gt;ArticleModule</title>
<path fill="none" stroke="black" d="M426,-122.106C426,-122.106 426,-140.991 426,-140.991"/>
<polygon fill="black" stroke="black" points="422.5,-140.991 426,-150.991 429.5,-140.991 422.5,-140.991"/>
</g>
<!-- SharedModule -->
<g id="node5" class="node"><title>SharedModule</title>
<polygon fill="#8dd3c7" stroke="black" points="322.423,-122 319.423,-126 298.423,-126 295.423,-122 223.577,-122 223.577,-86 322.423,-86 322.423,-122"/>
<text text-anchor="middle" x="273" y="-99.8" font-family="Times,serif" font-size="14.00">SharedModule</text>
</g>
<!-- SharedModule&#45;&gt;ArticleModule -->
<g id="edge4" class="edge"><title>SharedModule&#45;&gt;ArticleModule</title>
<path fill="none" stroke="black" d="M273,-122.023C273,-139.373 273,-163 273,-163 273,-163 366.748,-163 366.748,-163"/>
<polygon fill="black" stroke="black" points="366.748,-166.5 376.748,-163 366.748,-159.5 366.748,-166.5"/>
</g>
<!-- RouterModule.forChild(args) -->
<g id="node6" class="node"><title>RouterModule.forChild(args)</title>
<polygon fill="#8dd3c7" stroke="black" points="205.732,-122 202.732,-126 181.732,-126 178.732,-122 24.2677,-122 24.2677,-86 205.732,-86 205.732,-122"/>
<text text-anchor="middle" x="115" y="-99.8" font-family="Times,serif" font-size="14.00">RouterModule.forChild(args)</text>
</g>
<!-- RouterModule.forChild(args)&#45;&gt;ArticleModule -->
<g id="edge5" class="edge"><title>RouterModule.forChild(args)&#45;&gt;ArticleModule</title>
<path fill="none" stroke="black" d="M115,-122.284C115,-143.321 115,-175 115,-175 115,-175 366.721,-175 366.721,-175"/>
<polygon fill="black" stroke="black" points="366.721,-178.5 376.721,-175 366.721,-171.5 366.721,-178.5"/>
</g>
</g>
</svg>
