<?xml version="1.0" encoding="UTF-8" standalone="no"?>
<!DOCTYPE svg PUBLIC "-//W3C//DTD SVG 1.1//EN"
 "http://www.w3.org/Graphics/SVG/1.1/DTD/svg11.dtd">
<!-- Generated by graphviz version 2.38.0 (20140413.2041)
 -->
<!-- Title: dependencies Pages: 1 -->
<svg width="3886pt" height="420pt"
 viewBox="0.00 0.00 3886.00 420.00" xmlns="http://www.w3.org/2000/svg" xmlns:xlink="http://www.w3.org/1999/xlink">
<g id="graph0" class="graph" transform="scale(1 1) rotate(0) translate(4 416)">
<title>dependencies</title>
<polygon fill="white" stroke="none" points="-4,4 -4,-416 3882,-416 3882,4 -4,4"/>
<text text-anchor="start" x="1918.01" y="-42.4" font-family="sans-serif" font-weight="bold" font-size="14.00">Legend</text>
<polygon fill="#ffffb3" stroke="none" points="1705,-10 1705,-30 1725,-30 1725,-10 1705,-10"/>
<text text-anchor="start" x="1728.63" y="-15.4" font-family="sans-serif" font-size="14.00"> &#160;Declarations</text>
<polygon fill="#8dd3c7" stroke="none" points="1818,-10 1818,-30 1838,-30 1838,-10 1818,-10"/>
<text text-anchor="start" x="1841.73" y="-15.4" font-family="sans-serif" font-size="14.00"> &#160;Module</text>
<polygon fill="#80b1d3" stroke="none" points="1904,-10 1904,-30 1924,-30 1924,-10 1904,-10"/>
<text text-anchor="start" x="1927.78" y="-15.4" font-family="sans-serif" font-size="14.00"> &#160;Bootstrap</text>
<polygon fill="#fdb462" stroke="none" points="2001,-10 2001,-30 2021,-30 2021,-10 2001,-10"/>
<text text-anchor="start" x="2024.67" y="-15.4" font-family="sans-serif" font-size="14.00"> &#160;Providers</text>
<polygon fill="#fb8072" stroke="none" points="2097,-10 2097,-30 2117,-30 2117,-10 2097,-10"/>
<text text-anchor="start" x="2120.73" y="-15.4" font-family="sans-serif" font-size="14.00"> &#160;Exports</text>
<g id="clust1" class="cluster"><title>cluster_LectureModule</title>
<polygon fill="none" stroke="black" stroke-dasharray="1,5" points="2288,-138 2288,-266 3138,-266 3138,-138 2288,-138"/>
</g>
<g id="clust2" class="cluster"><title>cluster_LectureModule_declarations</title>
<polygon fill="none" stroke="black" points="2296,-146 2296,-198 2808,-198 2808,-146 2296,-146"/>
</g>
<g id="clust6" class="cluster"><title>cluster_LectureModule_imports</title>
<polygon fill="none" stroke="black" points="2816,-146 2816,-198 3130,-198 3130,-146 2816,-146"/>
</g>
<g id="clust10" class="cluster"><title>cluster_LayoutModule</title>
<polygon fill="none" stroke="black" stroke-dasharray="1,5" points="1193,-70 1193,-274 2280,-274 2280,-70 1193,-70"/>
</g>
<g id="clust11" class="cluster"><title>cluster_LayoutModule_declarations</title>
<polygon fill="none" stroke="black" points="1201,-78 1201,-130 1900,-130 1900,-78 1201,-78"/>
</g>
<g id="clust17" class="cluster"><title>cluster_LayoutModule_imports</title>
<polygon fill="none" stroke="black" points="1908,-78 1908,-130 2272,-130 2272,-78 1908,-78"/>
</g>
<g id="clust18" class="cluster"><title>cluster_LayoutModule_exports</title>
<polygon fill="none" stroke="black" points="1531,-214 1531,-266 1671,-266 1671,-214 1531,-214"/>
</g>
<g id="clust21" class="cluster"><title>cluster_SharedModule</title>
<polygon fill="none" stroke="black" stroke-dasharray="1,5" points="3146,-206 3146,-274 3870,-274 3870,-206 3146,-206"/>
</g>
<g id="clust22" class="cluster"><title>cluster_SharedModule_declarations</title>
<polygon fill="none" stroke="black" points="3704,-214 3704,-266 3862,-266 3862,-214 3704,-214"/>
</g>
<g id="clust25" class="cluster"><title>cluster_SharedModule_exports</title>
<polygon fill="none" stroke="black" points="3154,-214 3154,-266 3696,-266 3696,-214 3154,-214"/>
</g>
<g id="clust28" class="cluster"><title>cluster_AppModule</title>
<polygon fill="none" stroke="black" stroke-dasharray="1,5" points="8,-206 8,-404 1185,-404 1185,-206 8,-206"/>
</g>
<g id="clust29" class="cluster"><title>cluster_AppModule_declarations</title>
<polygon fill="none" stroke="black" points="739,-214 739,-266 1177,-266 1177,-214 739,-214"/>
</g>
<g id="clust33" class="cluster"><title>cluster_AppModule_imports</title>
<polygon fill="none" stroke="black" points="16,-214 16,-266 731,-266 731,-214 16,-214"/>
</g>
<g id="clust35" class="cluster"><title>cluster_AppModule_bootstrap</title>
<polygon fill="none" stroke="black" points="688,-344 688,-396 812,-396 812,-344 688,-344"/>
</g>
<!-- LectureListComponent -->
<g id="node1" class="node"><title>LectureListComponent</title>
<polygon fill="#ffffb3" stroke="black" points="2799.86,-190 2654.14,-190 2654.14,-154 2799.86,-154 2799.86,-190"/>
<text text-anchor="middle" x="2727" y="-167.8" font-family="Times,serif" font-size="14.00">LectureListComponent</text>
</g>
<!-- LectureModule -->
<g id="node4" class="node"><title>LectureModule</title>
<polygon fill="#8dd3c7" stroke="black" points="2695.3,-258 2692.3,-262 2671.3,-262 2668.3,-258 2592.7,-258 2592.7,-222 2695.3,-222 2695.3,-258"/>
<text text-anchor="middle" x="2644" y="-235.8" font-family="Times,serif" font-size="14.00">LectureModule</text>
</g>
<!-- LectureListComponent&#45;&gt;LectureModule -->
<g id="edge1" class="edge"><title>LectureListComponent&#45;&gt;LectureModule</title>
<path fill="none" stroke="black" d="M2674.61,-190.223C2674.61,-190.223 2674.61,-211.727 2674.61,-211.727"/>
<polygon fill="black" stroke="black" points="2671.11,-211.727 2674.61,-221.727 2678.11,-211.727 2671.11,-211.727"/>
</g>
<!-- LectureItemComponent -->
<g id="node2" class="node"><title>LectureItemComponent</title>
<polygon fill="#ffffb3" stroke="black" points="2635.74,-190 2486.26,-190 2486.26,-154 2635.74,-154 2635.74,-190"/>
<text text-anchor="middle" x="2561" y="-167.8" font-family="Times,serif" font-size="14.00">LectureItemComponent</text>
</g>
<!-- LectureItemComponent&#45;&gt;LectureModule -->
<g id="edge2" class="edge"><title>LectureItemComponent&#45;&gt;LectureModule</title>
<path fill="none" stroke="black" d="M2614.36,-190.223C2614.36,-190.223 2614.36,-211.727 2614.36,-211.727"/>
<polygon fill="black" stroke="black" points="2610.86,-211.727 2614.36,-221.727 2617.86,-211.727 2610.86,-211.727"/>
</g>
<!-- LectureDetailsComponent -->
<g id="node3" class="node"><title>LectureDetailsComponent</title>
<polygon fill="#ffffb3" stroke="black" points="2467.73,-190 2304.27,-190 2304.27,-154 2467.73,-154 2467.73,-190"/>
<text text-anchor="middle" x="2386" y="-167.8" font-family="Times,serif" font-size="14.00">LectureDetailsComponent</text>
</g>
<!-- LectureDetailsComponent&#45;&gt;LectureModule -->
<g id="edge3" class="edge"><title>LectureDetailsComponent&#45;&gt;LectureModule</title>
<path fill="none" stroke="black" d="M2386,-190.223C2386,-210.365 2386,-240 2386,-240 2386,-240 2582.72,-240 2582.72,-240"/>
<polygon fill="black" stroke="black" points="2582.72,-243.5 2592.72,-240 2582.72,-236.5 2582.72,-243.5"/>
</g>
<!-- AppModule -->
<g id="node25" class="node"><title>AppModule</title>
<polygon fill="#8dd3c7" stroke="black" points="791.657,-323 788.657,-327 767.657,-327 764.657,-323 708.343,-323 708.343,-287 791.657,-287 791.657,-323"/>
<text text-anchor="middle" x="750" y="-300.8" font-family="Times,serif" font-size="14.00">AppModule</text>
</g>
<!-- LectureModule&#45;&gt;AppModule -->
<g id="edge28" class="edge"><title>LectureModule&#45;&gt;AppModule</title>
<path fill="none" stroke="black" d="M2644,-258.292C2644,-280.206 2644,-314 2644,-314 2644,-314 801.766,-314 801.766,-314"/>
<polygon fill="black" stroke="black" points="801.766,-310.5 791.766,-314 801.766,-317.5 801.766,-310.5"/>
</g>
<!-- SharedModule -->
<g id="node5" class="node"><title>SharedModule</title>
<polygon fill="#8dd3c7" stroke="black" points="3122.42,-190 3119.42,-194 3098.42,-194 3095.42,-190 3023.58,-190 3023.58,-154 3122.42,-154 3122.42,-190"/>
<text text-anchor="middle" x="3073" y="-167.8" font-family="Times,serif" font-size="14.00">SharedModule</text>
</g>
<!-- SharedModule&#45;&gt;LectureModule -->
<g id="edge4" class="edge"><title>SharedModule&#45;&gt;LectureModule</title>
<path fill="none" stroke="black" d="M3056.6,-190.223C3056.6,-210.365 3056.6,-240 3056.6,-240 3056.6,-240 2705.42,-240 2705.42,-240"/>
<polygon fill="black" stroke="black" points="2705.42,-236.5 2695.42,-240 2705.42,-243.5 2705.42,-236.5"/>
</g>
<!-- CommonModule  -->
<g id="node18" class="node"><title>CommonModule </title>
<polygon fill="#fb8072" stroke="black" points="3687.67,-258 3572.33,-258 3572.33,-222 3687.67,-222 3687.67,-258"/>
<text text-anchor="middle" x="3630" y="-235.8" font-family="Times,serif" font-size="14.00">CommonModule </text>
</g>
<!-- SharedModule&#45;&gt;CommonModule  -->
<g id="edge17" class="edge"><title>SharedModule&#45;&gt;CommonModule </title>
<path fill="none" stroke="black" stroke-dasharray="5,2" d="M3122.43,-169C3258.75,-169 3630,-169 3630,-169 3630,-169 3630,-211.716 3630,-211.716"/>
<polygon fill="black" stroke="black" points="3626.5,-211.716 3630,-221.716 3633.5,-211.716 3626.5,-211.716"/>
</g>
<!-- RouterModule  -->
<g id="node19" class="node"><title>RouterModule </title>
<polygon fill="#fb8072" stroke="black" points="3554.65,-258 3453.35,-258 3453.35,-222 3554.65,-222 3554.65,-258"/>
<text text-anchor="middle" x="3504" y="-235.8" font-family="Times,serif" font-size="14.00">RouterModule </text>
</g>
<!-- SharedModule&#45;&gt;RouterModule  -->
<g id="edge18" class="edge"><title>SharedModule&#45;&gt;RouterModule </title>
<path fill="none" stroke="black" stroke-dasharray="5,2" d="M3122.44,-176C3235.65,-176 3504,-176 3504,-176 3504,-176 3504,-211.831 3504,-211.831"/>
<polygon fill="black" stroke="black" points="3500.5,-211.831 3504,-221.831 3507.5,-211.831 3500.5,-211.831"/>
</g>
<!-- MaterialModule  -->
<g id="node20" class="node"><title>MaterialModule </title>
<polygon fill="#fb8072" stroke="black" points="3435.47,-258 3324.53,-258 3324.53,-222 3435.47,-222 3435.47,-258"/>
<text text-anchor="middle" x="3380" y="-235.8" font-family="Times,serif" font-size="14.00">MaterialModule </text>
</g>
<!-- SharedModule&#45;&gt;MaterialModule  -->
<g id="edge19" class="edge"><title>SharedModule&#45;&gt;MaterialModule </title>
<path fill="none" stroke="black" stroke-dasharray="5,2" d="M3122.32,-183C3209.11,-183 3380,-183 3380,-183 3380,-183 3380,-211.965 3380,-211.965"/>
<polygon fill="black" stroke="black" points="3376.5,-211.965 3380,-221.965 3383.5,-211.965 3376.5,-211.965"/>
</g>
<!-- PaginationComponent  -->
<g id="node21" class="node"><title>PaginationComponent </title>
<polygon fill="#fb8072" stroke="black" points="3306.22,-258 3161.78,-258 3161.78,-222 3306.22,-222 3306.22,-258"/>
<text text-anchor="middle" x="3234" y="-235.8" font-family="Times,serif" font-size="14.00">PaginationComponent </text>
</g>
<!-- SharedModule&#45;&gt;PaginationComponent  -->
<g id="edge20" class="edge"><title>SharedModule&#45;&gt;PaginationComponent </title>
<path fill="none" stroke="black" stroke-dasharray="5,2" d="M3089.4,-190.248C3089.4,-213.018 3089.4,-249 3089.4,-249 3089.4,-249 3151.7,-249 3151.7,-249"/>
<polygon fill="black" stroke="black" points="3151.7,-252.5 3161.7,-249 3151.7,-245.5 3151.7,-252.5"/>
</g>
<!-- RouterModule.forChild(args) -->
<g id="node6" class="node"><title>RouterModule.forChild(args)</title>
<polygon fill="#8dd3c7" stroke="black" points="3005.73,-190 3002.73,-194 2981.73,-194 2978.73,-190 2824.27,-190 2824.27,-154 3005.73,-154 3005.73,-190"/>
<text text-anchor="middle" x="2915" y="-167.8" font-family="Times,serif" font-size="14.00">RouterModule.forChild(args)</text>
</g>
<!-- RouterModule.forChild(args)&#45;&gt;LectureModule -->
<g id="edge5" class="edge"><title>RouterModule.forChild(args)&#45;&gt;LectureModule</title>
<path fill="none" stroke="black" d="M2915,-190.023C2915,-207.373 2915,-231 2915,-231 2915,-231 2705.29,-231 2705.29,-231"/>
<polygon fill="black" stroke="black" points="2705.29,-227.5 2695.29,-231 2705.29,-234.5 2705.29,-227.5"/>
</g>
<!-- LayoutComponent -->
<g id="node7" class="node"><title>LayoutComponent</title>
<polygon fill="#ffffb3" stroke="black" points="1892.49,-122 1771.51,-122 1771.51,-86 1892.49,-86 1892.49,-122"/>
<text text-anchor="middle" x="1832" y="-99.8" font-family="Times,serif" font-size="14.00">LayoutComponent</text>
</g>
<!-- LayoutModule -->
<g id="node12" class="node"><title>LayoutModule</title>
<polygon fill="#8dd3c7" stroke="black" points="1740.71,-190 1737.71,-194 1716.71,-194 1713.71,-190 1641.29,-190 1641.29,-154 1740.71,-154 1740.71,-190"/>
<text text-anchor="middle" x="1691" y="-167.8" font-family="Times,serif" font-size="14.00">LayoutModule</text>
</g>
<!-- LayoutComponent&#45;&gt;LayoutModule -->
<g id="edge6" class="edge"><title>LayoutComponent&#45;&gt;LayoutModule</title>
<path fill="none" stroke="black" d="M1832,-122.034C1832,-139.06 1832,-162 1832,-162 1832,-162 1750.71,-162 1750.71,-162"/>
<polygon fill="black" stroke="black" points="1750.71,-158.5 1740.71,-162 1750.71,-165.5 1750.71,-158.5"/>
</g>
<!-- SidebarComponent -->
<g id="node8" class="node"><title>SidebarComponent</title>
<polygon fill="#ffffb3" stroke="black" points="1753.1,-122 1628.9,-122 1628.9,-86 1753.1,-86 1753.1,-122"/>
<text text-anchor="middle" x="1691" y="-99.8" font-family="Times,serif" font-size="14.00">SidebarComponent</text>
</g>
<!-- SidebarComponent&#45;&gt;LayoutModule -->
<g id="edge7" class="edge"><title>SidebarComponent&#45;&gt;LayoutModule</title>
<path fill="none" stroke="black" d="M1691,-122.223C1691,-122.223 1691,-143.727 1691,-143.727"/>
<polygon fill="black" stroke="black" points="1687.5,-143.727 1691,-153.727 1694.5,-143.727 1687.5,-143.727"/>
</g>
<!-- HeaderComponent -->
<g id="node9" class="node"><title>HeaderComponent</title>
<polygon fill="#ffffb3" stroke="black" points="1610.74,-122 1489.26,-122 1489.26,-86 1610.74,-86 1610.74,-122"/>
<text text-anchor="middle" x="1550" y="-99.8" font-family="Times,serif" font-size="14.00">HeaderComponent</text>
</g>
<!-- HeaderComponent&#45;&gt;LayoutModule -->
<g id="edge8" class="edge"><title>HeaderComponent&#45;&gt;LayoutModule</title>
<path fill="none" stroke="black" d="M1574.81,-122.034C1574.81,-139.06 1574.81,-162 1574.81,-162 1574.81,-162 1631.39,-162 1631.39,-162"/>
<polygon fill="black" stroke="black" points="1631.39,-165.5 1641.39,-162 1631.39,-158.5 1631.39,-165.5"/>
</g>
<!-- ContentComponent -->
<g id="node10" class="node"><title>ContentComponent</title>
<polygon fill="#ffffb3" stroke="black" points="1470.67,-122 1345.33,-122 1345.33,-86 1470.67,-86 1470.67,-122"/>
<text text-anchor="middle" x="1408" y="-99.8" font-family="Times,serif" font-size="14.00">ContentComponent</text>
</g>
<!-- ContentComponent&#45;&gt;LayoutModule -->
<g id="edge9" class="edge"><title>ContentComponent&#45;&gt;LayoutModule</title>
<path fill="none" stroke="black" d="M1408,-122.106C1408,-141.339 1408,-169 1408,-169 1408,-169 1631.38,-169 1631.38,-169"/>
<polygon fill="black" stroke="black" points="1631.38,-172.5 1641.38,-169 1631.38,-165.5 1631.38,-172.5"/>
</g>
<!-- FooterComponent -->
<g id="node11" class="node"><title>FooterComponent</title>
<polygon fill="#ffffb3" stroke="black" points="1326.88,-122 1209.12,-122 1209.12,-86 1326.88,-86 1326.88,-122"/>
<text text-anchor="middle" x="1268" y="-99.8" font-family="Times,serif" font-size="14.00">FooterComponent</text>
</g>
<!-- FooterComponent&#45;&gt;LayoutModule -->
<g id="edge10" class="edge"><title>FooterComponent&#45;&gt;LayoutModule</title>
<path fill="none" stroke="black" d="M1268,-122.169C1268,-143.498 1268,-176 1268,-176 1268,-176 1631.23,-176 1631.23,-176"/>
<polygon fill="black" stroke="black" points="1631.23,-179.5 1641.23,-176 1631.23,-172.5 1631.23,-179.5"/>
</g>
<!-- LayoutComponent  -->
<g id="node16" class="node"><title>LayoutComponent </title>
<polygon fill="#fb8072" stroke="black" points="1663.49,-258 1538.51,-258 1538.51,-222 1663.49,-222 1663.49,-258"/>
<text text-anchor="middle" x="1601" y="-235.8" font-family="Times,serif" font-size="14.00">LayoutComponent </text>
</g>
<!-- LayoutModule&#45;&gt;LayoutComponent  -->
<g id="edge14" class="edge"><title>LayoutModule&#45;&gt;LayoutComponent </title>
<path fill="none" stroke="black" stroke-dasharray="5,2" d="M1652.32,-190.223C1652.32,-190.223 1652.32,-211.727 1652.32,-211.727"/>
<polygon fill="black" stroke="black" points="1648.82,-211.727 1652.32,-221.727 1655.82,-211.727 1648.82,-211.727"/>
</g>
<!-- LayoutModule&#45;&gt;AppModule -->
<g id="edge27" class="edge"><title>LayoutModule&#45;&gt;AppModule</title>
<path fill="none" stroke="black" d="M1641.3,-183C1445.15,-183 735.412,-183 735.412,-183 735.412,-183 735.412,-276.998 735.412,-276.998"/>
<polygon fill="black" stroke="black" points="731.912,-276.998 735.412,-286.998 738.912,-276.999 731.912,-276.998"/>
</g>
<!-- CommonModule -->
<g id="node13" class="node"><title>CommonModule</title>
<polygon fill="#8dd3c7" stroke="black" points="2263.67,-122 2260.67,-126 2239.67,-126 2236.67,-122 2152.33,-122 2152.33,-86 2263.67,-86 2263.67,-122"/>
<text text-anchor="middle" x="2208" y="-99.8" font-family="Times,serif" font-size="14.00">CommonModule</text>
</g>
<!-- CommonModule&#45;&gt;SharedModule -->
<g id="edge16" class="edge"><title>CommonModule&#45;&gt;SharedModule</title>
<path fill="none" stroke="black" d="M2263.76,-104C2455.05,-104 3073,-104 3073,-104 3073,-104 3073,-143.777 3073,-143.777"/>
<polygon fill="black" stroke="black" points="3069.5,-143.777 3073,-153.777 3076.5,-143.777 3069.5,-143.777"/>
</g>
<!-- CommonModule&#45;&gt;LayoutModule -->
<g id="edge11" class="edge"><title>CommonModule&#45;&gt;LayoutModule</title>
<path fill="none" stroke="black" d="M2208,-122.323C2208,-145.66 2208,-183 2208,-183 2208,-183 1751.04,-183 1751.04,-183"/>
<polygon fill="black" stroke="black" points="1751.04,-179.5 1741.04,-183 1751.04,-186.5 1751.04,-179.5"/>
</g>
<!-- SidebarModule -->
<g id="node14" class="node"><title>SidebarModule</title>
<polygon fill="#8dd3c7" stroke="black" points="2134.31,-122 2131.31,-126 2110.31,-126 2107.31,-122 2031.69,-122 2031.69,-86 2134.31,-86 2134.31,-122"/>
<text text-anchor="middle" x="2083" y="-99.8" font-family="Times,serif" font-size="14.00">SidebarModule</text>
</g>
<!-- SidebarModule&#45;&gt;LayoutModule -->
<g id="edge12" class="edge"><title>SidebarModule&#45;&gt;LayoutModule</title>
<path fill="none" stroke="black" d="M2083,-122.169C2083,-143.498 2083,-176 2083,-176 2083,-176 1750.65,-176 1750.65,-176"/>
<polygon fill="black" stroke="black" points="1750.65,-172.5 1740.65,-176 1750.65,-179.5 1750.65,-172.5"/>
</g>
<!-- RouterModule -->
<g id="node15" class="node"><title>RouterModule</title>
<polygon fill="#8dd3c7" stroke="black" points="2013.65,-122 2010.65,-126 1989.65,-126 1986.65,-122 1916.35,-122 1916.35,-86 2013.65,-86 2013.65,-122"/>
<text text-anchor="middle" x="1965" y="-99.8" font-family="Times,serif" font-size="14.00">RouterModule</text>
</g>
<!-- RouterModule&#45;&gt;LayoutModule -->
<g id="edge13" class="edge"><title>RouterModule&#45;&gt;LayoutModule</title>
<path fill="none" stroke="black" d="M1965,-122.106C1965,-141.339 1965,-169 1965,-169 1965,-169 1750.62,-169 1750.62,-169"/>
<polygon fill="black" stroke="black" points="1750.62,-165.5 1740.62,-169 1750.62,-172.5 1750.62,-165.5"/>
</g>
<!-- PaginationComponent -->
<g id="node17" class="node"><title>PaginationComponent</title>
<polygon fill="#ffffb3" stroke="black" points="3853.72,-258 3712.28,-258 3712.28,-222 3853.72,-222 3853.72,-258"/>
<text text-anchor="middle" x="3783" y="-235.8" font-family="Times,serif" font-size="14.00">PaginationComponent</text>
</g>
<!-- PaginationComponent&#45;&gt;SharedModule -->
<g id="edge15" class="edge"><title>PaginationComponent&#45;&gt;SharedModule</title>
<path fill="none" stroke="black" d="M3783,-221.909C3783,-198.867 3783,-162 3783,-162 3783,-162 3132.36,-162 3132.36,-162"/>
<polygon fill="black" stroke="black" points="3132.36,-158.5 3122.36,-162 3132.36,-165.5 3132.36,-158.5"/>
</g>
<!-- AppComponent -->
<g id="node22" class="node"><title>AppComponent</title>
<polygon fill="#ffffb3" stroke="black" points="1168.94,-258 1063.06,-258 1063.06,-222 1168.94,-222 1168.94,-258"/>
<text text-anchor="middle" x="1116" y="-235.8" font-family="Times,serif" font-size="14.00">AppComponent</text>
</g>
<!-- AppComponent&#45;&gt;AppModule -->
<g id="edge21" class="edge"><title>AppComponent&#45;&gt;AppModule</title>
<path fill="none" stroke="black" d="M1116,-258.106C1116,-277.339 1116,-305 1116,-305 1116,-305 801.985,-305 801.985,-305"/>
<polygon fill="black" stroke="black" points="801.985,-301.5 791.985,-305 801.985,-308.5 801.985,-301.5"/>
</g>
<!-- HomeComponent -->
<g id="node23" class="node"><title>HomeComponent</title>
<polygon fill="#ffffb3" stroke="black" points="1045.55,-258 930.455,-258 930.455,-222 1045.55,-222 1045.55,-258"/>
<text text-anchor="middle" x="988" y="-235.8" font-family="Times,serif" font-size="14.00">HomeComponent</text>
</g>
<!-- HomeComponent&#45;&gt;AppModule -->
<g id="edge22" class="edge"><title>HomeComponent&#45;&gt;AppModule</title>
<path fill="none" stroke="black" d="M988,-258.027C988,-274.398 988,-296 988,-296 988,-296 801.729,-296 801.729,-296"/>
<polygon fill="black" stroke="black" points="801.729,-292.5 791.729,-296 801.729,-299.5 801.729,-292.5"/>
</g>
<!-- PageNotFoundComponent -->
<g id="node24" class="node"><title>PageNotFoundComponent</title>
<polygon fill="#ffffb3" stroke="black" points="912.824,-258 747.176,-258 747.176,-222 912.824,-222 912.824,-258"/>
<text text-anchor="middle" x="830" y="-235.8" font-family="Times,serif" font-size="14.00">PageNotFoundComponent</text>
</g>
<!-- PageNotFoundComponent&#45;&gt;AppModule -->
<g id="edge23" class="edge"><title>PageNotFoundComponent&#45;&gt;AppModule</title>
<path fill="none" stroke="black" d="M769.583,-258.106C769.583,-258.106 769.583,-276.991 769.583,-276.991"/>
<polygon fill="black" stroke="black" points="766.083,-276.991 769.583,-286.991 773.083,-276.991 766.083,-276.991"/>
</g>
<!-- AppComponent  -->
<g id="node31" class="node"><title>AppComponent </title>
<polygon fill="#80b1d3" stroke="black" points="804.439,-388 695.561,-388 695.561,-352 804.439,-352 804.439,-388"/>
<text text-anchor="middle" x="750" y="-365.8" font-family="Times,serif" font-size="14.00">AppComponent </text>
</g>
<!-- AppModule&#45;&gt;AppComponent  -->
<g id="edge31" class="edge"><title>AppModule&#45;&gt;AppComponent </title>
<path fill="none" stroke="black" stroke-dasharray="1,5" d="M750,-323.106C750,-323.106 750,-341.991 750,-341.991"/>
<polygon fill="black" stroke="black" points="746.5,-341.991 750,-351.991 753.5,-341.991 746.5,-341.991"/>
</g>
<!-- BrowserModule -->
<g id="node26" class="node"><title>BrowserModule</title>
<polygon fill="#8dd3c7" stroke="black" points="723.473,-258 720.473,-262 699.473,-262 696.473,-258 616.527,-258 616.527,-222 723.473,-222 723.473,-258"/>
<text text-anchor="middle" x="670" y="-235.8" font-family="Times,serif" font-size="14.00">BrowserModule</text>
</g>
<!-- BrowserModule&#45;&gt;AppModule -->
<g id="edge24" class="edge"><title>BrowserModule&#45;&gt;AppModule</title>
<path fill="none" stroke="black" d="M715.829,-258.106C715.829,-258.106 715.829,-276.991 715.829,-276.991"/>
<polygon fill="black" stroke="black" points="712.329,-276.991 715.829,-286.991 719.329,-276.991 712.329,-276.991"/>
</g>
<!-- FormsModule -->
<g id="node27" class="node"><title>FormsModule</title>
<polygon fill="#8dd3c7" stroke="black" points="598.829,-258 595.829,-262 574.829,-262 571.829,-258 503.171,-258 503.171,-222 598.829,-222 598.829,-258"/>
<text text-anchor="middle" x="551" y="-235.8" font-family="Times,serif" font-size="14.00">FormsModule</text>
</g>
<!-- FormsModule&#45;&gt;AppModule -->
<g id="edge25" class="edge"><title>FormsModule&#45;&gt;AppModule</title>
<path fill="none" stroke="black" d="M551,-258.009C551,-274.049 551,-295 551,-295 551,-295 698.283,-295 698.283,-295"/>
<polygon fill="black" stroke="black" points="698.283,-298.5 708.283,-295 698.283,-291.5 698.283,-298.5"/>
</g>
<!-- HttpModule -->
<g id="node28" class="node"><title>HttpModule</title>
<polygon fill="#8dd3c7" stroke="black" points="485.439,-258 482.439,-262 461.439,-262 458.439,-258 400.561,-258 400.561,-222 485.439,-222 485.439,-258"/>
<text text-anchor="middle" x="443" y="-235.8" font-family="Times,serif" font-size="14.00">HttpModule</text>
</g>
<!-- HttpModule&#45;&gt;AppModule -->
<g id="edge26" class="edge"><title>HttpModule&#45;&gt;AppModule</title>
<path fill="none" stroke="black" d="M443,-258.267C443,-276.555 443,-302 443,-302 443,-302 698.277,-302 698.277,-302"/>
<polygon fill="black" stroke="black" points="698.277,-305.5 708.277,-302 698.277,-298.5 698.277,-305.5"/>
</g>
<!-- MaterialModule.forRoot() -->
<g id="node29" class="node"><title>MaterialModule.forRoot()</title>
<polygon fill="#8dd3c7" stroke="black" points="382.841,-258 379.841,-262 358.841,-262 355.841,-258 219.159,-258 219.159,-222 382.841,-222 382.841,-258"/>
<text text-anchor="middle" x="301" y="-235.8" font-family="Times,serif" font-size="14.00">MaterialModule.forRoot()</text>
</g>
<!-- MaterialModule.forRoot()&#45;&gt;AppModule -->
<g id="edge29" class="edge"><title>MaterialModule.forRoot()&#45;&gt;AppModule</title>
<path fill="none" stroke="black" d="M301,-258.129C301,-278.572 301,-309 301,-309 301,-309 698.162,-309 698.162,-309"/>
<polygon fill="black" stroke="black" points="698.162,-312.5 708.162,-309 698.162,-305.5 698.162,-312.5"/>
</g>
<!-- RouterModule.forRoot(args) -->
<g id="node30" class="node"><title>RouterModule.forRoot(args)</title>
<polygon fill="#8dd3c7" stroke="black" points="201.842,-258 198.842,-262 177.842,-262 174.842,-258 24.1581,-258 24.1581,-222 201.842,-222 201.842,-258"/>
<text text-anchor="middle" x="113" y="-235.8" font-family="Times,serif" font-size="14.00">RouterModule.forRoot(args)</text>
</g>
<!-- RouterModule.forRoot(args)&#45;&gt;AppModule -->
<g id="edge30" class="edge"><title>RouterModule.forRoot(args)&#45;&gt;AppModule</title>
<path fill="none" stroke="black" d="M113,-258.011C113,-280.485 113,-316 113,-316 113,-316 698.205,-316 698.205,-316"/>
<polygon fill="black" stroke="black" points="698.205,-319.5 708.205,-316 698.205,-312.5 698.205,-319.5"/>
</g>
</g>
</svg>
