<?xml version="1.0" encoding="UTF-8" standalone="no"?>
<!DOCTYPE svg PUBLIC "-//W3C//DTD SVG 1.1//EN"
 "http://www.w3.org/Graphics/SVG/1.1/DTD/svg11.dtd">
<!-- Generated by graphviz version 2.38.0 (20140413.2041)
 -->
<!-- Title: dependencies Pages: 1 -->
<svg width="5168pt" height="426pt"
 viewBox="0.00 0.00 5168.00 426.00" xmlns="http://www.w3.org/2000/svg" xmlns:xlink="http://www.w3.org/1999/xlink">
<g id="graph0" class="graph" transform="scale(1 1) rotate(0) translate(4 422)">
<title>dependencies</title>
<polygon fill="white" stroke="none" points="-4,4 -4,-422 5164,-422 5164,4 -4,4"/>
<text text-anchor="start" x="2559.01" y="-42.4" font-family="sans-serif" font-weight="bold" font-size="14.00">Legend</text>
<polygon fill="#ffffb3" stroke="none" points="2346,-10 2346,-30 2366,-30 2366,-10 2346,-10"/>
<text text-anchor="start" x="2369.63" y="-15.4" font-family="sans-serif" font-size="14.00"> &#160;Declarations</text>
<polygon fill="#8dd3c7" stroke="none" points="2459,-10 2459,-30 2479,-30 2479,-10 2459,-10"/>
<text text-anchor="start" x="2482.73" y="-15.4" font-family="sans-serif" font-size="14.00"> &#160;Module</text>
<polygon fill="#80b1d3" stroke="none" points="2545,-10 2545,-30 2565,-30 2565,-10 2545,-10"/>
<text text-anchor="start" x="2568.78" y="-15.4" font-family="sans-serif" font-size="14.00"> &#160;Bootstrap</text>
<polygon fill="#fdb462" stroke="none" points="2642,-10 2642,-30 2662,-30 2662,-10 2642,-10"/>
<text text-anchor="start" x="2665.67" y="-15.4" font-family="sans-serif" font-size="14.00"> &#160;Providers</text>
<polygon fill="#fb8072" stroke="none" points="2738,-10 2738,-30 2758,-30 2758,-10 2738,-10"/>
<text text-anchor="start" x="2761.73" y="-15.4" font-family="sans-serif" font-size="14.00"> &#160;Exports</text>
<g id="clust1" class="cluster"><title>cluster_LectureModule</title>
<polygon fill="none" stroke="black" stroke-dasharray="1,5" points="1464,-138 1464,-266 2314,-266 2314,-138 1464,-138"/>
</g>
<g id="clust2" class="cluster"><title>cluster_LectureModule_declarations</title>
<polygon fill="none" stroke="black" points="1794,-146 1794,-198 2306,-198 2306,-146 1794,-146"/>
</g>
<g id="clust6" class="cluster"><title>cluster_LectureModule_imports</title>
<polygon fill="none" stroke="black" points="1472,-146 1472,-198 1786,-198 1786,-146 1472,-146"/>
</g>
<g id="clust10" class="cluster"><title>cluster_LayoutModule</title>
<polygon fill="none" stroke="black" stroke-dasharray="1,5" points="4186,-70 4186,-274 5152,-274 5152,-70 4186,-70"/>
</g>
<g id="clust11" class="cluster"><title>cluster_LayoutModule_declarations</title>
<polygon fill="none" stroke="black" points="4446,-78 4446,-130 5144,-130 5144,-78 4446,-78"/>
</g>
<g id="clust17" class="cluster"><title>cluster_LayoutModule_imports</title>
<polygon fill="none" stroke="black" points="4194,-78 4194,-130 4438,-130 4438,-78 4194,-78"/>
</g>
<g id="clust18" class="cluster"><title>cluster_LayoutModule_exports</title>
<polygon fill="none" stroke="black" points="4512,-214 4512,-266 4652,-266 4652,-214 4512,-214"/>
</g>
<g id="clust21" class="cluster"><title>cluster_SharedModule</title>
<polygon fill="none" stroke="black" stroke-dasharray="1,5" points="198,-206 198,-274 1456,-274 1456,-206 198,-206"/>
</g>
<g id="clust22" class="cluster"><title>cluster_SharedModule_declarations</title>
<polygon fill="none" stroke="black" points="1073,-214 1073,-266 1448,-266 1448,-214 1073,-214"/>
</g>
<g id="clust26" class="cluster"><title>cluster_SharedModule_imports</title>
<polygon fill="none" stroke="black" points="961,-214 961,-266 1065,-266 1065,-214 961,-214"/>
</g>
<g id="clust27" class="cluster"><title>cluster_SharedModule_exports</title>
<polygon fill="none" stroke="black" points="206,-214 206,-266 953,-266 953,-214 206,-214"/>
</g>
<g id="clust30" class="cluster"><title>cluster_BookmarksModule</title>
<polygon fill="none" stroke="black" stroke-dasharray="1,5" points="8,-138 8,-342 190,-342 190,-138 8,-138"/>
</g>
<g id="clust31" class="cluster"><title>cluster_BookmarksModule_declarations</title>
<polygon fill="none" stroke="black" points="20,-146 20,-198 182,-198 182,-146 20,-146"/>
</g>
<g id="clust34" class="cluster"><title>cluster_BookmarksModule_exports</title>
<polygon fill="none" stroke="black" points="16,-282 16,-334 182,-334 182,-282 16,-282"/>
</g>
<g id="clust37" class="cluster"><title>cluster_ArticleModule</title>
<polygon fill="none" stroke="black" stroke-dasharray="1,5" points="2322,-138 2322,-266 2838,-266 2838,-138 2322,-138"/>
</g>
<g id="clust38" class="cluster"><title>cluster_ArticleModule_declarations</title>
<polygon fill="none" stroke="black" points="2330,-146 2330,-198 2830,-198 2830,-146 2330,-146"/>
</g>
<g id="clust46" class="cluster"><title>cluster_AppModule</title>
<polygon fill="none" stroke="black" stroke-dasharray="1,5" points="2868,-206 2868,-410 4178,-410 4178,-206 2868,-206"/>
</g>
<g id="clust47" class="cluster"><title>cluster_AppModule_declarations</title>
<polygon fill="none" stroke="black" points="3732,-214 3732,-266 4170,-266 4170,-214 3732,-214"/>
</g>
<g id="clust51" class="cluster"><title>cluster_AppModule_imports</title>
<polygon fill="none" stroke="black" points="3190,-214 3190,-266 3724,-266 3724,-214 3190,-214"/>
</g>
<g id="clust53" class="cluster"><title>cluster_AppModule_bootstrap</title>
<polygon fill="none" stroke="black" points="3225,-350 3225,-402 3349,-402 3349,-350 3225,-350"/>
</g>
<g id="clust54" class="cluster"><title>cluster_AppModule_providers</title>
<polygon fill="none" stroke="black" points="2876,-214 2876,-266 3182,-266 3182,-214 2876,-214"/>
</g>
<!-- LectureListComponent -->
<g id="node1" class="node"><title>LectureListComponent</title>
<polygon fill="#ffffb3" stroke="black" points="2115.86,-190 1970.14,-190 1970.14,-154 2115.86,-154 2115.86,-190"/>
<text text-anchor="middle" x="2043" y="-167.8" font-family="Times,serif" font-size="14.00">LectureListComponent</text>
</g>
<!-- LectureModule -->
<g id="node4" class="node"><title>LectureModule</title>
<polygon fill="#8dd3c7" stroke="black" points="2011.3,-258 2008.3,-262 1987.3,-262 1984.3,-258 1908.7,-258 1908.7,-222 2011.3,-222 2011.3,-258"/>
<text text-anchor="middle" x="1960" y="-235.8" font-family="Times,serif" font-size="14.00">LectureModule</text>
</g>
<!-- LectureListComponent&#45;&gt;LectureModule -->
<g id="edge1" class="edge"><title>LectureListComponent&#45;&gt;LectureModule</title>
<path fill="none" stroke="black" d="M1990.61,-190.223C1990.61,-190.223 1990.61,-211.727 1990.61,-211.727"/>
<polygon fill="black" stroke="black" points="1987.11,-211.727 1990.61,-221.727 1994.11,-211.727 1987.11,-211.727"/>
</g>
<!-- LectureItemComponent -->
<g id="node2" class="node"><title>LectureItemComponent</title>
<polygon fill="#ffffb3" stroke="black" points="1951.74,-190 1802.26,-190 1802.26,-154 1951.74,-154 1951.74,-190"/>
<text text-anchor="middle" x="1877" y="-167.8" font-family="Times,serif" font-size="14.00">LectureItemComponent</text>
</g>
<!-- LectureItemComponent&#45;&gt;LectureModule -->
<g id="edge2" class="edge"><title>LectureItemComponent&#45;&gt;LectureModule</title>
<path fill="none" stroke="black" d="M1930.36,-190.223C1930.36,-190.223 1930.36,-211.727 1930.36,-211.727"/>
<polygon fill="black" stroke="black" points="1926.86,-211.727 1930.36,-221.727 1933.86,-211.727 1926.86,-211.727"/>
</g>
<!-- LectureDetailsComponent -->
<g id="node3" class="node"><title>LectureDetailsComponent</title>
<polygon fill="#ffffb3" stroke="black" points="2297.73,-190 2134.27,-190 2134.27,-154 2297.73,-154 2297.73,-190"/>
<text text-anchor="middle" x="2216" y="-167.8" font-family="Times,serif" font-size="14.00">LectureDetailsComponent</text>
</g>
<!-- LectureDetailsComponent&#45;&gt;LectureModule -->
<g id="edge3" class="edge"><title>LectureDetailsComponent&#45;&gt;LectureModule</title>
<path fill="none" stroke="black" d="M2216,-190.223C2216,-210.365 2216,-240 2216,-240 2216,-240 2021.19,-240 2021.19,-240"/>
<polygon fill="black" stroke="black" points="2021.19,-236.5 2011.19,-240 2021.19,-243.5 2021.19,-236.5"/>
</g>
<!-- AppModule -->
<g id="node36" class="node"><title>AppModule</title>
<polygon fill="#8dd3c7" stroke="black" points="3328.66,-326 3325.66,-330 3304.66,-330 3301.66,-326 3245.34,-326 3245.34,-290 3328.66,-290 3328.66,-326"/>
<text text-anchor="middle" x="3287" y="-303.8" font-family="Times,serif" font-size="14.00">AppModule</text>
</g>
<!-- LectureModule&#45;&gt;AppModule -->
<g id="edge42" class="edge"><title>LectureModule&#45;&gt;AppModule</title>
<path fill="none" stroke="black" d="M1960,-258.292C1960,-280.206 1960,-314 1960,-314 1960,-314 3235.09,-314 3235.09,-314"/>
<polygon fill="black" stroke="black" points="3235.09,-317.5 3245.09,-314 3235.09,-310.5 3235.09,-317.5"/>
</g>
<!-- SharedModule -->
<g id="node5" class="node"><title>SharedModule</title>
<polygon fill="#8dd3c7" stroke="black" points="1578.42,-190 1575.42,-194 1554.42,-194 1551.42,-190 1479.58,-190 1479.58,-154 1578.42,-154 1578.42,-190"/>
<text text-anchor="middle" x="1529" y="-167.8" font-family="Times,serif" font-size="14.00">SharedModule</text>
</g>
<!-- SharedModule&#45;&gt;LectureModule -->
<g id="edge4" class="edge"><title>SharedModule&#45;&gt;LectureModule</title>
<path fill="none" stroke="black" d="M1553.61,-190.223C1553.61,-210.365 1553.61,-240 1553.61,-240 1553.61,-240 1898.53,-240 1898.53,-240"/>
<polygon fill="black" stroke="black" points="1898.53,-243.5 1908.53,-240 1898.53,-236.5 1898.53,-243.5"/>
</g>
<!-- CommonModule  -->
<g id="node20" class="node"><title>CommonModule </title>
<polygon fill="#fb8072" stroke="black" points="944.668,-258 829.332,-258 829.332,-222 944.668,-222 944.668,-258"/>
<text text-anchor="middle" x="887" y="-235.8" font-family="Times,serif" font-size="14.00">CommonModule </text>
</g>
<!-- SharedModule&#45;&gt;CommonModule  -->
<g id="edge20" class="edge"><title>SharedModule&#45;&gt;CommonModule </title>
<path fill="none" stroke="black" stroke-dasharray="5,2" d="M1479.69,-176C1329.36,-176 887,-176 887,-176 887,-176 887,-211.831 887,-211.831"/>
<polygon fill="black" stroke="black" points="883.5,-211.831 887,-221.831 890.5,-211.831 883.5,-211.831"/>
</g>
<!-- RouterModule  -->
<g id="node21" class="node"><title>RouterModule </title>
<polygon fill="#fb8072" stroke="black" points="811.652,-258 710.348,-258 710.348,-222 811.652,-222 811.652,-258"/>
<text text-anchor="middle" x="761" y="-235.8" font-family="Times,serif" font-size="14.00">RouterModule </text>
</g>
<!-- SharedModule&#45;&gt;RouterModule  -->
<g id="edge21" class="edge"><title>SharedModule&#45;&gt;RouterModule </title>
<path fill="none" stroke="black" stroke-dasharray="5,2" d="M1479.5,-172C1309.65,-172 761,-172 761,-172 761,-172 761,-211.777 761,-211.777"/>
<polygon fill="black" stroke="black" points="757.5,-211.777 761,-221.777 764.5,-211.777 757.5,-211.777"/>
</g>
<!-- PaginationComponent  -->
<g id="node22" class="node"><title>PaginationComponent </title>
<polygon fill="#fb8072" stroke="black" points="692.216,-258 547.784,-258 547.784,-222 692.216,-222 692.216,-258"/>
<text text-anchor="middle" x="620" y="-235.8" font-family="Times,serif" font-size="14.00">PaginationComponent </text>
</g>
<!-- SharedModule&#45;&gt;PaginationComponent  -->
<g id="edge22" class="edge"><title>SharedModule&#45;&gt;PaginationComponent </title>
<path fill="none" stroke="black" stroke-dasharray="5,2" d="M1479.48,-169C1289.79,-169 620,-169 620,-169 620,-169 620,-211.716 620,-211.716"/>
<polygon fill="black" stroke="black" points="616.5,-211.716 620,-221.716 623.5,-211.716 616.5,-211.716"/>
</g>
<!-- TruncatePipe  -->
<g id="node23" class="node"><title>TruncatePipe </title>
<polygon fill="#fb8072" stroke="black" points="530.135,-258 435.865,-258 435.865,-222 530.135,-222 530.135,-258"/>
<text text-anchor="middle" x="483" y="-235.8" font-family="Times,serif" font-size="14.00">TruncatePipe </text>
</g>
<!-- SharedModule&#45;&gt;TruncatePipe  -->
<g id="edge23" class="edge"><title>SharedModule&#45;&gt;TruncatePipe </title>
<path fill="none" stroke="black" stroke-dasharray="5,2" d="M1479.6,-165C1272.27,-165 483,-165 483,-165 483,-165 483,-211.845 483,-211.845"/>
<polygon fill="black" stroke="black" points="479.5,-211.845 483,-221.845 486.5,-211.845 479.5,-211.845"/>
</g>
<!-- StringifyPipe  -->
<g id="node24" class="node"><title>StringifyPipe </title>
<polygon fill="#fb8072" stroke="black" points="418.164,-258 323.836,-258 323.836,-222 418.164,-222 418.164,-258"/>
<text text-anchor="middle" x="371" y="-235.8" font-family="Times,serif" font-size="14.00">StringifyPipe </text>
</g>
<!-- SharedModule&#45;&gt;StringifyPipe  -->
<g id="edge24" class="edge"><title>SharedModule&#45;&gt;StringifyPipe </title>
<path fill="none" stroke="black" stroke-dasharray="5,2" d="M1479.61,-162C1258.58,-162 371,-162 371,-162 371,-162 371,-211.909 371,-211.909"/>
<polygon fill="black" stroke="black" points="367.5,-211.909 371,-221.909 374.5,-211.909 367.5,-211.909"/>
</g>
<!-- BusyModule  -->
<g id="node25" class="node"><title>BusyModule </title>
<polygon fill="#fb8072" stroke="black" points="305.831,-258 214.169,-258 214.169,-222 305.831,-222 305.831,-258"/>
<text text-anchor="middle" x="260" y="-235.8" font-family="Times,serif" font-size="14.00">BusyModule </text>
</g>
<!-- SharedModule&#45;&gt;BusyModule  -->
<g id="edge25" class="edge"><title>SharedModule&#45;&gt;BusyModule </title>
<path fill="none" stroke="black" stroke-dasharray="5,2" d="M1479.64,-158C1245.73,-158 260,-158 260,-158 260,-158 260,-211.802 260,-211.802"/>
<polygon fill="black" stroke="black" points="256.5,-211.802 260,-221.802 263.5,-211.802 256.5,-211.802"/>
</g>
<!-- ArticleModule -->
<g id="node32" class="node"><title>ArticleModule</title>
<polygon fill="#8dd3c7" stroke="black" points="2541.42,-258 2538.42,-262 2517.42,-262 2514.42,-258 2442.58,-258 2442.58,-222 2541.42,-222 2541.42,-258"/>
<text text-anchor="middle" x="2492" y="-235.8" font-family="Times,serif" font-size="14.00">ArticleModule</text>
</g>
<!-- SharedModule&#45;&gt;ArticleModule -->
<g id="edge33" class="edge"><title>SharedModule&#45;&gt;ArticleModule</title>
<path fill="none" stroke="black" d="M1504.39,-190.056C1504.39,-201.439 1504.39,-214 1504.39,-214 1504.39,-214 2453.08,-214 2453.08,-214 2453.08,-214 2453.08,-214.794 2453.08,-214.794"/>
<polygon fill="black" stroke="black" points="2449.58,-211.942 2453.08,-221.942 2456.58,-211.942 2449.58,-211.942"/>
</g>
<!-- RouterModule.forChild(args) -->
<g id="node6" class="node"><title>RouterModule.forChild(args)</title>
<polygon fill="#8dd3c7" stroke="black" points="1777.73,-190 1774.73,-194 1753.73,-194 1750.73,-190 1596.27,-190 1596.27,-154 1777.73,-154 1777.73,-190"/>
<text text-anchor="middle" x="1687" y="-167.8" font-family="Times,serif" font-size="14.00">RouterModule.forChild(args)</text>
</g>
<!-- RouterModule.forChild(args)&#45;&gt;LectureModule -->
<g id="edge5" class="edge"><title>RouterModule.forChild(args)&#45;&gt;LectureModule</title>
<path fill="none" stroke="black" d="M1732.31,-190.023C1732.31,-207.373 1732.31,-231 1732.31,-231 1732.31,-231 1898.62,-231 1898.62,-231"/>
<polygon fill="black" stroke="black" points="1898.62,-234.5 1908.62,-231 1898.62,-227.5 1898.62,-234.5"/>
</g>
<!-- BookmarksModule -->
<g id="node27" class="node"><title>BookmarksModule</title>
<polygon fill="#8dd3c7" stroke="black" points="182.097,-258 179.097,-262 158.097,-262 155.097,-258 57.9032,-258 57.9032,-222 182.097,-222 182.097,-258"/>
<text text-anchor="middle" x="120" y="-235.8" font-family="Times,serif" font-size="14.00">BookmarksModule</text>
</g>
<!-- RouterModule.forChild(args)&#45;&gt;BookmarksModule -->
<g id="edge28" class="edge"><title>RouterModule.forChild(args)&#45;&gt;BookmarksModule</title>
<path fill="none" stroke="black" d="M1641.69,-190.058C1641.69,-194.495 1641.69,-198 1641.69,-198 1641.69,-198 179.345,-198 179.345,-198 179.345,-198 179.345,-211.944 179.345,-211.944"/>
<polygon fill="black" stroke="black" points="175.846,-211.944 179.345,-221.944 182.846,-211.945 175.846,-211.944"/>
</g>
<!-- RouterModule.forChild(args)&#45;&gt;ArticleModule -->
<g id="edge34" class="edge"><title>RouterModule.forChild(args)&#45;&gt;ArticleModule</title>
<path fill="none" stroke="black" d="M1687,-190.194C1687,-198.278 1687,-206 1687,-206 1687,-206 2463.36,-206 2463.36,-206 2463.36,-206 2463.36,-211.806 2463.36,-211.806"/>
<polygon fill="black" stroke="black" points="2459.86,-211.806 2463.36,-221.806 2466.86,-211.806 2459.86,-211.806"/>
</g>
<!-- LayoutComponent -->
<g id="node7" class="node"><title>LayoutComponent</title>
<polygon fill="#ffffb3" stroke="black" points="4574.49,-122 4453.51,-122 4453.51,-86 4574.49,-86 4574.49,-122"/>
<text text-anchor="middle" x="4514" y="-99.8" font-family="Times,serif" font-size="14.00">LayoutComponent</text>
</g>
<!-- LayoutModule -->
<g id="node12" class="node"><title>LayoutModule</title>
<polygon fill="#8dd3c7" stroke="black" points="4631.71,-190 4628.71,-194 4607.71,-194 4604.71,-190 4532.29,-190 4532.29,-154 4631.71,-154 4631.71,-190"/>
<text text-anchor="middle" x="4582" y="-167.8" font-family="Times,serif" font-size="14.00">LayoutModule</text>
</g>
<!-- LayoutComponent&#45;&gt;LayoutModule -->
<g id="edge6" class="edge"><title>LayoutComponent&#45;&gt;LayoutModule</title>
<path fill="none" stroke="black" d="M4553.45,-122.223C4553.45,-122.223 4553.45,-143.727 4553.45,-143.727"/>
<polygon fill="black" stroke="black" points="4549.95,-143.727 4553.45,-153.727 4556.95,-143.727 4549.95,-143.727"/>
</g>
<!-- SidebarComponent -->
<g id="node8" class="node"><title>SidebarComponent</title>
<polygon fill="#ffffb3" stroke="black" points="5136.1,-122 5011.9,-122 5011.9,-86 5136.1,-86 5136.1,-122"/>
<text text-anchor="middle" x="5074" y="-99.8" font-family="Times,serif" font-size="14.00">SidebarComponent</text>
</g>
<!-- SidebarComponent&#45;&gt;LayoutModule -->
<g id="edge7" class="edge"><title>SidebarComponent&#45;&gt;LayoutModule</title>
<path fill="none" stroke="black" d="M5074,-122.248C5074,-145.018 5074,-181 5074,-181 5074,-181 4641.88,-181 4641.88,-181"/>
<polygon fill="black" stroke="black" points="4641.88,-177.5 4631.88,-181 4641.88,-184.5 4641.88,-177.5"/>
</g>
<!-- HeaderComponent -->
<g id="node9" class="node"><title>HeaderComponent</title>
<polygon fill="#ffffb3" stroke="black" points="4993.74,-122 4872.26,-122 4872.26,-86 4993.74,-86 4993.74,-122"/>
<text text-anchor="middle" x="4933" y="-99.8" font-family="Times,serif" font-size="14.00">HeaderComponent</text>
</g>
<!-- HeaderComponent&#45;&gt;LayoutModule -->
<g id="edge8" class="edge"><title>HeaderComponent&#45;&gt;LayoutModule</title>
<path fill="none" stroke="black" d="M4933,-122.223C4933,-142.365 4933,-172 4933,-172 4933,-172 4641.92,-172 4641.92,-172"/>
<polygon fill="black" stroke="black" points="4641.92,-168.5 4631.92,-172 4641.92,-175.5 4641.92,-168.5"/>
</g>
<!-- ContentComponent -->
<g id="node10" class="node"><title>ContentComponent</title>
<polygon fill="#ffffb3" stroke="black" points="4853.67,-122 4728.33,-122 4728.33,-86 4853.67,-86 4853.67,-122"/>
<text text-anchor="middle" x="4791" y="-99.8" font-family="Times,serif" font-size="14.00">ContentComponent</text>
</g>
<!-- ContentComponent&#45;&gt;LayoutModule -->
<g id="edge9" class="edge"><title>ContentComponent&#45;&gt;LayoutModule</title>
<path fill="none" stroke="black" d="M4791,-122.023C4791,-139.373 4791,-163 4791,-163 4791,-163 4641.8,-163 4641.8,-163"/>
<polygon fill="black" stroke="black" points="4641.8,-159.5 4631.8,-163 4641.8,-166.5 4641.8,-159.5"/>
</g>
<!-- FooterComponent -->
<g id="node11" class="node"><title>FooterComponent</title>
<polygon fill="#ffffb3" stroke="black" points="4709.88,-122 4592.12,-122 4592.12,-86 4709.88,-86 4709.88,-122"/>
<text text-anchor="middle" x="4651" y="-99.8" font-family="Times,serif" font-size="14.00">FooterComponent</text>
</g>
<!-- FooterComponent&#45;&gt;LayoutModule -->
<g id="edge10" class="edge"><title>FooterComponent&#45;&gt;LayoutModule</title>
<path fill="none" stroke="black" d="M4611.83,-122.223C4611.83,-122.223 4611.83,-143.727 4611.83,-143.727"/>
<polygon fill="black" stroke="black" points="4608.33,-143.727 4611.83,-153.727 4615.33,-143.727 4608.33,-143.727"/>
</g>
<!-- LayoutComponent  -->
<g id="node15" class="node"><title>LayoutComponent </title>
<polygon fill="#fb8072" stroke="black" points="4644.49,-258 4519.51,-258 4519.51,-222 4644.49,-222 4644.49,-258"/>
<text text-anchor="middle" x="4582" y="-235.8" font-family="Times,serif" font-size="14.00">LayoutComponent </text>
</g>
<!-- LayoutModule&#45;&gt;LayoutComponent  -->
<g id="edge13" class="edge"><title>LayoutModule&#45;&gt;LayoutComponent </title>
<path fill="none" stroke="black" stroke-dasharray="5,2" d="M4582,-190.223C4582,-190.223 4582,-211.727 4582,-211.727"/>
<polygon fill="black" stroke="black" points="4578.5,-211.727 4582,-221.727 4585.5,-211.727 4578.5,-211.727"/>
</g>
<!-- LayoutModule&#45;&gt;AppModule -->
<g id="edge41" class="edge"><title>LayoutModule&#45;&gt;AppModule</title>
<path fill="none" stroke="black" d="M4532.13,-181C4491.79,-181 4441.67,-181 4441.67,-181 4441.67,-181 4441.67,-322 4441.67,-322 4441.67,-322 3338.78,-322 3338.78,-322"/>
<polygon fill="black" stroke="black" points="3338.78,-318.5 3328.78,-322 3338.78,-325.5 3338.78,-318.5"/>
</g>
<!-- CommonModule -->
<g id="node13" class="node"><title>CommonModule</title>
<polygon fill="#8dd3c7" stroke="black" points="4313.67,-122 4310.67,-126 4289.67,-126 4286.67,-122 4202.33,-122 4202.33,-86 4313.67,-86 4313.67,-122"/>
<text text-anchor="middle" x="4258" y="-99.8" font-family="Times,serif" font-size="14.00">CommonModule</text>
</g>
<!-- CommonModule&#45;&gt;SharedModule -->
<g id="edge17" class="edge"><title>CommonModule&#45;&gt;SharedModule</title>
<path fill="none" stroke="black" d="M4202.23,-110C3812.54,-110 1512.6,-110 1512.6,-110 1512.6,-110 1512.6,-143.733 1512.6,-143.733"/>
<polygon fill="black" stroke="black" points="1509.1,-143.733 1512.6,-153.733 1516.1,-143.733 1509.1,-143.733"/>
</g>
<!-- CommonModule&#45;&gt;LayoutModule -->
<g id="edge11" class="edge"><title>CommonModule&#45;&gt;LayoutModule</title>
<path fill="none" stroke="black" d="M4258,-122.223C4258,-142.365 4258,-172 4258,-172 4258,-172 4522.09,-172 4522.09,-172"/>
<polygon fill="black" stroke="black" points="4522.09,-175.5 4532.09,-172 4522.09,-168.5 4522.09,-175.5"/>
</g>
<!-- CommonModule&#45;&gt;BookmarksModule -->
<g id="edge27" class="edge"><title>CommonModule&#45;&gt;BookmarksModule</title>
<path fill="none" stroke="black" d="M4202.24,-98C3713.51,-98 176.643,-98 176.643,-98 176.643,-98 176.643,-211.727 176.643,-211.727"/>
<polygon fill="black" stroke="black" points="173.143,-211.727 176.643,-221.727 180.143,-211.727 173.143,-211.727"/>
</g>
<!-- RouterModule -->
<g id="node14" class="node"><title>RouterModule</title>
<polygon fill="#8dd3c7" stroke="black" points="4429.65,-122 4426.65,-126 4405.65,-126 4402.65,-122 4332.35,-122 4332.35,-86 4429.65,-86 4429.65,-122"/>
<text text-anchor="middle" x="4381" y="-99.8" font-family="Times,serif" font-size="14.00">RouterModule</text>
</g>
<!-- RouterModule&#45;&gt;SharedModule -->
<g id="edge18" class="edge"><title>RouterModule&#45;&gt;SharedModule</title>
<path fill="none" stroke="black" d="M4364.72,-122.194C4364.72,-130.278 4364.72,-138 4364.72,-138 4364.72,-138 1545.4,-138 1545.4,-138 1545.4,-138 1545.4,-143.806 1545.4,-143.806"/>
<polygon fill="black" stroke="black" points="1541.9,-143.806 1545.4,-153.806 1548.9,-143.806 1541.9,-143.806"/>
</g>
<!-- RouterModule&#45;&gt;LayoutModule -->
<g id="edge12" class="edge"><title>RouterModule&#45;&gt;LayoutModule</title>
<path fill="none" stroke="black" d="M4397.28,-122.023C4397.28,-139.373 4397.28,-163 4397.28,-163 4397.28,-163 4522.01,-163 4522.01,-163"/>
<polygon fill="black" stroke="black" points="4522.01,-166.5 4532.01,-163 4522.01,-159.5 4522.01,-166.5"/>
</g>
<!-- PaginationComponent -->
<g id="node16" class="node"><title>PaginationComponent</title>
<polygon fill="#ffffb3" stroke="black" points="1439.72,-258 1298.28,-258 1298.28,-222 1439.72,-222 1439.72,-258"/>
<text text-anchor="middle" x="1369" y="-235.8" font-family="Times,serif" font-size="14.00">PaginationComponent</text>
</g>
<!-- PaginationComponent&#45;&gt;SharedModule -->
<g id="edge14" class="edge"><title>PaginationComponent&#45;&gt;SharedModule</title>
<path fill="none" stroke="black" d="M1439.64,-249C1482.51,-249 1529,-249 1529,-249 1529,-249 1529,-200.248 1529,-200.248"/>
<polygon fill="black" stroke="black" points="1532.5,-200.248 1529,-190.248 1525.5,-200.248 1532.5,-200.248"/>
</g>
<!-- TruncatePipe -->
<g id="node17" class="node"><title>TruncatePipe</title>
<polygon fill="#ffffb3" stroke="black" points="1280.14,-258 1189.86,-258 1189.86,-222 1280.14,-222 1280.14,-258"/>
<text text-anchor="middle" x="1235" y="-235.8" font-family="Times,serif" font-size="14.00">TruncatePipe</text>
</g>
<!-- TruncatePipe&#45;&gt;SharedModule -->
<g id="edge15" class="edge"><title>TruncatePipe&#45;&gt;SharedModule</title>
<path fill="none" stroke="black" d="M1235,-221.76C1235,-206.429 1235,-187 1235,-187 1235,-187 1469.46,-187 1469.46,-187"/>
<polygon fill="black" stroke="black" points="1469.46,-190.5 1479.46,-187 1469.46,-183.5 1469.46,-190.5"/>
</g>
<!-- StringifyPipe -->
<g id="node18" class="node"><title>StringifyPipe</title>
<polygon fill="#ffffb3" stroke="black" points="1171.16,-258 1080.84,-258 1080.84,-222 1171.16,-222 1171.16,-258"/>
<text text-anchor="middle" x="1126" y="-235.8" font-family="Times,serif" font-size="14.00">StringifyPipe</text>
</g>
<!-- StringifyPipe&#45;&gt;SharedModule -->
<g id="edge16" class="edge"><title>StringifyPipe&#45;&gt;SharedModule</title>
<path fill="none" stroke="black" d="M1126,-221.965C1126,-205.266 1126,-183 1126,-183 1126,-183 1469.58,-183 1469.58,-183"/>
<polygon fill="black" stroke="black" points="1469.58,-186.5 1479.58,-183 1469.58,-179.5 1469.58,-186.5"/>
</g>
<!-- BusyModule -->
<g id="node19" class="node"><title>BusyModule</title>
<polygon fill="#8dd3c7" stroke="black" points="1057.33,-258 1054.33,-262 1033.33,-262 1030.33,-258 968.668,-258 968.668,-222 1057.33,-222 1057.33,-258"/>
<text text-anchor="middle" x="1013" y="-235.8" font-family="Times,serif" font-size="14.00">BusyModule</text>
</g>
<!-- BusyModule&#45;&gt;SharedModule -->
<g id="edge19" class="edge"><title>BusyModule&#45;&gt;SharedModule</title>
<path fill="none" stroke="black" d="M1013,-221.998C1013,-204.325 1013,-180 1013,-180 1013,-180 1469.52,-180 1469.52,-180"/>
<polygon fill="black" stroke="black" points="1469.52,-183.5 1479.52,-180 1469.52,-176.5 1469.52,-183.5"/>
</g>
<!-- BookmarksComponent -->
<g id="node26" class="node"><title>BookmarksComponent</title>
<polygon fill="#ffffb3" stroke="black" points="173.879,-190 28.1206,-190 28.1206,-154 173.879,-154 173.879,-190"/>
<text text-anchor="middle" x="101" y="-167.8" font-family="Times,serif" font-size="14.00">BookmarksComponent</text>
</g>
<!-- BookmarksComponent&#45;&gt;BookmarksModule -->
<g id="edge26" class="edge"><title>BookmarksComponent&#45;&gt;BookmarksModule</title>
<path fill="none" stroke="black" d="M115.946,-190.223C115.946,-190.223 115.946,-211.727 115.946,-211.727"/>
<polygon fill="black" stroke="black" points="112.446,-211.727 115.946,-221.727 119.446,-211.727 112.446,-211.727"/>
</g>
<!-- BookmarksComponent  -->
<g id="node28" class="node"><title>BookmarksComponent </title>
<polygon fill="#fb8072" stroke="black" points="173.88,-326 24.1201,-326 24.1201,-290 173.88,-290 173.88,-326"/>
<text text-anchor="middle" x="99" y="-303.8" font-family="Times,serif" font-size="14.00">BookmarksComponent </text>
</g>
<!-- BookmarksModule&#45;&gt;BookmarksComponent  -->
<g id="edge29" class="edge"><title>BookmarksModule&#45;&gt;BookmarksComponent </title>
<path fill="none" stroke="black" stroke-dasharray="5,2" d="M115.821,-258.223C115.821,-258.223 115.821,-279.727 115.821,-279.727"/>
<polygon fill="black" stroke="black" points="112.321,-279.727 115.821,-289.727 119.321,-279.727 112.321,-279.727"/>
</g>
<!-- BookmarksModule&#45;&gt;AppModule -->
<g id="edge44" class="edge"><title>BookmarksModule&#45;&gt;AppModule</title>
<path fill="none" stroke="black" d="M177.869,-258.153C177.869,-281.757 177.869,-320 177.869,-320 177.869,-320 3235.11,-320 3235.11,-320"/>
<polygon fill="black" stroke="black" points="3235.11,-323.5 3245.11,-320 3235.11,-316.5 3235.11,-323.5"/>
</g>
<!-- ArticleListComponent -->
<g id="node29" class="node"><title>ArticleListComponent</title>
<polygon fill="#ffffb3" stroke="black" points="2643.98,-190 2502.02,-190 2502.02,-154 2643.98,-154 2643.98,-190"/>
<text text-anchor="middle" x="2573" y="-167.8" font-family="Times,serif" font-size="14.00">ArticleListComponent</text>
</g>
<!-- ArticleListComponent&#45;&gt;ArticleModule -->
<g id="edge30" class="edge"><title>ArticleListComponent&#45;&gt;ArticleModule</title>
<path fill="none" stroke="black" d="M2521.61,-190.223C2521.61,-190.223 2521.61,-211.727 2521.61,-211.727"/>
<polygon fill="black" stroke="black" points="2518.11,-211.727 2521.61,-221.727 2525.11,-211.727 2518.11,-211.727"/>
</g>
<!-- ArticleItemComponent -->
<g id="node30" class="node"><title>ArticleItemComponent</title>
<polygon fill="#ffffb3" stroke="black" points="2483.86,-190 2338.14,-190 2338.14,-154 2483.86,-154 2483.86,-190"/>
<text text-anchor="middle" x="2411" y="-167.8" font-family="Times,serif" font-size="14.00">ArticleItemComponent</text>
</g>
<!-- ArticleItemComponent&#45;&gt;ArticleModule -->
<g id="edge31" class="edge"><title>ArticleItemComponent&#45;&gt;ArticleModule</title>
<path fill="none" stroke="black" d="M2473.64,-190.223C2473.64,-190.223 2473.64,-211.727 2473.64,-211.727"/>
<polygon fill="black" stroke="black" points="2470.14,-211.727 2473.64,-221.727 2477.14,-211.727 2470.14,-211.727"/>
</g>
<!-- ArticleDetailsComponent -->
<g id="node31" class="node"><title>ArticleDetailsComponent</title>
<polygon fill="#ffffb3" stroke="black" points="2821.85,-190 2662.15,-190 2662.15,-154 2821.85,-154 2821.85,-190"/>
<text text-anchor="middle" x="2742" y="-167.8" font-family="Times,serif" font-size="14.00">ArticleDetailsComponent</text>
</g>
<!-- ArticleDetailsComponent&#45;&gt;ArticleModule -->
<g id="edge32" class="edge"><title>ArticleDetailsComponent&#45;&gt;ArticleModule</title>
<path fill="none" stroke="black" d="M2742,-190.223C2742,-210.365 2742,-240 2742,-240 2742,-240 2551.39,-240 2551.39,-240"/>
<polygon fill="black" stroke="black" points="2551.39,-236.5 2541.39,-240 2551.39,-243.5 2551.39,-236.5"/>
</g>
<!-- ArticleModule&#45;&gt;AppModule -->
<g id="edge43" class="edge"><title>ArticleModule&#45;&gt;AppModule</title>
<path fill="none" stroke="black" d="M2492,-258.223C2492,-278.365 2492,-308 2492,-308 2492,-308 3235.1,-308 3235.1,-308"/>
<polygon fill="black" stroke="black" points="3235.1,-311.5 3245.1,-308 3235.1,-304.5 3235.1,-311.5"/>
</g>
<!-- AppComponent -->
<g id="node33" class="node"><title>AppComponent</title>
<polygon fill="#ffffb3" stroke="black" points="4161.94,-258 4056.06,-258 4056.06,-222 4161.94,-222 4161.94,-258"/>
<text text-anchor="middle" x="4109" y="-235.8" font-family="Times,serif" font-size="14.00">AppComponent</text>
</g>
<!-- AppComponent&#45;&gt;AppModule -->
<g id="edge35" class="edge"><title>AppComponent&#45;&gt;AppModule</title>
<path fill="none" stroke="black" d="M4109,-258.248C4109,-281.018 4109,-317 4109,-317 4109,-317 3338.89,-317 3338.89,-317"/>
<polygon fill="black" stroke="black" points="3338.89,-313.5 3328.89,-317 3338.89,-320.5 3338.89,-313.5"/>
</g>
<!-- HomeComponent -->
<g id="node34" class="node"><title>HomeComponent</title>
<polygon fill="#ffffb3" stroke="black" points="4038.55,-258 3923.45,-258 3923.45,-222 4038.55,-222 4038.55,-258"/>
<text text-anchor="middle" x="3981" y="-235.8" font-family="Times,serif" font-size="14.00">HomeComponent</text>
</g>
<!-- HomeComponent&#45;&gt;AppModule -->
<g id="edge36" class="edge"><title>HomeComponent&#45;&gt;AppModule</title>
<path fill="none" stroke="black" d="M3981,-258.045C3981,-279.662 3981,-313 3981,-313 3981,-313 3338.85,-313 3338.85,-313"/>
<polygon fill="black" stroke="black" points="3338.85,-309.5 3328.85,-313 3338.85,-316.5 3338.85,-309.5"/>
</g>
<!-- PageNotFoundComponent -->
<g id="node35" class="node"><title>PageNotFoundComponent</title>
<polygon fill="#ffffb3" stroke="black" points="3905.82,-258 3740.18,-258 3740.18,-222 3905.82,-222 3905.82,-258"/>
<text text-anchor="middle" x="3823" y="-235.8" font-family="Times,serif" font-size="14.00">PageNotFoundComponent</text>
</g>
<!-- PageNotFoundComponent&#45;&gt;AppModule -->
<g id="edge37" class="edge"><title>PageNotFoundComponent&#45;&gt;AppModule</title>
<path fill="none" stroke="black" d="M3823,-258.223C3823,-278.365 3823,-308 3823,-308 3823,-308 3339.06,-308 3339.06,-308"/>
<polygon fill="black" stroke="black" points="3339.06,-304.5 3329.06,-308 3339.06,-311.5 3339.06,-304.5"/>
</g>
<!-- AppComponent  -->
<g id="node41" class="node"><title>AppComponent </title>
<polygon fill="#80b1d3" stroke="black" points="3341.44,-394 3232.56,-394 3232.56,-358 3341.44,-358 3341.44,-394"/>
<text text-anchor="middle" x="3287" y="-371.8" font-family="Times,serif" font-size="14.00">AppComponent </text>
</g>
<!-- AppModule&#45;&gt;AppComponent  -->
<g id="edge46" class="edge"><title>AppModule&#45;&gt;AppComponent </title>
<path fill="none" stroke="black" stroke-dasharray="1,5" d="M3287,-326.223C3287,-326.223 3287,-347.727 3287,-347.727"/>
<polygon fill="black" stroke="black" points="3283.5,-347.727 3287,-357.727 3290.5,-347.727 3283.5,-347.727"/>
</g>
<!-- BrowserModule -->
<g id="node37" class="node"><title>BrowserModule</title>
<polygon fill="#8dd3c7" stroke="black" points="3716.47,-258 3713.47,-262 3692.47,-262 3689.47,-258 3609.53,-258 3609.53,-222 3716.47,-222 3716.47,-258"/>
<text text-anchor="middle" x="3663" y="-235.8" font-family="Times,serif" font-size="14.00">BrowserModule</text>
</g>
<!-- BrowserModule&#45;&gt;AppModule -->
<g id="edge38" class="edge"><title>BrowserModule&#45;&gt;AppModule</title>
<path fill="none" stroke="black" d="M3663,-258.169C3663,-277.09 3663,-304 3663,-304 3663,-304 3338.68,-304 3338.68,-304"/>
<polygon fill="black" stroke="black" points="3338.68,-300.5 3328.68,-304 3338.68,-307.5 3338.68,-300.5"/>
</g>
<!-- FormsModule -->
<g id="node38" class="node"><title>FormsModule</title>
<polygon fill="#8dd3c7" stroke="black" points="3591.83,-258 3588.83,-262 3567.83,-262 3564.83,-258 3496.17,-258 3496.17,-222 3591.83,-222 3591.83,-258"/>
<text text-anchor="middle" x="3544" y="-235.8" font-family="Times,serif" font-size="14.00">FormsModule</text>
</g>
<!-- FormsModule&#45;&gt;AppModule -->
<g id="edge39" class="edge"><title>FormsModule&#45;&gt;AppModule</title>
<path fill="none" stroke="black" d="M3544,-258.023C3544,-275.373 3544,-299 3544,-299 3544,-299 3338.86,-299 3338.86,-299"/>
<polygon fill="black" stroke="black" points="3338.86,-295.5 3328.86,-299 3338.86,-302.5 3338.86,-295.5"/>
</g>
<!-- HttpModule -->
<g id="node39" class="node"><title>HttpModule</title>
<polygon fill="#8dd3c7" stroke="black" points="3478.44,-258 3475.44,-262 3454.44,-262 3451.44,-258 3393.56,-258 3393.56,-222 3478.44,-222 3478.44,-258"/>
<text text-anchor="middle" x="3436" y="-235.8" font-family="Times,serif" font-size="14.00">HttpModule</text>
</g>
<!-- HttpModule&#45;&gt;AppModule -->
<g id="edge40" class="edge"><title>HttpModule&#45;&gt;AppModule</title>
<path fill="none" stroke="black" d="M3436,-258.009C3436,-274.049 3436,-295 3436,-295 3436,-295 3338.9,-295 3338.9,-295"/>
<polygon fill="black" stroke="black" points="3338.9,-291.5 3328.9,-295 3338.9,-298.5 3338.9,-291.5"/>
</g>
<!-- RouterModule.forRoot(args) -->
<g id="node40" class="node"><title>RouterModule.forRoot(args)</title>
<polygon fill="#8dd3c7" stroke="black" points="3375.84,-258 3372.84,-262 3351.84,-262 3348.84,-258 3198.16,-258 3198.16,-222 3375.84,-222 3375.84,-258"/>
<text text-anchor="middle" x="3287" y="-235.8" font-family="Times,serif" font-size="14.00">RouterModule.forRoot(args)</text>
</g>
<!-- RouterModule.forRoot(args)&#45;&gt;AppModule -->
<g id="edge45" class="edge"><title>RouterModule.forRoot(args)&#45;&gt;AppModule</title>
<path fill="none" stroke="black" d="M3287,-258.223C3287,-258.223 3287,-279.727 3287,-279.727"/>
<polygon fill="black" stroke="black" points="3283.5,-279.727 3287,-289.727 3290.5,-279.727 3283.5,-279.727"/>
</g>
<!-- LectureService -->
<g id="node42" class="node"><title>LectureService</title>
<ellipse fill="#fdb462" stroke="black" cx="3105" cy="-240" rx="69.4568" ry="18"/>
<text text-anchor="middle" x="3105" y="-235.8" font-family="Times,serif" font-size="14.00">LectureService</text>
</g>
<!-- LectureService&#45;&gt;AppModule -->
<g id="edge47" class="edge"><title>LectureService&#45;&gt;AppModule</title>
<path fill="none" stroke="black" d="M3105,-258.027C3105,-274.398 3105,-296 3105,-296 3105,-296 3235.25,-296 3235.25,-296"/>
<polygon fill="black" stroke="black" points="3235.25,-299.5 3245.25,-296 3235.25,-292.5 3235.25,-299.5"/>
</g>
<!-- ArticleService -->
<g id="node43" class="node"><title>ArticleService</title>
<ellipse fill="#fdb462" stroke="black" cx="2951" cy="-240" rx="66.6055" ry="18"/>
<text text-anchor="middle" x="2951" y="-235.8" font-family="Times,serif" font-size="14.00">ArticleService</text>
</g>
<!-- ArticleService&#45;&gt;AppModule -->
<g id="edge48" class="edge"><title>ArticleService&#45;&gt;AppModule</title>
<path fill="none" stroke="black" d="M2951,-258.267C2951,-276.555 2951,-302 2951,-302 2951,-302 3235.12,-302 3235.12,-302"/>
<polygon fill="black" stroke="black" points="3235.12,-305.5 3245.12,-302 3235.12,-298.5 3235.12,-305.5"/>
</g>
</g>
</svg>
