<?xml version="1.0" encoding="UTF-8" standalone="no"?>
<!DOCTYPE svg PUBLIC "-//W3C//DTD SVG 1.1//EN"
 "http://www.w3.org/Graphics/SVG/1.1/DTD/svg11.dtd">
<!-- Generated by graphviz version 2.38.0 (20140413.2041)
 -->
<!-- Title: dependencies Pages: 1 -->
<svg width="3585pt" height="420pt"
 viewBox="0.00 0.00 3585.00 420.00" xmlns="http://www.w3.org/2000/svg" xmlns:xlink="http://www.w3.org/1999/xlink">
<g id="graph0" class="graph" transform="scale(1 1) rotate(0) translate(4 416)">
<title>dependencies</title>
<polygon fill="white" stroke="none" points="-4,4 -4,-416 3581,-416 3581,4 -4,4"/>
<text text-anchor="start" x="1767.51" y="-42.4" font-family="sans-serif" font-weight="bold" font-size="14.00">Legend</text>
<polygon fill="#ffffb3" stroke="none" points="1554.5,-10 1554.5,-30 1574.5,-30 1574.5,-10 1554.5,-10"/>
<text text-anchor="start" x="1578.13" y="-15.4" font-family="sans-serif" font-size="14.00"> &#160;Declarations</text>
<polygon fill="#8dd3c7" stroke="none" points="1667.5,-10 1667.5,-30 1687.5,-30 1687.5,-10 1667.5,-10"/>
<text text-anchor="start" x="1691.23" y="-15.4" font-family="sans-serif" font-size="14.00"> &#160;Module</text>
<polygon fill="#80b1d3" stroke="none" points="1753.5,-10 1753.5,-30 1773.5,-30 1773.5,-10 1753.5,-10"/>
<text text-anchor="start" x="1777.28" y="-15.4" font-family="sans-serif" font-size="14.00"> &#160;Bootstrap</text>
<polygon fill="#fdb462" stroke="none" points="1850.5,-10 1850.5,-30 1870.5,-30 1870.5,-10 1850.5,-10"/>
<text text-anchor="start" x="1874.17" y="-15.4" font-family="sans-serif" font-size="14.00"> &#160;Providers</text>
<polygon fill="#fb8072" stroke="none" points="1946.5,-10 1946.5,-30 1966.5,-30 1966.5,-10 1946.5,-10"/>
<text text-anchor="start" x="1970.23" y="-15.4" font-family="sans-serif" font-size="14.00"> &#160;Exports</text>
<g id="clust1" class="cluster"><title>cluster_LectureModule</title>
<polygon fill="none" stroke="black" stroke-dasharray="1,5" points="1987,-138 1987,-266 2837,-266 2837,-138 1987,-138"/>
</g>
<g id="clust2" class="cluster"><title>cluster_LectureModule_declarations</title>
<polygon fill="none" stroke="black" points="1995,-146 1995,-198 2507,-198 2507,-146 1995,-146"/>
</g>
<g id="clust6" class="cluster"><title>cluster_LectureModule_imports</title>
<polygon fill="none" stroke="black" points="2515,-146 2515,-198 2829,-198 2829,-146 2515,-146"/>
</g>
<g id="clust10" class="cluster"><title>cluster_LayoutModule</title>
<polygon fill="none" stroke="black" stroke-dasharray="1,5" points="1012,-70 1012,-274 1979,-274 1979,-70 1012,-70"/>
</g>
<g id="clust11" class="cluster"><title>cluster_LayoutModule_declarations</title>
<polygon fill="none" stroke="black" points="1020,-78 1020,-130 1719,-130 1719,-78 1020,-78"/>
</g>
<g id="clust17" class="cluster"><title>cluster_LayoutModule_imports</title>
<polygon fill="none" stroke="black" points="1727,-78 1727,-130 1971,-130 1971,-78 1727,-78"/>
</g>
<g id="clust18" class="cluster"><title>cluster_LayoutModule_exports</title>
<polygon fill="none" stroke="black" points="1279,-214 1279,-266 1419,-266 1419,-214 1279,-214"/>
</g>
<g id="clust21" class="cluster"><title>cluster_SharedModule</title>
<polygon fill="none" stroke="black" stroke-dasharray="1,5" points="2845,-206 2845,-274 3569,-274 3569,-206 2845,-206"/>
</g>
<g id="clust22" class="cluster"><title>cluster_SharedModule_declarations</title>
<polygon fill="none" stroke="black" points="3403,-214 3403,-266 3561,-266 3561,-214 3403,-214"/>
</g>
<g id="clust25" class="cluster"><title>cluster_SharedModule_exports</title>
<polygon fill="none" stroke="black" points="2853,-214 2853,-266 3395,-266 3395,-214 2853,-214"/>
</g>
<g id="clust28" class="cluster"><title>cluster_AppModule</title>
<polygon fill="none" stroke="black" stroke-dasharray="1,5" points="8,-206 8,-404 1004,-404 1004,-206 8,-206"/>
</g>
<g id="clust29" class="cluster"><title>cluster_AppModule_declarations</title>
<polygon fill="none" stroke="black" points="558,-214 558,-266 996,-266 996,-214 558,-214"/>
</g>
<g id="clust33" class="cluster"><title>cluster_AppModule_imports</title>
<polygon fill="none" stroke="black" points="16,-214 16,-266 550,-266 550,-214 16,-214"/>
</g>
<g id="clust35" class="cluster"><title>cluster_AppModule_bootstrap</title>
<polygon fill="none" stroke="black" points="587,-344 587,-396 711,-396 711,-344 587,-344"/>
</g>
<!-- LectureListComponent -->
<g id="node1" class="node"><title>LectureListComponent</title>
<polygon fill="#ffffb3" stroke="black" points="2498.86,-190 2353.14,-190 2353.14,-154 2498.86,-154 2498.86,-190"/>
<text text-anchor="middle" x="2426" y="-167.8" font-family="Times,serif" font-size="14.00">LectureListComponent</text>
</g>
<!-- LectureModule -->
<g id="node4" class="node"><title>LectureModule</title>
<polygon fill="#8dd3c7" stroke="black" points="2394.3,-258 2391.3,-262 2370.3,-262 2367.3,-258 2291.7,-258 2291.7,-222 2394.3,-222 2394.3,-258"/>
<text text-anchor="middle" x="2343" y="-235.8" font-family="Times,serif" font-size="14.00">LectureModule</text>
</g>
<!-- LectureListComponent&#45;&gt;LectureModule -->
<g id="edge1" class="edge"><title>LectureListComponent&#45;&gt;LectureModule</title>
<path fill="none" stroke="black" d="M2373.61,-190.223C2373.61,-190.223 2373.61,-211.727 2373.61,-211.727"/>
<polygon fill="black" stroke="black" points="2370.11,-211.727 2373.61,-221.727 2377.11,-211.727 2370.11,-211.727"/>
</g>
<!-- LectureItemComponent -->
<g id="node2" class="node"><title>LectureItemComponent</title>
<polygon fill="#ffffb3" stroke="black" points="2334.74,-190 2185.26,-190 2185.26,-154 2334.74,-154 2334.74,-190"/>
<text text-anchor="middle" x="2260" y="-167.8" font-family="Times,serif" font-size="14.00">LectureItemComponent</text>
</g>
<!-- LectureItemComponent&#45;&gt;LectureModule -->
<g id="edge2" class="edge"><title>LectureItemComponent&#45;&gt;LectureModule</title>
<path fill="none" stroke="black" d="M2313.36,-190.223C2313.36,-190.223 2313.36,-211.727 2313.36,-211.727"/>
<polygon fill="black" stroke="black" points="2309.86,-211.727 2313.36,-221.727 2316.86,-211.727 2309.86,-211.727"/>
</g>
<!-- LectureDetailsComponent -->
<g id="node3" class="node"><title>LectureDetailsComponent</title>
<polygon fill="#ffffb3" stroke="black" points="2166.73,-190 2003.27,-190 2003.27,-154 2166.73,-154 2166.73,-190"/>
<text text-anchor="middle" x="2085" y="-167.8" font-family="Times,serif" font-size="14.00">LectureDetailsComponent</text>
</g>
<!-- LectureDetailsComponent&#45;&gt;LectureModule -->
<g id="edge3" class="edge"><title>LectureDetailsComponent&#45;&gt;LectureModule</title>
<path fill="none" stroke="black" d="M2085,-190.223C2085,-210.365 2085,-240 2085,-240 2085,-240 2281.72,-240 2281.72,-240"/>
<polygon fill="black" stroke="black" points="2281.72,-243.5 2291.72,-240 2281.72,-236.5 2281.72,-243.5"/>
</g>
<!-- AppModule -->
<g id="node24" class="node"><title>AppModule</title>
<polygon fill="#8dd3c7" stroke="black" points="690.657,-323 687.657,-327 666.657,-327 663.657,-323 607.343,-323 607.343,-287 690.657,-287 690.657,-323"/>
<text text-anchor="middle" x="649" y="-300.8" font-family="Times,serif" font-size="14.00">AppModule</text>
</g>
<!-- LectureModule&#45;&gt;AppModule -->
<g id="edge27" class="edge"><title>LectureModule&#45;&gt;AppModule</title>
<path fill="none" stroke="black" d="M2343,-258.011C2343,-280.485 2343,-316 2343,-316 2343,-316 700.874,-316 700.874,-316"/>
<polygon fill="black" stroke="black" points="700.874,-312.5 690.874,-316 700.874,-319.5 700.874,-312.5"/>
</g>
<!-- SharedModule -->
<g id="node5" class="node"><title>SharedModule</title>
<polygon fill="#8dd3c7" stroke="black" points="2821.42,-190 2818.42,-194 2797.42,-194 2794.42,-190 2722.58,-190 2722.58,-154 2821.42,-154 2821.42,-190"/>
<text text-anchor="middle" x="2772" y="-167.8" font-family="Times,serif" font-size="14.00">SharedModule</text>
</g>
<!-- SharedModule&#45;&gt;LectureModule -->
<g id="edge4" class="edge"><title>SharedModule&#45;&gt;LectureModule</title>
<path fill="none" stroke="black" d="M2755.6,-190.223C2755.6,-210.365 2755.6,-240 2755.6,-240 2755.6,-240 2404.42,-240 2404.42,-240"/>
<polygon fill="black" stroke="black" points="2404.42,-236.5 2394.42,-240 2404.42,-243.5 2404.42,-236.5"/>
</g>
<!-- CommonModule  -->
<g id="node17" class="node"><title>CommonModule </title>
<polygon fill="#fb8072" stroke="black" points="3386.67,-258 3271.33,-258 3271.33,-222 3386.67,-222 3386.67,-258"/>
<text text-anchor="middle" x="3329" y="-235.8" font-family="Times,serif" font-size="14.00">CommonModule </text>
</g>
<!-- SharedModule&#45;&gt;CommonModule  -->
<g id="edge16" class="edge"><title>SharedModule&#45;&gt;CommonModule </title>
<path fill="none" stroke="black" stroke-dasharray="5,2" d="M2821.43,-169C2957.75,-169 3329,-169 3329,-169 3329,-169 3329,-211.716 3329,-211.716"/>
<polygon fill="black" stroke="black" points="3325.5,-211.716 3329,-221.716 3332.5,-211.716 3325.5,-211.716"/>
</g>
<!-- RouterModule  -->
<g id="node18" class="node"><title>RouterModule </title>
<polygon fill="#fb8072" stroke="black" points="3253.65,-258 3152.35,-258 3152.35,-222 3253.65,-222 3253.65,-258"/>
<text text-anchor="middle" x="3203" y="-235.8" font-family="Times,serif" font-size="14.00">RouterModule </text>
</g>
<!-- SharedModule&#45;&gt;RouterModule  -->
<g id="edge17" class="edge"><title>SharedModule&#45;&gt;RouterModule </title>
<path fill="none" stroke="black" stroke-dasharray="5,2" d="M2821.44,-176C2934.65,-176 3203,-176 3203,-176 3203,-176 3203,-211.831 3203,-211.831"/>
<polygon fill="black" stroke="black" points="3199.5,-211.831 3203,-221.831 3206.5,-211.831 3199.5,-211.831"/>
</g>
<!-- MaterialModule  -->
<g id="node19" class="node"><title>MaterialModule </title>
<polygon fill="#fb8072" stroke="black" points="3134.47,-258 3023.53,-258 3023.53,-222 3134.47,-222 3134.47,-258"/>
<text text-anchor="middle" x="3079" y="-235.8" font-family="Times,serif" font-size="14.00">MaterialModule </text>
</g>
<!-- SharedModule&#45;&gt;MaterialModule  -->
<g id="edge18" class="edge"><title>SharedModule&#45;&gt;MaterialModule </title>
<path fill="none" stroke="black" stroke-dasharray="5,2" d="M2821.32,-183C2908.11,-183 3079,-183 3079,-183 3079,-183 3079,-211.965 3079,-211.965"/>
<polygon fill="black" stroke="black" points="3075.5,-211.965 3079,-221.965 3082.5,-211.965 3075.5,-211.965"/>
</g>
<!-- PaginationComponent  -->
<g id="node20" class="node"><title>PaginationComponent </title>
<polygon fill="#fb8072" stroke="black" points="3005.22,-258 2860.78,-258 2860.78,-222 3005.22,-222 3005.22,-258"/>
<text text-anchor="middle" x="2933" y="-235.8" font-family="Times,serif" font-size="14.00">PaginationComponent </text>
</g>
<!-- SharedModule&#45;&gt;PaginationComponent  -->
<g id="edge19" class="edge"><title>SharedModule&#45;&gt;PaginationComponent </title>
<path fill="none" stroke="black" stroke-dasharray="5,2" d="M2788.4,-190.248C2788.4,-213.018 2788.4,-249 2788.4,-249 2788.4,-249 2850.7,-249 2850.7,-249"/>
<polygon fill="black" stroke="black" points="2850.7,-252.5 2860.7,-249 2850.7,-245.5 2850.7,-252.5"/>
</g>
<!-- RouterModule.forChild(args) -->
<g id="node6" class="node"><title>RouterModule.forChild(args)</title>
<polygon fill="#8dd3c7" stroke="black" points="2704.73,-190 2701.73,-194 2680.73,-194 2677.73,-190 2523.27,-190 2523.27,-154 2704.73,-154 2704.73,-190"/>
<text text-anchor="middle" x="2614" y="-167.8" font-family="Times,serif" font-size="14.00">RouterModule.forChild(args)</text>
</g>
<!-- RouterModule.forChild(args)&#45;&gt;LectureModule -->
<g id="edge5" class="edge"><title>RouterModule.forChild(args)&#45;&gt;LectureModule</title>
<path fill="none" stroke="black" d="M2614,-190.023C2614,-207.373 2614,-231 2614,-231 2614,-231 2404.29,-231 2404.29,-231"/>
<polygon fill="black" stroke="black" points="2404.29,-227.5 2394.29,-231 2404.29,-234.5 2404.29,-227.5"/>
</g>
<!-- LayoutComponent -->
<g id="node7" class="node"><title>LayoutComponent</title>
<polygon fill="#ffffb3" stroke="black" points="1711.49,-122 1590.51,-122 1590.51,-86 1711.49,-86 1711.49,-122"/>
<text text-anchor="middle" x="1651" y="-99.8" font-family="Times,serif" font-size="14.00">LayoutComponent</text>
</g>
<!-- LayoutModule -->
<g id="node12" class="node"><title>LayoutModule</title>
<polygon fill="#8dd3c7" stroke="black" points="1488.71,-190 1485.71,-194 1464.71,-194 1461.71,-190 1389.29,-190 1389.29,-154 1488.71,-154 1488.71,-190"/>
<text text-anchor="middle" x="1439" y="-167.8" font-family="Times,serif" font-size="14.00">LayoutModule</text>
</g>
<!-- LayoutComponent&#45;&gt;LayoutModule -->
<g id="edge6" class="edge"><title>LayoutComponent&#45;&gt;LayoutModule</title>
<path fill="none" stroke="black" d="M1651,-122.023C1651,-139.373 1651,-163 1651,-163 1651,-163 1498.7,-163 1498.7,-163"/>
<polygon fill="black" stroke="black" points="1498.7,-159.5 1488.7,-163 1498.7,-166.5 1498.7,-159.5"/>
</g>
<!-- SidebarComponent -->
<g id="node8" class="node"><title>SidebarComponent</title>
<polygon fill="#ffffb3" stroke="black" points="1572.1,-122 1447.9,-122 1447.9,-86 1572.1,-86 1572.1,-122"/>
<text text-anchor="middle" x="1510" y="-99.8" font-family="Times,serif" font-size="14.00">SidebarComponent</text>
</g>
<!-- SidebarComponent&#45;&gt;LayoutModule -->
<g id="edge7" class="edge"><title>SidebarComponent&#45;&gt;LayoutModule</title>
<path fill="none" stroke="black" d="M1468.28,-122.223C1468.28,-122.223 1468.28,-143.727 1468.28,-143.727"/>
<polygon fill="black" stroke="black" points="1464.78,-143.727 1468.28,-153.727 1471.78,-143.727 1464.78,-143.727"/>
</g>
<!-- HeaderComponent -->
<g id="node9" class="node"><title>HeaderComponent</title>
<polygon fill="#ffffb3" stroke="black" points="1429.74,-122 1308.26,-122 1308.26,-86 1429.74,-86 1429.74,-122"/>
<text text-anchor="middle" x="1369" y="-99.8" font-family="Times,serif" font-size="14.00">HeaderComponent</text>
</g>
<!-- HeaderComponent&#45;&gt;LayoutModule -->
<g id="edge8" class="edge"><title>HeaderComponent&#45;&gt;LayoutModule</title>
<path fill="none" stroke="black" d="M1409.63,-122.223C1409.63,-122.223 1409.63,-143.727 1409.63,-143.727"/>
<polygon fill="black" stroke="black" points="1406.13,-143.727 1409.63,-153.727 1413.13,-143.727 1406.13,-143.727"/>
</g>
<!-- ContentComponent -->
<g id="node10" class="node"><title>ContentComponent</title>
<polygon fill="#ffffb3" stroke="black" points="1289.67,-122 1164.33,-122 1164.33,-86 1289.67,-86 1289.67,-122"/>
<text text-anchor="middle" x="1227" y="-99.8" font-family="Times,serif" font-size="14.00">ContentComponent</text>
</g>
<!-- ContentComponent&#45;&gt;LayoutModule -->
<g id="edge9" class="edge"><title>ContentComponent&#45;&gt;LayoutModule</title>
<path fill="none" stroke="black" d="M1225.46,-122.267C1225.46,-140.555 1225.46,-166 1225.46,-166 1225.46,-166 1379.2,-166 1379.2,-166"/>
<polygon fill="black" stroke="black" points="1379.2,-169.5 1389.2,-166 1379.2,-162.5 1379.2,-169.5"/>
</g>
<!-- FooterComponent -->
<g id="node11" class="node"><title>FooterComponent</title>
<polygon fill="#ffffb3" stroke="black" points="1145.88,-122 1028.12,-122 1028.12,-86 1145.88,-86 1145.88,-122"/>
<text text-anchor="middle" x="1087" y="-99.8" font-family="Times,serif" font-size="14.00">FooterComponent</text>
</g>
<!-- FooterComponent&#45;&gt;LayoutModule -->
<g id="edge10" class="edge"><title>FooterComponent&#45;&gt;LayoutModule</title>
<path fill="none" stroke="black" d="M1087,-122.292C1087,-144.206 1087,-178 1087,-178 1087,-178 1379.31,-178 1379.31,-178"/>
<polygon fill="black" stroke="black" points="1379.31,-181.5 1389.31,-178 1379.31,-174.5 1379.31,-181.5"/>
</g>
<!-- LayoutComponent  -->
<g id="node15" class="node"><title>LayoutComponent </title>
<polygon fill="#fb8072" stroke="black" points="1411.49,-258 1286.51,-258 1286.51,-222 1411.49,-222 1411.49,-258"/>
<text text-anchor="middle" x="1349" y="-235.8" font-family="Times,serif" font-size="14.00">LayoutComponent </text>
</g>
<!-- LayoutModule&#45;&gt;LayoutComponent  -->
<g id="edge13" class="edge"><title>LayoutModule&#45;&gt;LayoutComponent </title>
<path fill="none" stroke="black" stroke-dasharray="5,2" d="M1400.32,-190.223C1400.32,-190.223 1400.32,-211.727 1400.32,-211.727"/>
<polygon fill="black" stroke="black" points="1396.82,-211.727 1400.32,-221.727 1403.82,-211.727 1396.82,-211.727"/>
</g>
<!-- LayoutModule&#45;&gt;AppModule -->
<g id="edge26" class="edge"><title>LayoutModule&#45;&gt;AppModule</title>
<path fill="none" stroke="black" d="M1449.92,-190.193C1449.92,-227.459 1449.92,-309 1449.92,-309 1449.92,-309 700.934,-309 700.934,-309"/>
<polygon fill="black" stroke="black" points="700.934,-305.5 690.934,-309 700.933,-312.5 700.934,-305.5"/>
</g>
<!-- CommonModule -->
<g id="node13" class="node"><title>CommonModule</title>
<polygon fill="#8dd3c7" stroke="black" points="1962.67,-122 1959.67,-126 1938.67,-126 1935.67,-122 1851.33,-122 1851.33,-86 1962.67,-86 1962.67,-122"/>
<text text-anchor="middle" x="1907" y="-99.8" font-family="Times,serif" font-size="14.00">CommonModule</text>
</g>
<!-- CommonModule&#45;&gt;SharedModule -->
<g id="edge15" class="edge"><title>CommonModule&#45;&gt;SharedModule</title>
<path fill="none" stroke="black" d="M1962.76,-104C2154.05,-104 2772,-104 2772,-104 2772,-104 2772,-143.777 2772,-143.777"/>
<polygon fill="black" stroke="black" points="2768.5,-143.777 2772,-153.777 2775.5,-143.777 2768.5,-143.777"/>
</g>
<!-- CommonModule&#45;&gt;LayoutModule -->
<g id="edge11" class="edge"><title>CommonModule&#45;&gt;LayoutModule</title>
<path fill="none" stroke="black" d="M1907,-122.248C1907,-145.018 1907,-181 1907,-181 1907,-181 1498.64,-181 1498.64,-181"/>
<polygon fill="black" stroke="black" points="1498.64,-177.5 1488.64,-181 1498.64,-184.5 1498.64,-177.5"/>
</g>
<!-- RouterModule -->
<g id="node14" class="node"><title>RouterModule</title>
<polygon fill="#8dd3c7" stroke="black" points="1832.65,-122 1829.65,-126 1808.65,-126 1805.65,-122 1735.35,-122 1735.35,-86 1832.65,-86 1832.65,-122"/>
<text text-anchor="middle" x="1784" y="-99.8" font-family="Times,serif" font-size="14.00">RouterModule</text>
</g>
<!-- RouterModule&#45;&gt;LayoutModule -->
<g id="edge12" class="edge"><title>RouterModule&#45;&gt;LayoutModule</title>
<path fill="none" stroke="black" d="M1784,-122.223C1784,-142.365 1784,-172 1784,-172 1784,-172 1498.8,-172 1498.8,-172"/>
<polygon fill="black" stroke="black" points="1498.8,-168.5 1488.8,-172 1498.8,-175.5 1498.8,-168.5"/>
</g>
<!-- PaginationComponent -->
<g id="node16" class="node"><title>PaginationComponent</title>
<polygon fill="#ffffb3" stroke="black" points="3552.72,-258 3411.28,-258 3411.28,-222 3552.72,-222 3552.72,-258"/>
<text text-anchor="middle" x="3482" y="-235.8" font-family="Times,serif" font-size="14.00">PaginationComponent</text>
</g>
<!-- PaginationComponent&#45;&gt;SharedModule -->
<g id="edge14" class="edge"><title>PaginationComponent&#45;&gt;SharedModule</title>
<path fill="none" stroke="black" d="M3482,-221.909C3482,-198.867 3482,-162 3482,-162 3482,-162 2831.36,-162 2831.36,-162"/>
<polygon fill="black" stroke="black" points="2831.36,-158.5 2821.36,-162 2831.36,-165.5 2831.36,-158.5"/>
</g>
<!-- AppComponent -->
<g id="node21" class="node"><title>AppComponent</title>
<polygon fill="#ffffb3" stroke="black" points="987.94,-258 882.06,-258 882.06,-222 987.94,-222 987.94,-258"/>
<text text-anchor="middle" x="935" y="-235.8" font-family="Times,serif" font-size="14.00">AppComponent</text>
</g>
<!-- AppComponent&#45;&gt;AppModule -->
<g id="edge20" class="edge"><title>AppComponent&#45;&gt;AppModule</title>
<path fill="none" stroke="black" d="M935,-258.267C935,-276.555 935,-302 935,-302 935,-302 700.893,-302 700.893,-302"/>
<polygon fill="black" stroke="black" points="700.893,-298.5 690.893,-302 700.893,-305.5 700.893,-298.5"/>
</g>
<!-- HomeComponent -->
<g id="node22" class="node"><title>HomeComponent</title>
<polygon fill="#ffffb3" stroke="black" points="864.545,-258 749.455,-258 749.455,-222 864.545,-222 864.545,-258"/>
<text text-anchor="middle" x="807" y="-235.8" font-family="Times,serif" font-size="14.00">HomeComponent</text>
</g>
<!-- HomeComponent&#45;&gt;AppModule -->
<g id="edge21" class="edge"><title>HomeComponent&#45;&gt;AppModule</title>
<path fill="none" stroke="black" d="M807,-258.009C807,-274.049 807,-295 807,-295 807,-295 700.926,-295 700.926,-295"/>
<polygon fill="black" stroke="black" points="700.926,-291.5 690.926,-295 700.926,-298.5 700.926,-291.5"/>
</g>
<!-- PageNotFoundComponent -->
<g id="node23" class="node"><title>PageNotFoundComponent</title>
<polygon fill="#ffffb3" stroke="black" points="731.824,-258 566.176,-258 566.176,-222 731.824,-222 731.824,-258"/>
<text text-anchor="middle" x="649" y="-235.8" font-family="Times,serif" font-size="14.00">PageNotFoundComponent</text>
</g>
<!-- PageNotFoundComponent&#45;&gt;AppModule -->
<g id="edge22" class="edge"><title>PageNotFoundComponent&#45;&gt;AppModule</title>
<path fill="none" stroke="black" d="M649,-258.106C649,-258.106 649,-276.991 649,-276.991"/>
<polygon fill="black" stroke="black" points="645.5,-276.991 649,-286.991 652.5,-276.991 645.5,-276.991"/>
</g>
<!-- AppComponent  -->
<g id="node29" class="node"><title>AppComponent </title>
<polygon fill="#80b1d3" stroke="black" points="703.439,-388 594.561,-388 594.561,-352 703.439,-352 703.439,-388"/>
<text text-anchor="middle" x="649" y="-365.8" font-family="Times,serif" font-size="14.00">AppComponent </text>
</g>
<!-- AppModule&#45;&gt;AppComponent  -->
<g id="edge29" class="edge"><title>AppModule&#45;&gt;AppComponent </title>
<path fill="none" stroke="black" stroke-dasharray="1,5" d="M649,-323.106C649,-323.106 649,-341.991 649,-341.991"/>
<polygon fill="black" stroke="black" points="645.5,-341.991 649,-351.991 652.5,-341.991 645.5,-341.991"/>
</g>
<!-- BrowserModule -->
<g id="node25" class="node"><title>BrowserModule</title>
<polygon fill="#8dd3c7" stroke="black" points="542.473,-258 539.473,-262 518.473,-262 515.473,-258 435.527,-258 435.527,-222 542.473,-222 542.473,-258"/>
<text text-anchor="middle" x="489" y="-235.8" font-family="Times,serif" font-size="14.00">BrowserModule</text>
</g>
<!-- BrowserModule&#45;&gt;AppModule -->
<g id="edge23" class="edge"><title>BrowserModule&#45;&gt;AppModule</title>
<path fill="none" stroke="black" d="M489,-258.009C489,-274.049 489,-295 489,-295 489,-295 596.962,-295 596.962,-295"/>
<polygon fill="black" stroke="black" points="596.962,-298.5 606.962,-295 596.962,-291.5 596.962,-298.5"/>
</g>
<!-- FormsModule -->
<g id="node26" class="node"><title>FormsModule</title>
<polygon fill="#8dd3c7" stroke="black" points="417.829,-258 414.829,-262 393.829,-262 390.829,-258 322.171,-258 322.171,-222 417.829,-222 417.829,-258"/>
<text text-anchor="middle" x="370" y="-235.8" font-family="Times,serif" font-size="14.00">FormsModule</text>
</g>
<!-- FormsModule&#45;&gt;AppModule -->
<g id="edge24" class="edge"><title>FormsModule&#45;&gt;AppModule</title>
<path fill="none" stroke="black" d="M370,-258.267C370,-276.555 370,-302 370,-302 370,-302 597.231,-302 597.231,-302"/>
<polygon fill="black" stroke="black" points="597.231,-305.5 607.231,-302 597.231,-298.5 597.231,-305.5"/>
</g>
<!-- HttpModule -->
<g id="node27" class="node"><title>HttpModule</title>
<polygon fill="#8dd3c7" stroke="black" points="304.439,-258 301.439,-262 280.439,-262 277.439,-258 219.561,-258 219.561,-222 304.439,-222 304.439,-258"/>
<text text-anchor="middle" x="262" y="-235.8" font-family="Times,serif" font-size="14.00">HttpModule</text>
</g>
<!-- HttpModule&#45;&gt;AppModule -->
<g id="edge25" class="edge"><title>HttpModule&#45;&gt;AppModule</title>
<path fill="none" stroke="black" d="M262,-258.129C262,-278.572 262,-309 262,-309 262,-309 597.217,-309 597.217,-309"/>
<polygon fill="black" stroke="black" points="597.217,-312.5 607.217,-309 597.216,-305.5 597.217,-312.5"/>
</g>
<!-- RouterModule.forRoot(args) -->
<g id="node28" class="node"><title>RouterModule.forRoot(args)</title>
<polygon fill="#8dd3c7" stroke="black" points="201.842,-258 198.842,-262 177.842,-262 174.842,-258 24.1581,-258 24.1581,-222 201.842,-222 201.842,-258"/>
<text text-anchor="middle" x="113" y="-235.8" font-family="Times,serif" font-size="14.00">RouterModule.forRoot(args)</text>
</g>
<!-- RouterModule.forRoot(args)&#45;&gt;AppModule -->
<g id="edge28" class="edge"><title>RouterModule.forRoot(args)&#45;&gt;AppModule</title>
<path fill="none" stroke="black" d="M113,-258.011C113,-280.485 113,-316 113,-316 113,-316 596.941,-316 596.941,-316"/>
<polygon fill="black" stroke="black" points="596.941,-319.5 606.941,-316 596.941,-312.5 596.941,-319.5"/>
</g>
</g>
</svg>
