<?xml version="1.0" encoding="UTF-8" standalone="no"?>
<!DOCTYPE svg PUBLIC "-//W3C//DTD SVG 1.1//EN"
 "http://www.w3.org/Graphics/SVG/1.1/DTD/svg11.dtd">
<!-- Generated by graphviz version 2.38.0 (20140413.2041)
 -->
<!-- Title: dependencies Pages: 1 -->
<svg width="3958pt" height="434pt"
 viewBox="0.00 0.00 3958.00 434.00" xmlns="http://www.w3.org/2000/svg" xmlns:xlink="http://www.w3.org/1999/xlink">
<g id="graph0" class="graph" transform="scale(1 1) rotate(0) translate(4 430)">
<title>dependencies</title>
<polygon fill="white" stroke="none" points="-4,4 -4,-430 3954,-430 3954,4 -4,4"/>
<text text-anchor="start" x="1954.01" y="-42.4" font-family="sans-serif" font-weight="bold" font-size="14.00">Legend</text>
<polygon fill="#ffffb3" stroke="none" points="1741,-10 1741,-30 1761,-30 1761,-10 1741,-10"/>
<text text-anchor="start" x="1764.63" y="-15.4" font-family="sans-serif" font-size="14.00"> &#160;Declarations</text>
<polygon fill="#8dd3c7" stroke="none" points="1854,-10 1854,-30 1874,-30 1874,-10 1854,-10"/>
<text text-anchor="start" x="1877.73" y="-15.4" font-family="sans-serif" font-size="14.00"> &#160;Module</text>
<polygon fill="#80b1d3" stroke="none" points="1940,-10 1940,-30 1960,-30 1960,-10 1940,-10"/>
<text text-anchor="start" x="1963.78" y="-15.4" font-family="sans-serif" font-size="14.00"> &#160;Bootstrap</text>
<polygon fill="#fdb462" stroke="none" points="2037,-10 2037,-30 2057,-30 2057,-10 2037,-10"/>
<text text-anchor="start" x="2060.67" y="-15.4" font-family="sans-serif" font-size="14.00"> &#160;Providers</text>
<polygon fill="#fb8072" stroke="none" points="2133,-10 2133,-30 2153,-30 2153,-10 2133,-10"/>
<text text-anchor="start" x="2156.73" y="-15.4" font-family="sans-serif" font-size="14.00"> &#160;Exports</text>
<g id="clust1" class="cluster"><title>cluster_LectureModule</title>
<polygon fill="none" stroke="black" stroke-dasharray="1,5" points="982,-138 982,-266 1832,-266 1832,-138 982,-138"/>
</g>
<g id="clust2" class="cluster"><title>cluster_LectureModule_declarations</title>
<polygon fill="none" stroke="black" points="990,-146 990,-198 1502,-198 1502,-146 990,-146"/>
</g>
<g id="clust6" class="cluster"><title>cluster_LectureModule_imports</title>
<polygon fill="none" stroke="black" points="1510,-146 1510,-198 1824,-198 1824,-146 1510,-146"/>
</g>
<g id="clust10" class="cluster"><title>cluster_LayoutModule</title>
<polygon fill="none" stroke="black" stroke-dasharray="1,5" points="8,-70 8,-274 974,-274 974,-70 8,-70"/>
</g>
<g id="clust11" class="cluster"><title>cluster_LayoutModule_declarations</title>
<polygon fill="none" stroke="black" points="16,-78 16,-130 714,-130 714,-78 16,-78"/>
</g>
<g id="clust17" class="cluster"><title>cluster_LayoutModule_imports</title>
<polygon fill="none" stroke="black" points="722,-78 722,-130 966,-130 966,-78 722,-78"/>
</g>
<g id="clust18" class="cluster"><title>cluster_LayoutModule_exports</title>
<polygon fill="none" stroke="black" points="503,-214 503,-266 643,-266 643,-214 503,-214"/>
</g>
<g id="clust21" class="cluster"><title>cluster_SharedModule</title>
<polygon fill="none" stroke="black" stroke-dasharray="1,5" points="1840,-206 1840,-274 2435,-274 2435,-206 1840,-206"/>
</g>
<g id="clust22" class="cluster"><title>cluster_SharedModule_declarations</title>
<polygon fill="none" stroke="black" points="2269,-214 2269,-266 2427,-266 2427,-214 2269,-214"/>
</g>
<g id="clust25" class="cluster"><title>cluster_SharedModule_exports</title>
<polygon fill="none" stroke="black" points="1848,-214 1848,-266 2261,-266 2261,-214 1848,-214"/>
</g>
<g id="clust28" class="cluster"><title>cluster_AppModule</title>
<polygon fill="none" stroke="black" stroke-dasharray="1,5" points="2443,-206 2443,-418 3582,-418 3582,-206 2443,-206"/>
</g>
<g id="clust29" class="cluster"><title>cluster_AppModule_declarations</title>
<polygon fill="none" stroke="black" points="2451,-214 2451,-266 2889,-266 2889,-214 2451,-214"/>
</g>
<g id="clust33" class="cluster"><title>cluster_AppModule_imports</title>
<polygon fill="none" stroke="black" points="2897,-214 2897,-266 3574,-266 3574,-214 2897,-214"/>
</g>
<g id="clust35" class="cluster"><title>cluster_AppModule_bootstrap</title>
<polygon fill="none" stroke="black" points="2849,-358 2849,-410 2973,-410 2973,-358 2849,-358"/>
</g>
<g id="clust37" class="cluster"><title>cluster_BookmarksModule</title>
<polygon fill="none" stroke="black" stroke-dasharray="1,5" points="3590,-282 3590,-350 3942,-350 3942,-282 3590,-282"/>
</g>
<g id="clust38" class="cluster"><title>cluster_BookmarksModule_declarations</title>
<polygon fill="none" stroke="black" points="3772,-290 3772,-342 3934,-342 3934,-290 3772,-290"/>
</g>
<g id="clust41" class="cluster"><title>cluster_BookmarksModule_exports</title>
<polygon fill="none" stroke="black" points="3598,-290 3598,-342 3764,-342 3764,-290 3598,-290"/>
</g>
<!-- LectureListComponent -->
<g id="node1" class="node"><title>LectureListComponent</title>
<polygon fill="#ffffb3" stroke="black" points="1143.86,-190 998.142,-190 998.142,-154 1143.86,-154 1143.86,-190"/>
<text text-anchor="middle" x="1071" y="-167.8" font-family="Times,serif" font-size="14.00">LectureListComponent</text>
</g>
<!-- LectureModule -->
<g id="node4" class="node"><title>LectureModule</title>
<polygon fill="#8dd3c7" stroke="black" points="1544.3,-258 1541.3,-262 1520.3,-262 1517.3,-258 1441.7,-258 1441.7,-222 1544.3,-222 1544.3,-258"/>
<text text-anchor="middle" x="1493" y="-235.8" font-family="Times,serif" font-size="14.00">LectureModule</text>
</g>
<!-- LectureListComponent&#45;&gt;LectureModule -->
<g id="edge1" class="edge"><title>LectureListComponent&#45;&gt;LectureModule</title>
<path fill="none" stroke="black" d="M1071,-190.292C1071,-212.206 1071,-246 1071,-246 1071,-246 1431.68,-246 1431.68,-246"/>
<polygon fill="black" stroke="black" points="1431.68,-249.5 1441.68,-246 1431.68,-242.5 1431.68,-249.5"/>
</g>
<!-- LectureItemComponent -->
<g id="node2" class="node"><title>LectureItemComponent</title>
<polygon fill="#ffffb3" stroke="black" points="1493.74,-190 1344.26,-190 1344.26,-154 1493.74,-154 1493.74,-190"/>
<text text-anchor="middle" x="1419" y="-167.8" font-family="Times,serif" font-size="14.00">LectureItemComponent</text>
</g>
<!-- LectureItemComponent&#45;&gt;LectureModule -->
<g id="edge2" class="edge"><title>LectureItemComponent&#45;&gt;LectureModule</title>
<path fill="none" stroke="black" d="M1467.86,-190.223C1467.86,-190.223 1467.86,-211.727 1467.86,-211.727"/>
<polygon fill="black" stroke="black" points="1464.36,-211.727 1467.86,-221.727 1471.36,-211.727 1464.36,-211.727"/>
</g>
<!-- LectureDetailsComponent -->
<g id="node3" class="node"><title>LectureDetailsComponent</title>
<polygon fill="#ffffb3" stroke="black" points="1325.73,-190 1162.27,-190 1162.27,-154 1325.73,-154 1325.73,-190"/>
<text text-anchor="middle" x="1244" y="-167.8" font-family="Times,serif" font-size="14.00">LectureDetailsComponent</text>
</g>
<!-- LectureDetailsComponent&#45;&gt;LectureModule -->
<g id="edge3" class="edge"><title>LectureDetailsComponent&#45;&gt;LectureModule</title>
<path fill="none" stroke="black" d="M1244,-190.267C1244,-208.555 1244,-234 1244,-234 1244,-234 1431.71,-234 1431.71,-234"/>
<polygon fill="black" stroke="black" points="1431.71,-237.5 1441.71,-234 1431.71,-230.5 1431.71,-237.5"/>
</g>
<!-- AppModule -->
<g id="node23" class="node"><title>AppModule</title>
<polygon fill="#8dd3c7" stroke="black" points="2952.66,-334 2949.66,-338 2928.66,-338 2925.66,-334 2869.34,-334 2869.34,-298 2952.66,-298 2952.66,-334"/>
<text text-anchor="middle" x="2911" y="-311.8" font-family="Times,serif" font-size="14.00">AppModule</text>
</g>
<!-- LectureModule&#45;&gt;AppModule -->
<g id="edge27" class="edge"><title>LectureModule&#45;&gt;AppModule</title>
<path fill="none" stroke="black" d="M1493,-258.153C1493,-281.757 1493,-320 1493,-320 1493,-320 2859.33,-320 2859.33,-320"/>
<polygon fill="black" stroke="black" points="2859.33,-323.5 2869.33,-320 2859.33,-316.5 2859.33,-323.5"/>
</g>
<!-- SharedModule -->
<g id="node5" class="node"><title>SharedModule</title>
<polygon fill="#8dd3c7" stroke="black" points="1616.42,-190 1613.42,-194 1592.42,-194 1589.42,-190 1517.58,-190 1517.58,-154 1616.42,-154 1616.42,-190"/>
<text text-anchor="middle" x="1567" y="-167.8" font-family="Times,serif" font-size="14.00">SharedModule</text>
</g>
<!-- SharedModule&#45;&gt;LectureModule -->
<g id="edge4" class="edge"><title>SharedModule&#45;&gt;LectureModule</title>
<path fill="none" stroke="black" d="M1530.97,-190.223C1530.97,-190.223 1530.97,-211.727 1530.97,-211.727"/>
<polygon fill="black" stroke="black" points="1527.47,-211.727 1530.97,-221.727 1534.47,-211.727 1527.47,-211.727"/>
</g>
<!-- CommonModule  -->
<g id="node17" class="node"><title>CommonModule </title>
<polygon fill="#fb8072" stroke="black" points="2252.67,-258 2137.33,-258 2137.33,-222 2252.67,-222 2252.67,-258"/>
<text text-anchor="middle" x="2195" y="-235.8" font-family="Times,serif" font-size="14.00">CommonModule </text>
</g>
<!-- SharedModule&#45;&gt;CommonModule  -->
<g id="edge17" class="edge"><title>SharedModule&#45;&gt;CommonModule </title>
<path fill="none" stroke="black" stroke-dasharray="5,2" d="M1587.39,-190.194C1587.39,-198.278 1587.39,-206 1587.39,-206 1587.39,-206 2195,-206 2195,-206 2195,-206 2195,-211.806 2195,-211.806"/>
<polygon fill="black" stroke="black" points="2191.5,-211.806 2195,-221.806 2198.5,-211.806 2191.5,-211.806"/>
</g>
<!-- RouterModule  -->
<g id="node18" class="node"><title>RouterModule </title>
<polygon fill="#fb8072" stroke="black" points="2119.65,-258 2018.35,-258 2018.35,-222 2119.65,-222 2119.65,-258"/>
<text text-anchor="middle" x="2069" y="-235.8" font-family="Times,serif" font-size="14.00">RouterModule </text>
</g>
<!-- SharedModule&#45;&gt;RouterModule  -->
<g id="edge18" class="edge"><title>SharedModule&#45;&gt;RouterModule </title>
<path fill="none" stroke="black" stroke-dasharray="5,2" d="M1572.97,-190.056C1572.97,-201.439 1572.97,-214 1572.97,-214 1572.97,-214 2069,-214 2069,-214 2069,-214 2069,-214.794 2069,-214.794"/>
<polygon fill="black" stroke="black" points="2065.5,-211.942 2069,-221.942 2072.5,-211.942 2065.5,-211.942"/>
</g>
<!-- PaginationComponent  -->
<g id="node19" class="node"><title>PaginationComponent </title>
<polygon fill="#fb8072" stroke="black" points="2000.22,-258 1855.78,-258 1855.78,-222 2000.22,-222 2000.22,-258"/>
<text text-anchor="middle" x="1928" y="-235.8" font-family="Times,serif" font-size="14.00">PaginationComponent </text>
</g>
<!-- SharedModule&#45;&gt;PaginationComponent  -->
<g id="edge19" class="edge"><title>SharedModule&#45;&gt;PaginationComponent </title>
<path fill="none" stroke="black" stroke-dasharray="5,2" d="M1601.8,-190.292C1601.8,-212.206 1601.8,-246 1601.8,-246 1601.8,-246 1845.61,-246 1845.61,-246"/>
<polygon fill="black" stroke="black" points="1845.61,-249.5 1855.61,-246 1845.61,-242.5 1845.61,-249.5"/>
</g>
<!-- RouterModule.forChild(args) -->
<g id="node6" class="node"><title>RouterModule.forChild(args)</title>
<polygon fill="#8dd3c7" stroke="black" points="1815.73,-190 1812.73,-194 1791.73,-194 1788.73,-190 1634.27,-190 1634.27,-154 1815.73,-154 1815.73,-190"/>
<text text-anchor="middle" x="1725" y="-167.8" font-family="Times,serif" font-size="14.00">RouterModule.forChild(args)</text>
</g>
<!-- RouterModule.forChild(args)&#45;&gt;LectureModule -->
<g id="edge5" class="edge"><title>RouterModule.forChild(args)&#45;&gt;LectureModule</title>
<path fill="none" stroke="black" d="M1725,-190.267C1725,-208.555 1725,-234 1725,-234 1725,-234 1554.2,-234 1554.2,-234"/>
<polygon fill="black" stroke="black" points="1554.2,-230.5 1544.2,-234 1554.2,-237.5 1554.2,-230.5"/>
</g>
<!-- BookmarksModule -->
<g id="node27" class="node"><title>BookmarksModule</title>
<polygon fill="#8dd3c7" stroke="black" points="3566.1,-258 3563.1,-262 3542.1,-262 3539.1,-258 3441.9,-258 3441.9,-222 3566.1,-222 3566.1,-258"/>
<text text-anchor="middle" x="3504" y="-235.8" font-family="Times,serif" font-size="14.00">BookmarksModule</text>
</g>
<!-- RouterModule.forChild(args)&#45;&gt;BookmarksModule -->
<g id="edge33" class="edge"><title>RouterModule.forChild(args)&#45;&gt;BookmarksModule</title>
<path fill="none" stroke="black" d="M1815.83,-172C2175.89,-172 3483.32,-172 3483.32,-172 3483.32,-172 3483.32,-211.777 3483.32,-211.777"/>
<polygon fill="black" stroke="black" points="3479.82,-211.777 3483.32,-221.777 3486.82,-211.777 3479.82,-211.777"/>
</g>
<!-- LayoutComponent -->
<g id="node7" class="node"><title>LayoutComponent</title>
<polygon fill="#ffffb3" stroke="black" points="144.49,-122 23.5098,-122 23.5098,-86 144.49,-86 144.49,-122"/>
<text text-anchor="middle" x="84" y="-99.8" font-family="Times,serif" font-size="14.00">LayoutComponent</text>
</g>
<!-- LayoutModule -->
<g id="node12" class="node"><title>LayoutModule</title>
<polygon fill="#8dd3c7" stroke="black" points="622.708,-190 619.708,-194 598.708,-194 595.708,-190 523.292,-190 523.292,-154 622.708,-154 622.708,-190"/>
<text text-anchor="middle" x="573" y="-167.8" font-family="Times,serif" font-size="14.00">LayoutModule</text>
</g>
<!-- LayoutComponent&#45;&gt;LayoutModule -->
<g id="edge6" class="edge"><title>LayoutComponent&#45;&gt;LayoutModule</title>
<path fill="none" stroke="black" d="M84,-122.248C84,-145.018 84,-181 84,-181 84,-181 512.966,-181 512.966,-181"/>
<polygon fill="black" stroke="black" points="512.966,-184.5 522.966,-181 512.966,-177.5 512.966,-184.5"/>
</g>
<!-- SidebarComponent -->
<g id="node8" class="node"><title>SidebarComponent</title>
<polygon fill="#ffffb3" stroke="black" points="706.095,-122 581.905,-122 581.905,-86 706.095,-86 706.095,-122"/>
<text text-anchor="middle" x="644" y="-99.8" font-family="Times,serif" font-size="14.00">SidebarComponent</text>
</g>
<!-- SidebarComponent&#45;&gt;LayoutModule -->
<g id="edge7" class="edge"><title>SidebarComponent&#45;&gt;LayoutModule</title>
<path fill="none" stroke="black" d="M602.278,-122.223C602.278,-122.223 602.278,-143.727 602.278,-143.727"/>
<polygon fill="black" stroke="black" points="598.778,-143.727 602.278,-153.727 605.778,-143.727 598.778,-143.727"/>
</g>
<!-- HeaderComponent -->
<g id="node9" class="node"><title>HeaderComponent</title>
<polygon fill="#ffffb3" stroke="black" points="563.744,-122 442.256,-122 442.256,-86 563.744,-86 563.744,-122"/>
<text text-anchor="middle" x="503" y="-99.8" font-family="Times,serif" font-size="14.00">HeaderComponent</text>
</g>
<!-- HeaderComponent&#45;&gt;LayoutModule -->
<g id="edge8" class="edge"><title>HeaderComponent&#45;&gt;LayoutModule</title>
<path fill="none" stroke="black" d="M543.634,-122.223C543.634,-122.223 543.634,-143.727 543.634,-143.727"/>
<polygon fill="black" stroke="black" points="540.134,-143.727 543.634,-153.727 547.134,-143.727 540.134,-143.727"/>
</g>
<!-- ContentComponent -->
<g id="node10" class="node"><title>ContentComponent</title>
<polygon fill="#ffffb3" stroke="black" points="423.665,-122 298.335,-122 298.335,-86 423.665,-86 423.665,-122"/>
<text text-anchor="middle" x="361" y="-99.8" font-family="Times,serif" font-size="14.00">ContentComponent</text>
</g>
<!-- ContentComponent&#45;&gt;LayoutModule -->
<g id="edge9" class="edge"><title>ContentComponent&#45;&gt;LayoutModule</title>
<path fill="none" stroke="black" d="M361,-122.023C361,-139.373 361,-163 361,-163 361,-163 513.295,-163 513.295,-163"/>
<polygon fill="black" stroke="black" points="513.295,-166.5 523.295,-163 513.295,-159.5 513.295,-166.5"/>
</g>
<!-- FooterComponent -->
<g id="node11" class="node"><title>FooterComponent</title>
<polygon fill="#ffffb3" stroke="black" points="279.881,-122 162.119,-122 162.119,-86 279.881,-86 279.881,-122"/>
<text text-anchor="middle" x="221" y="-99.8" font-family="Times,serif" font-size="14.00">FooterComponent</text>
</g>
<!-- FooterComponent&#45;&gt;LayoutModule -->
<g id="edge10" class="edge"><title>FooterComponent&#45;&gt;LayoutModule</title>
<path fill="none" stroke="black" d="M221,-122.223C221,-142.365 221,-172 221,-172 221,-172 513.314,-172 513.314,-172"/>
<polygon fill="black" stroke="black" points="513.314,-175.5 523.314,-172 513.314,-168.5 513.314,-175.5"/>
</g>
<!-- LayoutComponent  -->
<g id="node15" class="node"><title>LayoutComponent </title>
<polygon fill="#fb8072" stroke="black" points="635.491,-258 510.509,-258 510.509,-222 635.491,-222 635.491,-258"/>
<text text-anchor="middle" x="573" y="-235.8" font-family="Times,serif" font-size="14.00">LayoutComponent </text>
</g>
<!-- LayoutModule&#45;&gt;LayoutComponent  -->
<g id="edge13" class="edge"><title>LayoutModule&#45;&gt;LayoutComponent </title>
<path fill="none" stroke="black" stroke-dasharray="5,2" d="M573,-190.223C573,-190.223 573,-211.727 573,-211.727"/>
<polygon fill="black" stroke="black" points="569.5,-211.727 573,-221.727 576.5,-211.727 569.5,-211.727"/>
</g>
<!-- LayoutModule&#45;&gt;AppModule -->
<g id="edge26" class="edge"><title>LayoutModule&#45;&gt;AppModule</title>
<path fill="none" stroke="black" d="M622.619,-181C676.384,-181 754.587,-181 754.587,-181 754.587,-181 754.587,-327 754.587,-327 754.587,-327 2858.89,-327 2858.89,-327"/>
<polygon fill="black" stroke="black" points="2858.89,-330.5 2868.89,-327 2858.89,-323.5 2858.89,-330.5"/>
</g>
<!-- CommonModule -->
<g id="node13" class="node"><title>CommonModule</title>
<polygon fill="#8dd3c7" stroke="black" points="957.668,-122 954.668,-126 933.668,-126 930.668,-122 846.332,-122 846.332,-86 957.668,-86 957.668,-122"/>
<text text-anchor="middle" x="902" y="-99.8" font-family="Times,serif" font-size="14.00">CommonModule</text>
</g>
<!-- CommonModule&#45;&gt;SharedModule -->
<g id="edge15" class="edge"><title>CommonModule&#45;&gt;SharedModule</title>
<path fill="none" stroke="black" d="M957.762,-110C1120.5,-110 1583.4,-110 1583.4,-110 1583.4,-110 1583.4,-143.733 1583.4,-143.733"/>
<polygon fill="black" stroke="black" points="1579.9,-143.733 1583.4,-153.733 1586.9,-143.733 1579.9,-143.733"/>
</g>
<!-- CommonModule&#45;&gt;LayoutModule -->
<g id="edge11" class="edge"><title>CommonModule&#45;&gt;LayoutModule</title>
<path fill="none" stroke="black" d="M902,-122.223C902,-142.365 902,-172 902,-172 902,-172 632.611,-172 632.611,-172"/>
<polygon fill="black" stroke="black" points="632.611,-168.5 622.611,-172 632.611,-175.5 632.611,-168.5"/>
</g>
<!-- CommonModule&#45;&gt;BookmarksModule -->
<g id="edge32" class="edge"><title>CommonModule&#45;&gt;BookmarksModule</title>
<path fill="none" stroke="black" d="M957.687,-98C1336.91,-98 3524.68,-98 3524.68,-98 3524.68,-98 3524.68,-211.727 3524.68,-211.727"/>
<polygon fill="black" stroke="black" points="3521.18,-211.727 3524.68,-221.727 3528.18,-211.727 3521.18,-211.727"/>
</g>
<!-- RouterModule -->
<g id="node14" class="node"><title>RouterModule</title>
<polygon fill="#8dd3c7" stroke="black" points="827.653,-122 824.653,-126 803.653,-126 800.653,-122 730.347,-122 730.347,-86 827.653,-86 827.653,-122"/>
<text text-anchor="middle" x="779" y="-99.8" font-family="Times,serif" font-size="14.00">RouterModule</text>
</g>
<!-- RouterModule&#45;&gt;SharedModule -->
<g id="edge16" class="edge"><title>RouterModule&#45;&gt;SharedModule</title>
<path fill="none" stroke="black" d="M779,-122.194C779,-130.278 779,-138 779,-138 779,-138 1550.6,-138 1550.6,-138 1550.6,-138 1550.6,-143.806 1550.6,-143.806"/>
<polygon fill="black" stroke="black" points="1547.1,-143.806 1550.6,-153.806 1554.1,-143.806 1547.1,-143.806"/>
</g>
<!-- RouterModule&#45;&gt;LayoutModule -->
<g id="edge12" class="edge"><title>RouterModule&#45;&gt;LayoutModule</title>
<path fill="none" stroke="black" d="M803.413,-122.023C803.413,-139.373 803.413,-163 803.413,-163 803.413,-163 632.713,-163 632.713,-163"/>
<polygon fill="black" stroke="black" points="632.713,-159.5 622.713,-163 632.712,-166.5 632.713,-159.5"/>
</g>
<!-- PaginationComponent -->
<g id="node16" class="node"><title>PaginationComponent</title>
<polygon fill="#ffffb3" stroke="black" points="2418.72,-258 2277.28,-258 2277.28,-222 2418.72,-222 2418.72,-258"/>
<text text-anchor="middle" x="2348" y="-235.8" font-family="Times,serif" font-size="14.00">PaginationComponent</text>
</g>
<!-- PaginationComponent&#45;&gt;SharedModule -->
<g id="edge14" class="edge"><title>PaginationComponent&#45;&gt;SharedModule</title>
<path fill="none" stroke="black" d="M2348,-221.944C2348,-210.561 2348,-198 2348,-198 2348,-198 1558.56,-198 1558.56,-198 1558.56,-198 1558.56,-197.206 1558.56,-197.206"/>
<polygon fill="black" stroke="black" points="1562.06,-200.058 1558.56,-190.058 1555.06,-200.058 1562.06,-200.058"/>
</g>
<!-- AppComponent -->
<g id="node20" class="node"><title>AppComponent</title>
<polygon fill="#ffffb3" stroke="black" points="2880.94,-258 2775.06,-258 2775.06,-222 2880.94,-222 2880.94,-258"/>
<text text-anchor="middle" x="2828" y="-235.8" font-family="Times,serif" font-size="14.00">AppComponent</text>
</g>
<!-- AppComponent&#45;&gt;AppModule -->
<g id="edge20" class="edge"><title>AppComponent&#45;&gt;AppModule</title>
<path fill="none" stroke="black" d="M2874.95,-258.011C2874.95,-258.011 2874.95,-287.855 2874.95,-287.855"/>
<polygon fill="black" stroke="black" points="2871.45,-287.855 2874.95,-297.855 2878.45,-287.855 2871.45,-287.855"/>
</g>
<!-- HomeComponent -->
<g id="node21" class="node"><title>HomeComponent</title>
<polygon fill="#ffffb3" stroke="black" points="2757.55,-258 2642.45,-258 2642.45,-222 2757.55,-222 2757.55,-258"/>
<text text-anchor="middle" x="2700" y="-235.8" font-family="Times,serif" font-size="14.00">HomeComponent</text>
</g>
<!-- HomeComponent&#45;&gt;AppModule -->
<g id="edge21" class="edge"><title>HomeComponent&#45;&gt;AppModule</title>
<path fill="none" stroke="black" d="M2700,-258.035C2700,-277.576 2700,-306 2700,-306 2700,-306 2859.31,-306 2859.31,-306"/>
<polygon fill="black" stroke="black" points="2859.31,-309.5 2869.31,-306 2859.31,-302.5 2859.31,-309.5"/>
</g>
<!-- PageNotFoundComponent -->
<g id="node22" class="node"><title>PageNotFoundComponent</title>
<polygon fill="#ffffb3" stroke="black" points="2624.82,-258 2459.18,-258 2459.18,-222 2624.82,-222 2624.82,-258"/>
<text text-anchor="middle" x="2542" y="-235.8" font-family="Times,serif" font-size="14.00">PageNotFoundComponent</text>
</g>
<!-- PageNotFoundComponent&#45;&gt;AppModule -->
<g id="edge22" class="edge"><title>PageNotFoundComponent&#45;&gt;AppModule</title>
<path fill="none" stroke="black" d="M2542,-258.045C2542,-279.662 2542,-313 2542,-313 2542,-313 2859.03,-313 2859.03,-313"/>
<polygon fill="black" stroke="black" points="2859.03,-316.5 2869.03,-313 2859.03,-309.5 2859.03,-316.5"/>
</g>
<!-- AppComponent  -->
<g id="node29" class="node"><title>AppComponent </title>
<polygon fill="#80b1d3" stroke="black" points="2965.44,-402 2856.56,-402 2856.56,-366 2965.44,-366 2965.44,-402"/>
<text text-anchor="middle" x="2911" y="-379.8" font-family="Times,serif" font-size="14.00">AppComponent </text>
</g>
<!-- AppModule&#45;&gt;AppComponent  -->
<g id="edge30" class="edge"><title>AppModule&#45;&gt;AppComponent </title>
<path fill="none" stroke="black" stroke-dasharray="1,5" d="M2911,-334.223C2911,-334.223 2911,-355.727 2911,-355.727"/>
<polygon fill="black" stroke="black" points="2907.5,-355.727 2911,-365.727 2914.5,-355.727 2907.5,-355.727"/>
</g>
<!-- BrowserModule -->
<g id="node24" class="node"><title>BrowserModule</title>
<polygon fill="#8dd3c7" stroke="black" points="3423.47,-258 3420.47,-262 3399.47,-262 3396.47,-258 3316.53,-258 3316.53,-222 3423.47,-222 3423.47,-258"/>
<text text-anchor="middle" x="3370" y="-235.8" font-family="Times,serif" font-size="14.00">BrowserModule</text>
</g>
<!-- BrowserModule&#45;&gt;AppModule -->
<g id="edge23" class="edge"><title>BrowserModule&#45;&gt;AppModule</title>
<path fill="none" stroke="black" d="M3370,-258.011C3370,-280.485 3370,-316 3370,-316 3370,-316 2962.95,-316 2962.95,-316"/>
<polygon fill="black" stroke="black" points="2962.95,-312.5 2952.95,-316 2962.95,-319.5 2962.95,-312.5"/>
</g>
<!-- FormsModule -->
<g id="node25" class="node"><title>FormsModule</title>
<polygon fill="#8dd3c7" stroke="black" points="3298.83,-258 3295.83,-262 3274.83,-262 3271.83,-258 3203.17,-258 3203.17,-222 3298.83,-222 3298.83,-258"/>
<text text-anchor="middle" x="3251" y="-235.8" font-family="Times,serif" font-size="14.00">FormsModule</text>
</g>
<!-- FormsModule&#45;&gt;AppModule -->
<g id="edge24" class="edge"><title>FormsModule&#45;&gt;AppModule</title>
<path fill="none" stroke="black" d="M3251,-258.027C3251,-278.767 3251,-310 3251,-310 3251,-310 2962.69,-310 2962.69,-310"/>
<polygon fill="black" stroke="black" points="2962.69,-306.5 2952.69,-310 2962.69,-313.5 2962.69,-306.5"/>
</g>
<!-- HttpModule -->
<g id="node26" class="node"><title>HttpModule</title>
<polygon fill="#8dd3c7" stroke="black" points="3185.44,-258 3182.44,-262 3161.44,-262 3158.44,-258 3100.56,-258 3100.56,-222 3185.44,-222 3185.44,-258"/>
<text text-anchor="middle" x="3143" y="-235.8" font-family="Times,serif" font-size="14.00">HttpModule</text>
</g>
<!-- HttpModule&#45;&gt;AppModule -->
<g id="edge25" class="edge"><title>HttpModule&#45;&gt;AppModule</title>
<path fill="none" stroke="black" d="M3143,-258.169C3143,-277.09 3143,-304 3143,-304 3143,-304 2962.74,-304 2962.74,-304"/>
<polygon fill="black" stroke="black" points="2962.74,-300.5 2952.74,-304 2962.74,-307.5 2962.74,-300.5"/>
</g>
<!-- BookmarksModule&#45;&gt;AppModule -->
<g id="edge28" class="edge"><title>BookmarksModule&#45;&gt;AppModule</title>
<path fill="none" stroke="black" d="M3483.32,-258.198C3483.32,-282.356 3483.32,-322 3483.32,-322 3483.32,-322 2963.08,-322 2963.08,-322"/>
<polygon fill="black" stroke="black" points="2963.08,-318.5 2953.08,-322 2963.08,-325.5 2963.08,-318.5"/>
</g>
<!-- BookmarksComponent  -->
<g id="node31" class="node"><title>BookmarksComponent </title>
<polygon fill="#fb8072" stroke="black" points="3755.88,-334 3606.12,-334 3606.12,-298 3755.88,-298 3755.88,-334"/>
<text text-anchor="middle" x="3681" y="-311.8" font-family="Times,serif" font-size="14.00">BookmarksComponent </text>
</g>
<!-- BookmarksModule&#45;&gt;BookmarksComponent  -->
<g id="edge34" class="edge"><title>BookmarksModule&#45;&gt;BookmarksComponent </title>
<path fill="none" stroke="black" stroke-dasharray="5,2" d="M3524.68,-258.234C3524.68,-284.009 3524.68,-328 3524.68,-328 3524.68,-328 3596.05,-328 3596.05,-328"/>
<polygon fill="black" stroke="black" points="3596.05,-331.5 3606.05,-328 3596.05,-324.5 3596.05,-331.5"/>
</g>
<!-- RouterModule.forRoot(args) -->
<g id="node28" class="node"><title>RouterModule.forRoot(args)</title>
<polygon fill="#8dd3c7" stroke="black" points="3082.84,-258 3079.84,-262 3058.84,-262 3055.84,-258 2905.16,-258 2905.16,-222 3082.84,-222 3082.84,-258"/>
<text text-anchor="middle" x="2994" y="-235.8" font-family="Times,serif" font-size="14.00">RouterModule.forRoot(args)</text>
</g>
<!-- RouterModule.forRoot(args)&#45;&gt;AppModule -->
<g id="edge29" class="edge"><title>RouterModule.forRoot(args)&#45;&gt;AppModule</title>
<path fill="none" stroke="black" d="M2929.08,-258.011C2929.08,-258.011 2929.08,-287.855 2929.08,-287.855"/>
<polygon fill="black" stroke="black" points="2925.58,-287.855 2929.08,-297.855 2932.58,-287.855 2925.58,-287.855"/>
</g>
<!-- BookmarksComponent -->
<g id="node30" class="node"><title>BookmarksComponent</title>
<polygon fill="#ffffb3" stroke="black" points="3925.88,-334 3780.12,-334 3780.12,-298 3925.88,-298 3925.88,-334"/>
<text text-anchor="middle" x="3853" y="-311.8" font-family="Times,serif" font-size="14.00">BookmarksComponent</text>
</g>
<!-- BookmarksComponent&#45;&gt;BookmarksModule -->
<g id="edge31" class="edge"><title>BookmarksComponent&#45;&gt;BookmarksModule</title>
<path fill="none" stroke="black" d="M3853,-297.989C3853,-275.515 3853,-240 3853,-240 3853,-240 3576.39,-240 3576.39,-240"/>
<polygon fill="black" stroke="black" points="3576.39,-236.5 3566.39,-240 3576.39,-243.5 3576.39,-236.5"/>
</g>
</g>
</svg>
