<?xml version="1.0" encoding="UTF-8" standalone="no"?>
<!DOCTYPE svg PUBLIC "-//W3C//DTD SVG 1.1//EN"
 "http://www.w3.org/Graphics/SVG/1.1/DTD/svg11.dtd">
<!-- Generated by graphviz version 2.38.0 (20140413.2041)
 -->
<!-- Title: dependencies Pages: 1 -->
<svg width="4725pt" height="426pt"
 viewBox="0.00 0.00 4725.00 426.00" xmlns="http://www.w3.org/2000/svg" xmlns:xlink="http://www.w3.org/1999/xlink">
<g id="graph0" class="graph" transform="scale(1 1) rotate(0) translate(4 422)">
<title>dependencies</title>
<polygon fill="white" stroke="none" points="-4,4 -4,-422 4721,-422 4721,4 -4,4"/>
<text text-anchor="start" x="2337.51" y="-42.4" font-family="sans-serif" font-weight="bold" font-size="14.00">Legend</text>
<polygon fill="#ffffb3" stroke="none" points="2124.5,-10 2124.5,-30 2144.5,-30 2144.5,-10 2124.5,-10"/>
<text text-anchor="start" x="2148.13" y="-15.4" font-family="sans-serif" font-size="14.00"> &#160;Declarations</text>
<polygon fill="#8dd3c7" stroke="none" points="2237.5,-10 2237.5,-30 2257.5,-30 2257.5,-10 2237.5,-10"/>
<text text-anchor="start" x="2261.23" y="-15.4" font-family="sans-serif" font-size="14.00"> &#160;Module</text>
<polygon fill="#80b1d3" stroke="none" points="2323.5,-10 2323.5,-30 2343.5,-30 2343.5,-10 2323.5,-10"/>
<text text-anchor="start" x="2347.28" y="-15.4" font-family="sans-serif" font-size="14.00"> &#160;Bootstrap</text>
<polygon fill="#fdb462" stroke="none" points="2420.5,-10 2420.5,-30 2440.5,-30 2440.5,-10 2420.5,-10"/>
<text text-anchor="start" x="2444.17" y="-15.4" font-family="sans-serif" font-size="14.00"> &#160;Providers</text>
<polygon fill="#fb8072" stroke="none" points="2516.5,-10 2516.5,-30 2536.5,-30 2536.5,-10 2516.5,-10"/>
<text text-anchor="start" x="2540.23" y="-15.4" font-family="sans-serif" font-size="14.00"> &#160;Exports</text>
<g id="clust1" class="cluster"><title>cluster_LectureModule</title>
<polygon fill="none" stroke="black" stroke-dasharray="1,5" points="1021,-138 1021,-266 1871,-266 1871,-138 1021,-138"/>
</g>
<g id="clust2" class="cluster"><title>cluster_LectureModule_declarations</title>
<polygon fill="none" stroke="black" points="1351,-146 1351,-198 1863,-198 1863,-146 1351,-146"/>
</g>
<g id="clust6" class="cluster"><title>cluster_LectureModule_imports</title>
<polygon fill="none" stroke="black" points="1029,-146 1029,-198 1343,-198 1343,-146 1029,-146"/>
</g>
<g id="clust10" class="cluster"><title>cluster_LayoutModule</title>
<polygon fill="none" stroke="black" stroke-dasharray="1,5" points="3743,-70 3743,-274 4709,-274 4709,-70 3743,-70"/>
</g>
<g id="clust11" class="cluster"><title>cluster_LayoutModule_declarations</title>
<polygon fill="none" stroke="black" points="4003,-78 4003,-130 4701,-130 4701,-78 4003,-78"/>
</g>
<g id="clust17" class="cluster"><title>cluster_LayoutModule_imports</title>
<polygon fill="none" stroke="black" points="3751,-78 3751,-130 3995,-130 3995,-78 3751,-78"/>
</g>
<g id="clust18" class="cluster"><title>cluster_LayoutModule_exports</title>
<polygon fill="none" stroke="black" points="4069,-214 4069,-266 4209,-266 4209,-214 4069,-214"/>
</g>
<g id="clust21" class="cluster"><title>cluster_SharedModule</title>
<polygon fill="none" stroke="black" stroke-dasharray="1,5" points="198,-206 198,-274 1013,-274 1013,-206 198,-206"/>
</g>
<g id="clust22" class="cluster"><title>cluster_SharedModule_declarations</title>
<polygon fill="none" stroke="black" points="739,-214 739,-266 1005,-266 1005,-214 739,-214"/>
</g>
<g id="clust26" class="cluster"><title>cluster_SharedModule_exports</title>
<polygon fill="none" stroke="black" points="206,-214 206,-266 731,-266 731,-214 206,-214"/>
</g>
<g id="clust29" class="cluster"><title>cluster_BookmarksModule</title>
<polygon fill="none" stroke="black" stroke-dasharray="1,5" points="8,-138 8,-342 190,-342 190,-138 8,-138"/>
</g>
<g id="clust30" class="cluster"><title>cluster_BookmarksModule_declarations</title>
<polygon fill="none" stroke="black" points="20,-146 20,-198 182,-198 182,-146 20,-146"/>
</g>
<g id="clust33" class="cluster"><title>cluster_BookmarksModule_exports</title>
<polygon fill="none" stroke="black" points="16,-282 16,-334 182,-334 182,-282 16,-282"/>
</g>
<g id="clust36" class="cluster"><title>cluster_ArticleModule</title>
<polygon fill="none" stroke="black" stroke-dasharray="1,5" points="1879,-138 1879,-266 2395,-266 2395,-138 1879,-138"/>
</g>
<g id="clust37" class="cluster"><title>cluster_ArticleModule_declarations</title>
<polygon fill="none" stroke="black" points="1887,-146 1887,-198 2387,-198 2387,-146 1887,-146"/>
</g>
<g id="clust45" class="cluster"><title>cluster_AppModule</title>
<polygon fill="none" stroke="black" stroke-dasharray="1,5" points="2425,-206 2425,-410 3735,-410 3735,-206 2425,-206"/>
</g>
<g id="clust46" class="cluster"><title>cluster_AppModule_declarations</title>
<polygon fill="none" stroke="black" points="3289,-214 3289,-266 3727,-266 3727,-214 3289,-214"/>
</g>
<g id="clust50" class="cluster"><title>cluster_AppModule_imports</title>
<polygon fill="none" stroke="black" points="2747,-214 2747,-266 3281,-266 3281,-214 2747,-214"/>
</g>
<g id="clust52" class="cluster"><title>cluster_AppModule_bootstrap</title>
<polygon fill="none" stroke="black" points="2782,-350 2782,-402 2906,-402 2906,-350 2782,-350"/>
</g>
<g id="clust53" class="cluster"><title>cluster_AppModule_providers</title>
<polygon fill="none" stroke="black" points="2433,-214 2433,-266 2739,-266 2739,-214 2433,-214"/>
</g>
<!-- LectureListComponent -->
<g id="node1" class="node"><title>LectureListComponent</title>
<polygon fill="#ffffb3" stroke="black" points="1672.86,-190 1527.14,-190 1527.14,-154 1672.86,-154 1672.86,-190"/>
<text text-anchor="middle" x="1600" y="-167.8" font-family="Times,serif" font-size="14.00">LectureListComponent</text>
</g>
<!-- LectureModule -->
<g id="node4" class="node"><title>LectureModule</title>
<polygon fill="#8dd3c7" stroke="black" points="1568.3,-258 1565.3,-262 1544.3,-262 1541.3,-258 1465.7,-258 1465.7,-222 1568.3,-222 1568.3,-258"/>
<text text-anchor="middle" x="1517" y="-235.8" font-family="Times,serif" font-size="14.00">LectureModule</text>
</g>
<!-- LectureListComponent&#45;&gt;LectureModule -->
<g id="edge1" class="edge"><title>LectureListComponent&#45;&gt;LectureModule</title>
<path fill="none" stroke="black" d="M1547.61,-190.223C1547.61,-190.223 1547.61,-211.727 1547.61,-211.727"/>
<polygon fill="black" stroke="black" points="1544.11,-211.727 1547.61,-221.727 1551.11,-211.727 1544.11,-211.727"/>
</g>
<!-- LectureItemComponent -->
<g id="node2" class="node"><title>LectureItemComponent</title>
<polygon fill="#ffffb3" stroke="black" points="1508.74,-190 1359.26,-190 1359.26,-154 1508.74,-154 1508.74,-190"/>
<text text-anchor="middle" x="1434" y="-167.8" font-family="Times,serif" font-size="14.00">LectureItemComponent</text>
</g>
<!-- LectureItemComponent&#45;&gt;LectureModule -->
<g id="edge2" class="edge"><title>LectureItemComponent&#45;&gt;LectureModule</title>
<path fill="none" stroke="black" d="M1487.36,-190.223C1487.36,-190.223 1487.36,-211.727 1487.36,-211.727"/>
<polygon fill="black" stroke="black" points="1483.86,-211.727 1487.36,-221.727 1490.86,-211.727 1483.86,-211.727"/>
</g>
<!-- LectureDetailsComponent -->
<g id="node3" class="node"><title>LectureDetailsComponent</title>
<polygon fill="#ffffb3" stroke="black" points="1854.73,-190 1691.27,-190 1691.27,-154 1854.73,-154 1854.73,-190"/>
<text text-anchor="middle" x="1773" y="-167.8" font-family="Times,serif" font-size="14.00">LectureDetailsComponent</text>
</g>
<!-- LectureDetailsComponent&#45;&gt;LectureModule -->
<g id="edge3" class="edge"><title>LectureDetailsComponent&#45;&gt;LectureModule</title>
<path fill="none" stroke="black" d="M1773,-190.223C1773,-210.365 1773,-240 1773,-240 1773,-240 1578.19,-240 1578.19,-240"/>
<polygon fill="black" stroke="black" points="1578.19,-236.5 1568.19,-240 1578.19,-243.5 1578.19,-236.5"/>
</g>
<!-- AppModule -->
<g id="node32" class="node"><title>AppModule</title>
<polygon fill="#8dd3c7" stroke="black" points="2885.66,-326 2882.66,-330 2861.66,-330 2858.66,-326 2802.34,-326 2802.34,-290 2885.66,-290 2885.66,-326"/>
<text text-anchor="middle" x="2844" y="-303.8" font-family="Times,serif" font-size="14.00">AppModule</text>
</g>
<!-- LectureModule&#45;&gt;AppModule -->
<g id="edge38" class="edge"><title>LectureModule&#45;&gt;AppModule</title>
<path fill="none" stroke="black" d="M1517,-258.292C1517,-280.206 1517,-314 1517,-314 1517,-314 2792.09,-314 2792.09,-314"/>
<polygon fill="black" stroke="black" points="2792.09,-317.5 2802.09,-314 2792.09,-310.5 2792.09,-317.5"/>
</g>
<!-- SharedModule -->
<g id="node5" class="node"><title>SharedModule</title>
<polygon fill="#8dd3c7" stroke="black" points="1135.42,-190 1132.42,-194 1111.42,-194 1108.42,-190 1036.58,-190 1036.58,-154 1135.42,-154 1135.42,-190"/>
<text text-anchor="middle" x="1086" y="-167.8" font-family="Times,serif" font-size="14.00">SharedModule</text>
</g>
<!-- SharedModule&#45;&gt;LectureModule -->
<g id="edge4" class="edge"><title>SharedModule&#45;&gt;LectureModule</title>
<path fill="none" stroke="black" d="M1110.61,-190.223C1110.61,-210.365 1110.61,-240 1110.61,-240 1110.61,-240 1455.53,-240 1455.53,-240"/>
<polygon fill="black" stroke="black" points="1455.53,-243.5 1465.53,-240 1455.53,-236.5 1455.53,-243.5"/>
</g>
<!-- CommonModule  -->
<g id="node18" class="node"><title>CommonModule </title>
<polygon fill="#fb8072" stroke="black" points="722.668,-258 607.332,-258 607.332,-222 722.668,-222 722.668,-258"/>
<text text-anchor="middle" x="665" y="-235.8" font-family="Times,serif" font-size="14.00">CommonModule </text>
</g>
<!-- SharedModule&#45;&gt;CommonModule  -->
<g id="edge18" class="edge"><title>SharedModule&#45;&gt;CommonModule </title>
<path fill="none" stroke="black" stroke-dasharray="5,2" d="M1036.47,-178C925.18,-178 665,-178 665,-178 665,-178 665,-211.733 665,-211.733"/>
<polygon fill="black" stroke="black" points="661.5,-211.733 665,-221.733 668.5,-211.733 661.5,-211.733"/>
</g>
<!-- RouterModule  -->
<g id="node19" class="node"><title>RouterModule </title>
<polygon fill="#fb8072" stroke="black" points="589.652,-258 488.348,-258 488.348,-222 589.652,-222 589.652,-258"/>
<text text-anchor="middle" x="539" y="-235.8" font-family="Times,serif" font-size="14.00">RouterModule </text>
</g>
<!-- SharedModule&#45;&gt;RouterModule  -->
<g id="edge19" class="edge"><title>SharedModule&#45;&gt;RouterModule </title>
<path fill="none" stroke="black" stroke-dasharray="5,2" d="M1036.49,-172C901.844,-172 539,-172 539,-172 539,-172 539,-211.777 539,-211.777"/>
<polygon fill="black" stroke="black" points="535.5,-211.777 539,-221.777 542.5,-211.777 535.5,-211.777"/>
</g>
<!-- PaginationComponent  -->
<g id="node20" class="node"><title>PaginationComponent </title>
<polygon fill="#fb8072" stroke="black" points="470.216,-258 325.784,-258 325.784,-222 470.216,-222 470.216,-258"/>
<text text-anchor="middle" x="398" y="-235.8" font-family="Times,serif" font-size="14.00">PaginationComponent </text>
</g>
<!-- SharedModule&#45;&gt;PaginationComponent  -->
<g id="edge20" class="edge"><title>SharedModule&#45;&gt;PaginationComponent </title>
<path fill="none" stroke="black" stroke-dasharray="5,2" d="M1036.52,-166C878.769,-166 398,-166 398,-166 398,-166 398,-211.708 398,-211.708"/>
<polygon fill="black" stroke="black" points="394.5,-211.708 398,-221.708 401.5,-211.708 394.5,-211.708"/>
</g>
<!-- TruncatePipe  -->
<g id="node21" class="node"><title>TruncatePipe </title>
<polygon fill="#fb8072" stroke="black" points="308.135,-258 213.865,-258 213.865,-222 308.135,-222 308.135,-258"/>
<text text-anchor="middle" x="261" y="-235.8" font-family="Times,serif" font-size="14.00">TruncatePipe </text>
</g>
<!-- SharedModule&#45;&gt;TruncatePipe  -->
<g id="edge21" class="edge"><title>SharedModule&#45;&gt;TruncatePipe </title>
<path fill="none" stroke="black" stroke-dasharray="5,2" d="M1036.56,-160C858.57,-160 261,-160 261,-160 261,-160 261,-211.847 261,-211.847"/>
<polygon fill="black" stroke="black" points="257.5,-211.847 261,-221.847 264.5,-211.847 257.5,-211.847"/>
</g>
<!-- ArticleModule -->
<g id="node28" class="node"><title>ArticleModule</title>
<polygon fill="#8dd3c7" stroke="black" points="2098.42,-258 2095.42,-262 2074.42,-262 2071.42,-258 1999.58,-258 1999.58,-222 2098.42,-222 2098.42,-258"/>
<text text-anchor="middle" x="2049" y="-235.8" font-family="Times,serif" font-size="14.00">ArticleModule</text>
</g>
<!-- SharedModule&#45;&gt;ArticleModule -->
<g id="edge29" class="edge"><title>SharedModule&#45;&gt;ArticleModule</title>
<path fill="none" stroke="black" d="M1061.39,-190.056C1061.39,-201.439 1061.39,-214 1061.39,-214 1061.39,-214 2010.08,-214 2010.08,-214 2010.08,-214 2010.08,-214.794 2010.08,-214.794"/>
<polygon fill="black" stroke="black" points="2006.58,-211.942 2010.08,-221.942 2013.58,-211.942 2006.58,-211.942"/>
</g>
<!-- RouterModule.forChild(args) -->
<g id="node6" class="node"><title>RouterModule.forChild(args)</title>
<polygon fill="#8dd3c7" stroke="black" points="1334.73,-190 1331.73,-194 1310.73,-194 1307.73,-190 1153.27,-190 1153.27,-154 1334.73,-154 1334.73,-190"/>
<text text-anchor="middle" x="1244" y="-167.8" font-family="Times,serif" font-size="14.00">RouterModule.forChild(args)</text>
</g>
<!-- RouterModule.forChild(args)&#45;&gt;LectureModule -->
<g id="edge5" class="edge"><title>RouterModule.forChild(args)&#45;&gt;LectureModule</title>
<path fill="none" stroke="black" d="M1289.31,-190.023C1289.31,-207.373 1289.31,-231 1289.31,-231 1289.31,-231 1455.62,-231 1455.62,-231"/>
<polygon fill="black" stroke="black" points="1455.62,-234.5 1465.62,-231 1455.62,-227.5 1455.62,-234.5"/>
</g>
<!-- BookmarksModule -->
<g id="node23" class="node"><title>BookmarksModule</title>
<polygon fill="#8dd3c7" stroke="black" points="182.097,-258 179.097,-262 158.097,-262 155.097,-258 57.9032,-258 57.9032,-222 182.097,-222 182.097,-258"/>
<text text-anchor="middle" x="120" y="-235.8" font-family="Times,serif" font-size="14.00">BookmarksModule</text>
</g>
<!-- RouterModule.forChild(args)&#45;&gt;BookmarksModule -->
<g id="edge24" class="edge"><title>RouterModule.forChild(args)&#45;&gt;BookmarksModule</title>
<path fill="none" stroke="black" d="M1198.69,-190.058C1198.69,-194.495 1198.69,-198 1198.69,-198 1198.69,-198 179.345,-198 179.345,-198 179.345,-198 179.345,-211.944 179.345,-211.944"/>
<polygon fill="black" stroke="black" points="175.846,-211.944 179.345,-221.944 182.846,-211.945 175.846,-211.944"/>
</g>
<!-- RouterModule.forChild(args)&#45;&gt;ArticleModule -->
<g id="edge30" class="edge"><title>RouterModule.forChild(args)&#45;&gt;ArticleModule</title>
<path fill="none" stroke="black" d="M1244,-190.194C1244,-198.278 1244,-206 1244,-206 1244,-206 2020.36,-206 2020.36,-206 2020.36,-206 2020.36,-211.806 2020.36,-211.806"/>
<polygon fill="black" stroke="black" points="2016.86,-211.806 2020.36,-221.806 2023.86,-211.806 2016.86,-211.806"/>
</g>
<!-- LayoutComponent -->
<g id="node7" class="node"><title>LayoutComponent</title>
<polygon fill="#ffffb3" stroke="black" points="4131.49,-122 4010.51,-122 4010.51,-86 4131.49,-86 4131.49,-122"/>
<text text-anchor="middle" x="4071" y="-99.8" font-family="Times,serif" font-size="14.00">LayoutComponent</text>
</g>
<!-- LayoutModule -->
<g id="node12" class="node"><title>LayoutModule</title>
<polygon fill="#8dd3c7" stroke="black" points="4188.71,-190 4185.71,-194 4164.71,-194 4161.71,-190 4089.29,-190 4089.29,-154 4188.71,-154 4188.71,-190"/>
<text text-anchor="middle" x="4139" y="-167.8" font-family="Times,serif" font-size="14.00">LayoutModule</text>
</g>
<!-- LayoutComponent&#45;&gt;LayoutModule -->
<g id="edge6" class="edge"><title>LayoutComponent&#45;&gt;LayoutModule</title>
<path fill="none" stroke="black" d="M4110.45,-122.223C4110.45,-122.223 4110.45,-143.727 4110.45,-143.727"/>
<polygon fill="black" stroke="black" points="4106.95,-143.727 4110.45,-153.727 4113.95,-143.727 4106.95,-143.727"/>
</g>
<!-- SidebarComponent -->
<g id="node8" class="node"><title>SidebarComponent</title>
<polygon fill="#ffffb3" stroke="black" points="4693.1,-122 4568.9,-122 4568.9,-86 4693.1,-86 4693.1,-122"/>
<text text-anchor="middle" x="4631" y="-99.8" font-family="Times,serif" font-size="14.00">SidebarComponent</text>
</g>
<!-- SidebarComponent&#45;&gt;LayoutModule -->
<g id="edge7" class="edge"><title>SidebarComponent&#45;&gt;LayoutModule</title>
<path fill="none" stroke="black" d="M4631,-122.248C4631,-145.018 4631,-181 4631,-181 4631,-181 4198.88,-181 4198.88,-181"/>
<polygon fill="black" stroke="black" points="4198.88,-177.5 4188.88,-181 4198.88,-184.5 4198.88,-177.5"/>
</g>
<!-- HeaderComponent -->
<g id="node9" class="node"><title>HeaderComponent</title>
<polygon fill="#ffffb3" stroke="black" points="4550.74,-122 4429.26,-122 4429.26,-86 4550.74,-86 4550.74,-122"/>
<text text-anchor="middle" x="4490" y="-99.8" font-family="Times,serif" font-size="14.00">HeaderComponent</text>
</g>
<!-- HeaderComponent&#45;&gt;LayoutModule -->
<g id="edge8" class="edge"><title>HeaderComponent&#45;&gt;LayoutModule</title>
<path fill="none" stroke="black" d="M4490,-122.223C4490,-142.365 4490,-172 4490,-172 4490,-172 4198.92,-172 4198.92,-172"/>
<polygon fill="black" stroke="black" points="4198.92,-168.5 4188.92,-172 4198.92,-175.5 4198.92,-168.5"/>
</g>
<!-- ContentComponent -->
<g id="node10" class="node"><title>ContentComponent</title>
<polygon fill="#ffffb3" stroke="black" points="4410.67,-122 4285.33,-122 4285.33,-86 4410.67,-86 4410.67,-122"/>
<text text-anchor="middle" x="4348" y="-99.8" font-family="Times,serif" font-size="14.00">ContentComponent</text>
</g>
<!-- ContentComponent&#45;&gt;LayoutModule -->
<g id="edge9" class="edge"><title>ContentComponent&#45;&gt;LayoutModule</title>
<path fill="none" stroke="black" d="M4348,-122.023C4348,-139.373 4348,-163 4348,-163 4348,-163 4198.8,-163 4198.8,-163"/>
<polygon fill="black" stroke="black" points="4198.8,-159.5 4188.8,-163 4198.8,-166.5 4198.8,-159.5"/>
</g>
<!-- FooterComponent -->
<g id="node11" class="node"><title>FooterComponent</title>
<polygon fill="#ffffb3" stroke="black" points="4266.88,-122 4149.12,-122 4149.12,-86 4266.88,-86 4266.88,-122"/>
<text text-anchor="middle" x="4208" y="-99.8" font-family="Times,serif" font-size="14.00">FooterComponent</text>
</g>
<!-- FooterComponent&#45;&gt;LayoutModule -->
<g id="edge10" class="edge"><title>FooterComponent&#45;&gt;LayoutModule</title>
<path fill="none" stroke="black" d="M4168.83,-122.223C4168.83,-122.223 4168.83,-143.727 4168.83,-143.727"/>
<polygon fill="black" stroke="black" points="4165.33,-143.727 4168.83,-153.727 4172.33,-143.727 4165.33,-143.727"/>
</g>
<!-- LayoutComponent  -->
<g id="node15" class="node"><title>LayoutComponent </title>
<polygon fill="#fb8072" stroke="black" points="4201.49,-258 4076.51,-258 4076.51,-222 4201.49,-222 4201.49,-258"/>
<text text-anchor="middle" x="4139" y="-235.8" font-family="Times,serif" font-size="14.00">LayoutComponent </text>
</g>
<!-- LayoutModule&#45;&gt;LayoutComponent  -->
<g id="edge13" class="edge"><title>LayoutModule&#45;&gt;LayoutComponent </title>
<path fill="none" stroke="black" stroke-dasharray="5,2" d="M4139,-190.223C4139,-190.223 4139,-211.727 4139,-211.727"/>
<polygon fill="black" stroke="black" points="4135.5,-211.727 4139,-221.727 4142.5,-211.727 4135.5,-211.727"/>
</g>
<!-- LayoutModule&#45;&gt;AppModule -->
<g id="edge37" class="edge"><title>LayoutModule&#45;&gt;AppModule</title>
<path fill="none" stroke="black" d="M4089.13,-181C4048.79,-181 3998.67,-181 3998.67,-181 3998.67,-181 3998.67,-322 3998.67,-322 3998.67,-322 2895.78,-322 2895.78,-322"/>
<polygon fill="black" stroke="black" points="2895.78,-318.5 2885.78,-322 2895.78,-325.5 2895.78,-318.5"/>
</g>
<!-- CommonModule -->
<g id="node13" class="node"><title>CommonModule</title>
<polygon fill="#8dd3c7" stroke="black" points="3870.67,-122 3867.67,-126 3846.67,-126 3843.67,-122 3759.33,-122 3759.33,-86 3870.67,-86 3870.67,-122"/>
<text text-anchor="middle" x="3815" y="-99.8" font-family="Times,serif" font-size="14.00">CommonModule</text>
</g>
<!-- CommonModule&#45;&gt;SharedModule -->
<g id="edge16" class="edge"><title>CommonModule&#45;&gt;SharedModule</title>
<path fill="none" stroke="black" d="M3759.23,-110C3369.54,-110 1069.6,-110 1069.6,-110 1069.6,-110 1069.6,-143.733 1069.6,-143.733"/>
<polygon fill="black" stroke="black" points="1066.1,-143.733 1069.6,-153.733 1073.1,-143.733 1066.1,-143.733"/>
</g>
<!-- CommonModule&#45;&gt;LayoutModule -->
<g id="edge11" class="edge"><title>CommonModule&#45;&gt;LayoutModule</title>
<path fill="none" stroke="black" d="M3815,-122.223C3815,-142.365 3815,-172 3815,-172 3815,-172 4079.09,-172 4079.09,-172"/>
<polygon fill="black" stroke="black" points="4079.09,-175.5 4089.09,-172 4079.09,-168.5 4079.09,-175.5"/>
</g>
<!-- CommonModule&#45;&gt;BookmarksModule -->
<g id="edge23" class="edge"><title>CommonModule&#45;&gt;BookmarksModule</title>
<path fill="none" stroke="black" d="M3759.31,-98C3301.56,-98 176.643,-98 176.643,-98 176.643,-98 176.643,-211.727 176.643,-211.727"/>
<polygon fill="black" stroke="black" points="173.143,-211.727 176.643,-221.727 180.143,-211.727 173.143,-211.727"/>
</g>
<!-- RouterModule -->
<g id="node14" class="node"><title>RouterModule</title>
<polygon fill="#8dd3c7" stroke="black" points="3986.65,-122 3983.65,-126 3962.65,-126 3959.65,-122 3889.35,-122 3889.35,-86 3986.65,-86 3986.65,-122"/>
<text text-anchor="middle" x="3938" y="-99.8" font-family="Times,serif" font-size="14.00">RouterModule</text>
</g>
<!-- RouterModule&#45;&gt;SharedModule -->
<g id="edge17" class="edge"><title>RouterModule&#45;&gt;SharedModule</title>
<path fill="none" stroke="black" d="M3921.72,-122.194C3921.72,-130.278 3921.72,-138 3921.72,-138 3921.72,-138 1102.4,-138 1102.4,-138 1102.4,-138 1102.4,-143.806 1102.4,-143.806"/>
<polygon fill="black" stroke="black" points="1098.9,-143.806 1102.4,-153.806 1105.9,-143.806 1098.9,-143.806"/>
</g>
<!-- RouterModule&#45;&gt;LayoutModule -->
<g id="edge12" class="edge"><title>RouterModule&#45;&gt;LayoutModule</title>
<path fill="none" stroke="black" d="M3954.28,-122.023C3954.28,-139.373 3954.28,-163 3954.28,-163 3954.28,-163 4079.01,-163 4079.01,-163"/>
<polygon fill="black" stroke="black" points="4079.01,-166.5 4089.01,-163 4079.01,-159.5 4079.01,-166.5"/>
</g>
<!-- PaginationComponent -->
<g id="node16" class="node"><title>PaginationComponent</title>
<polygon fill="#ffffb3" stroke="black" points="996.716,-258 855.284,-258 855.284,-222 996.716,-222 996.716,-258"/>
<text text-anchor="middle" x="926" y="-235.8" font-family="Times,serif" font-size="14.00">PaginationComponent</text>
</g>
<!-- PaginationComponent&#45;&gt;SharedModule -->
<g id="edge14" class="edge"><title>PaginationComponent&#45;&gt;SharedModule</title>
<path fill="none" stroke="black" d="M996.644,-249C1039.51,-249 1086,-249 1086,-249 1086,-249 1086,-200.248 1086,-200.248"/>
<polygon fill="black" stroke="black" points="1089.5,-200.248 1086,-190.248 1082.5,-200.248 1089.5,-200.248"/>
</g>
<!-- TruncatePipe -->
<g id="node17" class="node"><title>TruncatePipe</title>
<polygon fill="#ffffb3" stroke="black" points="837.136,-258 746.864,-258 746.864,-222 837.136,-222 837.136,-258"/>
<text text-anchor="middle" x="792" y="-235.8" font-family="Times,serif" font-size="14.00">TruncatePipe</text>
</g>
<!-- TruncatePipe&#45;&gt;SharedModule -->
<g id="edge15" class="edge"><title>TruncatePipe&#45;&gt;SharedModule</title>
<path fill="none" stroke="black" d="M792,-221.973C792,-205.602 792,-184 792,-184 792,-184 1026.46,-184 1026.46,-184"/>
<polygon fill="black" stroke="black" points="1026.46,-187.5 1036.46,-184 1026.46,-180.5 1026.46,-187.5"/>
</g>
<!-- BookmarksComponent -->
<g id="node22" class="node"><title>BookmarksComponent</title>
<polygon fill="#ffffb3" stroke="black" points="173.879,-190 28.1206,-190 28.1206,-154 173.879,-154 173.879,-190"/>
<text text-anchor="middle" x="101" y="-167.8" font-family="Times,serif" font-size="14.00">BookmarksComponent</text>
</g>
<!-- BookmarksComponent&#45;&gt;BookmarksModule -->
<g id="edge22" class="edge"><title>BookmarksComponent&#45;&gt;BookmarksModule</title>
<path fill="none" stroke="black" d="M115.946,-190.223C115.946,-190.223 115.946,-211.727 115.946,-211.727"/>
<polygon fill="black" stroke="black" points="112.446,-211.727 115.946,-221.727 119.446,-211.727 112.446,-211.727"/>
</g>
<!-- BookmarksComponent  -->
<g id="node24" class="node"><title>BookmarksComponent </title>
<polygon fill="#fb8072" stroke="black" points="173.88,-326 24.1201,-326 24.1201,-290 173.88,-290 173.88,-326"/>
<text text-anchor="middle" x="99" y="-303.8" font-family="Times,serif" font-size="14.00">BookmarksComponent </text>
</g>
<!-- BookmarksModule&#45;&gt;BookmarksComponent  -->
<g id="edge25" class="edge"><title>BookmarksModule&#45;&gt;BookmarksComponent </title>
<path fill="none" stroke="black" stroke-dasharray="5,2" d="M115.821,-258.223C115.821,-258.223 115.821,-279.727 115.821,-279.727"/>
<polygon fill="black" stroke="black" points="112.321,-279.727 115.821,-289.727 119.321,-279.727 112.321,-279.727"/>
</g>
<!-- BookmarksModule&#45;&gt;AppModule -->
<g id="edge40" class="edge"><title>BookmarksModule&#45;&gt;AppModule</title>
<path fill="none" stroke="black" d="M177.869,-258.153C177.869,-281.757 177.869,-320 177.869,-320 177.869,-320 2792.12,-320 2792.12,-320"/>
<polygon fill="black" stroke="black" points="2792.12,-323.5 2802.12,-320 2792.12,-316.5 2792.12,-323.5"/>
</g>
<!-- ArticleListComponent -->
<g id="node25" class="node"><title>ArticleListComponent</title>
<polygon fill="#ffffb3" stroke="black" points="2200.98,-190 2059.02,-190 2059.02,-154 2200.98,-154 2200.98,-190"/>
<text text-anchor="middle" x="2130" y="-167.8" font-family="Times,serif" font-size="14.00">ArticleListComponent</text>
</g>
<!-- ArticleListComponent&#45;&gt;ArticleModule -->
<g id="edge26" class="edge"><title>ArticleListComponent&#45;&gt;ArticleModule</title>
<path fill="none" stroke="black" d="M2078.61,-190.223C2078.61,-190.223 2078.61,-211.727 2078.61,-211.727"/>
<polygon fill="black" stroke="black" points="2075.11,-211.727 2078.61,-221.727 2082.11,-211.727 2075.11,-211.727"/>
</g>
<!-- ArticleItemComponent -->
<g id="node26" class="node"><title>ArticleItemComponent</title>
<polygon fill="#ffffb3" stroke="black" points="2040.86,-190 1895.14,-190 1895.14,-154 2040.86,-154 2040.86,-190"/>
<text text-anchor="middle" x="1968" y="-167.8" font-family="Times,serif" font-size="14.00">ArticleItemComponent</text>
</g>
<!-- ArticleItemComponent&#45;&gt;ArticleModule -->
<g id="edge27" class="edge"><title>ArticleItemComponent&#45;&gt;ArticleModule</title>
<path fill="none" stroke="black" d="M2030.64,-190.223C2030.64,-190.223 2030.64,-211.727 2030.64,-211.727"/>
<polygon fill="black" stroke="black" points="2027.14,-211.727 2030.64,-221.727 2034.14,-211.727 2027.14,-211.727"/>
</g>
<!-- ArticleDetailsComponent -->
<g id="node27" class="node"><title>ArticleDetailsComponent</title>
<polygon fill="#ffffb3" stroke="black" points="2378.85,-190 2219.15,-190 2219.15,-154 2378.85,-154 2378.85,-190"/>
<text text-anchor="middle" x="2299" y="-167.8" font-family="Times,serif" font-size="14.00">ArticleDetailsComponent</text>
</g>
<!-- ArticleDetailsComponent&#45;&gt;ArticleModule -->
<g id="edge28" class="edge"><title>ArticleDetailsComponent&#45;&gt;ArticleModule</title>
<path fill="none" stroke="black" d="M2299,-190.223C2299,-210.365 2299,-240 2299,-240 2299,-240 2108.39,-240 2108.39,-240"/>
<polygon fill="black" stroke="black" points="2108.39,-236.5 2098.39,-240 2108.39,-243.5 2108.39,-236.5"/>
</g>
<!-- ArticleModule&#45;&gt;AppModule -->
<g id="edge39" class="edge"><title>ArticleModule&#45;&gt;AppModule</title>
<path fill="none" stroke="black" d="M2049,-258.223C2049,-278.365 2049,-308 2049,-308 2049,-308 2792.1,-308 2792.1,-308"/>
<polygon fill="black" stroke="black" points="2792.1,-311.5 2802.1,-308 2792.1,-304.5 2792.1,-311.5"/>
</g>
<!-- AppComponent -->
<g id="node29" class="node"><title>AppComponent</title>
<polygon fill="#ffffb3" stroke="black" points="3535.94,-258 3430.06,-258 3430.06,-222 3535.94,-222 3535.94,-258"/>
<text text-anchor="middle" x="3483" y="-235.8" font-family="Times,serif" font-size="14.00">AppComponent</text>
</g>
<!-- AppComponent&#45;&gt;AppModule -->
<g id="edge31" class="edge"><title>AppComponent&#45;&gt;AppModule</title>
<path fill="none" stroke="black" d="M3483,-258.045C3483,-279.662 3483,-313 3483,-313 3483,-313 2895.93,-313 2895.93,-313"/>
<polygon fill="black" stroke="black" points="2895.93,-309.5 2885.93,-313 2895.93,-316.5 2895.93,-309.5"/>
</g>
<!-- HomeComponent -->
<g id="node30" class="node"><title>HomeComponent</title>
<polygon fill="#ffffb3" stroke="black" points="3412.55,-258 3297.45,-258 3297.45,-222 3412.55,-222 3412.55,-258"/>
<text text-anchor="middle" x="3355" y="-235.8" font-family="Times,serif" font-size="14.00">HomeComponent</text>
</g>
<!-- HomeComponent&#45;&gt;AppModule -->
<g id="edge32" class="edge"><title>HomeComponent&#45;&gt;AppModule</title>
<path fill="none" stroke="black" d="M3355,-258.223C3355,-278.365 3355,-308 3355,-308 3355,-308 2895.82,-308 2895.82,-308"/>
<polygon fill="black" stroke="black" points="2895.82,-304.5 2885.82,-308 2895.82,-311.5 2895.82,-304.5"/>
</g>
<!-- PageNotFoundComponent -->
<g id="node31" class="node"><title>PageNotFoundComponent</title>
<polygon fill="#ffffb3" stroke="black" points="3718.82,-258 3553.18,-258 3553.18,-222 3718.82,-222 3718.82,-258"/>
<text text-anchor="middle" x="3636" y="-235.8" font-family="Times,serif" font-size="14.00">PageNotFoundComponent</text>
</g>
<!-- PageNotFoundComponent&#45;&gt;AppModule -->
<g id="edge33" class="edge"><title>PageNotFoundComponent&#45;&gt;AppModule</title>
<path fill="none" stroke="black" d="M3636,-258.248C3636,-281.018 3636,-317 3636,-317 3636,-317 2895.74,-317 2895.74,-317"/>
<polygon fill="black" stroke="black" points="2895.74,-313.5 2885.74,-317 2895.74,-320.5 2895.74,-313.5"/>
</g>
<!-- AppComponent  -->
<g id="node37" class="node"><title>AppComponent </title>
<polygon fill="#80b1d3" stroke="black" points="2898.44,-394 2789.56,-394 2789.56,-358 2898.44,-358 2898.44,-394"/>
<text text-anchor="middle" x="2844" y="-371.8" font-family="Times,serif" font-size="14.00">AppComponent </text>
</g>
<!-- AppModule&#45;&gt;AppComponent  -->
<g id="edge42" class="edge"><title>AppModule&#45;&gt;AppComponent </title>
<path fill="none" stroke="black" stroke-dasharray="1,5" d="M2844,-326.223C2844,-326.223 2844,-347.727 2844,-347.727"/>
<polygon fill="black" stroke="black" points="2840.5,-347.727 2844,-357.727 2847.5,-347.727 2840.5,-347.727"/>
</g>
<!-- BrowserModule -->
<g id="node33" class="node"><title>BrowserModule</title>
<polygon fill="#8dd3c7" stroke="black" points="3273.47,-258 3270.47,-262 3249.47,-262 3246.47,-258 3166.53,-258 3166.53,-222 3273.47,-222 3273.47,-258"/>
<text text-anchor="middle" x="3220" y="-235.8" font-family="Times,serif" font-size="14.00">BrowserModule</text>
</g>
<!-- BrowserModule&#45;&gt;AppModule -->
<g id="edge34" class="edge"><title>BrowserModule&#45;&gt;AppModule</title>
<path fill="none" stroke="black" d="M3220,-258.169C3220,-277.09 3220,-304 3220,-304 3220,-304 2895.68,-304 2895.68,-304"/>
<polygon fill="black" stroke="black" points="2895.68,-300.5 2885.68,-304 2895.68,-307.5 2895.68,-300.5"/>
</g>
<!-- FormsModule -->
<g id="node34" class="node"><title>FormsModule</title>
<polygon fill="#8dd3c7" stroke="black" points="3148.83,-258 3145.83,-262 3124.83,-262 3121.83,-258 3053.17,-258 3053.17,-222 3148.83,-222 3148.83,-258"/>
<text text-anchor="middle" x="3101" y="-235.8" font-family="Times,serif" font-size="14.00">FormsModule</text>
</g>
<!-- FormsModule&#45;&gt;AppModule -->
<g id="edge35" class="edge"><title>FormsModule&#45;&gt;AppModule</title>
<path fill="none" stroke="black" d="M3101,-258.023C3101,-275.373 3101,-299 3101,-299 3101,-299 2895.86,-299 2895.86,-299"/>
<polygon fill="black" stroke="black" points="2895.86,-295.5 2885.86,-299 2895.86,-302.5 2895.86,-295.5"/>
</g>
<!-- HttpModule -->
<g id="node35" class="node"><title>HttpModule</title>
<polygon fill="#8dd3c7" stroke="black" points="3035.44,-258 3032.44,-262 3011.44,-262 3008.44,-258 2950.56,-258 2950.56,-222 3035.44,-222 3035.44,-258"/>
<text text-anchor="middle" x="2993" y="-235.8" font-family="Times,serif" font-size="14.00">HttpModule</text>
</g>
<!-- HttpModule&#45;&gt;AppModule -->
<g id="edge36" class="edge"><title>HttpModule&#45;&gt;AppModule</title>
<path fill="none" stroke="black" d="M2993,-258.009C2993,-274.049 2993,-295 2993,-295 2993,-295 2895.9,-295 2895.9,-295"/>
<polygon fill="black" stroke="black" points="2895.9,-291.5 2885.9,-295 2895.9,-298.5 2895.9,-291.5"/>
</g>
<!-- RouterModule.forRoot(args) -->
<g id="node36" class="node"><title>RouterModule.forRoot(args)</title>
<polygon fill="#8dd3c7" stroke="black" points="2932.84,-258 2929.84,-262 2908.84,-262 2905.84,-258 2755.16,-258 2755.16,-222 2932.84,-222 2932.84,-258"/>
<text text-anchor="middle" x="2844" y="-235.8" font-family="Times,serif" font-size="14.00">RouterModule.forRoot(args)</text>
</g>
<!-- RouterModule.forRoot(args)&#45;&gt;AppModule -->
<g id="edge41" class="edge"><title>RouterModule.forRoot(args)&#45;&gt;AppModule</title>
<path fill="none" stroke="black" d="M2844,-258.223C2844,-258.223 2844,-279.727 2844,-279.727"/>
<polygon fill="black" stroke="black" points="2840.5,-279.727 2844,-289.727 2847.5,-279.727 2840.5,-279.727"/>
</g>
<!-- LectureService -->
<g id="node38" class="node"><title>LectureService</title>
<ellipse fill="#fdb462" stroke="black" cx="2662" cy="-240" rx="69.4568" ry="18"/>
<text text-anchor="middle" x="2662" y="-235.8" font-family="Times,serif" font-size="14.00">LectureService</text>
</g>
<!-- LectureService&#45;&gt;AppModule -->
<g id="edge43" class="edge"><title>LectureService&#45;&gt;AppModule</title>
<path fill="none" stroke="black" d="M2662,-258.027C2662,-274.398 2662,-296 2662,-296 2662,-296 2792.25,-296 2792.25,-296"/>
<polygon fill="black" stroke="black" points="2792.25,-299.5 2802.25,-296 2792.25,-292.5 2792.25,-299.5"/>
</g>
<!-- ArticleService -->
<g id="node39" class="node"><title>ArticleService</title>
<ellipse fill="#fdb462" stroke="black" cx="2508" cy="-240" rx="66.6055" ry="18"/>
<text text-anchor="middle" x="2508" y="-235.8" font-family="Times,serif" font-size="14.00">ArticleService</text>
</g>
<!-- ArticleService&#45;&gt;AppModule -->
<g id="edge44" class="edge"><title>ArticleService&#45;&gt;AppModule</title>
<path fill="none" stroke="black" d="M2508,-258.267C2508,-276.555 2508,-302 2508,-302 2508,-302 2792.12,-302 2792.12,-302"/>
<polygon fill="black" stroke="black" points="2792.12,-305.5 2802.12,-302 2792.12,-298.5 2792.12,-305.5"/>
</g>
</g>
</svg>
