<?xml version="1.0" encoding="UTF-8" standalone="no"?>
<!DOCTYPE svg PUBLIC "-//W3C//DTD SVG 1.1//EN"
 "http://www.w3.org/Graphics/SVG/1.1/DTD/svg11.dtd">
<!-- Generated by graphviz version 2.38.0 (20140413.2041)
 -->
<!-- Title: dependencies Pages: 1 -->
<svg width="5055pt" height="426pt"
 viewBox="0.00 0.00 5055.00 426.00" xmlns="http://www.w3.org/2000/svg" xmlns:xlink="http://www.w3.org/1999/xlink">
<g id="graph0" class="graph" transform="scale(1 1) rotate(0) translate(4 422)">
<title>dependencies</title>
<polygon fill="white" stroke="none" points="-4,4 -4,-422 5051,-422 5051,4 -4,4"/>
<text text-anchor="start" x="2502.51" y="-42.4" font-family="sans-serif" font-weight="bold" font-size="14.00">Legend</text>
<polygon fill="#ffffb3" stroke="none" points="2289.5,-10 2289.5,-30 2309.5,-30 2309.5,-10 2289.5,-10"/>
<text text-anchor="start" x="2313.13" y="-15.4" font-family="sans-serif" font-size="14.00"> &#160;Declarations</text>
<polygon fill="#8dd3c7" stroke="none" points="2402.5,-10 2402.5,-30 2422.5,-30 2422.5,-10 2402.5,-10"/>
<text text-anchor="start" x="2426.23" y="-15.4" font-family="sans-serif" font-size="14.00"> &#160;Module</text>
<polygon fill="#80b1d3" stroke="none" points="2488.5,-10 2488.5,-30 2508.5,-30 2508.5,-10 2488.5,-10"/>
<text text-anchor="start" x="2512.28" y="-15.4" font-family="sans-serif" font-size="14.00"> &#160;Bootstrap</text>
<polygon fill="#fdb462" stroke="none" points="2585.5,-10 2585.5,-30 2605.5,-30 2605.5,-10 2585.5,-10"/>
<text text-anchor="start" x="2609.17" y="-15.4" font-family="sans-serif" font-size="14.00"> &#160;Providers</text>
<polygon fill="#fb8072" stroke="none" points="2681.5,-10 2681.5,-30 2701.5,-30 2701.5,-10 2681.5,-10"/>
<text text-anchor="start" x="2705.23" y="-15.4" font-family="sans-serif" font-size="14.00"> &#160;Exports</text>
<g id="clust1" class="cluster"><title>cluster_LectureModule</title>
<polygon fill="none" stroke="black" stroke-dasharray="1,5" points="1351,-138 1351,-266 2201,-266 2201,-138 1351,-138"/>
</g>
<g id="clust2" class="cluster"><title>cluster_LectureModule_declarations</title>
<polygon fill="none" stroke="black" points="1681,-146 1681,-198 2193,-198 2193,-146 1681,-146"/>
</g>
<g id="clust6" class="cluster"><title>cluster_LectureModule_imports</title>
<polygon fill="none" stroke="black" points="1359,-146 1359,-198 1673,-198 1673,-146 1359,-146"/>
</g>
<g id="clust10" class="cluster"><title>cluster_LayoutModule</title>
<polygon fill="none" stroke="black" stroke-dasharray="1,5" points="4073,-70 4073,-274 5039,-274 5039,-70 4073,-70"/>
</g>
<g id="clust11" class="cluster"><title>cluster_LayoutModule_declarations</title>
<polygon fill="none" stroke="black" points="4333,-78 4333,-130 5031,-130 5031,-78 4333,-78"/>
</g>
<g id="clust17" class="cluster"><title>cluster_LayoutModule_imports</title>
<polygon fill="none" stroke="black" points="4081,-78 4081,-130 4325,-130 4325,-78 4081,-78"/>
</g>
<g id="clust18" class="cluster"><title>cluster_LayoutModule_exports</title>
<polygon fill="none" stroke="black" points="4399,-214 4399,-266 4539,-266 4539,-214 4399,-214"/>
</g>
<g id="clust21" class="cluster"><title>cluster_SharedModule</title>
<polygon fill="none" stroke="black" stroke-dasharray="1,5" points="198,-206 198,-274 1343,-274 1343,-206 198,-206"/>
</g>
<g id="clust22" class="cluster"><title>cluster_SharedModule_declarations</title>
<polygon fill="none" stroke="black" points="960,-214 960,-266 1335,-266 1335,-214 960,-214"/>
</g>
<g id="clust27" class="cluster"><title>cluster_SharedModule_exports</title>
<polygon fill="none" stroke="black" points="206,-214 206,-266 952,-266 952,-214 206,-214"/>
</g>
<g id="clust30" class="cluster"><title>cluster_BookmarksModule</title>
<polygon fill="none" stroke="black" stroke-dasharray="1,5" points="8,-138 8,-342 190,-342 190,-138 8,-138"/>
</g>
<g id="clust31" class="cluster"><title>cluster_BookmarksModule_declarations</title>
<polygon fill="none" stroke="black" points="20,-146 20,-198 182,-198 182,-146 20,-146"/>
</g>
<g id="clust34" class="cluster"><title>cluster_BookmarksModule_exports</title>
<polygon fill="none" stroke="black" points="16,-282 16,-334 182,-334 182,-282 16,-282"/>
</g>
<g id="clust37" class="cluster"><title>cluster_ArticleModule</title>
<polygon fill="none" stroke="black" stroke-dasharray="1,5" points="2209,-138 2209,-266 2725,-266 2725,-138 2209,-138"/>
</g>
<g id="clust38" class="cluster"><title>cluster_ArticleModule_declarations</title>
<polygon fill="none" stroke="black" points="2217,-146 2217,-198 2717,-198 2717,-146 2217,-146"/>
</g>
<g id="clust46" class="cluster"><title>cluster_AppModule</title>
<polygon fill="none" stroke="black" stroke-dasharray="1,5" points="2755,-206 2755,-410 4065,-410 4065,-206 2755,-206"/>
</g>
<g id="clust47" class="cluster"><title>cluster_AppModule_declarations</title>
<polygon fill="none" stroke="black" points="3619,-214 3619,-266 4057,-266 4057,-214 3619,-214"/>
</g>
<g id="clust51" class="cluster"><title>cluster_AppModule_imports</title>
<polygon fill="none" stroke="black" points="3077,-214 3077,-266 3611,-266 3611,-214 3077,-214"/>
</g>
<g id="clust53" class="cluster"><title>cluster_AppModule_bootstrap</title>
<polygon fill="none" stroke="black" points="3071,-350 3071,-402 3195,-402 3195,-350 3071,-350"/>
</g>
<g id="clust54" class="cluster"><title>cluster_AppModule_providers</title>
<polygon fill="none" stroke="black" points="2763,-214 2763,-266 3069,-266 3069,-214 2763,-214"/>
</g>
<!-- LectureListComponent -->
<g id="node1" class="node"><title>LectureListComponent</title>
<polygon fill="#ffffb3" stroke="black" points="2002.86,-190 1857.14,-190 1857.14,-154 2002.86,-154 2002.86,-190"/>
<text text-anchor="middle" x="1930" y="-167.8" font-family="Times,serif" font-size="14.00">LectureListComponent</text>
</g>
<!-- LectureModule -->
<g id="node4" class="node"><title>LectureModule</title>
<polygon fill="#8dd3c7" stroke="black" points="1898.3,-258 1895.3,-262 1874.3,-262 1871.3,-258 1795.7,-258 1795.7,-222 1898.3,-222 1898.3,-258"/>
<text text-anchor="middle" x="1847" y="-235.8" font-family="Times,serif" font-size="14.00">LectureModule</text>
</g>
<!-- LectureListComponent&#45;&gt;LectureModule -->
<g id="edge1" class="edge"><title>LectureListComponent&#45;&gt;LectureModule</title>
<path fill="none" stroke="black" d="M1877.61,-190.223C1877.61,-190.223 1877.61,-211.727 1877.61,-211.727"/>
<polygon fill="black" stroke="black" points="1874.11,-211.727 1877.61,-221.727 1881.11,-211.727 1874.11,-211.727"/>
</g>
<!-- LectureItemComponent -->
<g id="node2" class="node"><title>LectureItemComponent</title>
<polygon fill="#ffffb3" stroke="black" points="1838.74,-190 1689.26,-190 1689.26,-154 1838.74,-154 1838.74,-190"/>
<text text-anchor="middle" x="1764" y="-167.8" font-family="Times,serif" font-size="14.00">LectureItemComponent</text>
</g>
<!-- LectureItemComponent&#45;&gt;LectureModule -->
<g id="edge2" class="edge"><title>LectureItemComponent&#45;&gt;LectureModule</title>
<path fill="none" stroke="black" d="M1817.36,-190.223C1817.36,-190.223 1817.36,-211.727 1817.36,-211.727"/>
<polygon fill="black" stroke="black" points="1813.86,-211.727 1817.36,-221.727 1820.86,-211.727 1813.86,-211.727"/>
</g>
<!-- LectureDetailsComponent -->
<g id="node3" class="node"><title>LectureDetailsComponent</title>
<polygon fill="#ffffb3" stroke="black" points="2184.73,-190 2021.27,-190 2021.27,-154 2184.73,-154 2184.73,-190"/>
<text text-anchor="middle" x="2103" y="-167.8" font-family="Times,serif" font-size="14.00">LectureDetailsComponent</text>
</g>
<!-- LectureDetailsComponent&#45;&gt;LectureModule -->
<g id="edge3" class="edge"><title>LectureDetailsComponent&#45;&gt;LectureModule</title>
<path fill="none" stroke="black" d="M2103,-190.223C2103,-210.365 2103,-240 2103,-240 2103,-240 1908.19,-240 1908.19,-240"/>
<polygon fill="black" stroke="black" points="1908.19,-236.5 1898.19,-240 1908.19,-243.5 1908.19,-236.5"/>
</g>
<!-- AppModule -->
<g id="node35" class="node"><title>AppModule</title>
<polygon fill="#8dd3c7" stroke="black" points="3174.66,-326 3171.66,-330 3150.66,-330 3147.66,-326 3091.34,-326 3091.34,-290 3174.66,-290 3174.66,-326"/>
<text text-anchor="middle" x="3133" y="-303.8" font-family="Times,serif" font-size="14.00">AppModule</text>
</g>
<!-- LectureModule&#45;&gt;AppModule -->
<g id="edge41" class="edge"><title>LectureModule&#45;&gt;AppModule</title>
<path fill="none" stroke="black" d="M1847,-258.292C1847,-280.206 1847,-314 1847,-314 1847,-314 3081.31,-314 3081.31,-314"/>
<polygon fill="black" stroke="black" points="3081.31,-317.5 3091.31,-314 3081.31,-310.5 3081.31,-317.5"/>
</g>
<!-- SharedModule -->
<g id="node5" class="node"><title>SharedModule</title>
<polygon fill="#8dd3c7" stroke="black" points="1465.42,-190 1462.42,-194 1441.42,-194 1438.42,-190 1366.58,-190 1366.58,-154 1465.42,-154 1465.42,-190"/>
<text text-anchor="middle" x="1416" y="-167.8" font-family="Times,serif" font-size="14.00">SharedModule</text>
</g>
<!-- SharedModule&#45;&gt;LectureModule -->
<g id="edge4" class="edge"><title>SharedModule&#45;&gt;LectureModule</title>
<path fill="none" stroke="black" d="M1440.61,-190.223C1440.61,-210.365 1440.61,-240 1440.61,-240 1440.61,-240 1785.53,-240 1785.53,-240"/>
<polygon fill="black" stroke="black" points="1785.53,-243.5 1795.53,-240 1785.53,-236.5 1785.53,-243.5"/>
</g>
<!-- CommonModule  -->
<g id="node19" class="node"><title>CommonModule </title>
<polygon fill="#fb8072" stroke="black" points="610.668,-258 495.332,-258 495.332,-222 610.668,-222 610.668,-258"/>
<text text-anchor="middle" x="553" y="-235.8" font-family="Times,serif" font-size="14.00">CommonModule </text>
</g>
<!-- SharedModule&#45;&gt;CommonModule  -->
<g id="edge19" class="edge"><title>SharedModule&#45;&gt;CommonModule </title>
<path fill="none" stroke="black" stroke-dasharray="5,2" d="M1366.5,-166C1183.13,-166 553,-166 553,-166 553,-166 553,-211.708 553,-211.708"/>
<polygon fill="black" stroke="black" points="549.5,-211.708 553,-221.708 556.5,-211.708 549.5,-211.708"/>
</g>
<!-- RouterModule  -->
<g id="node20" class="node"><title>RouterModule </title>
<polygon fill="#fb8072" stroke="black" points="477.652,-258 376.348,-258 376.348,-222 477.652,-222 477.652,-258"/>
<text text-anchor="middle" x="427" y="-235.8" font-family="Times,serif" font-size="14.00">RouterModule </text>
</g>
<!-- SharedModule&#45;&gt;RouterModule  -->
<g id="edge20" class="edge"><title>SharedModule&#45;&gt;RouterModule </title>
<path fill="none" stroke="black" stroke-dasharray="5,2" d="M1366.62,-162C1166.56,-162 427,-162 427,-162 427,-162 427,-211.909 427,-211.909"/>
<polygon fill="black" stroke="black" points="423.5,-211.909 427,-221.909 430.5,-211.909 423.5,-211.909"/>
</g>
<!-- PaginationComponent  -->
<g id="node21" class="node"><title>PaginationComponent </title>
<polygon fill="#fb8072" stroke="black" points="358.216,-258 213.784,-258 213.784,-222 358.216,-222 358.216,-258"/>
<text text-anchor="middle" x="286" y="-235.8" font-family="Times,serif" font-size="14.00">PaginationComponent </text>
</g>
<!-- SharedModule&#45;&gt;PaginationComponent  -->
<g id="edge21" class="edge"><title>SharedModule&#45;&gt;PaginationComponent </title>
<path fill="none" stroke="black" stroke-dasharray="5,2" d="M1366.72,-158C1149.23,-158 286,-158 286,-158 286,-158 286,-211.802 286,-211.802"/>
<polygon fill="black" stroke="black" points="282.5,-211.802 286,-221.802 289.5,-211.802 282.5,-211.802"/>
</g>
<!-- TruncatePipe  -->
<g id="node22" class="node"><title>TruncatePipe </title>
<polygon fill="#fb8072" stroke="black" points="944.135,-258 849.865,-258 849.865,-222 944.135,-222 944.135,-258"/>
<text text-anchor="middle" x="897" y="-235.8" font-family="Times,serif" font-size="14.00">TruncatePipe </text>
</g>
<!-- SharedModule&#45;&gt;TruncatePipe  -->
<g id="edge22" class="edge"><title>SharedModule&#45;&gt;TruncatePipe </title>
<path fill="none" stroke="black" stroke-dasharray="5,2" d="M1366.71,-178C1237.15,-178 897,-178 897,-178 897,-178 897,-211.733 897,-211.733"/>
<polygon fill="black" stroke="black" points="893.5,-211.733 897,-221.733 900.5,-211.733 893.5,-211.733"/>
</g>
<!-- StringifyPipe  -->
<g id="node23" class="node"><title>StringifyPipe </title>
<polygon fill="#fb8072" stroke="black" points="832.164,-258 737.836,-258 737.836,-222 832.164,-222 832.164,-258"/>
<text text-anchor="middle" x="785" y="-235.8" font-family="Times,serif" font-size="14.00">StringifyPipe </text>
</g>
<!-- SharedModule&#45;&gt;StringifyPipe  -->
<g id="edge23" class="edge"><title>SharedModule&#45;&gt;StringifyPipe </title>
<path fill="none" stroke="black" stroke-dasharray="5,2" d="M1366.75,-174C1218.24,-174 785,-174 785,-174 785,-174 785,-211.965 785,-211.965"/>
<polygon fill="black" stroke="black" points="781.5,-211.965 785,-221.965 788.5,-211.965 781.5,-211.965"/>
</g>
<!-- BusyModule  -->
<g id="node24" class="node"><title>BusyModule </title>
<polygon fill="#fb8072" stroke="black" points="719.831,-258 628.169,-258 628.169,-222 719.831,-222 719.831,-258"/>
<text text-anchor="middle" x="674" y="-235.8" font-family="Times,serif" font-size="14.00">BusyModule </text>
</g>
<!-- SharedModule&#45;&gt;BusyModule  -->
<g id="edge24" class="edge"><title>SharedModule&#45;&gt;BusyModule </title>
<path fill="none" stroke="black" stroke-dasharray="5,2" d="M1366.74,-170C1201.02,-170 674,-170 674,-170 674,-170 674,-211.973 674,-211.973"/>
<polygon fill="black" stroke="black" points="670.5,-211.973 674,-221.973 677.5,-211.973 670.5,-211.973"/>
</g>
<!-- ArticleModule -->
<g id="node31" class="node"><title>ArticleModule</title>
<polygon fill="#8dd3c7" stroke="black" points="2428.42,-258 2425.42,-262 2404.42,-262 2401.42,-258 2329.58,-258 2329.58,-222 2428.42,-222 2428.42,-258"/>
<text text-anchor="middle" x="2379" y="-235.8" font-family="Times,serif" font-size="14.00">ArticleModule</text>
</g>
<!-- SharedModule&#45;&gt;ArticleModule -->
<g id="edge32" class="edge"><title>SharedModule&#45;&gt;ArticleModule</title>
<path fill="none" stroke="black" d="M1391.39,-190.056C1391.39,-201.439 1391.39,-214 1391.39,-214 1391.39,-214 2340.08,-214 2340.08,-214 2340.08,-214 2340.08,-214.794 2340.08,-214.794"/>
<polygon fill="black" stroke="black" points="2336.58,-211.942 2340.08,-221.942 2343.58,-211.942 2336.58,-211.942"/>
</g>
<!-- RouterModule.forChild(args) -->
<g id="node6" class="node"><title>RouterModule.forChild(args)</title>
<polygon fill="#8dd3c7" stroke="black" points="1664.73,-190 1661.73,-194 1640.73,-194 1637.73,-190 1483.27,-190 1483.27,-154 1664.73,-154 1664.73,-190"/>
<text text-anchor="middle" x="1574" y="-167.8" font-family="Times,serif" font-size="14.00">RouterModule.forChild(args)</text>
</g>
<!-- RouterModule.forChild(args)&#45;&gt;LectureModule -->
<g id="edge5" class="edge"><title>RouterModule.forChild(args)&#45;&gt;LectureModule</title>
<path fill="none" stroke="black" d="M1619.31,-190.023C1619.31,-207.373 1619.31,-231 1619.31,-231 1619.31,-231 1785.62,-231 1785.62,-231"/>
<polygon fill="black" stroke="black" points="1785.62,-234.5 1795.62,-231 1785.62,-227.5 1785.62,-234.5"/>
</g>
<!-- BookmarksModule -->
<g id="node26" class="node"><title>BookmarksModule</title>
<polygon fill="#8dd3c7" stroke="black" points="182.097,-258 179.097,-262 158.097,-262 155.097,-258 57.9032,-258 57.9032,-222 182.097,-222 182.097,-258"/>
<text text-anchor="middle" x="120" y="-235.8" font-family="Times,serif" font-size="14.00">BookmarksModule</text>
</g>
<!-- RouterModule.forChild(args)&#45;&gt;BookmarksModule -->
<g id="edge27" class="edge"><title>RouterModule.forChild(args)&#45;&gt;BookmarksModule</title>
<path fill="none" stroke="black" d="M1528.69,-190.058C1528.69,-194.495 1528.69,-198 1528.69,-198 1528.69,-198 179.345,-198 179.345,-198 179.345,-198 179.345,-211.944 179.345,-211.944"/>
<polygon fill="black" stroke="black" points="175.846,-211.944 179.345,-221.944 182.846,-211.945 175.846,-211.944"/>
</g>
<!-- RouterModule.forChild(args)&#45;&gt;ArticleModule -->
<g id="edge33" class="edge"><title>RouterModule.forChild(args)&#45;&gt;ArticleModule</title>
<path fill="none" stroke="black" d="M1574,-190.194C1574,-198.278 1574,-206 1574,-206 1574,-206 2350.36,-206 2350.36,-206 2350.36,-206 2350.36,-211.806 2350.36,-211.806"/>
<polygon fill="black" stroke="black" points="2346.86,-211.806 2350.36,-221.806 2353.86,-211.806 2346.86,-211.806"/>
</g>
<!-- LayoutComponent -->
<g id="node7" class="node"><title>LayoutComponent</title>
<polygon fill="#ffffb3" stroke="black" points="4461.49,-122 4340.51,-122 4340.51,-86 4461.49,-86 4461.49,-122"/>
<text text-anchor="middle" x="4401" y="-99.8" font-family="Times,serif" font-size="14.00">LayoutComponent</text>
</g>
<!-- LayoutModule -->
<g id="node12" class="node"><title>LayoutModule</title>
<polygon fill="#8dd3c7" stroke="black" points="4518.71,-190 4515.71,-194 4494.71,-194 4491.71,-190 4419.29,-190 4419.29,-154 4518.71,-154 4518.71,-190"/>
<text text-anchor="middle" x="4469" y="-167.8" font-family="Times,serif" font-size="14.00">LayoutModule</text>
</g>
<!-- LayoutComponent&#45;&gt;LayoutModule -->
<g id="edge6" class="edge"><title>LayoutComponent&#45;&gt;LayoutModule</title>
<path fill="none" stroke="black" d="M4440.45,-122.223C4440.45,-122.223 4440.45,-143.727 4440.45,-143.727"/>
<polygon fill="black" stroke="black" points="4436.95,-143.727 4440.45,-153.727 4443.95,-143.727 4436.95,-143.727"/>
</g>
<!-- SidebarComponent -->
<g id="node8" class="node"><title>SidebarComponent</title>
<polygon fill="#ffffb3" stroke="black" points="5023.1,-122 4898.9,-122 4898.9,-86 5023.1,-86 5023.1,-122"/>
<text text-anchor="middle" x="4961" y="-99.8" font-family="Times,serif" font-size="14.00">SidebarComponent</text>
</g>
<!-- SidebarComponent&#45;&gt;LayoutModule -->
<g id="edge7" class="edge"><title>SidebarComponent&#45;&gt;LayoutModule</title>
<path fill="none" stroke="black" d="M4961,-122.248C4961,-145.018 4961,-181 4961,-181 4961,-181 4528.88,-181 4528.88,-181"/>
<polygon fill="black" stroke="black" points="4528.88,-177.5 4518.88,-181 4528.88,-184.5 4528.88,-177.5"/>
</g>
<!-- HeaderComponent -->
<g id="node9" class="node"><title>HeaderComponent</title>
<polygon fill="#ffffb3" stroke="black" points="4880.74,-122 4759.26,-122 4759.26,-86 4880.74,-86 4880.74,-122"/>
<text text-anchor="middle" x="4820" y="-99.8" font-family="Times,serif" font-size="14.00">HeaderComponent</text>
</g>
<!-- HeaderComponent&#45;&gt;LayoutModule -->
<g id="edge8" class="edge"><title>HeaderComponent&#45;&gt;LayoutModule</title>
<path fill="none" stroke="black" d="M4820,-122.223C4820,-142.365 4820,-172 4820,-172 4820,-172 4528.92,-172 4528.92,-172"/>
<polygon fill="black" stroke="black" points="4528.92,-168.5 4518.92,-172 4528.92,-175.5 4528.92,-168.5"/>
</g>
<!-- ContentComponent -->
<g id="node10" class="node"><title>ContentComponent</title>
<polygon fill="#ffffb3" stroke="black" points="4740.67,-122 4615.33,-122 4615.33,-86 4740.67,-86 4740.67,-122"/>
<text text-anchor="middle" x="4678" y="-99.8" font-family="Times,serif" font-size="14.00">ContentComponent</text>
</g>
<!-- ContentComponent&#45;&gt;LayoutModule -->
<g id="edge9" class="edge"><title>ContentComponent&#45;&gt;LayoutModule</title>
<path fill="none" stroke="black" d="M4678,-122.023C4678,-139.373 4678,-163 4678,-163 4678,-163 4528.8,-163 4528.8,-163"/>
<polygon fill="black" stroke="black" points="4528.8,-159.5 4518.8,-163 4528.8,-166.5 4528.8,-159.5"/>
</g>
<!-- FooterComponent -->
<g id="node11" class="node"><title>FooterComponent</title>
<polygon fill="#ffffb3" stroke="black" points="4596.88,-122 4479.12,-122 4479.12,-86 4596.88,-86 4596.88,-122"/>
<text text-anchor="middle" x="4538" y="-99.8" font-family="Times,serif" font-size="14.00">FooterComponent</text>
</g>
<!-- FooterComponent&#45;&gt;LayoutModule -->
<g id="edge10" class="edge"><title>FooterComponent&#45;&gt;LayoutModule</title>
<path fill="none" stroke="black" d="M4498.83,-122.223C4498.83,-122.223 4498.83,-143.727 4498.83,-143.727"/>
<polygon fill="black" stroke="black" points="4495.33,-143.727 4498.83,-153.727 4502.33,-143.727 4495.33,-143.727"/>
</g>
<!-- LayoutComponent  -->
<g id="node15" class="node"><title>LayoutComponent </title>
<polygon fill="#fb8072" stroke="black" points="4531.49,-258 4406.51,-258 4406.51,-222 4531.49,-222 4531.49,-258"/>
<text text-anchor="middle" x="4469" y="-235.8" font-family="Times,serif" font-size="14.00">LayoutComponent </text>
</g>
<!-- LayoutModule&#45;&gt;LayoutComponent  -->
<g id="edge13" class="edge"><title>LayoutModule&#45;&gt;LayoutComponent </title>
<path fill="none" stroke="black" stroke-dasharray="5,2" d="M4469,-190.223C4469,-190.223 4469,-211.727 4469,-211.727"/>
<polygon fill="black" stroke="black" points="4465.5,-211.727 4469,-221.727 4472.5,-211.727 4465.5,-211.727"/>
</g>
<!-- LayoutModule&#45;&gt;AppModule -->
<g id="edge40" class="edge"><title>LayoutModule&#45;&gt;AppModule</title>
<path fill="none" stroke="black" d="M4419.13,-181C4378.79,-181 4328.67,-181 4328.67,-181 4328.67,-181 4328.67,-322 4328.67,-322 4328.67,-322 3184.85,-322 3184.85,-322"/>
<polygon fill="black" stroke="black" points="3184.85,-318.5 3174.85,-322 3184.85,-325.5 3184.85,-318.5"/>
</g>
<!-- CommonModule -->
<g id="node13" class="node"><title>CommonModule</title>
<polygon fill="#8dd3c7" stroke="black" points="4200.67,-122 4197.67,-126 4176.67,-126 4173.67,-122 4089.33,-122 4089.33,-86 4200.67,-86 4200.67,-122"/>
<text text-anchor="middle" x="4145" y="-99.8" font-family="Times,serif" font-size="14.00">CommonModule</text>
</g>
<!-- CommonModule&#45;&gt;SharedModule -->
<g id="edge17" class="edge"><title>CommonModule&#45;&gt;SharedModule</title>
<path fill="none" stroke="black" d="M4089.23,-110C3699.54,-110 1399.6,-110 1399.6,-110 1399.6,-110 1399.6,-143.733 1399.6,-143.733"/>
<polygon fill="black" stroke="black" points="1396.1,-143.733 1399.6,-153.733 1403.1,-143.733 1396.1,-143.733"/>
</g>
<!-- CommonModule&#45;&gt;LayoutModule -->
<g id="edge11" class="edge"><title>CommonModule&#45;&gt;LayoutModule</title>
<path fill="none" stroke="black" d="M4145,-122.223C4145,-142.365 4145,-172 4145,-172 4145,-172 4409.09,-172 4409.09,-172"/>
<polygon fill="black" stroke="black" points="4409.09,-175.5 4419.09,-172 4409.09,-168.5 4409.09,-175.5"/>
</g>
<!-- CommonModule&#45;&gt;BookmarksModule -->
<g id="edge26" class="edge"><title>CommonModule&#45;&gt;BookmarksModule</title>
<path fill="none" stroke="black" d="M4089.28,-98C3608.37,-98 176.643,-98 176.643,-98 176.643,-98 176.643,-211.727 176.643,-211.727"/>
<polygon fill="black" stroke="black" points="173.143,-211.727 176.643,-221.727 180.143,-211.727 173.143,-211.727"/>
</g>
<!-- RouterModule -->
<g id="node14" class="node"><title>RouterModule</title>
<polygon fill="#8dd3c7" stroke="black" points="4316.65,-122 4313.65,-126 4292.65,-126 4289.65,-122 4219.35,-122 4219.35,-86 4316.65,-86 4316.65,-122"/>
<text text-anchor="middle" x="4268" y="-99.8" font-family="Times,serif" font-size="14.00">RouterModule</text>
</g>
<!-- RouterModule&#45;&gt;SharedModule -->
<g id="edge18" class="edge"><title>RouterModule&#45;&gt;SharedModule</title>
<path fill="none" stroke="black" d="M4251.72,-122.194C4251.72,-130.278 4251.72,-138 4251.72,-138 4251.72,-138 1432.4,-138 1432.4,-138 1432.4,-138 1432.4,-143.806 1432.4,-143.806"/>
<polygon fill="black" stroke="black" points="1428.9,-143.806 1432.4,-153.806 1435.9,-143.806 1428.9,-143.806"/>
</g>
<!-- RouterModule&#45;&gt;LayoutModule -->
<g id="edge12" class="edge"><title>RouterModule&#45;&gt;LayoutModule</title>
<path fill="none" stroke="black" d="M4284.28,-122.023C4284.28,-139.373 4284.28,-163 4284.28,-163 4284.28,-163 4409.01,-163 4409.01,-163"/>
<polygon fill="black" stroke="black" points="4409.01,-166.5 4419.01,-163 4409.01,-159.5 4409.01,-166.5"/>
</g>
<!-- PaginationComponent -->
<g id="node16" class="node"><title>PaginationComponent</title>
<polygon fill="#ffffb3" stroke="black" points="1326.72,-258 1185.28,-258 1185.28,-222 1326.72,-222 1326.72,-258"/>
<text text-anchor="middle" x="1256" y="-235.8" font-family="Times,serif" font-size="14.00">PaginationComponent</text>
</g>
<!-- PaginationComponent&#45;&gt;SharedModule -->
<g id="edge14" class="edge"><title>PaginationComponent&#45;&gt;SharedModule</title>
<path fill="none" stroke="black" d="M1326.64,-249C1369.51,-249 1416,-249 1416,-249 1416,-249 1416,-200.248 1416,-200.248"/>
<polygon fill="black" stroke="black" points="1419.5,-200.248 1416,-190.248 1412.5,-200.248 1419.5,-200.248"/>
</g>
<!-- TruncatePipe -->
<g id="node17" class="node"><title>TruncatePipe</title>
<polygon fill="#ffffb3" stroke="black" points="1167.14,-258 1076.86,-258 1076.86,-222 1167.14,-222 1167.14,-258"/>
<text text-anchor="middle" x="1122" y="-235.8" font-family="Times,serif" font-size="14.00">TruncatePipe</text>
</g>
<!-- TruncatePipe&#45;&gt;SharedModule -->
<g id="edge15" class="edge"><title>TruncatePipe&#45;&gt;SharedModule</title>
<path fill="none" stroke="black" d="M1122,-221.718C1122,-206.052 1122,-186 1122,-186 1122,-186 1356.46,-186 1356.46,-186"/>
<polygon fill="black" stroke="black" points="1356.46,-189.5 1366.46,-186 1356.46,-182.5 1356.46,-189.5"/>
</g>
<!-- StringifyPipe -->
<g id="node18" class="node"><title>StringifyPipe</title>
<polygon fill="#ffffb3" stroke="black" points="1058.16,-258 967.836,-258 967.836,-222 1058.16,-222 1058.16,-258"/>
<text text-anchor="middle" x="1013" y="-235.8" font-family="Times,serif" font-size="14.00">StringifyPipe</text>
</g>
<!-- StringifyPipe&#45;&gt;SharedModule -->
<g id="edge16" class="edge"><title>StringifyPipe&#45;&gt;SharedModule</title>
<path fill="none" stroke="black" d="M1013,-221.966C1013,-204.94 1013,-182 1013,-182 1013,-182 1356.58,-182 1356.58,-182"/>
<polygon fill="black" stroke="black" points="1356.58,-185.5 1366.58,-182 1356.58,-178.5 1356.58,-185.5"/>
</g>
<!-- BookmarksComponent -->
<g id="node25" class="node"><title>BookmarksComponent</title>
<polygon fill="#ffffb3" stroke="black" points="173.879,-190 28.1206,-190 28.1206,-154 173.879,-154 173.879,-190"/>
<text text-anchor="middle" x="101" y="-167.8" font-family="Times,serif" font-size="14.00">BookmarksComponent</text>
</g>
<!-- BookmarksComponent&#45;&gt;BookmarksModule -->
<g id="edge25" class="edge"><title>BookmarksComponent&#45;&gt;BookmarksModule</title>
<path fill="none" stroke="black" d="M115.946,-190.223C115.946,-190.223 115.946,-211.727 115.946,-211.727"/>
<polygon fill="black" stroke="black" points="112.446,-211.727 115.946,-221.727 119.446,-211.727 112.446,-211.727"/>
</g>
<!-- BookmarksComponent  -->
<g id="node27" class="node"><title>BookmarksComponent </title>
<polygon fill="#fb8072" stroke="black" points="173.88,-326 24.1201,-326 24.1201,-290 173.88,-290 173.88,-326"/>
<text text-anchor="middle" x="99" y="-303.8" font-family="Times,serif" font-size="14.00">BookmarksComponent </text>
</g>
<!-- BookmarksModule&#45;&gt;BookmarksComponent  -->
<g id="edge28" class="edge"><title>BookmarksModule&#45;&gt;BookmarksComponent </title>
<path fill="none" stroke="black" stroke-dasharray="5,2" d="M115.821,-258.223C115.821,-258.223 115.821,-279.727 115.821,-279.727"/>
<polygon fill="black" stroke="black" points="112.321,-279.727 115.821,-289.727 119.321,-279.727 112.321,-279.727"/>
</g>
<!-- BookmarksModule&#45;&gt;AppModule -->
<g id="edge43" class="edge"><title>BookmarksModule&#45;&gt;AppModule</title>
<path fill="none" stroke="black" d="M177.869,-258.153C177.869,-281.757 177.869,-320 177.869,-320 177.869,-320 3081.23,-320 3081.23,-320"/>
<polygon fill="black" stroke="black" points="3081.23,-323.5 3091.23,-320 3081.23,-316.5 3081.23,-323.5"/>
</g>
<!-- ArticleListComponent -->
<g id="node28" class="node"><title>ArticleListComponent</title>
<polygon fill="#ffffb3" stroke="black" points="2530.98,-190 2389.02,-190 2389.02,-154 2530.98,-154 2530.98,-190"/>
<text text-anchor="middle" x="2460" y="-167.8" font-family="Times,serif" font-size="14.00">ArticleListComponent</text>
</g>
<!-- ArticleListComponent&#45;&gt;ArticleModule -->
<g id="edge29" class="edge"><title>ArticleListComponent&#45;&gt;ArticleModule</title>
<path fill="none" stroke="black" d="M2408.61,-190.223C2408.61,-190.223 2408.61,-211.727 2408.61,-211.727"/>
<polygon fill="black" stroke="black" points="2405.11,-211.727 2408.61,-221.727 2412.11,-211.727 2405.11,-211.727"/>
</g>
<!-- ArticleItemComponent -->
<g id="node29" class="node"><title>ArticleItemComponent</title>
<polygon fill="#ffffb3" stroke="black" points="2370.86,-190 2225.14,-190 2225.14,-154 2370.86,-154 2370.86,-190"/>
<text text-anchor="middle" x="2298" y="-167.8" font-family="Times,serif" font-size="14.00">ArticleItemComponent</text>
</g>
<!-- ArticleItemComponent&#45;&gt;ArticleModule -->
<g id="edge30" class="edge"><title>ArticleItemComponent&#45;&gt;ArticleModule</title>
<path fill="none" stroke="black" d="M2360.64,-190.223C2360.64,-190.223 2360.64,-211.727 2360.64,-211.727"/>
<polygon fill="black" stroke="black" points="2357.14,-211.727 2360.64,-221.727 2364.14,-211.727 2357.14,-211.727"/>
</g>
<!-- ArticleDetailsComponent -->
<g id="node30" class="node"><title>ArticleDetailsComponent</title>
<polygon fill="#ffffb3" stroke="black" points="2708.85,-190 2549.15,-190 2549.15,-154 2708.85,-154 2708.85,-190"/>
<text text-anchor="middle" x="2629" y="-167.8" font-family="Times,serif" font-size="14.00">ArticleDetailsComponent</text>
</g>
<!-- ArticleDetailsComponent&#45;&gt;ArticleModule -->
<g id="edge31" class="edge"><title>ArticleDetailsComponent&#45;&gt;ArticleModule</title>
<path fill="none" stroke="black" d="M2629,-190.223C2629,-210.365 2629,-240 2629,-240 2629,-240 2438.39,-240 2438.39,-240"/>
<polygon fill="black" stroke="black" points="2438.39,-236.5 2428.39,-240 2438.39,-243.5 2438.39,-236.5"/>
</g>
<!-- ArticleModule&#45;&gt;AppModule -->
<g id="edge42" class="edge"><title>ArticleModule&#45;&gt;AppModule</title>
<path fill="none" stroke="black" d="M2379,-258.223C2379,-278.365 2379,-308 2379,-308 2379,-308 3081.12,-308 3081.12,-308"/>
<polygon fill="black" stroke="black" points="3081.12,-311.5 3091.12,-308 3081.12,-304.5 3081.12,-311.5"/>
</g>
<!-- AppComponent -->
<g id="node32" class="node"><title>AppComponent</title>
<polygon fill="#ffffb3" stroke="black" points="3865.94,-258 3760.06,-258 3760.06,-222 3865.94,-222 3865.94,-258"/>
<text text-anchor="middle" x="3813" y="-235.8" font-family="Times,serif" font-size="14.00">AppComponent</text>
</g>
<!-- AppComponent&#45;&gt;AppModule -->
<g id="edge34" class="edge"><title>AppComponent&#45;&gt;AppModule</title>
<path fill="none" stroke="black" d="M3813,-258.045C3813,-279.662 3813,-313 3813,-313 3813,-313 3184.77,-313 3184.77,-313"/>
<polygon fill="black" stroke="black" points="3184.77,-309.5 3174.77,-313 3184.77,-316.5 3184.77,-309.5"/>
</g>
<!-- HomeComponent -->
<g id="node33" class="node"><title>HomeComponent</title>
<polygon fill="#ffffb3" stroke="black" points="3742.55,-258 3627.45,-258 3627.45,-222 3742.55,-222 3742.55,-258"/>
<text text-anchor="middle" x="3685" y="-235.8" font-family="Times,serif" font-size="14.00">HomeComponent</text>
</g>
<!-- HomeComponent&#45;&gt;AppModule -->
<g id="edge35" class="edge"><title>HomeComponent&#45;&gt;AppModule</title>
<path fill="none" stroke="black" d="M3685,-258.223C3685,-278.365 3685,-308 3685,-308 3685,-308 3184.94,-308 3184.94,-308"/>
<polygon fill="black" stroke="black" points="3184.94,-304.5 3174.94,-308 3184.94,-311.5 3184.94,-304.5"/>
</g>
<!-- PageNotFoundComponent -->
<g id="node34" class="node"><title>PageNotFoundComponent</title>
<polygon fill="#ffffb3" stroke="black" points="4048.82,-258 3883.18,-258 3883.18,-222 4048.82,-222 4048.82,-258"/>
<text text-anchor="middle" x="3966" y="-235.8" font-family="Times,serif" font-size="14.00">PageNotFoundComponent</text>
</g>
<!-- PageNotFoundComponent&#45;&gt;AppModule -->
<g id="edge36" class="edge"><title>PageNotFoundComponent&#45;&gt;AppModule</title>
<path fill="none" stroke="black" d="M3966,-258.248C3966,-281.018 3966,-317 3966,-317 3966,-317 3184.88,-317 3184.88,-317"/>
<polygon fill="black" stroke="black" points="3184.88,-313.5 3174.88,-317 3184.88,-320.5 3184.88,-313.5"/>
</g>
<!-- AppComponent  -->
<g id="node40" class="node"><title>AppComponent </title>
<polygon fill="#80b1d3" stroke="black" points="3187.44,-394 3078.56,-394 3078.56,-358 3187.44,-358 3187.44,-394"/>
<text text-anchor="middle" x="3133" y="-371.8" font-family="Times,serif" font-size="14.00">AppComponent </text>
</g>
<!-- AppModule&#45;&gt;AppComponent  -->
<g id="edge45" class="edge"><title>AppModule&#45;&gt;AppComponent </title>
<path fill="none" stroke="black" stroke-dasharray="1,5" d="M3133,-326.223C3133,-326.223 3133,-347.727 3133,-347.727"/>
<polygon fill="black" stroke="black" points="3129.5,-347.727 3133,-357.727 3136.5,-347.727 3129.5,-347.727"/>
</g>
<!-- BrowserModule -->
<g id="node36" class="node"><title>BrowserModule</title>
<polygon fill="#8dd3c7" stroke="black" points="3305.47,-258 3302.47,-262 3281.47,-262 3278.47,-258 3198.53,-258 3198.53,-222 3305.47,-222 3305.47,-258"/>
<text text-anchor="middle" x="3252" y="-235.8" font-family="Times,serif" font-size="14.00">BrowserModule</text>
</g>
<!-- BrowserModule&#45;&gt;AppModule -->
<g id="edge37" class="edge"><title>BrowserModule&#45;&gt;AppModule</title>
<path fill="none" stroke="black" d="M3252,-258.009C3252,-274.049 3252,-295 3252,-295 3252,-295 3184.95,-295 3184.95,-295"/>
<polygon fill="black" stroke="black" points="3184.95,-291.5 3174.95,-295 3184.95,-298.5 3184.95,-291.5"/>
</g>
<!-- FormsModule -->
<g id="node37" class="node"><title>FormsModule</title>
<polygon fill="#8dd3c7" stroke="black" points="3180.83,-258 3177.83,-262 3156.83,-262 3153.83,-258 3085.17,-258 3085.17,-222 3180.83,-222 3180.83,-258"/>
<text text-anchor="middle" x="3133" y="-235.8" font-family="Times,serif" font-size="14.00">FormsModule</text>
</g>
<!-- FormsModule&#45;&gt;AppModule -->
<g id="edge38" class="edge"><title>FormsModule&#45;&gt;AppModule</title>
<path fill="none" stroke="black" d="M3133,-258.223C3133,-258.223 3133,-279.727 3133,-279.727"/>
<polygon fill="black" stroke="black" points="3129.5,-279.727 3133,-289.727 3136.5,-279.727 3129.5,-279.727"/>
</g>
<!-- HttpModule -->
<g id="node38" class="node"><title>HttpModule</title>
<polygon fill="#8dd3c7" stroke="black" points="3603.44,-258 3600.44,-262 3579.44,-262 3576.44,-258 3518.56,-258 3518.56,-222 3603.44,-222 3603.44,-258"/>
<text text-anchor="middle" x="3561" y="-235.8" font-family="Times,serif" font-size="14.00">HttpModule</text>
</g>
<!-- HttpModule&#45;&gt;AppModule -->
<g id="edge39" class="edge"><title>HttpModule&#45;&gt;AppModule</title>
<path fill="none" stroke="black" d="M3561,-258.169C3561,-277.09 3561,-304 3561,-304 3561,-304 3184.82,-304 3184.82,-304"/>
<polygon fill="black" stroke="black" points="3184.82,-300.5 3174.82,-304 3184.82,-307.5 3184.82,-300.5"/>
</g>
<!-- RouterModule.forRoot(args) -->
<g id="node39" class="node"><title>RouterModule.forRoot(args)</title>
<polygon fill="#8dd3c7" stroke="black" points="3500.84,-258 3497.84,-262 3476.84,-262 3473.84,-258 3323.16,-258 3323.16,-222 3500.84,-222 3500.84,-258"/>
<text text-anchor="middle" x="3412" y="-235.8" font-family="Times,serif" font-size="14.00">RouterModule.forRoot(args)</text>
</g>
<!-- RouterModule.forRoot(args)&#45;&gt;AppModule -->
<g id="edge44" class="edge"><title>RouterModule.forRoot(args)&#45;&gt;AppModule</title>
<path fill="none" stroke="black" d="M3412,-258.023C3412,-275.373 3412,-299 3412,-299 3412,-299 3184.77,-299 3184.77,-299"/>
<polygon fill="black" stroke="black" points="3184.77,-295.5 3174.77,-299 3184.77,-302.5 3184.77,-295.5"/>
</g>
<!-- LectureService -->
<g id="node41" class="node"><title>LectureService</title>
<ellipse fill="#fdb462" stroke="black" cx="2992" cy="-240" rx="69.4568" ry="18"/>
<text text-anchor="middle" x="2992" y="-235.8" font-family="Times,serif" font-size="14.00">LectureService</text>
</g>
<!-- LectureService&#45;&gt;AppModule -->
<g id="edge46" class="edge"><title>LectureService&#45;&gt;AppModule</title>
<path fill="none" stroke="black" d="M2992,-258.027C2992,-274.398 2992,-296 2992,-296 2992,-296 3081.08,-296 3081.08,-296"/>
<polygon fill="black" stroke="black" points="3081.08,-299.5 3091.08,-296 3081.08,-292.5 3081.08,-299.5"/>
</g>
<!-- ArticleService -->
<g id="node42" class="node"><title>ArticleService</title>
<ellipse fill="#fdb462" stroke="black" cx="2838" cy="-240" rx="66.6055" ry="18"/>
<text text-anchor="middle" x="2838" y="-235.8" font-family="Times,serif" font-size="14.00">ArticleService</text>
</g>
<!-- ArticleService&#45;&gt;AppModule -->
<g id="edge47" class="edge"><title>ArticleService&#45;&gt;AppModule</title>
<path fill="none" stroke="black" d="M2838,-258.267C2838,-276.555 2838,-302 2838,-302 2838,-302 3081.05,-302 3081.05,-302"/>
<polygon fill="black" stroke="black" points="3081.05,-305.5 3091.05,-302 3081.05,-298.5 3081.05,-305.5"/>
</g>
</g>
</svg>
