<?xml version="1.0" encoding="UTF-8" standalone="no"?>
<!DOCTYPE svg PUBLIC "-//W3C//DTD SVG 1.1//EN"
 "http://www.w3.org/Graphics/SVG/1.1/DTD/svg11.dtd">
<!-- Generated by graphviz version 2.38.0 (20140413.2041)
 -->
<!-- Title: dependencies Pages: 1 -->
<svg width="4086pt" height="434pt"
 viewBox="0.00 0.00 4086.00 434.00" xmlns="http://www.w3.org/2000/svg" xmlns:xlink="http://www.w3.org/1999/xlink">
<g id="graph0" class="graph" transform="scale(1 1) rotate(0) translate(4 430)">
<title>dependencies</title>
<polygon fill="white" stroke="none" points="-4,4 -4,-430 4082,-430 4082,4 -4,4"/>
<text text-anchor="start" x="2018.01" y="-42.4" font-family="sans-serif" font-weight="bold" font-size="14.00">Legend</text>
<polygon fill="#ffffb3" stroke="none" points="1805,-10 1805,-30 1825,-30 1825,-10 1805,-10"/>
<text text-anchor="start" x="1828.63" y="-15.4" font-family="sans-serif" font-size="14.00"> &#160;Declarations</text>
<polygon fill="#8dd3c7" stroke="none" points="1918,-10 1918,-30 1938,-30 1938,-10 1918,-10"/>
<text text-anchor="start" x="1941.73" y="-15.4" font-family="sans-serif" font-size="14.00"> &#160;Module</text>
<polygon fill="#80b1d3" stroke="none" points="2004,-10 2004,-30 2024,-30 2024,-10 2004,-10"/>
<text text-anchor="start" x="2027.78" y="-15.4" font-family="sans-serif" font-size="14.00"> &#160;Bootstrap</text>
<polygon fill="#fdb462" stroke="none" points="2101,-10 2101,-30 2121,-30 2121,-10 2101,-10"/>
<text text-anchor="start" x="2124.67" y="-15.4" font-family="sans-serif" font-size="14.00"> &#160;Providers</text>
<polygon fill="#fb8072" stroke="none" points="2197,-10 2197,-30 2217,-30 2217,-10 2197,-10"/>
<text text-anchor="start" x="2220.73" y="-15.4" font-family="sans-serif" font-size="14.00"> &#160;Exports</text>
<g id="clust1" class="cluster"><title>cluster_LectureModule</title>
<polygon fill="none" stroke="black" stroke-dasharray="1,5" points="982,-138 982,-266 1832,-266 1832,-138 982,-138"/>
</g>
<g id="clust2" class="cluster"><title>cluster_LectureModule_declarations</title>
<polygon fill="none" stroke="black" points="990,-146 990,-198 1502,-198 1502,-146 990,-146"/>
</g>
<g id="clust6" class="cluster"><title>cluster_LectureModule_imports</title>
<polygon fill="none" stroke="black" points="1510,-146 1510,-198 1824,-198 1824,-146 1510,-146"/>
</g>
<g id="clust10" class="cluster"><title>cluster_LayoutModule</title>
<polygon fill="none" stroke="black" stroke-dasharray="1,5" points="8,-70 8,-274 974,-274 974,-70 8,-70"/>
</g>
<g id="clust11" class="cluster"><title>cluster_LayoutModule_declarations</title>
<polygon fill="none" stroke="black" points="16,-78 16,-130 714,-130 714,-78 16,-78"/>
</g>
<g id="clust17" class="cluster"><title>cluster_LayoutModule_imports</title>
<polygon fill="none" stroke="black" points="722,-78 722,-130 966,-130 966,-78 722,-78"/>
</g>
<g id="clust18" class="cluster"><title>cluster_LayoutModule_exports</title>
<polygon fill="none" stroke="black" points="503,-214 503,-266 643,-266 643,-214 503,-214"/>
</g>
<g id="clust21" class="cluster"><title>cluster_SharedModule</title>
<polygon fill="none" stroke="black" stroke-dasharray="1,5" points="1840,-206 1840,-274 2564,-274 2564,-206 1840,-206"/>
</g>
<g id="clust22" class="cluster"><title>cluster_SharedModule_declarations</title>
<polygon fill="none" stroke="black" points="2398,-214 2398,-266 2556,-266 2556,-214 2398,-214"/>
</g>
<g id="clust25" class="cluster"><title>cluster_SharedModule_exports</title>
<polygon fill="none" stroke="black" points="1848,-214 1848,-266 2390,-266 2390,-214 1848,-214"/>
</g>
<g id="clust28" class="cluster"><title>cluster_AppModule</title>
<polygon fill="none" stroke="black" stroke-dasharray="1,5" points="2572,-206 2572,-418 3710,-418 3710,-206 2572,-206"/>
</g>
<g id="clust29" class="cluster"><title>cluster_AppModule_declarations</title>
<polygon fill="none" stroke="black" points="2580,-214 2580,-266 3018,-266 3018,-214 2580,-214"/>
</g>
<g id="clust33" class="cluster"><title>cluster_AppModule_imports</title>
<polygon fill="none" stroke="black" points="3026,-214 3026,-266 3702,-266 3702,-214 3026,-214"/>
</g>
<g id="clust35" class="cluster"><title>cluster_AppModule_bootstrap</title>
<polygon fill="none" stroke="black" points="2955,-358 2955,-410 3079,-410 3079,-358 2955,-358"/>
</g>
<g id="clust37" class="cluster"><title>cluster_BookmarksModule</title>
<polygon fill="none" stroke="black" stroke-dasharray="1,5" points="3718,-282 3718,-350 4070,-350 4070,-282 3718,-282"/>
</g>
<g id="clust38" class="cluster"><title>cluster_BookmarksModule_declarations</title>
<polygon fill="none" stroke="black" points="3900,-290 3900,-342 4062,-342 4062,-290 3900,-290"/>
</g>
<g id="clust41" class="cluster"><title>cluster_BookmarksModule_exports</title>
<polygon fill="none" stroke="black" points="3726,-290 3726,-342 3892,-342 3892,-290 3726,-290"/>
</g>
<!-- LectureListComponent -->
<g id="node1" class="node"><title>LectureListComponent</title>
<polygon fill="#ffffb3" stroke="black" points="1143.86,-190 998.142,-190 998.142,-154 1143.86,-154 1143.86,-190"/>
<text text-anchor="middle" x="1071" y="-167.8" font-family="Times,serif" font-size="14.00">LectureListComponent</text>
</g>
<!-- LectureModule -->
<g id="node4" class="node"><title>LectureModule</title>
<polygon fill="#8dd3c7" stroke="black" points="1544.3,-258 1541.3,-262 1520.3,-262 1517.3,-258 1441.7,-258 1441.7,-222 1544.3,-222 1544.3,-258"/>
<text text-anchor="middle" x="1493" y="-235.8" font-family="Times,serif" font-size="14.00">LectureModule</text>
</g>
<!-- LectureListComponent&#45;&gt;LectureModule -->
<g id="edge1" class="edge"><title>LectureListComponent&#45;&gt;LectureModule</title>
<path fill="none" stroke="black" d="M1071,-190.292C1071,-212.206 1071,-246 1071,-246 1071,-246 1431.68,-246 1431.68,-246"/>
<polygon fill="black" stroke="black" points="1431.68,-249.5 1441.68,-246 1431.68,-242.5 1431.68,-249.5"/>
</g>
<!-- LectureItemComponent -->
<g id="node2" class="node"><title>LectureItemComponent</title>
<polygon fill="#ffffb3" stroke="black" points="1493.74,-190 1344.26,-190 1344.26,-154 1493.74,-154 1493.74,-190"/>
<text text-anchor="middle" x="1419" y="-167.8" font-family="Times,serif" font-size="14.00">LectureItemComponent</text>
</g>
<!-- LectureItemComponent&#45;&gt;LectureModule -->
<g id="edge2" class="edge"><title>LectureItemComponent&#45;&gt;LectureModule</title>
<path fill="none" stroke="black" d="M1467.86,-190.223C1467.86,-190.223 1467.86,-211.727 1467.86,-211.727"/>
<polygon fill="black" stroke="black" points="1464.36,-211.727 1467.86,-221.727 1471.36,-211.727 1464.36,-211.727"/>
</g>
<!-- LectureDetailsComponent -->
<g id="node3" class="node"><title>LectureDetailsComponent</title>
<polygon fill="#ffffb3" stroke="black" points="1325.73,-190 1162.27,-190 1162.27,-154 1325.73,-154 1325.73,-190"/>
<text text-anchor="middle" x="1244" y="-167.8" font-family="Times,serif" font-size="14.00">LectureDetailsComponent</text>
</g>
<!-- LectureDetailsComponent&#45;&gt;LectureModule -->
<g id="edge3" class="edge"><title>LectureDetailsComponent&#45;&gt;LectureModule</title>
<path fill="none" stroke="black" d="M1244,-190.267C1244,-208.555 1244,-234 1244,-234 1244,-234 1431.71,-234 1431.71,-234"/>
<polygon fill="black" stroke="black" points="1431.71,-237.5 1441.71,-234 1431.71,-230.5 1431.71,-237.5"/>
</g>
<!-- AppModule -->
<g id="node24" class="node"><title>AppModule</title>
<polygon fill="#8dd3c7" stroke="black" points="3058.66,-334 3055.66,-338 3034.66,-338 3031.66,-334 2975.34,-334 2975.34,-298 3058.66,-298 3058.66,-334"/>
<text text-anchor="middle" x="3017" y="-311.8" font-family="Times,serif" font-size="14.00">AppModule</text>
</g>
<!-- LectureModule&#45;&gt;AppModule -->
<g id="edge28" class="edge"><title>LectureModule&#45;&gt;AppModule</title>
<path fill="none" stroke="black" d="M1493,-258.153C1493,-281.757 1493,-320 1493,-320 1493,-320 2965.05,-320 2965.05,-320"/>
<polygon fill="black" stroke="black" points="2965.05,-323.5 2975.05,-320 2965.05,-316.5 2965.05,-323.5"/>
</g>
<!-- SharedModule -->
<g id="node5" class="node"><title>SharedModule</title>
<polygon fill="#8dd3c7" stroke="black" points="1616.42,-190 1613.42,-194 1592.42,-194 1589.42,-190 1517.58,-190 1517.58,-154 1616.42,-154 1616.42,-190"/>
<text text-anchor="middle" x="1567" y="-167.8" font-family="Times,serif" font-size="14.00">SharedModule</text>
</g>
<!-- SharedModule&#45;&gt;LectureModule -->
<g id="edge4" class="edge"><title>SharedModule&#45;&gt;LectureModule</title>
<path fill="none" stroke="black" d="M1530.97,-190.223C1530.97,-190.223 1530.97,-211.727 1530.97,-211.727"/>
<polygon fill="black" stroke="black" points="1527.47,-211.727 1530.97,-221.727 1534.47,-211.727 1527.47,-211.727"/>
</g>
<!-- CommonModule  -->
<g id="node17" class="node"><title>CommonModule </title>
<polygon fill="#fb8072" stroke="black" points="2381.67,-258 2266.33,-258 2266.33,-222 2381.67,-222 2381.67,-258"/>
<text text-anchor="middle" x="2324" y="-235.8" font-family="Times,serif" font-size="14.00">CommonModule </text>
</g>
<!-- SharedModule&#45;&gt;CommonModule  -->
<g id="edge17" class="edge"><title>SharedModule&#45;&gt;CommonModule </title>
<path fill="none" stroke="black" stroke-dasharray="5,2" d="M1592.19,-190.033C1592.19,-196.853 1592.19,-203 1592.19,-203 1592.19,-203 2324,-203 2324,-203 2324,-203 2324,-211.934 2324,-211.934"/>
<polygon fill="black" stroke="black" points="2320.5,-211.934 2324,-221.934 2327.5,-211.934 2320.5,-211.934"/>
</g>
<!-- RouterModule  -->
<g id="node18" class="node"><title>RouterModule </title>
<polygon fill="#fb8072" stroke="black" points="2248.65,-258 2147.35,-258 2147.35,-222 2248.65,-222 2248.65,-258"/>
<text text-anchor="middle" x="2198" y="-235.8" font-family="Times,serif" font-size="14.00">RouterModule </text>
</g>
<!-- SharedModule&#45;&gt;RouterModule  -->
<g id="edge18" class="edge"><title>SharedModule&#45;&gt;RouterModule </title>
<path fill="none" stroke="black" stroke-dasharray="5,2" d="M1580.18,-190.11C1580.18,-199.897 1580.18,-210 1580.18,-210 1580.18,-210 2198,-210 2198,-210 2198,-210 2198,-211.857 2198,-211.857"/>
<polygon fill="black" stroke="black" points="2194.5,-211.857 2198,-221.857 2201.5,-211.857 2194.5,-211.857"/>
</g>
<!-- MaterialModule  -->
<g id="node19" class="node"><title>MaterialModule </title>
<polygon fill="#fb8072" stroke="black" points="2129.47,-258 2018.53,-258 2018.53,-222 2129.47,-222 2129.47,-258"/>
<text text-anchor="middle" x="2074" y="-235.8" font-family="Times,serif" font-size="14.00">MaterialModule </text>
</g>
<!-- SharedModule&#45;&gt;MaterialModule  -->
<g id="edge19" class="edge"><title>SharedModule&#45;&gt;MaterialModule </title>
<path fill="none" stroke="black" stroke-dasharray="5,2" d="M1568.17,-190.151C1568.17,-202.271 1568.17,-216 1568.17,-216 1568.17,-216 2074,-216 2074,-216 2074,-216 2074,-216.581 2074,-216.581"/>
<polygon fill="black" stroke="black" points="2070.5,-211.81 2074,-221.81 2077.5,-211.81 2070.5,-211.81"/>
</g>
<!-- PaginationComponent  -->
<g id="node20" class="node"><title>PaginationComponent </title>
<polygon fill="#fb8072" stroke="black" points="2000.22,-258 1855.78,-258 1855.78,-222 2000.22,-222 2000.22,-258"/>
<text text-anchor="middle" x="1928" y="-235.8" font-family="Times,serif" font-size="14.00">PaginationComponent </text>
</g>
<!-- SharedModule&#45;&gt;PaginationComponent  -->
<g id="edge20" class="edge"><title>SharedModule&#45;&gt;PaginationComponent </title>
<path fill="none" stroke="black" stroke-dasharray="5,2" d="M1604.2,-190.292C1604.2,-212.206 1604.2,-246 1604.2,-246 1604.2,-246 1845.74,-246 1845.74,-246"/>
<polygon fill="black" stroke="black" points="1845.74,-249.5 1855.74,-246 1845.74,-242.5 1845.74,-249.5"/>
</g>
<!-- RouterModule.forChild(args) -->
<g id="node6" class="node"><title>RouterModule.forChild(args)</title>
<polygon fill="#8dd3c7" stroke="black" points="1815.73,-190 1812.73,-194 1791.73,-194 1788.73,-190 1634.27,-190 1634.27,-154 1815.73,-154 1815.73,-190"/>
<text text-anchor="middle" x="1725" y="-167.8" font-family="Times,serif" font-size="14.00">RouterModule.forChild(args)</text>
</g>
<!-- RouterModule.forChild(args)&#45;&gt;LectureModule -->
<g id="edge5" class="edge"><title>RouterModule.forChild(args)&#45;&gt;LectureModule</title>
<path fill="none" stroke="black" d="M1725,-190.267C1725,-208.555 1725,-234 1725,-234 1725,-234 1554.2,-234 1554.2,-234"/>
<polygon fill="black" stroke="black" points="1554.2,-230.5 1544.2,-234 1554.2,-237.5 1554.2,-230.5"/>
</g>
<!-- BookmarksModule -->
<g id="node28" class="node"><title>BookmarksModule</title>
<polygon fill="#8dd3c7" stroke="black" points="3694.1,-258 3691.1,-262 3670.1,-262 3667.1,-258 3569.9,-258 3569.9,-222 3694.1,-222 3694.1,-258"/>
<text text-anchor="middle" x="3632" y="-235.8" font-family="Times,serif" font-size="14.00">BookmarksModule</text>
</g>
<!-- RouterModule.forChild(args)&#45;&gt;BookmarksModule -->
<g id="edge34" class="edge"><title>RouterModule.forChild(args)&#45;&gt;BookmarksModule</title>
<path fill="none" stroke="black" d="M1815.66,-172C2191.98,-172 3611.32,-172 3611.32,-172 3611.32,-172 3611.32,-211.777 3611.32,-211.777"/>
<polygon fill="black" stroke="black" points="3607.82,-211.777 3611.32,-221.777 3614.82,-211.777 3607.82,-211.777"/>
</g>
<!-- LayoutComponent -->
<g id="node7" class="node"><title>LayoutComponent</title>
<polygon fill="#ffffb3" stroke="black" points="144.49,-122 23.5098,-122 23.5098,-86 144.49,-86 144.49,-122"/>
<text text-anchor="middle" x="84" y="-99.8" font-family="Times,serif" font-size="14.00">LayoutComponent</text>
</g>
<!-- LayoutModule -->
<g id="node12" class="node"><title>LayoutModule</title>
<polygon fill="#8dd3c7" stroke="black" points="622.708,-190 619.708,-194 598.708,-194 595.708,-190 523.292,-190 523.292,-154 622.708,-154 622.708,-190"/>
<text text-anchor="middle" x="573" y="-167.8" font-family="Times,serif" font-size="14.00">LayoutModule</text>
</g>
<!-- LayoutComponent&#45;&gt;LayoutModule -->
<g id="edge6" class="edge"><title>LayoutComponent&#45;&gt;LayoutModule</title>
<path fill="none" stroke="black" d="M84,-122.248C84,-145.018 84,-181 84,-181 84,-181 512.966,-181 512.966,-181"/>
<polygon fill="black" stroke="black" points="512.966,-184.5 522.966,-181 512.966,-177.5 512.966,-184.5"/>
</g>
<!-- SidebarComponent -->
<g id="node8" class="node"><title>SidebarComponent</title>
<polygon fill="#ffffb3" stroke="black" points="706.095,-122 581.905,-122 581.905,-86 706.095,-86 706.095,-122"/>
<text text-anchor="middle" x="644" y="-99.8" font-family="Times,serif" font-size="14.00">SidebarComponent</text>
</g>
<!-- SidebarComponent&#45;&gt;LayoutModule -->
<g id="edge7" class="edge"><title>SidebarComponent&#45;&gt;LayoutModule</title>
<path fill="none" stroke="black" d="M602.278,-122.223C602.278,-122.223 602.278,-143.727 602.278,-143.727"/>
<polygon fill="black" stroke="black" points="598.778,-143.727 602.278,-153.727 605.778,-143.727 598.778,-143.727"/>
</g>
<!-- HeaderComponent -->
<g id="node9" class="node"><title>HeaderComponent</title>
<polygon fill="#ffffb3" stroke="black" points="563.744,-122 442.256,-122 442.256,-86 563.744,-86 563.744,-122"/>
<text text-anchor="middle" x="503" y="-99.8" font-family="Times,serif" font-size="14.00">HeaderComponent</text>
</g>
<!-- HeaderComponent&#45;&gt;LayoutModule -->
<g id="edge8" class="edge"><title>HeaderComponent&#45;&gt;LayoutModule</title>
<path fill="none" stroke="black" d="M543.634,-122.223C543.634,-122.223 543.634,-143.727 543.634,-143.727"/>
<polygon fill="black" stroke="black" points="540.134,-143.727 543.634,-153.727 547.134,-143.727 540.134,-143.727"/>
</g>
<!-- ContentComponent -->
<g id="node10" class="node"><title>ContentComponent</title>
<polygon fill="#ffffb3" stroke="black" points="423.665,-122 298.335,-122 298.335,-86 423.665,-86 423.665,-122"/>
<text text-anchor="middle" x="361" y="-99.8" font-family="Times,serif" font-size="14.00">ContentComponent</text>
</g>
<!-- ContentComponent&#45;&gt;LayoutModule -->
<g id="edge9" class="edge"><title>ContentComponent&#45;&gt;LayoutModule</title>
<path fill="none" stroke="black" d="M361,-122.023C361,-139.373 361,-163 361,-163 361,-163 513.295,-163 513.295,-163"/>
<polygon fill="black" stroke="black" points="513.295,-166.5 523.295,-163 513.295,-159.5 513.295,-166.5"/>
</g>
<!-- FooterComponent -->
<g id="node11" class="node"><title>FooterComponent</title>
<polygon fill="#ffffb3" stroke="black" points="279.881,-122 162.119,-122 162.119,-86 279.881,-86 279.881,-122"/>
<text text-anchor="middle" x="221" y="-99.8" font-family="Times,serif" font-size="14.00">FooterComponent</text>
</g>
<!-- FooterComponent&#45;&gt;LayoutModule -->
<g id="edge10" class="edge"><title>FooterComponent&#45;&gt;LayoutModule</title>
<path fill="none" stroke="black" d="M221,-122.223C221,-142.365 221,-172 221,-172 221,-172 513.314,-172 513.314,-172"/>
<polygon fill="black" stroke="black" points="513.314,-175.5 523.314,-172 513.314,-168.5 513.314,-175.5"/>
</g>
<!-- LayoutComponent  -->
<g id="node15" class="node"><title>LayoutComponent </title>
<polygon fill="#fb8072" stroke="black" points="635.491,-258 510.509,-258 510.509,-222 635.491,-222 635.491,-258"/>
<text text-anchor="middle" x="573" y="-235.8" font-family="Times,serif" font-size="14.00">LayoutComponent </text>
</g>
<!-- LayoutModule&#45;&gt;LayoutComponent  -->
<g id="edge13" class="edge"><title>LayoutModule&#45;&gt;LayoutComponent </title>
<path fill="none" stroke="black" stroke-dasharray="5,2" d="M573,-190.223C573,-190.223 573,-211.727 573,-211.727"/>
<polygon fill="black" stroke="black" points="569.5,-211.727 573,-221.727 576.5,-211.727 569.5,-211.727"/>
</g>
<!-- LayoutModule&#45;&gt;AppModule -->
<g id="edge27" class="edge"><title>LayoutModule&#45;&gt;AppModule</title>
<path fill="none" stroke="black" d="M622.619,-181C676.384,-181 754.587,-181 754.587,-181 754.587,-181 754.587,-327 754.587,-327 754.587,-327 2965.31,-327 2965.31,-327"/>
<polygon fill="black" stroke="black" points="2965.31,-330.5 2975.31,-327 2965.31,-323.5 2965.31,-330.5"/>
</g>
<!-- CommonModule -->
<g id="node13" class="node"><title>CommonModule</title>
<polygon fill="#8dd3c7" stroke="black" points="957.668,-122 954.668,-126 933.668,-126 930.668,-122 846.332,-122 846.332,-86 957.668,-86 957.668,-122"/>
<text text-anchor="middle" x="902" y="-99.8" font-family="Times,serif" font-size="14.00">CommonModule</text>
</g>
<!-- CommonModule&#45;&gt;SharedModule -->
<g id="edge15" class="edge"><title>CommonModule&#45;&gt;SharedModule</title>
<path fill="none" stroke="black" d="M957.762,-110C1120.5,-110 1583.4,-110 1583.4,-110 1583.4,-110 1583.4,-143.733 1583.4,-143.733"/>
<polygon fill="black" stroke="black" points="1579.9,-143.733 1583.4,-153.733 1586.9,-143.733 1579.9,-143.733"/>
</g>
<!-- CommonModule&#45;&gt;LayoutModule -->
<g id="edge11" class="edge"><title>CommonModule&#45;&gt;LayoutModule</title>
<path fill="none" stroke="black" d="M902,-122.223C902,-142.365 902,-172 902,-172 902,-172 632.611,-172 632.611,-172"/>
<polygon fill="black" stroke="black" points="632.611,-168.5 622.611,-172 632.611,-175.5 632.611,-168.5"/>
</g>
<!-- CommonModule&#45;&gt;BookmarksModule -->
<g id="edge33" class="edge"><title>CommonModule&#45;&gt;BookmarksModule</title>
<path fill="none" stroke="black" d="M957.88,-98C1348.32,-98 3652.68,-98 3652.68,-98 3652.68,-98 3652.68,-211.727 3652.68,-211.727"/>
<polygon fill="black" stroke="black" points="3649.18,-211.727 3652.68,-221.727 3656.18,-211.727 3649.18,-211.727"/>
</g>
<!-- RouterModule -->
<g id="node14" class="node"><title>RouterModule</title>
<polygon fill="#8dd3c7" stroke="black" points="827.653,-122 824.653,-126 803.653,-126 800.653,-122 730.347,-122 730.347,-86 827.653,-86 827.653,-122"/>
<text text-anchor="middle" x="779" y="-99.8" font-family="Times,serif" font-size="14.00">RouterModule</text>
</g>
<!-- RouterModule&#45;&gt;SharedModule -->
<g id="edge16" class="edge"><title>RouterModule&#45;&gt;SharedModule</title>
<path fill="none" stroke="black" d="M779,-122.194C779,-130.278 779,-138 779,-138 779,-138 1550.6,-138 1550.6,-138 1550.6,-138 1550.6,-143.806 1550.6,-143.806"/>
<polygon fill="black" stroke="black" points="1547.1,-143.806 1550.6,-153.806 1554.1,-143.806 1547.1,-143.806"/>
</g>
<!-- RouterModule&#45;&gt;LayoutModule -->
<g id="edge12" class="edge"><title>RouterModule&#45;&gt;LayoutModule</title>
<path fill="none" stroke="black" d="M803.413,-122.023C803.413,-139.373 803.413,-163 803.413,-163 803.413,-163 632.713,-163 632.713,-163"/>
<polygon fill="black" stroke="black" points="632.713,-159.5 622.713,-163 632.712,-166.5 632.713,-159.5"/>
</g>
<!-- PaginationComponent -->
<g id="node16" class="node"><title>PaginationComponent</title>
<polygon fill="#ffffb3" stroke="black" points="2547.72,-258 2406.28,-258 2406.28,-222 2547.72,-222 2547.72,-258"/>
<text text-anchor="middle" x="2477" y="-235.8" font-family="Times,serif" font-size="14.00">PaginationComponent</text>
</g>
<!-- PaginationComponent&#45;&gt;SharedModule -->
<g id="edge14" class="edge"><title>PaginationComponent&#45;&gt;SharedModule</title>
<path fill="none" stroke="black" d="M2477,-221.515C2477,-209.86 2477,-197 2477,-197 2477,-197 1556.16,-197 1556.16,-197 1556.16,-197 1556.16,-196.317 1556.16,-196.317"/>
<polygon fill="black" stroke="black" points="1559.66,-200.169 1556.16,-190.169 1552.66,-200.169 1559.66,-200.169"/>
</g>
<!-- AppComponent -->
<g id="node21" class="node"><title>AppComponent</title>
<polygon fill="#ffffb3" stroke="black" points="2693.94,-258 2588.06,-258 2588.06,-222 2693.94,-222 2693.94,-258"/>
<text text-anchor="middle" x="2641" y="-235.8" font-family="Times,serif" font-size="14.00">AppComponent</text>
</g>
<!-- AppComponent&#45;&gt;AppModule -->
<g id="edge21" class="edge"><title>AppComponent&#45;&gt;AppModule</title>
<path fill="none" stroke="black" d="M2641,-258.045C2641,-279.662 2641,-313 2641,-313 2641,-313 2965.32,-313 2965.32,-313"/>
<polygon fill="black" stroke="black" points="2965.32,-316.5 2975.32,-313 2965.32,-309.5 2965.32,-316.5"/>
</g>
<!-- HomeComponent -->
<g id="node22" class="node"><title>HomeComponent</title>
<polygon fill="#ffffb3" stroke="black" points="3009.55,-258 2894.45,-258 2894.45,-222 3009.55,-222 3009.55,-258"/>
<text text-anchor="middle" x="2952" y="-235.8" font-family="Times,serif" font-size="14.00">HomeComponent</text>
</g>
<!-- HomeComponent&#45;&gt;AppModule -->
<g id="edge22" class="edge"><title>HomeComponent&#45;&gt;AppModule</title>
<path fill="none" stroke="black" d="M2992.47,-258.011C2992.47,-258.011 2992.47,-287.855 2992.47,-287.855"/>
<polygon fill="black" stroke="black" points="2988.97,-287.855 2992.47,-297.855 2995.97,-287.855 2988.97,-287.855"/>
</g>
<!-- PageNotFoundComponent -->
<g id="node23" class="node"><title>PageNotFoundComponent</title>
<polygon fill="#ffffb3" stroke="black" points="2876.82,-258 2711.18,-258 2711.18,-222 2876.82,-222 2876.82,-258"/>
<text text-anchor="middle" x="2794" y="-235.8" font-family="Times,serif" font-size="14.00">PageNotFoundComponent</text>
</g>
<!-- PageNotFoundComponent&#45;&gt;AppModule -->
<g id="edge23" class="edge"><title>PageNotFoundComponent&#45;&gt;AppModule</title>
<path fill="none" stroke="black" d="M2794,-258.035C2794,-277.576 2794,-306 2794,-306 2794,-306 2965.32,-306 2965.32,-306"/>
<polygon fill="black" stroke="black" points="2965.32,-309.5 2975.32,-306 2965.32,-302.5 2965.32,-309.5"/>
</g>
<!-- AppComponent  -->
<g id="node30" class="node"><title>AppComponent </title>
<polygon fill="#80b1d3" stroke="black" points="3071.44,-402 2962.56,-402 2962.56,-366 3071.44,-366 3071.44,-402"/>
<text text-anchor="middle" x="3017" y="-379.8" font-family="Times,serif" font-size="14.00">AppComponent </text>
</g>
<!-- AppModule&#45;&gt;AppComponent  -->
<g id="edge31" class="edge"><title>AppModule&#45;&gt;AppComponent </title>
<path fill="none" stroke="black" stroke-dasharray="1,5" d="M3017,-334.223C3017,-334.223 3017,-355.727 3017,-355.727"/>
<polygon fill="black" stroke="black" points="3013.5,-355.727 3017,-365.727 3020.5,-355.727 3013.5,-355.727"/>
</g>
<!-- BrowserModule -->
<g id="node25" class="node"><title>BrowserModule</title>
<polygon fill="#8dd3c7" stroke="black" points="3254.47,-258 3251.47,-262 3230.47,-262 3227.47,-258 3147.53,-258 3147.53,-222 3254.47,-222 3254.47,-258"/>
<text text-anchor="middle" x="3201" y="-235.8" font-family="Times,serif" font-size="14.00">BrowserModule</text>
</g>
<!-- BrowserModule&#45;&gt;AppModule -->
<g id="edge24" class="edge"><title>BrowserModule&#45;&gt;AppModule</title>
<path fill="none" stroke="black" d="M3201,-258.169C3201,-277.09 3201,-304 3201,-304 3201,-304 3068.75,-304 3068.75,-304"/>
<polygon fill="black" stroke="black" points="3068.75,-300.5 3058.75,-304 3068.75,-307.5 3068.75,-300.5"/>
</g>
<!-- FormsModule -->
<g id="node26" class="node"><title>FormsModule</title>
<polygon fill="#8dd3c7" stroke="black" points="3129.83,-258 3126.83,-262 3105.83,-262 3102.83,-258 3034.17,-258 3034.17,-222 3129.83,-222 3129.83,-258"/>
<text text-anchor="middle" x="3082" y="-235.8" font-family="Times,serif" font-size="14.00">FormsModule</text>
</g>
<!-- FormsModule&#45;&gt;AppModule -->
<g id="edge25" class="edge"><title>FormsModule&#45;&gt;AppModule</title>
<path fill="none" stroke="black" d="M3046.58,-258.011C3046.58,-258.011 3046.58,-287.855 3046.58,-287.855"/>
<polygon fill="black" stroke="black" points="3043.08,-287.855 3046.58,-297.855 3050.08,-287.855 3043.08,-287.855"/>
</g>
<!-- HttpModule -->
<g id="node27" class="node"><title>HttpModule</title>
<polygon fill="#8dd3c7" stroke="black" points="3552.44,-258 3549.44,-262 3528.44,-262 3525.44,-258 3467.56,-258 3467.56,-222 3552.44,-222 3552.44,-258"/>
<text text-anchor="middle" x="3510" y="-235.8" font-family="Times,serif" font-size="14.00">HttpModule</text>
</g>
<!-- HttpModule&#45;&gt;AppModule -->
<g id="edge26" class="edge"><title>HttpModule&#45;&gt;AppModule</title>
<path fill="none" stroke="black" d="M3510,-258.011C3510,-280.485 3510,-316 3510,-316 3510,-316 3069.03,-316 3069.03,-316"/>
<polygon fill="black" stroke="black" points="3069.03,-312.5 3059.03,-316 3069.03,-319.5 3069.03,-312.5"/>
</g>
<!-- BookmarksModule&#45;&gt;AppModule -->
<g id="edge29" class="edge"><title>BookmarksModule&#45;&gt;AppModule</title>
<path fill="none" stroke="black" d="M3611.32,-258.198C3611.32,-282.356 3611.32,-322 3611.32,-322 3611.32,-322 3068.79,-322 3068.79,-322"/>
<polygon fill="black" stroke="black" points="3068.79,-318.5 3058.79,-322 3068.79,-325.5 3068.79,-318.5"/>
</g>
<!-- BookmarksComponent  -->
<g id="node32" class="node"><title>BookmarksComponent </title>
<polygon fill="#fb8072" stroke="black" points="3883.88,-334 3734.12,-334 3734.12,-298 3883.88,-298 3883.88,-334"/>
<text text-anchor="middle" x="3809" y="-311.8" font-family="Times,serif" font-size="14.00">BookmarksComponent </text>
</g>
<!-- BookmarksModule&#45;&gt;BookmarksComponent  -->
<g id="edge35" class="edge"><title>BookmarksModule&#45;&gt;BookmarksComponent </title>
<path fill="none" stroke="black" stroke-dasharray="5,2" d="M3652.68,-258.234C3652.68,-284.009 3652.68,-328 3652.68,-328 3652.68,-328 3724.05,-328 3724.05,-328"/>
<polygon fill="black" stroke="black" points="3724.05,-331.5 3734.05,-328 3724.05,-324.5 3724.05,-331.5"/>
</g>
<!-- RouterModule.forRoot(args) -->
<g id="node29" class="node"><title>RouterModule.forRoot(args)</title>
<polygon fill="#8dd3c7" stroke="black" points="3449.84,-258 3446.84,-262 3425.84,-262 3422.84,-258 3272.16,-258 3272.16,-222 3449.84,-222 3449.84,-258"/>
<text text-anchor="middle" x="3361" y="-235.8" font-family="Times,serif" font-size="14.00">RouterModule.forRoot(args)</text>
</g>
<!-- RouterModule.forRoot(args)&#45;&gt;AppModule -->
<g id="edge30" class="edge"><title>RouterModule.forRoot(args)&#45;&gt;AppModule</title>
<path fill="none" stroke="black" d="M3361,-258.027C3361,-278.767 3361,-310 3361,-310 3361,-310 3068.84,-310 3068.84,-310"/>
<polygon fill="black" stroke="black" points="3068.84,-306.5 3058.84,-310 3068.84,-313.5 3068.84,-306.5"/>
</g>
<!-- BookmarksComponent -->
<g id="node31" class="node"><title>BookmarksComponent</title>
<polygon fill="#ffffb3" stroke="black" points="4053.88,-334 3908.12,-334 3908.12,-298 4053.88,-298 4053.88,-334"/>
<text text-anchor="middle" x="3981" y="-311.8" font-family="Times,serif" font-size="14.00">BookmarksComponent</text>
</g>
<!-- BookmarksComponent&#45;&gt;BookmarksModule -->
<g id="edge32" class="edge"><title>BookmarksComponent&#45;&gt;BookmarksModule</title>
<path fill="none" stroke="black" d="M3981,-297.989C3981,-275.515 3981,-240 3981,-240 3981,-240 3704.39,-240 3704.39,-240"/>
<polygon fill="black" stroke="black" points="3704.39,-236.5 3694.39,-240 3704.39,-243.5 3704.39,-236.5"/>
</g>
</g>
</svg>
