<?xml version="1.0" encoding="UTF-8" standalone="no"?>
<!DOCTYPE svg PUBLIC "-//W3C//DTD SVG 1.1//EN"
 "http://www.w3.org/Graphics/SVG/1.1/DTD/svg11.dtd">
<!-- Generated by graphviz version 2.38.0 (20140413.2041)
 -->
<!-- Title: dependencies Pages: 1 -->
<svg width="991pt" height="284pt"
 viewBox="0.00 0.00 991.00 284.00" xmlns="http://www.w3.org/2000/svg" xmlns:xlink="http://www.w3.org/1999/xlink">
<g id="graph0" class="graph" transform="scale(1 1) rotate(0) translate(4 280)">
<title>dependencies</title>
<polygon fill="white" stroke="none" points="-4,4 -4,-280 987,-280 987,4 -4,4"/>
<text text-anchor="start" x="470.509" y="-42.4" font-family="sans-serif" font-weight="bold" font-size="14.00">Legend</text>
<polygon fill="#ffffb3" stroke="none" points="257.5,-10 257.5,-30 277.5,-30 277.5,-10 257.5,-10"/>
<text text-anchor="start" x="281.129" y="-15.4" font-family="sans-serif" font-size="14.00"> &#160;Declarations</text>
<polygon fill="#8dd3c7" stroke="none" points="370.5,-10 370.5,-30 390.5,-30 390.5,-10 370.5,-10"/>
<text text-anchor="start" x="394.225" y="-15.4" font-family="sans-serif" font-size="14.00"> &#160;Module</text>
<polygon fill="#80b1d3" stroke="none" points="456.5,-10 456.5,-30 476.5,-30 476.5,-10 456.5,-10"/>
<text text-anchor="start" x="480.281" y="-15.4" font-family="sans-serif" font-size="14.00"> &#160;Bootstrap</text>
<polygon fill="#fdb462" stroke="none" points="553.5,-10 553.5,-30 573.5,-30 573.5,-10 553.5,-10"/>
<text text-anchor="start" x="577.173" y="-15.4" font-family="sans-serif" font-size="14.00"> &#160;Providers</text>
<polygon fill="#fb8072" stroke="none" points="649.5,-10 649.5,-30 669.5,-30 669.5,-10 649.5,-10"/>
<text text-anchor="start" x="673.226" y="-15.4" font-family="sans-serif" font-size="14.00"> &#160;Exports</text>
<g id="clust1" class="cluster"><title>cluster_LayoutModule</title>
<polygon fill="none" stroke="black" stroke-dasharray="1,5" points="8,-70 8,-268 975,-268 975,-70 8,-70"/>
</g>
<g id="clust2" class="cluster"><title>cluster_LayoutModule_declarations</title>
<polygon fill="none" stroke="black" points="268,-78 268,-130 967,-130 967,-78 268,-78"/>
</g>
<g id="clust8" class="cluster"><title>cluster_LayoutModule_imports</title>
<polygon fill="none" stroke="black" points="16,-78 16,-130 260,-130 260,-78 16,-78"/>
</g>
<g id="clust9" class="cluster"><title>cluster_LayoutModule_exports</title>
<polygon fill="none" stroke="black" points="405,-208 405,-260 545,-260 545,-208 405,-208"/>
</g>
<!-- LayoutComponent -->
<g id="node1" class="node"><title>LayoutComponent</title>
<polygon fill="#ffffb3" stroke="black" points="959.49,-122 838.51,-122 838.51,-86 959.49,-86 959.49,-122"/>
<text text-anchor="middle" x="899" y="-99.8" font-family="Times,serif" font-size="14.00">LayoutComponent</text>
</g>
<!-- LayoutModule -->
<g id="node6" class="node"><title>LayoutModule</title>
<polygon fill="#8dd3c7" stroke="black" points="524.708,-187 521.708,-191 500.708,-191 497.708,-187 425.292,-187 425.292,-151 524.708,-151 524.708,-187"/>
<text text-anchor="middle" x="475" y="-164.8" font-family="Times,serif" font-size="14.00">LayoutModule</text>
</g>
<!-- LayoutComponent&#45;&gt;LayoutModule -->
<g id="edge1" class="edge"><title>LayoutComponent&#45;&gt;LayoutModule</title>
<path fill="none" stroke="black" d="M899,-122.292C899,-144.206 899,-178 899,-178 899,-178 534.885,-178 534.885,-178"/>
<polygon fill="black" stroke="black" points="534.885,-174.5 524.885,-178 534.885,-181.5 534.885,-174.5"/>
</g>
<!-- SidebarComponent -->
<g id="node2" class="node"><title>SidebarComponent</title>
<polygon fill="#ffffb3" stroke="black" points="820.095,-122 695.905,-122 695.905,-86 820.095,-86 820.095,-122"/>
<text text-anchor="middle" x="758" y="-99.8" font-family="Times,serif" font-size="14.00">SidebarComponent</text>
</g>
<!-- SidebarComponent&#45;&gt;LayoutModule -->
<g id="edge2" class="edge"><title>SidebarComponent&#45;&gt;LayoutModule</title>
<path fill="none" stroke="black" d="M758,-122.106C758,-141.339 758,-169 758,-169 758,-169 534.619,-169 534.619,-169"/>
<polygon fill="black" stroke="black" points="534.619,-165.5 524.619,-169 534.619,-172.5 534.619,-165.5"/>
</g>
<!-- HeaderComponent -->
<g id="node3" class="node"><title>HeaderComponent</title>
<polygon fill="#ffffb3" stroke="black" points="677.744,-122 556.256,-122 556.256,-86 677.744,-86 677.744,-122"/>
<text text-anchor="middle" x="617" y="-99.8" font-family="Times,serif" font-size="14.00">HeaderComponent</text>
</g>
<!-- HeaderComponent&#45;&gt;LayoutModule -->
<g id="edge3" class="edge"><title>HeaderComponent&#45;&gt;LayoutModule</title>
<path fill="none" stroke="black" d="M617,-122.027C617,-138.398 617,-160 617,-160 617,-160 534.665,-160 534.665,-160"/>
<polygon fill="black" stroke="black" points="534.665,-156.5 524.665,-160 534.665,-163.5 534.665,-156.5"/>
</g>
<!-- ContentComponent -->
<g id="node4" class="node"><title>ContentComponent</title>
<polygon fill="#ffffb3" stroke="black" points="537.665,-122 412.335,-122 412.335,-86 537.665,-86 537.665,-122"/>
<text text-anchor="middle" x="475" y="-99.8" font-family="Times,serif" font-size="14.00">ContentComponent</text>
</g>
<!-- ContentComponent&#45;&gt;LayoutModule -->
<g id="edge4" class="edge"><title>ContentComponent&#45;&gt;LayoutModule</title>
<path fill="none" stroke="black" d="M475,-122.106C475,-122.106 475,-140.991 475,-140.991"/>
<polygon fill="black" stroke="black" points="471.5,-140.991 475,-150.991 478.5,-140.991 471.5,-140.991"/>
</g>
<!-- FooterComponent -->
<g id="node5" class="node"><title>FooterComponent</title>
<polygon fill="#ffffb3" stroke="black" points="393.881,-122 276.119,-122 276.119,-86 393.881,-86 393.881,-122"/>
<text text-anchor="middle" x="335" y="-99.8" font-family="Times,serif" font-size="14.00">FooterComponent</text>
</g>
<!-- FooterComponent&#45;&gt;LayoutModule -->
<g id="edge5" class="edge"><title>FooterComponent&#45;&gt;LayoutModule</title>
<path fill="none" stroke="black" d="M335,-122.027C335,-138.398 335,-160 335,-160 335,-160 415.247,-160 415.247,-160"/>
<polygon fill="black" stroke="black" points="415.247,-163.5 425.247,-160 415.247,-156.5 415.247,-163.5"/>
</g>
<!-- LayoutComponent  -->
<g id="node9" class="node"><title>LayoutComponent </title>
<polygon fill="#fb8072" stroke="black" points="537.491,-252 412.509,-252 412.509,-216 537.491,-216 537.491,-252"/>
<text text-anchor="middle" x="475" y="-229.8" font-family="Times,serif" font-size="14.00">LayoutComponent </text>
</g>
<!-- LayoutModule&#45;&gt;LayoutComponent  -->
<g id="edge8" class="edge"><title>LayoutModule&#45;&gt;LayoutComponent </title>
<path fill="none" stroke="black" stroke-dasharray="5,2" d="M475,-187.106C475,-187.106 475,-205.991 475,-205.991"/>
<polygon fill="black" stroke="black" points="471.5,-205.991 475,-215.991 478.5,-205.991 471.5,-205.991"/>
</g>
<!-- CommonModule -->
<g id="node7" class="node"><title>CommonModule</title>
<polygon fill="#8dd3c7" stroke="black" points="251.668,-122 248.668,-126 227.668,-126 224.668,-122 140.332,-122 140.332,-86 251.668,-86 251.668,-122"/>
<text text-anchor="middle" x="196" y="-99.8" font-family="Times,serif" font-size="14.00">CommonModule</text>
</g>
<!-- CommonModule&#45;&gt;LayoutModule -->
<g id="edge6" class="edge"><title>CommonModule&#45;&gt;LayoutModule</title>
<path fill="none" stroke="black" d="M196,-122.106C196,-141.339 196,-169 196,-169 196,-169 415.12,-169 415.12,-169"/>
<polygon fill="black" stroke="black" points="415.12,-172.5 425.12,-169 415.12,-165.5 415.12,-172.5"/>
</g>
<!-- RouterModule -->
<g id="node8" class="node"><title>RouterModule</title>
<polygon fill="#8dd3c7" stroke="black" points="121.653,-122 118.653,-126 97.6528,-126 94.6528,-122 24.3472,-122 24.3472,-86 121.653,-86 121.653,-122"/>
<text text-anchor="middle" x="73" y="-99.8" font-family="Times,serif" font-size="14.00">RouterModule</text>
</g>
<!-- RouterModule&#45;&gt;LayoutModule -->
<g id="edge7" class="edge"><title>RouterModule&#45;&gt;LayoutModule</title>
<path fill="none" stroke="black" d="M73,-122.292C73,-144.206 73,-178 73,-178 73,-178 415.304,-178 415.304,-178"/>
<polygon fill="black" stroke="black" points="415.304,-181.5 425.304,-178 415.304,-174.5 415.304,-181.5"/>
</g>
</g>
</svg>
