<?xml version="1.0" encoding="UTF-8" standalone="no"?>
<!DOCTYPE svg PUBLIC "-//W3C//DTD SVG 1.1//EN"
 "http://www.w3.org/Graphics/SVG/1.1/DTD/svg11.dtd">
<!-- Generated by graphviz version 2.38.0 (20140413.2041)
 -->
<!-- Title: dependencies Pages: 1 -->
<svg width="1111pt" height="284pt"
 viewBox="0.00 0.00 1111.00 284.00" xmlns="http://www.w3.org/2000/svg" xmlns:xlink="http://www.w3.org/1999/xlink">
<g id="graph0" class="graph" transform="scale(1 1) rotate(0) translate(4 280)">
<title>dependencies</title>
<polygon fill="white" stroke="none" points="-4,4 -4,-280 1107,-280 1107,4 -4,4"/>
<text text-anchor="start" x="530.509" y="-42.4" font-family="sans-serif" font-weight="bold" font-size="14.00">Legend</text>
<polygon fill="#ffffb3" stroke="none" points="317.5,-10 317.5,-30 337.5,-30 337.5,-10 317.5,-10"/>
<text text-anchor="start" x="341.129" y="-15.4" font-family="sans-serif" font-size="14.00"> &#160;Declarations</text>
<polygon fill="#8dd3c7" stroke="none" points="430.5,-10 430.5,-30 450.5,-30 450.5,-10 430.5,-10"/>
<text text-anchor="start" x="454.225" y="-15.4" font-family="sans-serif" font-size="14.00"> &#160;Module</text>
<polygon fill="#80b1d3" stroke="none" points="516.5,-10 516.5,-30 536.5,-30 536.5,-10 516.5,-10"/>
<text text-anchor="start" x="540.281" y="-15.4" font-family="sans-serif" font-size="14.00"> &#160;Bootstrap</text>
<polygon fill="#fdb462" stroke="none" points="613.5,-10 613.5,-30 633.5,-30 633.5,-10 613.5,-10"/>
<text text-anchor="start" x="637.173" y="-15.4" font-family="sans-serif" font-size="14.00"> &#160;Providers</text>
<polygon fill="#fb8072" stroke="none" points="709.5,-10 709.5,-30 729.5,-30 729.5,-10 709.5,-10"/>
<text text-anchor="start" x="733.226" y="-15.4" font-family="sans-serif" font-size="14.00"> &#160;Exports</text>
<g id="clust1" class="cluster"><title>cluster_LayoutModule</title>
<polygon fill="none" stroke="black" stroke-dasharray="1,5" points="8,-70 8,-268 1095,-268 1095,-70 8,-70"/>
</g>
<g id="clust2" class="cluster"><title>cluster_LayoutModule_declarations</title>
<polygon fill="none" stroke="black" points="388,-78 388,-130 1087,-130 1087,-78 388,-78"/>
</g>
<g id="clust8" class="cluster"><title>cluster_LayoutModule_imports</title>
<polygon fill="none" stroke="black" points="16,-78 16,-130 380,-130 380,-78 16,-78"/>
</g>
<g id="clust9" class="cluster"><title>cluster_LayoutModule_exports</title>
<polygon fill="none" stroke="black" points="455,-208 455,-260 595,-260 595,-208 455,-208"/>
</g>
<!-- LayoutComponent -->
<g id="node1" class="node"><title>LayoutComponent</title>
<polygon fill="#ffffb3" stroke="black" points="1079.49,-122 958.51,-122 958.51,-86 1079.49,-86 1079.49,-122"/>
<text text-anchor="middle" x="1019" y="-99.8" font-family="Times,serif" font-size="14.00">LayoutComponent</text>
</g>
<!-- LayoutModule -->
<g id="node6" class="node"><title>LayoutModule</title>
<polygon fill="#8dd3c7" stroke="black" points="574.708,-187 571.708,-191 550.708,-191 547.708,-187 475.292,-187 475.292,-151 574.708,-151 574.708,-187"/>
<text text-anchor="middle" x="525" y="-164.8" font-family="Times,serif" font-size="14.00">LayoutModule</text>
</g>
<!-- LayoutComponent&#45;&gt;LayoutModule -->
<g id="edge1" class="edge"><title>LayoutComponent&#45;&gt;LayoutModule</title>
<path fill="none" stroke="black" d="M1019,-122.292C1019,-144.206 1019,-178 1019,-178 1019,-178 584.628,-178 584.628,-178"/>
<polygon fill="black" stroke="black" points="584.628,-174.5 574.628,-178 584.628,-181.5 584.628,-174.5"/>
</g>
<!-- SidebarComponent -->
<g id="node2" class="node"><title>SidebarComponent</title>
<polygon fill="#ffffb3" stroke="black" points="940.095,-122 815.905,-122 815.905,-86 940.095,-86 940.095,-122"/>
<text text-anchor="middle" x="878" y="-99.8" font-family="Times,serif" font-size="14.00">SidebarComponent</text>
</g>
<!-- SidebarComponent&#45;&gt;LayoutModule -->
<g id="edge2" class="edge"><title>SidebarComponent&#45;&gt;LayoutModule</title>
<path fill="none" stroke="black" d="M878,-122.106C878,-141.339 878,-169 878,-169 878,-169 584.828,-169 584.828,-169"/>
<polygon fill="black" stroke="black" points="584.828,-165.5 574.828,-169 584.828,-172.5 584.828,-165.5"/>
</g>
<!-- HeaderComponent -->
<g id="node3" class="node"><title>HeaderComponent</title>
<polygon fill="#ffffb3" stroke="black" points="797.744,-122 676.256,-122 676.256,-86 797.744,-86 797.744,-122"/>
<text text-anchor="middle" x="737" y="-99.8" font-family="Times,serif" font-size="14.00">HeaderComponent</text>
</g>
<!-- HeaderComponent&#45;&gt;LayoutModule -->
<g id="edge3" class="edge"><title>HeaderComponent&#45;&gt;LayoutModule</title>
<path fill="none" stroke="black" d="M737,-122.027C737,-138.398 737,-160 737,-160 737,-160 584.705,-160 584.705,-160"/>
<polygon fill="black" stroke="black" points="584.705,-156.5 574.705,-160 584.705,-163.5 584.705,-156.5"/>
</g>
<!-- ContentComponent -->
<g id="node4" class="node"><title>ContentComponent</title>
<polygon fill="#ffffb3" stroke="black" points="657.665,-122 532.335,-122 532.335,-86 657.665,-86 657.665,-122"/>
<text text-anchor="middle" x="595" y="-99.8" font-family="Times,serif" font-size="14.00">ContentComponent</text>
</g>
<!-- ContentComponent&#45;&gt;LayoutModule -->
<g id="edge4" class="edge"><title>ContentComponent&#45;&gt;LayoutModule</title>
<path fill="none" stroke="black" d="M553.386,-122.106C553.386,-122.106 553.386,-140.991 553.386,-140.991"/>
<polygon fill="black" stroke="black" points="549.886,-140.991 553.386,-150.991 556.886,-140.991 549.886,-140.991"/>
</g>
<!-- FooterComponent -->
<g id="node5" class="node"><title>FooterComponent</title>
<polygon fill="#ffffb3" stroke="black" points="513.881,-122 396.119,-122 396.119,-86 513.881,-86 513.881,-122"/>
<text text-anchor="middle" x="455" y="-99.8" font-family="Times,serif" font-size="14.00">FooterComponent</text>
</g>
<!-- FooterComponent&#45;&gt;LayoutModule -->
<g id="edge5" class="edge"><title>FooterComponent&#45;&gt;LayoutModule</title>
<path fill="none" stroke="black" d="M494.668,-122.106C494.668,-122.106 494.668,-140.991 494.668,-140.991"/>
<polygon fill="black" stroke="black" points="491.168,-140.991 494.668,-150.991 498.168,-140.991 491.168,-140.991"/>
</g>
<!-- LayoutComponent  -->
<g id="node10" class="node"><title>LayoutComponent </title>
<polygon fill="#fb8072" stroke="black" points="587.491,-252 462.509,-252 462.509,-216 587.491,-216 587.491,-252"/>
<text text-anchor="middle" x="525" y="-229.8" font-family="Times,serif" font-size="14.00">LayoutComponent </text>
</g>
<!-- LayoutModule&#45;&gt;LayoutComponent  -->
<g id="edge9" class="edge"><title>LayoutModule&#45;&gt;LayoutComponent </title>
<path fill="none" stroke="black" stroke-dasharray="5,2" d="M525,-187.106C525,-187.106 525,-205.991 525,-205.991"/>
<polygon fill="black" stroke="black" points="521.5,-205.991 525,-215.991 528.5,-205.991 521.5,-205.991"/>
</g>
<!-- CommonModule -->
<g id="node7" class="node"><title>CommonModule</title>
<polygon fill="#8dd3c7" stroke="black" points="371.668,-122 368.668,-126 347.668,-126 344.668,-122 260.332,-122 260.332,-86 371.668,-86 371.668,-122"/>
<text text-anchor="middle" x="316" y="-99.8" font-family="Times,serif" font-size="14.00">CommonModule</text>
</g>
<!-- CommonModule&#45;&gt;LayoutModule -->
<g id="edge6" class="edge"><title>CommonModule&#45;&gt;LayoutModule</title>
<path fill="none" stroke="black" d="M316,-122.027C316,-138.398 316,-160 316,-160 316,-160 465.205,-160 465.205,-160"/>
<polygon fill="black" stroke="black" points="465.205,-163.5 475.205,-160 465.205,-156.5 465.205,-163.5"/>
</g>
<!-- SidebarModule -->
<g id="node8" class="node"><title>SidebarModule</title>
<polygon fill="#8dd3c7" stroke="black" points="242.313,-122 239.313,-126 218.313,-126 215.313,-122 139.687,-122 139.687,-86 242.313,-86 242.313,-122"/>
<text text-anchor="middle" x="191" y="-99.8" font-family="Times,serif" font-size="14.00">SidebarModule</text>
</g>
<!-- SidebarModule&#45;&gt;LayoutModule -->
<g id="edge7" class="edge"><title>SidebarModule&#45;&gt;LayoutModule</title>
<path fill="none" stroke="black" d="M191,-122.106C191,-141.339 191,-169 191,-169 191,-169 465.357,-169 465.357,-169"/>
<polygon fill="black" stroke="black" points="465.358,-172.5 475.357,-169 465.357,-165.5 465.358,-172.5"/>
</g>
<!-- RouterModule -->
<g id="node9" class="node"><title>RouterModule</title>
<polygon fill="#8dd3c7" stroke="black" points="121.653,-122 118.653,-126 97.6528,-126 94.6528,-122 24.3472,-122 24.3472,-86 121.653,-86 121.653,-122"/>
<text text-anchor="middle" x="73" y="-99.8" font-family="Times,serif" font-size="14.00">RouterModule</text>
</g>
<!-- RouterModule&#45;&gt;LayoutModule -->
<g id="edge8" class="edge"><title>RouterModule&#45;&gt;LayoutModule</title>
<path fill="none" stroke="black" d="M73,-122.292C73,-144.206 73,-178 73,-178 73,-178 465.335,-178 465.335,-178"/>
<polygon fill="black" stroke="black" points="465.335,-181.5 475.335,-178 465.335,-174.5 465.335,-181.5"/>
</g>
</g>
</svg>
