<?xml version="1.0" encoding="UTF-8" standalone="no"?>
<!DOCTYPE svg PUBLIC "-//W3C//DTD SVG 1.1//EN"
 "http://www.w3.org/Graphics/SVG/1.1/DTD/svg11.dtd">
<!-- Generated by graphviz version 2.38.0 (20140413.2041)
 -->
<!-- Title: dependencies Pages: 1 -->
<svg width="1400pt" height="284pt"
 viewBox="0.00 0.00 1400.00 284.00" xmlns="http://www.w3.org/2000/svg" xmlns:xlink="http://www.w3.org/1999/xlink">
<g id="graph0" class="graph" transform="scale(1 1) rotate(0) translate(4 280)">
<title>dependencies</title>
<polygon fill="white" stroke="none" points="-4,4 -4,-280 1396,-280 1396,4 -4,4"/>
<text text-anchor="start" x="675.009" y="-42.4" font-family="sans-serif" font-weight="bold" font-size="14.00">Legend</text>
<polygon fill="#ffffb3" stroke="none" points="462,-10 462,-30 482,-30 482,-10 462,-10"/>
<text text-anchor="start" x="485.629" y="-15.4" font-family="sans-serif" font-size="14.00"> &#160;Declarations</text>
<polygon fill="#8dd3c7" stroke="none" points="575,-10 575,-30 595,-30 595,-10 575,-10"/>
<text text-anchor="start" x="598.725" y="-15.4" font-family="sans-serif" font-size="14.00"> &#160;Module</text>
<polygon fill="#80b1d3" stroke="none" points="661,-10 661,-30 681,-30 681,-10 661,-10"/>
<text text-anchor="start" x="684.781" y="-15.4" font-family="sans-serif" font-size="14.00"> &#160;Bootstrap</text>
<polygon fill="#fdb462" stroke="none" points="758,-10 758,-30 778,-30 778,-10 758,-10"/>
<text text-anchor="start" x="781.673" y="-15.4" font-family="sans-serif" font-size="14.00"> &#160;Providers</text>
<polygon fill="#fb8072" stroke="none" points="854,-10 854,-30 874,-30 874,-10 854,-10"/>
<text text-anchor="start" x="877.726" y="-15.4" font-family="sans-serif" font-size="14.00"> &#160;Exports</text>
<g id="clust1" class="cluster"><title>cluster_AppModule</title>
<polygon fill="none" stroke="black" stroke-dasharray="1,5" points="8,-70 8,-268 1384,-268 1384,-70 8,-70"/>
</g>
<g id="clust2" class="cluster"><title>cluster_AppModule_declarations</title>
<polygon fill="none" stroke="black" points="938,-78 938,-130 1376,-130 1376,-78 938,-78"/>
</g>
<g id="clust6" class="cluster"><title>cluster_AppModule_imports</title>
<polygon fill="none" stroke="black" points="16,-78 16,-130 930,-130 930,-78 16,-78"/>
</g>
<g id="clust8" class="cluster"><title>cluster_AppModule_bootstrap</title>
<polygon fill="none" stroke="black" points="634,-208 634,-260 758,-260 758,-208 634,-208"/>
</g>
<!-- AppComponent -->
<g id="node1" class="node"><title>AppComponent</title>
<polygon fill="#ffffb3" stroke="black" points="1367.94,-122 1262.06,-122 1262.06,-86 1367.94,-86 1367.94,-122"/>
<text text-anchor="middle" x="1315" y="-99.8" font-family="Times,serif" font-size="14.00">AppComponent</text>
</g>
<!-- AppModule -->
<g id="node4" class="node"><title>AppModule</title>
<polygon fill="#8dd3c7" stroke="black" points="737.657,-187 734.657,-191 713.657,-191 710.657,-187 654.343,-187 654.343,-151 737.657,-151 737.657,-187"/>
<text text-anchor="middle" x="696" y="-164.8" font-family="Times,serif" font-size="14.00">AppModule</text>
</g>
<!-- AppComponent&#45;&gt;AppModule -->
<g id="edge1" class="edge"><title>AppComponent&#45;&gt;AppModule</title>
<path fill="none" stroke="black" d="M1315,-122.011C1315,-144.485 1315,-180 1315,-180 1315,-180 748.06,-180 748.06,-180"/>
<polygon fill="black" stroke="black" points="748.06,-176.5 738.06,-180 748.06,-183.5 748.06,-176.5"/>
</g>
<!-- HomeComponent -->
<g id="node2" class="node"><title>HomeComponent</title>
<polygon fill="#ffffb3" stroke="black" points="1244.55,-122 1129.45,-122 1129.45,-86 1244.55,-86 1244.55,-122"/>
<text text-anchor="middle" x="1187" y="-99.8" font-family="Times,serif" font-size="14.00">HomeComponent</text>
</g>
<!-- HomeComponent&#45;&gt;AppModule -->
<g id="edge2" class="edge"><title>HomeComponent&#45;&gt;AppModule</title>
<path fill="none" stroke="black" d="M1187,-122.129C1187,-142.572 1187,-173 1187,-173 1187,-173 747.862,-173 747.862,-173"/>
<polygon fill="black" stroke="black" points="747.862,-169.5 737.862,-173 747.862,-176.5 747.862,-169.5"/>
</g>
<!-- PageNotFoundComponent -->
<g id="node3" class="node"><title>PageNotFoundComponent</title>
<polygon fill="#ffffb3" stroke="black" points="1111.82,-122 946.176,-122 946.176,-86 1111.82,-86 1111.82,-122"/>
<text text-anchor="middle" x="1029" y="-99.8" font-family="Times,serif" font-size="14.00">PageNotFoundComponent</text>
</g>
<!-- PageNotFoundComponent&#45;&gt;AppModule -->
<g id="edge3" class="edge"><title>PageNotFoundComponent&#45;&gt;AppModule</title>
<path fill="none" stroke="black" d="M1029,-122.267C1029,-140.555 1029,-166 1029,-166 1029,-166 747.837,-166 747.837,-166"/>
<polygon fill="black" stroke="black" points="747.838,-162.5 737.837,-166 747.837,-169.5 747.838,-162.5"/>
</g>
<!-- AppComponent  -->
<g id="node12" class="node"><title>AppComponent </title>
<polygon fill="#80b1d3" stroke="black" points="750.439,-252 641.561,-252 641.561,-216 750.439,-216 750.439,-252"/>
<text text-anchor="middle" x="696" y="-229.8" font-family="Times,serif" font-size="14.00">AppComponent </text>
</g>
<!-- AppModule&#45;&gt;AppComponent  -->
<g id="edge11" class="edge"><title>AppModule&#45;&gt;AppComponent </title>
<path fill="none" stroke="black" stroke-dasharray="1,5" d="M696,-187.106C696,-187.106 696,-205.991 696,-205.991"/>
<polygon fill="black" stroke="black" points="692.5,-205.991 696,-215.991 699.5,-205.991 692.5,-205.991"/>
</g>
<!-- BrowserModule -->
<g id="node5" class="node"><title>BrowserModule</title>
<polygon fill="#8dd3c7" stroke="black" points="922.473,-122 919.473,-126 898.473,-126 895.473,-122 815.527,-122 815.527,-86 922.473,-86 922.473,-122"/>
<text text-anchor="middle" x="869" y="-99.8" font-family="Times,serif" font-size="14.00">BrowserModule</text>
</g>
<!-- BrowserModule&#45;&gt;AppModule -->
<g id="edge4" class="edge"><title>BrowserModule&#45;&gt;AppModule</title>
<path fill="none" stroke="black" d="M869,-122.009C869,-138.049 869,-159 869,-159 869,-159 747.878,-159 747.878,-159"/>
<polygon fill="black" stroke="black" points="747.879,-155.5 737.878,-159 747.878,-162.5 747.879,-155.5"/>
</g>
<!-- FormsModule -->
<g id="node6" class="node"><title>FormsModule</title>
<polygon fill="#8dd3c7" stroke="black" points="797.829,-122 794.829,-126 773.829,-126 770.829,-122 702.171,-122 702.171,-86 797.829,-86 797.829,-122"/>
<text text-anchor="middle" x="750" y="-99.8" font-family="Times,serif" font-size="14.00">FormsModule</text>
</g>
<!-- FormsModule&#45;&gt;AppModule -->
<g id="edge5" class="edge"><title>FormsModule&#45;&gt;AppModule</title>
<path fill="none" stroke="black" d="M720.082,-122.106C720.082,-122.106 720.082,-140.991 720.082,-140.991"/>
<polygon fill="black" stroke="black" points="716.582,-140.991 720.082,-150.991 723.582,-140.991 716.582,-140.991"/>
</g>
<!-- HttpModule -->
<g id="node7" class="node"><title>HttpModule</title>
<polygon fill="#8dd3c7" stroke="black" points="684.439,-122 681.439,-126 660.439,-126 657.439,-122 599.561,-122 599.561,-86 684.439,-86 684.439,-122"/>
<text text-anchor="middle" x="642" y="-99.8" font-family="Times,serif" font-size="14.00">HttpModule</text>
</g>
<!-- HttpModule&#45;&gt;AppModule -->
<g id="edge6" class="edge"><title>HttpModule&#45;&gt;AppModule</title>
<path fill="none" stroke="black" d="M669.195,-122.106C669.195,-122.106 669.195,-140.991 669.195,-140.991"/>
<polygon fill="black" stroke="black" points="665.695,-140.991 669.195,-150.991 672.695,-140.991 665.695,-140.991"/>
</g>
<!-- LayoutModule -->
<g id="node8" class="node"><title>LayoutModule</title>
<polygon fill="#8dd3c7" stroke="black" points="581.708,-122 578.708,-126 557.708,-126 554.708,-122 482.292,-122 482.292,-86 581.708,-86 581.708,-122"/>
<text text-anchor="middle" x="532" y="-99.8" font-family="Times,serif" font-size="14.00">LayoutModule</text>
</g>
<!-- LayoutModule&#45;&gt;AppModule -->
<g id="edge7" class="edge"><title>LayoutModule&#45;&gt;AppModule</title>
<path fill="none" stroke="black" d="M532,-122.009C532,-138.049 532,-159 532,-159 532,-159 644.192,-159 644.192,-159"/>
<polygon fill="black" stroke="black" points="644.192,-162.5 654.192,-159 644.192,-155.5 644.192,-162.5"/>
</g>
<!-- LectureModule -->
<g id="node9" class="node"><title>LectureModule</title>
<polygon fill="#8dd3c7" stroke="black" points="464.298,-122 461.298,-126 440.298,-126 437.298,-122 361.702,-122 361.702,-86 464.298,-86 464.298,-122"/>
<text text-anchor="middle" x="413" y="-99.8" font-family="Times,serif" font-size="14.00">LectureModule</text>
</g>
<!-- LectureModule&#45;&gt;AppModule -->
<g id="edge8" class="edge"><title>LectureModule&#45;&gt;AppModule</title>
<path fill="none" stroke="black" d="M413,-122.267C413,-140.555 413,-166 413,-166 413,-166 644.242,-166 644.242,-166"/>
<polygon fill="black" stroke="black" points="644.242,-169.5 654.242,-166 644.242,-162.5 644.242,-169.5"/>
</g>
<!-- BookmarksModule -->
<g id="node10" class="node"><title>BookmarksModule</title>
<polygon fill="#8dd3c7" stroke="black" points="344.097,-122 341.097,-126 320.097,-126 317.097,-122 219.903,-122 219.903,-86 344.097,-86 344.097,-122"/>
<text text-anchor="middle" x="282" y="-99.8" font-family="Times,serif" font-size="14.00">BookmarksModule</text>
</g>
<!-- BookmarksModule&#45;&gt;AppModule -->
<g id="edge9" class="edge"><title>BookmarksModule&#45;&gt;AppModule</title>
<path fill="none" stroke="black" d="M282,-122.129C282,-142.572 282,-173 282,-173 282,-173 644.025,-173 644.025,-173"/>
<polygon fill="black" stroke="black" points="644.025,-176.5 654.025,-173 644.025,-169.5 644.025,-176.5"/>
</g>
<!-- RouterModule.forRoot(args) -->
<g id="node11" class="node"><title>RouterModule.forRoot(args)</title>
<polygon fill="#8dd3c7" stroke="black" points="201.842,-122 198.842,-126 177.842,-126 174.842,-122 24.1581,-122 24.1581,-86 201.842,-86 201.842,-122"/>
<text text-anchor="middle" x="113" y="-99.8" font-family="Times,serif" font-size="14.00">RouterModule.forRoot(args)</text>
</g>
<!-- RouterModule.forRoot(args)&#45;&gt;AppModule -->
<g id="edge10" class="edge"><title>RouterModule.forRoot(args)&#45;&gt;AppModule</title>
<path fill="none" stroke="black" d="M113,-122.011C113,-144.485 113,-180 113,-180 113,-180 644.072,-180 644.072,-180"/>
<polygon fill="black" stroke="black" points="644.072,-183.5 654.072,-180 644.072,-176.5 644.072,-183.5"/>
</g>
</g>
</svg>
