<?xml version="1.0" encoding="UTF-8" standalone="no"?>
<!DOCTYPE svg PUBLIC "-//W3C//DTD SVG 1.1//EN"
 "http://www.w3.org/Graphics/SVG/1.1/DTD/svg11.dtd">
<!-- Generated by graphviz version 2.38.0 (20140413.2041)
 -->
<!-- Title: dependencies Pages: 1 -->
<svg width="1258pt" height="284pt"
 viewBox="0.00 0.00 1258.00 284.00" xmlns="http://www.w3.org/2000/svg" xmlns:xlink="http://www.w3.org/1999/xlink">
<g id="graph0" class="graph" transform="scale(1 1) rotate(0) translate(4 280)">
<title>dependencies</title>
<polygon fill="white" stroke="none" points="-4,4 -4,-280 1254,-280 1254,4 -4,4"/>
<text text-anchor="start" x="604.009" y="-42.4" font-family="sans-serif" font-weight="bold" font-size="14.00">Legend</text>
<polygon fill="#ffffb3" stroke="none" points="391,-10 391,-30 411,-30 411,-10 391,-10"/>
<text text-anchor="start" x="414.629" y="-15.4" font-family="sans-serif" font-size="14.00"> &#160;Declarations</text>
<polygon fill="#8dd3c7" stroke="none" points="504,-10 504,-30 524,-30 524,-10 504,-10"/>
<text text-anchor="start" x="527.725" y="-15.4" font-family="sans-serif" font-size="14.00"> &#160;Module</text>
<polygon fill="#80b1d3" stroke="none" points="590,-10 590,-30 610,-30 610,-10 590,-10"/>
<text text-anchor="start" x="613.781" y="-15.4" font-family="sans-serif" font-size="14.00"> &#160;Bootstrap</text>
<polygon fill="#fdb462" stroke="none" points="687,-10 687,-30 707,-30 707,-10 687,-10"/>
<text text-anchor="start" x="710.673" y="-15.4" font-family="sans-serif" font-size="14.00"> &#160;Providers</text>
<polygon fill="#fb8072" stroke="none" points="783,-10 783,-30 803,-30 803,-10 783,-10"/>
<text text-anchor="start" x="806.726" y="-15.4" font-family="sans-serif" font-size="14.00"> &#160;Exports</text>
<g id="clust1" class="cluster"><title>cluster_AppModule</title>
<polygon fill="none" stroke="black" stroke-dasharray="1,5" points="8,-70 8,-268 1242,-268 1242,-70 8,-70"/>
</g>
<g id="clust2" class="cluster"><title>cluster_AppModule_declarations</title>
<polygon fill="none" stroke="black" points="796,-78 796,-130 1234,-130 1234,-78 796,-78"/>
</g>
<g id="clust6" class="cluster"><title>cluster_AppModule_imports</title>
<polygon fill="none" stroke="black" points="16,-78 16,-130 788,-130 788,-78 16,-78"/>
</g>
<g id="clust8" class="cluster"><title>cluster_AppModule_bootstrap</title>
<polygon fill="none" stroke="black" points="546,-208 546,-260 670,-260 670,-208 546,-208"/>
</g>
<!-- AppComponent -->
<g id="node1" class="node"><title>AppComponent</title>
<polygon fill="#ffffb3" stroke="black" points="1225.94,-122 1120.06,-122 1120.06,-86 1225.94,-86 1225.94,-122"/>
<text text-anchor="middle" x="1173" y="-99.8" font-family="Times,serif" font-size="14.00">AppComponent</text>
</g>
<!-- AppModule -->
<g id="node4" class="node"><title>AppModule</title>
<polygon fill="#8dd3c7" stroke="black" points="649.657,-187 646.657,-191 625.657,-191 622.657,-187 566.343,-187 566.343,-151 649.657,-151 649.657,-187"/>
<text text-anchor="middle" x="608" y="-164.8" font-family="Times,serif" font-size="14.00">AppModule</text>
</g>
<!-- AppComponent&#45;&gt;AppModule -->
<g id="edge1" class="edge"><title>AppComponent&#45;&gt;AppModule</title>
<path fill="none" stroke="black" d="M1173,-122.011C1173,-144.485 1173,-180 1173,-180 1173,-180 660.005,-180 660.005,-180"/>
<polygon fill="black" stroke="black" points="660.005,-176.5 650.005,-180 660.005,-183.5 660.005,-176.5"/>
</g>
<!-- HomeComponent -->
<g id="node2" class="node"><title>HomeComponent</title>
<polygon fill="#ffffb3" stroke="black" points="1102.55,-122 987.455,-122 987.455,-86 1102.55,-86 1102.55,-122"/>
<text text-anchor="middle" x="1045" y="-99.8" font-family="Times,serif" font-size="14.00">HomeComponent</text>
</g>
<!-- HomeComponent&#45;&gt;AppModule -->
<g id="edge2" class="edge"><title>HomeComponent&#45;&gt;AppModule</title>
<path fill="none" stroke="black" d="M1045,-122.129C1045,-142.572 1045,-173 1045,-173 1045,-173 659.901,-173 659.901,-173"/>
<polygon fill="black" stroke="black" points="659.901,-169.5 649.901,-173 659.901,-176.5 659.901,-169.5"/>
</g>
<!-- PageNotFoundComponent -->
<g id="node3" class="node"><title>PageNotFoundComponent</title>
<polygon fill="#ffffb3" stroke="black" points="969.824,-122 804.176,-122 804.176,-86 969.824,-86 969.824,-122"/>
<text text-anchor="middle" x="887" y="-99.8" font-family="Times,serif" font-size="14.00">PageNotFoundComponent</text>
</g>
<!-- PageNotFoundComponent&#45;&gt;AppModule -->
<g id="edge3" class="edge"><title>PageNotFoundComponent&#45;&gt;AppModule</title>
<path fill="none" stroke="black" d="M887,-122.267C887,-140.555 887,-166 887,-166 887,-166 659.769,-166 659.769,-166"/>
<polygon fill="black" stroke="black" points="659.769,-162.5 649.769,-166 659.769,-169.5 659.769,-162.5"/>
</g>
<!-- AppComponent  -->
<g id="node11" class="node"><title>AppComponent </title>
<polygon fill="#80b1d3" stroke="black" points="662.439,-252 553.561,-252 553.561,-216 662.439,-216 662.439,-252"/>
<text text-anchor="middle" x="608" y="-229.8" font-family="Times,serif" font-size="14.00">AppComponent </text>
</g>
<!-- AppModule&#45;&gt;AppComponent  -->
<g id="edge10" class="edge"><title>AppModule&#45;&gt;AppComponent </title>
<path fill="none" stroke="black" stroke-dasharray="1,5" d="M608,-187.106C608,-187.106 608,-205.991 608,-205.991"/>
<polygon fill="black" stroke="black" points="604.5,-205.991 608,-215.991 611.5,-205.991 604.5,-205.991"/>
</g>
<!-- BrowserModule -->
<g id="node5" class="node"><title>BrowserModule</title>
<polygon fill="#8dd3c7" stroke="black" points="780.473,-122 777.473,-126 756.473,-126 753.473,-122 673.527,-122 673.527,-86 780.473,-86 780.473,-122"/>
<text text-anchor="middle" x="727" y="-99.8" font-family="Times,serif" font-size="14.00">BrowserModule</text>
</g>
<!-- BrowserModule&#45;&gt;AppModule -->
<g id="edge4" class="edge"><title>BrowserModule&#45;&gt;AppModule</title>
<path fill="none" stroke="black" d="M727,-122.009C727,-138.049 727,-159 727,-159 727,-159 659.955,-159 659.955,-159"/>
<polygon fill="black" stroke="black" points="659.955,-155.5 649.955,-159 659.955,-162.5 659.955,-155.5"/>
</g>
<!-- FormsModule -->
<g id="node6" class="node"><title>FormsModule</title>
<polygon fill="#8dd3c7" stroke="black" points="655.829,-122 652.829,-126 631.829,-126 628.829,-122 560.171,-122 560.171,-86 655.829,-86 655.829,-122"/>
<text text-anchor="middle" x="608" y="-99.8" font-family="Times,serif" font-size="14.00">FormsModule</text>
</g>
<!-- FormsModule&#45;&gt;AppModule -->
<g id="edge5" class="edge"><title>FormsModule&#45;&gt;AppModule</title>
<path fill="none" stroke="black" d="M608,-122.106C608,-122.106 608,-140.991 608,-140.991"/>
<polygon fill="black" stroke="black" points="604.5,-140.991 608,-150.991 611.5,-140.991 604.5,-140.991"/>
</g>
<!-- HttpModule -->
<g id="node7" class="node"><title>HttpModule</title>
<polygon fill="#8dd3c7" stroke="black" points="542.439,-122 539.439,-126 518.439,-126 515.439,-122 457.561,-122 457.561,-86 542.439,-86 542.439,-122"/>
<text text-anchor="middle" x="500" y="-99.8" font-family="Times,serif" font-size="14.00">HttpModule</text>
</g>
<!-- HttpModule&#45;&gt;AppModule -->
<g id="edge6" class="edge"><title>HttpModule&#45;&gt;AppModule</title>
<path fill="none" stroke="black" d="M500,-122.009C500,-138.049 500,-159 500,-159 500,-159 556.244,-159 556.244,-159"/>
<polygon fill="black" stroke="black" points="556.244,-162.5 566.244,-159 556.244,-155.5 556.244,-162.5"/>
</g>
<!-- LayoutModule -->
<g id="node8" class="node"><title>LayoutModule</title>
<polygon fill="#8dd3c7" stroke="black" points="439.708,-122 436.708,-126 415.708,-126 412.708,-122 340.292,-122 340.292,-86 439.708,-86 439.708,-122"/>
<text text-anchor="middle" x="390" y="-99.8" font-family="Times,serif" font-size="14.00">LayoutModule</text>
</g>
<!-- LayoutModule&#45;&gt;AppModule -->
<g id="edge7" class="edge"><title>LayoutModule&#45;&gt;AppModule</title>
<path fill="none" stroke="black" d="M390,-122.267C390,-140.555 390,-166 390,-166 390,-166 556.225,-166 556.225,-166"/>
<polygon fill="black" stroke="black" points="556.225,-169.5 566.225,-166 556.225,-162.5 556.225,-169.5"/>
</g>
<!-- LectureModule -->
<g id="node9" class="node"><title>LectureModule</title>
<polygon fill="#8dd3c7" stroke="black" points="322.298,-122 319.298,-126 298.298,-126 295.298,-122 219.702,-122 219.702,-86 322.298,-86 322.298,-122"/>
<text text-anchor="middle" x="271" y="-99.8" font-family="Times,serif" font-size="14.00">LectureModule</text>
</g>
<!-- LectureModule&#45;&gt;AppModule -->
<g id="edge8" class="edge"><title>LectureModule&#45;&gt;AppModule</title>
<path fill="none" stroke="black" d="M271,-122.129C271,-142.572 271,-173 271,-173 271,-173 556.339,-173 556.339,-173"/>
<polygon fill="black" stroke="black" points="556.339,-176.5 566.339,-173 556.339,-169.5 556.339,-176.5"/>
</g>
<!-- RouterModule.forRoot(args) -->
<g id="node10" class="node"><title>RouterModule.forRoot(args)</title>
<polygon fill="#8dd3c7" stroke="black" points="201.842,-122 198.842,-126 177.842,-126 174.842,-122 24.1581,-122 24.1581,-86 201.842,-86 201.842,-122"/>
<text text-anchor="middle" x="113" y="-99.8" font-family="Times,serif" font-size="14.00">RouterModule.forRoot(args)</text>
</g>
<!-- RouterModule.forRoot(args)&#45;&gt;AppModule -->
<g id="edge9" class="edge"><title>RouterModule.forRoot(args)&#45;&gt;AppModule</title>
<path fill="none" stroke="black" d="M113,-122.011C113,-144.485 113,-180 113,-180 113,-180 556.223,-180 556.223,-180"/>
<polygon fill="black" stroke="black" points="556.223,-183.5 566.223,-180 556.223,-176.5 556.223,-183.5"/>
</g>
</g>
</svg>
