<?xml version="1.0" encoding="UTF-8" standalone="no"?>
<!DOCTYPE svg PUBLIC "-//W3C//DTD SVG 1.1//EN"
 "http://www.w3.org/Graphics/SVG/1.1/DTD/svg11.dtd">
<!-- Generated by graphviz version 2.38.0 (20140413.2041)
 -->
<!-- Title: dependencies Pages: 1 -->
<svg width="1830pt" height="284pt"
 viewBox="0.00 0.00 1830.00 284.00" xmlns="http://www.w3.org/2000/svg" xmlns:xlink="http://www.w3.org/1999/xlink">
<g id="graph0" class="graph" transform="scale(1 1) rotate(0) translate(4 280)">
<title>dependencies</title>
<polygon fill="white" stroke="none" points="-4,4 -4,-280 1826,-280 1826,4 -4,4"/>
<text text-anchor="start" x="890.009" y="-42.4" font-family="sans-serif" font-weight="bold" font-size="14.00">Legend</text>
<polygon fill="#ffffb3" stroke="none" points="677,-10 677,-30 697,-30 697,-10 677,-10"/>
<text text-anchor="start" x="700.629" y="-15.4" font-family="sans-serif" font-size="14.00"> &#160;Declarations</text>
<polygon fill="#8dd3c7" stroke="none" points="790,-10 790,-30 810,-30 810,-10 790,-10"/>
<text text-anchor="start" x="813.725" y="-15.4" font-family="sans-serif" font-size="14.00"> &#160;Module</text>
<polygon fill="#80b1d3" stroke="none" points="876,-10 876,-30 896,-30 896,-10 876,-10"/>
<text text-anchor="start" x="899.781" y="-15.4" font-family="sans-serif" font-size="14.00"> &#160;Bootstrap</text>
<polygon fill="#fdb462" stroke="none" points="973,-10 973,-30 993,-30 993,-10 973,-10"/>
<text text-anchor="start" x="996.673" y="-15.4" font-family="sans-serif" font-size="14.00"> &#160;Providers</text>
<polygon fill="#fb8072" stroke="none" points="1069,-10 1069,-30 1089,-30 1089,-10 1069,-10"/>
<text text-anchor="start" x="1092.73" y="-15.4" font-family="sans-serif" font-size="14.00"> &#160;Exports</text>
<g id="clust1" class="cluster"><title>cluster_AppModule</title>
<polygon fill="none" stroke="black" stroke-dasharray="1,5" points="8,-70 8,-268 1814,-268 1814,-70 8,-70"/>
</g>
<g id="clust2" class="cluster"><title>cluster_AppModule_declarations</title>
<polygon fill="none" stroke="black" points="1368,-78 1368,-130 1806,-130 1806,-78 1368,-78"/>
</g>
<g id="clust6" class="cluster"><title>cluster_AppModule_imports</title>
<polygon fill="none" stroke="black" points="330,-78 330,-130 1360,-130 1360,-78 330,-78"/>
</g>
<g id="clust8" class="cluster"><title>cluster_AppModule_bootstrap</title>
<polygon fill="none" stroke="black" points="900,-208 900,-260 1024,-260 1024,-208 900,-208"/>
</g>
<g id="clust9" class="cluster"><title>cluster_AppModule_providers</title>
<polygon fill="none" stroke="black" points="16,-78 16,-130 322,-130 322,-78 16,-78"/>
</g>
<!-- AppComponent -->
<g id="node1" class="node"><title>AppComponent</title>
<polygon fill="#ffffb3" stroke="black" points="1797.94,-122 1692.06,-122 1692.06,-86 1797.94,-86 1797.94,-122"/>
<text text-anchor="middle" x="1745" y="-99.8" font-family="Times,serif" font-size="14.00">AppComponent</text>
</g>
<!-- AppModule -->
<g id="node4" class="node"><title>AppModule</title>
<polygon fill="#8dd3c7" stroke="black" points="1003.66,-187 1000.66,-191 979.657,-191 976.657,-187 920.343,-187 920.343,-151 1003.66,-151 1003.66,-187"/>
<text text-anchor="middle" x="962" y="-164.8" font-family="Times,serif" font-size="14.00">AppModule</text>
</g>
<!-- AppComponent&#45;&gt;AppModule -->
<g id="edge1" class="edge"><title>AppComponent&#45;&gt;AppModule</title>
<path fill="none" stroke="black" d="M1745,-122.091C1745,-145.133 1745,-182 1745,-182 1745,-182 1013.82,-182 1013.82,-182"/>
<polygon fill="black" stroke="black" points="1013.82,-178.5 1003.82,-182 1013.82,-185.5 1013.82,-178.5"/>
</g>
<!-- HomeComponent -->
<g id="node2" class="node"><title>HomeComponent</title>
<polygon fill="#ffffb3" stroke="black" points="1674.55,-122 1559.45,-122 1559.45,-86 1674.55,-86 1674.55,-122"/>
<text text-anchor="middle" x="1617" y="-99.8" font-family="Times,serif" font-size="14.00">HomeComponent</text>
</g>
<!-- HomeComponent&#45;&gt;AppModule -->
<g id="edge2" class="edge"><title>HomeComponent&#45;&gt;AppModule</title>
<path fill="none" stroke="black" d="M1617,-122.045C1617,-143.662 1617,-177 1617,-177 1617,-177 1013.97,-177 1013.97,-177"/>
<polygon fill="black" stroke="black" points="1013.97,-173.5 1003.97,-177 1013.97,-180.5 1013.97,-173.5"/>
</g>
<!-- PageNotFoundComponent -->
<g id="node3" class="node"><title>PageNotFoundComponent</title>
<polygon fill="#ffffb3" stroke="black" points="1541.82,-122 1376.18,-122 1376.18,-86 1541.82,-86 1541.82,-122"/>
<text text-anchor="middle" x="1459" y="-99.8" font-family="Times,serif" font-size="14.00">PageNotFoundComponent</text>
</g>
<!-- PageNotFoundComponent&#45;&gt;AppModule -->
<g id="edge3" class="edge"><title>PageNotFoundComponent&#45;&gt;AppModule</title>
<path fill="none" stroke="black" d="M1459,-122.223C1459,-142.365 1459,-172 1459,-172 1459,-172 1013.95,-172 1013.95,-172"/>
<polygon fill="black" stroke="black" points="1013.95,-168.5 1003.95,-172 1013.95,-175.5 1013.95,-168.5"/>
</g>
<!-- AppComponent  -->
<g id="node13" class="node"><title>AppComponent </title>
<polygon fill="#80b1d3" stroke="black" points="1016.44,-252 907.561,-252 907.561,-216 1016.44,-216 1016.44,-252"/>
<text text-anchor="middle" x="962" y="-229.8" font-family="Times,serif" font-size="14.00">AppComponent </text>
</g>
<!-- AppModule&#45;&gt;AppComponent  -->
<g id="edge12" class="edge"><title>AppModule&#45;&gt;AppComponent </title>
<path fill="none" stroke="black" stroke-dasharray="1,5" d="M962,-187.106C962,-187.106 962,-205.991 962,-205.991"/>
<polygon fill="black" stroke="black" points="958.5,-205.991 962,-215.991 965.5,-205.991 958.5,-205.991"/>
</g>
<!-- BrowserModule -->
<g id="node5" class="node"><title>BrowserModule</title>
<polygon fill="#8dd3c7" stroke="black" points="1352.47,-122 1349.47,-126 1328.47,-126 1325.47,-122 1245.53,-122 1245.53,-86 1352.47,-86 1352.47,-122"/>
<text text-anchor="middle" x="1299" y="-99.8" font-family="Times,serif" font-size="14.00">BrowserModule</text>
</g>
<!-- BrowserModule&#45;&gt;AppModule -->
<g id="edge4" class="edge"><title>BrowserModule&#45;&gt;AppModule</title>
<path fill="none" stroke="black" d="M1299,-122.222C1299,-140.829 1299,-167 1299,-167 1299,-167 1013.66,-167 1013.66,-167"/>
<polygon fill="black" stroke="black" points="1013.66,-163.5 1003.66,-167 1013.66,-170.5 1013.66,-163.5"/>
</g>
<!-- FormsModule -->
<g id="node6" class="node"><title>FormsModule</title>
<polygon fill="#8dd3c7" stroke="black" points="1227.83,-122 1224.83,-126 1203.83,-126 1200.83,-122 1132.17,-122 1132.17,-86 1227.83,-86 1227.83,-122"/>
<text text-anchor="middle" x="1180" y="-99.8" font-family="Times,serif" font-size="14.00">FormsModule</text>
</g>
<!-- FormsModule&#45;&gt;AppModule -->
<g id="edge5" class="edge"><title>FormsModule&#45;&gt;AppModule</title>
<path fill="none" stroke="black" d="M1180,-122.034C1180,-139.06 1180,-162 1180,-162 1180,-162 1013.77,-162 1013.77,-162"/>
<polygon fill="black" stroke="black" points="1013.77,-158.5 1003.77,-162 1013.77,-165.5 1013.77,-158.5"/>
</g>
<!-- HttpModule -->
<g id="node7" class="node"><title>HttpModule</title>
<polygon fill="#8dd3c7" stroke="black" points="1114.44,-122 1111.44,-126 1090.44,-126 1087.44,-122 1029.56,-122 1029.56,-86 1114.44,-86 1114.44,-122"/>
<text text-anchor="middle" x="1072" y="-99.8" font-family="Times,serif" font-size="14.00">HttpModule</text>
</g>
<!-- HttpModule&#45;&gt;AppModule -->
<g id="edge6" class="edge"><title>HttpModule&#45;&gt;AppModule</title>
<path fill="none" stroke="black" d="M1072,-122.24C1072,-137.571 1072,-157 1072,-157 1072,-157 1013.9,-157 1013.9,-157"/>
<polygon fill="black" stroke="black" points="1013.9,-153.5 1003.9,-157 1013.9,-160.5 1013.9,-153.5"/>
</g>
<!-- LayoutModule -->
<g id="node8" class="node"><title>LayoutModule</title>
<polygon fill="#8dd3c7" stroke="black" points="1011.71,-122 1008.71,-126 987.708,-126 984.708,-122 912.292,-122 912.292,-86 1011.71,-86 1011.71,-122"/>
<text text-anchor="middle" x="962" y="-99.8" font-family="Times,serif" font-size="14.00">LayoutModule</text>
</g>
<!-- LayoutModule&#45;&gt;AppModule -->
<g id="edge7" class="edge"><title>LayoutModule&#45;&gt;AppModule</title>
<path fill="none" stroke="black" d="M962,-122.106C962,-122.106 962,-140.991 962,-140.991"/>
<polygon fill="black" stroke="black" points="958.5,-140.991 962,-150.991 965.5,-140.991 958.5,-140.991"/>
</g>
<!-- LectureModule -->
<g id="node9" class="node"><title>LectureModule</title>
<polygon fill="#8dd3c7" stroke="black" points="894.298,-122 891.298,-126 870.298,-126 867.298,-122 791.702,-122 791.702,-86 894.298,-86 894.298,-122"/>
<text text-anchor="middle" x="843" y="-99.8" font-family="Times,serif" font-size="14.00">LectureModule</text>
</g>
<!-- LectureModule&#45;&gt;AppModule -->
<g id="edge8" class="edge"><title>LectureModule&#45;&gt;AppModule</title>
<path fill="none" stroke="black" d="M843,-122.24C843,-137.571 843,-157 843,-157 843,-157 910.045,-157 910.045,-157"/>
<polygon fill="black" stroke="black" points="910.045,-160.5 920.045,-157 910.045,-153.5 910.045,-160.5"/>
</g>
<!-- ArticleModule -->
<g id="node10" class="node"><title>ArticleModule</title>
<polygon fill="#8dd3c7" stroke="black" points="774.419,-122 771.419,-126 750.419,-126 747.419,-122 675.581,-122 675.581,-86 774.419,-86 774.419,-122"/>
<text text-anchor="middle" x="725" y="-99.8" font-family="Times,serif" font-size="14.00">ArticleModule</text>
</g>
<!-- ArticleModule&#45;&gt;AppModule -->
<g id="edge9" class="edge"><title>ArticleModule&#45;&gt;AppModule</title>
<path fill="none" stroke="black" d="M725,-122.034C725,-139.06 725,-162 725,-162 725,-162 910.175,-162 910.175,-162"/>
<polygon fill="black" stroke="black" points="910.175,-165.5 920.175,-162 910.175,-158.5 910.175,-165.5"/>
</g>
<!-- BookmarksModule -->
<g id="node11" class="node"><title>BookmarksModule</title>
<polygon fill="#8dd3c7" stroke="black" points="658.097,-122 655.097,-126 634.097,-126 631.097,-122 533.903,-122 533.903,-86 658.097,-86 658.097,-122"/>
<text text-anchor="middle" x="596" y="-99.8" font-family="Times,serif" font-size="14.00">BookmarksModule</text>
</g>
<!-- BookmarksModule&#45;&gt;AppModule -->
<g id="edge10" class="edge"><title>BookmarksModule&#45;&gt;AppModule</title>
<path fill="none" stroke="black" d="M596,-122.222C596,-140.829 596,-167 596,-167 596,-167 910.015,-167 910.015,-167"/>
<polygon fill="black" stroke="black" points="910.015,-170.5 920.015,-167 910.015,-163.5 910.015,-170.5"/>
</g>
<!-- RouterModule.forRoot(args) -->
<g id="node12" class="node"><title>RouterModule.forRoot(args)</title>
<polygon fill="#8dd3c7" stroke="black" points="515.842,-122 512.842,-126 491.842,-126 488.842,-122 338.158,-122 338.158,-86 515.842,-86 515.842,-122"/>
<text text-anchor="middle" x="427" y="-99.8" font-family="Times,serif" font-size="14.00">RouterModule.forRoot(args)</text>
</g>
<!-- RouterModule.forRoot(args)&#45;&gt;AppModule -->
<g id="edge11" class="edge"><title>RouterModule.forRoot(args)&#45;&gt;AppModule</title>
<path fill="none" stroke="black" d="M427,-122.223C427,-142.365 427,-172 427,-172 427,-172 910.019,-172 910.019,-172"/>
<polygon fill="black" stroke="black" points="910.019,-175.5 920.019,-172 910.019,-168.5 910.019,-175.5"/>
</g>
<!-- LectureService -->
<g id="node14" class="node"><title>LectureService</title>
<ellipse fill="#fdb462" stroke="black" cx="245" cy="-104" rx="69.4568" ry="18"/>
<text text-anchor="middle" x="245" y="-99.8" font-family="Times,serif" font-size="14.00">LectureService</text>
</g>
<!-- LectureService&#45;&gt;AppModule -->
<g id="edge13" class="edge"><title>LectureService&#45;&gt;AppModule</title>
<path fill="none" stroke="black" d="M245,-122.045C245,-143.662 245,-177 245,-177 245,-177 910.089,-177 910.089,-177"/>
<polygon fill="black" stroke="black" points="910.089,-180.5 920.089,-177 910.089,-173.5 910.089,-180.5"/>
</g>
<!-- ArticleService -->
<g id="node15" class="node"><title>ArticleService</title>
<ellipse fill="#fdb462" stroke="black" cx="91" cy="-104" rx="66.6055" ry="18"/>
<text text-anchor="middle" x="91" y="-99.8" font-family="Times,serif" font-size="14.00">ArticleService</text>
</g>
<!-- ArticleService&#45;&gt;AppModule -->
<g id="edge14" class="edge"><title>ArticleService&#45;&gt;AppModule</title>
<path fill="none" stroke="black" d="M91,-122.091C91,-145.133 91,-182 91,-182 91,-182 910.283,-182 910.283,-182"/>
<polygon fill="black" stroke="black" points="910.283,-185.5 920.283,-182 910.283,-178.5 910.283,-185.5"/>
</g>
</g>
</svg>
