<?xml version="1.0" encoding="UTF-8" standalone="no"?>
<!DOCTYPE svg PUBLIC "-//W3C//DTD SVG 1.1//EN"
 "http://www.w3.org/Graphics/SVG/1.1/DTD/svg11.dtd">
<!-- Generated by graphviz version 2.38.0 (20140413.2041)
 -->
<!-- Title: dependencies Pages: 1 -->
<svg width="1439pt" height="284pt"
 viewBox="0.00 0.00 1439.00 284.00" xmlns="http://www.w3.org/2000/svg" xmlns:xlink="http://www.w3.org/1999/xlink">
<g id="graph0" class="graph" transform="scale(1 1) rotate(0) translate(4 280)">
<title>dependencies</title>
<polygon fill="white" stroke="none" points="-4,4 -4,-280 1435,-280 1435,4 -4,4"/>
<text text-anchor="start" x="694.509" y="-42.4" font-family="sans-serif" font-weight="bold" font-size="14.00">Legend</text>
<polygon fill="#ffffb3" stroke="none" points="481.5,-10 481.5,-30 501.5,-30 501.5,-10 481.5,-10"/>
<text text-anchor="start" x="505.129" y="-15.4" font-family="sans-serif" font-size="14.00"> &#160;Declarations</text>
<polygon fill="#8dd3c7" stroke="none" points="594.5,-10 594.5,-30 614.5,-30 614.5,-10 594.5,-10"/>
<text text-anchor="start" x="618.225" y="-15.4" font-family="sans-serif" font-size="14.00"> &#160;Module</text>
<polygon fill="#80b1d3" stroke="none" points="680.5,-10 680.5,-30 700.5,-30 700.5,-10 680.5,-10"/>
<text text-anchor="start" x="704.281" y="-15.4" font-family="sans-serif" font-size="14.00"> &#160;Bootstrap</text>
<polygon fill="#fdb462" stroke="none" points="777.5,-10 777.5,-30 797.5,-30 797.5,-10 777.5,-10"/>
<text text-anchor="start" x="801.173" y="-15.4" font-family="sans-serif" font-size="14.00"> &#160;Providers</text>
<polygon fill="#fb8072" stroke="none" points="873.5,-10 873.5,-30 893.5,-30 893.5,-10 873.5,-10"/>
<text text-anchor="start" x="897.226" y="-15.4" font-family="sans-serif" font-size="14.00"> &#160;Exports</text>
<g id="clust1" class="cluster"><title>cluster_AppModule</title>
<polygon fill="none" stroke="black" stroke-dasharray="1,5" points="8,-70 8,-268 1423,-268 1423,-70 8,-70"/>
</g>
<g id="clust2" class="cluster"><title>cluster_AppModule_declarations</title>
<polygon fill="none" stroke="black" points="977,-78 977,-130 1415,-130 1415,-78 977,-78"/>
</g>
<g id="clust6" class="cluster"><title>cluster_AppModule_imports</title>
<polygon fill="none" stroke="black" points="16,-78 16,-130 969,-130 969,-78 16,-78"/>
</g>
<g id="clust8" class="cluster"><title>cluster_AppModule_bootstrap</title>
<polygon fill="none" stroke="black" points="673,-208 673,-260 797,-260 797,-208 673,-208"/>
</g>
<!-- AppComponent -->
<g id="node1" class="node"><title>AppComponent</title>
<polygon fill="#ffffb3" stroke="black" points="1406.94,-122 1301.06,-122 1301.06,-86 1406.94,-86 1406.94,-122"/>
<text text-anchor="middle" x="1354" y="-99.8" font-family="Times,serif" font-size="14.00">AppComponent</text>
</g>
<!-- AppModule -->
<g id="node4" class="node"><title>AppModule</title>
<polygon fill="#8dd3c7" stroke="black" points="776.657,-187 773.657,-191 752.657,-191 749.657,-187 693.343,-187 693.343,-151 776.657,-151 776.657,-187"/>
<text text-anchor="middle" x="735" y="-164.8" font-family="Times,serif" font-size="14.00">AppModule</text>
</g>
<!-- AppComponent&#45;&gt;AppModule -->
<g id="edge1" class="edge"><title>AppComponent&#45;&gt;AppModule</title>
<path fill="none" stroke="black" d="M1354,-122.011C1354,-144.485 1354,-180 1354,-180 1354,-180 787.06,-180 787.06,-180"/>
<polygon fill="black" stroke="black" points="787.06,-176.5 777.06,-180 787.06,-183.5 787.06,-176.5"/>
</g>
<!-- HomeComponent -->
<g id="node2" class="node"><title>HomeComponent</title>
<polygon fill="#ffffb3" stroke="black" points="1283.55,-122 1168.45,-122 1168.45,-86 1283.55,-86 1283.55,-122"/>
<text text-anchor="middle" x="1226" y="-99.8" font-family="Times,serif" font-size="14.00">HomeComponent</text>
</g>
<!-- HomeComponent&#45;&gt;AppModule -->
<g id="edge2" class="edge"><title>HomeComponent&#45;&gt;AppModule</title>
<path fill="none" stroke="black" d="M1226,-122.129C1226,-142.572 1226,-173 1226,-173 1226,-173 786.862,-173 786.862,-173"/>
<polygon fill="black" stroke="black" points="786.862,-169.5 776.862,-173 786.862,-176.5 786.862,-169.5"/>
</g>
<!-- PageNotFoundComponent -->
<g id="node3" class="node"><title>PageNotFoundComponent</title>
<polygon fill="#ffffb3" stroke="black" points="1150.82,-122 985.176,-122 985.176,-86 1150.82,-86 1150.82,-122"/>
<text text-anchor="middle" x="1068" y="-99.8" font-family="Times,serif" font-size="14.00">PageNotFoundComponent</text>
</g>
<!-- PageNotFoundComponent&#45;&gt;AppModule -->
<g id="edge3" class="edge"><title>PageNotFoundComponent&#45;&gt;AppModule</title>
<path fill="none" stroke="black" d="M1068,-122.267C1068,-140.555 1068,-166 1068,-166 1068,-166 786.837,-166 786.837,-166"/>
<polygon fill="black" stroke="black" points="786.838,-162.5 776.837,-166 786.837,-169.5 786.838,-162.5"/>
</g>
<!-- AppComponent  -->
<g id="node12" class="node"><title>AppComponent </title>
<polygon fill="#80b1d3" stroke="black" points="789.439,-252 680.561,-252 680.561,-216 789.439,-216 789.439,-252"/>
<text text-anchor="middle" x="735" y="-229.8" font-family="Times,serif" font-size="14.00">AppComponent </text>
</g>
<!-- AppModule&#45;&gt;AppComponent  -->
<g id="edge11" class="edge"><title>AppModule&#45;&gt;AppComponent </title>
<path fill="none" stroke="black" stroke-dasharray="1,5" d="M735,-187.106C735,-187.106 735,-205.991 735,-205.991"/>
<polygon fill="black" stroke="black" points="731.5,-205.991 735,-215.991 738.5,-205.991 731.5,-205.991"/>
</g>
<!-- BrowserModule -->
<g id="node5" class="node"><title>BrowserModule</title>
<polygon fill="#8dd3c7" stroke="black" points="961.473,-122 958.473,-126 937.473,-126 934.473,-122 854.527,-122 854.527,-86 961.473,-86 961.473,-122"/>
<text text-anchor="middle" x="908" y="-99.8" font-family="Times,serif" font-size="14.00">BrowserModule</text>
</g>
<!-- BrowserModule&#45;&gt;AppModule -->
<g id="edge4" class="edge"><title>BrowserModule&#45;&gt;AppModule</title>
<path fill="none" stroke="black" d="M908,-122.009C908,-138.049 908,-159 908,-159 908,-159 786.878,-159 786.878,-159"/>
<polygon fill="black" stroke="black" points="786.879,-155.5 776.878,-159 786.878,-162.5 786.879,-155.5"/>
</g>
<!-- FormsModule -->
<g id="node6" class="node"><title>FormsModule</title>
<polygon fill="#8dd3c7" stroke="black" points="836.829,-122 833.829,-126 812.829,-126 809.829,-122 741.171,-122 741.171,-86 836.829,-86 836.829,-122"/>
<text text-anchor="middle" x="789" y="-99.8" font-family="Times,serif" font-size="14.00">FormsModule</text>
</g>
<!-- FormsModule&#45;&gt;AppModule -->
<g id="edge5" class="edge"><title>FormsModule&#45;&gt;AppModule</title>
<path fill="none" stroke="black" d="M759.082,-122.106C759.082,-122.106 759.082,-140.991 759.082,-140.991"/>
<polygon fill="black" stroke="black" points="755.582,-140.991 759.082,-150.991 762.582,-140.991 755.582,-140.991"/>
</g>
<!-- HttpModule -->
<g id="node7" class="node"><title>HttpModule</title>
<polygon fill="#8dd3c7" stroke="black" points="723.439,-122 720.439,-126 699.439,-126 696.439,-122 638.561,-122 638.561,-86 723.439,-86 723.439,-122"/>
<text text-anchor="middle" x="681" y="-99.8" font-family="Times,serif" font-size="14.00">HttpModule</text>
</g>
<!-- HttpModule&#45;&gt;AppModule -->
<g id="edge6" class="edge"><title>HttpModule&#45;&gt;AppModule</title>
<path fill="none" stroke="black" d="M708.195,-122.106C708.195,-122.106 708.195,-140.991 708.195,-140.991"/>
<polygon fill="black" stroke="black" points="704.695,-140.991 708.195,-150.991 711.695,-140.991 704.695,-140.991"/>
</g>
<!-- LayoutModule -->
<g id="node8" class="node"><title>LayoutModule</title>
<polygon fill="#8dd3c7" stroke="black" points="620.708,-122 617.708,-126 596.708,-126 593.708,-122 521.292,-122 521.292,-86 620.708,-86 620.708,-122"/>
<text text-anchor="middle" x="571" y="-99.8" font-family="Times,serif" font-size="14.00">LayoutModule</text>
</g>
<!-- LayoutModule&#45;&gt;AppModule -->
<g id="edge7" class="edge"><title>LayoutModule&#45;&gt;AppModule</title>
<path fill="none" stroke="black" d="M571,-122.009C571,-138.049 571,-159 571,-159 571,-159 683.192,-159 683.192,-159"/>
<polygon fill="black" stroke="black" points="683.192,-162.5 693.192,-159 683.192,-155.5 683.192,-162.5"/>
</g>
<!-- LectureModule -->
<g id="node9" class="node"><title>LectureModule</title>
<polygon fill="#8dd3c7" stroke="black" points="503.298,-122 500.298,-126 479.298,-126 476.298,-122 400.702,-122 400.702,-86 503.298,-86 503.298,-122"/>
<text text-anchor="middle" x="452" y="-99.8" font-family="Times,serif" font-size="14.00">LectureModule</text>
</g>
<!-- LectureModule&#45;&gt;AppModule -->
<g id="edge8" class="edge"><title>LectureModule&#45;&gt;AppModule</title>
<path fill="none" stroke="black" d="M452,-122.267C452,-140.555 452,-166 452,-166 452,-166 683.242,-166 683.242,-166"/>
<polygon fill="black" stroke="black" points="683.242,-169.5 693.242,-166 683.242,-162.5 683.242,-169.5"/>
</g>
<!-- MaterialModule.forRoot() -->
<g id="node10" class="node"><title>MaterialModule.forRoot()</title>
<polygon fill="#8dd3c7" stroke="black" points="382.841,-122 379.841,-126 358.841,-126 355.841,-122 219.159,-122 219.159,-86 382.841,-86 382.841,-122"/>
<text text-anchor="middle" x="301" y="-99.8" font-family="Times,serif" font-size="14.00">MaterialModule.forRoot()</text>
</g>
<!-- MaterialModule.forRoot()&#45;&gt;AppModule -->
<g id="edge9" class="edge"><title>MaterialModule.forRoot()&#45;&gt;AppModule</title>
<path fill="none" stroke="black" d="M301,-122.129C301,-142.572 301,-173 301,-173 301,-173 682.992,-173 682.992,-173"/>
<polygon fill="black" stroke="black" points="682.992,-176.5 692.992,-173 682.992,-169.5 682.992,-176.5"/>
</g>
<!-- RouterModule.forRoot(args) -->
<g id="node11" class="node"><title>RouterModule.forRoot(args)</title>
<polygon fill="#8dd3c7" stroke="black" points="201.842,-122 198.842,-126 177.842,-126 174.842,-122 24.1581,-122 24.1581,-86 201.842,-86 201.842,-122"/>
<text text-anchor="middle" x="113" y="-99.8" font-family="Times,serif" font-size="14.00">RouterModule.forRoot(args)</text>
</g>
<!-- RouterModule.forRoot(args)&#45;&gt;AppModule -->
<g id="edge10" class="edge"><title>RouterModule.forRoot(args)&#45;&gt;AppModule</title>
<path fill="none" stroke="black" d="M113,-122.011C113,-144.485 113,-180 113,-180 113,-180 683.223,-180 683.223,-180"/>
<polygon fill="black" stroke="black" points="683.223,-183.5 693.223,-180 683.223,-176.5 683.223,-183.5"/>
</g>
</g>
</svg>
