<?xml version="1.0" encoding="UTF-8" standalone="no"?>
<!DOCTYPE svg PUBLIC "-//W3C//DTD SVG 1.1//EN"
 "http://www.w3.org/Graphics/SVG/1.1/DTD/svg11.dtd">
<!-- Generated by graphviz version 2.38.0 (20140413.2041)
 -->
<!-- Title: dependencies Pages: 1 -->
<svg width="2695pt" height="284pt"
 viewBox="0.00 0.00 2695.00 284.00" xmlns="http://www.w3.org/2000/svg" xmlns:xlink="http://www.w3.org/1999/xlink">
<g id="graph0" class="graph" transform="scale(1 1) rotate(0) translate(4 280)">
<title>dependencies</title>
<polygon fill="white" stroke="none" points="-4,4 -4,-280 2691,-280 2691,4 -4,4"/>
<text text-anchor="start" x="1322.51" y="-42.4" font-family="sans-serif" font-weight="bold" font-size="14.00">Legend</text>
<polygon fill="#ffffb3" stroke="none" points="1109.5,-10 1109.5,-30 1129.5,-30 1129.5,-10 1109.5,-10"/>
<text text-anchor="start" x="1133.13" y="-15.4" font-family="sans-serif" font-size="14.00"> &#160;Declarations</text>
<polygon fill="#8dd3c7" stroke="none" points="1222.5,-10 1222.5,-30 1242.5,-30 1242.5,-10 1222.5,-10"/>
<text text-anchor="start" x="1246.23" y="-15.4" font-family="sans-serif" font-size="14.00"> &#160;Module</text>
<polygon fill="#80b1d3" stroke="none" points="1308.5,-10 1308.5,-30 1328.5,-30 1328.5,-10 1308.5,-10"/>
<text text-anchor="start" x="1332.28" y="-15.4" font-family="sans-serif" font-size="14.00"> &#160;Bootstrap</text>
<polygon fill="#fdb462" stroke="none" points="1405.5,-10 1405.5,-30 1425.5,-30 1425.5,-10 1405.5,-10"/>
<text text-anchor="start" x="1429.17" y="-15.4" font-family="sans-serif" font-size="14.00"> &#160;Providers</text>
<polygon fill="#fb8072" stroke="none" points="1501.5,-10 1501.5,-30 1521.5,-30 1521.5,-10 1501.5,-10"/>
<text text-anchor="start" x="1525.23" y="-15.4" font-family="sans-serif" font-size="14.00"> &#160;Exports</text>
<g id="clust1" class="cluster"><title>cluster_AppModule</title>
<polygon fill="none" stroke="black" stroke-dasharray="1,5" points="8,-70 8,-268 2679,-268 2679,-70 8,-70"/>
</g>
<g id="clust2" class="cluster"><title>cluster_AppModule_declarations</title>
<polygon fill="none" stroke="black" points="859,-78 859,-130 2671,-130 2671,-78 859,-78"/>
</g>
<g id="clust15" class="cluster"><title>cluster_AppModule_imports</title>
<polygon fill="none" stroke="black" points="16,-78 16,-130 851,-130 851,-78 16,-78"/>
</g>
<g id="clust17" class="cluster"><title>cluster_AppModule_bootstrap</title>
<polygon fill="none" stroke="black" points="1261,-208 1261,-260 1385,-260 1385,-208 1261,-208"/>
</g>
<!-- AppComponent -->
<g id="node1" class="node"><title>AppComponent</title>
<polygon fill="#ffffb3" stroke="black" points="2662.94,-122 2557.06,-122 2557.06,-86 2662.94,-86 2662.94,-122"/>
<text text-anchor="middle" x="2610" y="-99.8" font-family="Times,serif" font-size="14.00">AppComponent</text>
</g>
<!-- AppModule -->
<g id="node13" class="node"><title>AppModule</title>
<polygon fill="#8dd3c7" stroke="black" points="1364.66,-187 1361.66,-191 1340.66,-191 1337.66,-187 1281.34,-187 1281.34,-151 1364.66,-151 1364.66,-187"/>
<text text-anchor="middle" x="1323" y="-164.8" font-family="Times,serif" font-size="14.00">AppModule</text>
</g>
<!-- AppComponent&#45;&gt;AppModule -->
<g id="edge1" class="edge"><title>AppComponent&#45;&gt;AppModule</title>
<path fill="none" stroke="black" d="M2610,-122.323C2610,-145.66 2610,-183 2610,-183 2610,-183 1374.73,-183 1374.73,-183"/>
<polygon fill="black" stroke="black" points="1374.73,-179.5 1364.73,-183 1374.73,-186.5 1374.73,-179.5"/>
</g>
<!-- LectureListComponent -->
<g id="node2" class="node"><title>LectureListComponent</title>
<polygon fill="#ffffb3" stroke="black" points="2538.86,-122 2393.14,-122 2393.14,-86 2538.86,-86 2538.86,-122"/>
<text text-anchor="middle" x="2466" y="-99.8" font-family="Times,serif" font-size="14.00">LectureListComponent</text>
</g>
<!-- LectureListComponent&#45;&gt;AppModule -->
<g id="edge2" class="edge"><title>LectureListComponent&#45;&gt;AppModule</title>
<path fill="none" stroke="black" d="M2466,-122.155C2466,-144.352 2466,-179 2466,-179 2466,-179 1374.69,-179 1374.69,-179"/>
<polygon fill="black" stroke="black" points="1374.69,-175.5 1364.69,-179 1374.69,-182.5 1374.69,-175.5"/>
</g>
<!-- LayoutComponent -->
<g id="node3" class="node"><title>LayoutComponent</title>
<polygon fill="#ffffb3" stroke="black" points="2375.49,-122 2254.51,-122 2254.51,-86 2375.49,-86 2375.49,-122"/>
<text text-anchor="middle" x="2315" y="-99.8" font-family="Times,serif" font-size="14.00">LayoutComponent</text>
</g>
<!-- LayoutComponent&#45;&gt;AppModule -->
<g id="edge3" class="edge"><title>LayoutComponent&#45;&gt;AppModule</title>
<path fill="none" stroke="black" d="M2315,-122.284C2315,-143.321 2315,-175 2315,-175 2315,-175 1374.68,-175 1374.68,-175"/>
<polygon fill="black" stroke="black" points="1374.68,-171.5 1364.68,-175 1374.68,-178.5 1374.68,-171.5"/>
</g>
<!-- SidebarComponent -->
<g id="node4" class="node"><title>SidebarComponent</title>
<polygon fill="#ffffb3" stroke="black" points="2236.1,-122 2111.9,-122 2111.9,-86 2236.1,-86 2236.1,-122"/>
<text text-anchor="middle" x="2174" y="-99.8" font-family="Times,serif" font-size="14.00">SidebarComponent</text>
</g>
<!-- SidebarComponent&#45;&gt;AppModule -->
<g id="edge4" class="edge"><title>SidebarComponent&#45;&gt;AppModule</title>
<path fill="none" stroke="black" d="M2174,-122.308C2174,-142.146 2174,-171 2174,-171 2174,-171 1374.91,-171 1374.91,-171"/>
<polygon fill="black" stroke="black" points="1374.91,-167.5 1364.91,-171 1374.91,-174.5 1374.91,-167.5"/>
</g>
<!-- HeaderComponent -->
<g id="node5" class="node"><title>HeaderComponent</title>
<polygon fill="#ffffb3" stroke="black" points="2093.74,-122 1972.26,-122 1972.26,-86 2093.74,-86 2093.74,-122"/>
<text text-anchor="middle" x="2033" y="-99.8" font-family="Times,serif" font-size="14.00">HeaderComponent</text>
</g>
<!-- HeaderComponent&#45;&gt;AppModule -->
<g id="edge5" class="edge"><title>HeaderComponent&#45;&gt;AppModule</title>
<path fill="none" stroke="black" d="M2033,-122.222C2033,-140.829 2033,-167 2033,-167 2033,-167 1374.76,-167 1374.76,-167"/>
<polygon fill="black" stroke="black" points="1374.76,-163.5 1364.76,-167 1374.76,-170.5 1374.76,-163.5"/>
</g>
<!-- ContentComponent -->
<g id="node6" class="node"><title>ContentComponent</title>
<polygon fill="#ffffb3" stroke="black" points="1953.67,-122 1828.33,-122 1828.33,-86 1953.67,-86 1953.67,-122"/>
<text text-anchor="middle" x="1891" y="-99.8" font-family="Times,serif" font-size="14.00">ContentComponent</text>
</g>
<!-- ContentComponent&#45;&gt;AppModule -->
<g id="edge6" class="edge"><title>ContentComponent&#45;&gt;AppModule</title>
<path fill="none" stroke="black" d="M1891,-122.023C1891,-139.373 1891,-163 1891,-163 1891,-163 1374.77,-163 1374.77,-163"/>
<polygon fill="black" stroke="black" points="1374.77,-159.5 1364.77,-163 1374.77,-166.5 1374.77,-159.5"/>
</g>
<!-- PaginationComponent -->
<g id="node7" class="node"><title>PaginationComponent</title>
<polygon fill="#ffffb3" stroke="black" points="1810.72,-122 1669.28,-122 1669.28,-86 1810.72,-86 1810.72,-122"/>
<text text-anchor="middle" x="1740" y="-99.8" font-family="Times,serif" font-size="14.00">PaginationComponent</text>
</g>
<!-- PaginationComponent&#45;&gt;AppModule -->
<g id="edge7" class="edge"><title>PaginationComponent&#45;&gt;AppModule</title>
<path fill="none" stroke="black" d="M1740,-122.009C1740,-138.049 1740,-159 1740,-159 1740,-159 1374.89,-159 1374.89,-159"/>
<polygon fill="black" stroke="black" points="1374.89,-155.5 1364.89,-159 1374.89,-162.5 1374.89,-155.5"/>
</g>
<!-- LectureItemComponent -->
<g id="node8" class="node"><title>LectureItemComponent</title>
<polygon fill="#ffffb3" stroke="black" points="1651.74,-122 1502.26,-122 1502.26,-86 1651.74,-86 1651.74,-122"/>
<text text-anchor="middle" x="1577" y="-99.8" font-family="Times,serif" font-size="14.00">LectureItemComponent</text>
</g>
<!-- LectureItemComponent&#45;&gt;AppModule -->
<g id="edge8" class="edge"><title>LectureItemComponent&#45;&gt;AppModule</title>
<path fill="none" stroke="black" d="M1577,-122.124C1577,-136.783 1577,-155 1577,-155 1577,-155 1374.66,-155 1374.66,-155"/>
<polygon fill="black" stroke="black" points="1374.66,-151.5 1364.66,-155 1374.66,-158.5 1374.66,-151.5"/>
</g>
<!-- LectureDetailsComponent -->
<g id="node9" class="node"><title>LectureDetailsComponent</title>
<polygon fill="#ffffb3" stroke="black" points="1483.73,-122 1320.27,-122 1320.27,-86 1483.73,-86 1483.73,-122"/>
<text text-anchor="middle" x="1402" y="-99.8" font-family="Times,serif" font-size="14.00">LectureDetailsComponent</text>
</g>
<!-- LectureDetailsComponent&#45;&gt;AppModule -->
<g id="edge9" class="edge"><title>LectureDetailsComponent&#45;&gt;AppModule</title>
<path fill="none" stroke="black" d="M1342.48,-122.106C1342.48,-122.106 1342.48,-140.991 1342.48,-140.991"/>
<polygon fill="black" stroke="black" points="1338.98,-140.991 1342.48,-150.991 1345.98,-140.991 1338.98,-140.991"/>
</g>
<!-- HomeComponent -->
<g id="node10" class="node"><title>HomeComponent</title>
<polygon fill="#ffffb3" stroke="black" points="1301.55,-122 1186.45,-122 1186.45,-86 1301.55,-86 1301.55,-122"/>
<text text-anchor="middle" x="1244" y="-99.8" font-family="Times,serif" font-size="14.00">HomeComponent</text>
</g>
<!-- HomeComponent&#45;&gt;AppModule -->
<g id="edge10" class="edge"><title>HomeComponent&#45;&gt;AppModule</title>
<path fill="none" stroke="black" d="M1291.47,-122.106C1291.47,-122.106 1291.47,-140.991 1291.47,-140.991"/>
<polygon fill="black" stroke="black" points="1287.97,-140.991 1291.47,-150.991 1294.97,-140.991 1287.97,-140.991"/>
</g>
<!-- PageNotFoundComponent -->
<g id="node11" class="node"><title>PageNotFoundComponent</title>
<polygon fill="#ffffb3" stroke="black" points="1168.82,-122 1003.18,-122 1003.18,-86 1168.82,-86 1168.82,-122"/>
<text text-anchor="middle" x="1086" y="-99.8" font-family="Times,serif" font-size="14.00">PageNotFoundComponent</text>
</g>
<!-- PageNotFoundComponent&#45;&gt;AppModule -->
<g id="edge11" class="edge"><title>PageNotFoundComponent&#45;&gt;AppModule</title>
<path fill="none" stroke="black" d="M1086,-122.124C1086,-136.783 1086,-155 1086,-155 1086,-155 1271.17,-155 1271.17,-155"/>
<polygon fill="black" stroke="black" points="1271.17,-158.5 1281.17,-155 1271.17,-151.5 1271.17,-158.5"/>
</g>
<!-- FooterComponent -->
<g id="node12" class="node"><title>FooterComponent</title>
<polygon fill="#ffffb3" stroke="black" points="984.881,-122 867.119,-122 867.119,-86 984.881,-86 984.881,-122"/>
<text text-anchor="middle" x="926" y="-99.8" font-family="Times,serif" font-size="14.00">FooterComponent</text>
</g>
<!-- FooterComponent&#45;&gt;AppModule -->
<g id="edge12" class="edge"><title>FooterComponent&#45;&gt;AppModule</title>
<path fill="none" stroke="black" d="M926,-122.009C926,-138.049 926,-159 926,-159 926,-159 1271.26,-159 1271.26,-159"/>
<polygon fill="black" stroke="black" points="1271.26,-162.5 1281.26,-159 1271.26,-155.5 1271.26,-162.5"/>
</g>
<!-- AppComponent  -->
<g id="node20" class="node"><title>AppComponent </title>
<polygon fill="#80b1d3" stroke="black" points="1377.44,-252 1268.56,-252 1268.56,-216 1377.44,-216 1377.44,-252"/>
<text text-anchor="middle" x="1323" y="-229.8" font-family="Times,serif" font-size="14.00">AppComponent </text>
</g>
<!-- AppModule&#45;&gt;AppComponent  -->
<g id="edge19" class="edge"><title>AppModule&#45;&gt;AppComponent </title>
<path fill="none" stroke="black" stroke-dasharray="1,5" d="M1323,-187.106C1323,-187.106 1323,-205.991 1323,-205.991"/>
<polygon fill="black" stroke="black" points="1319.5,-205.991 1323,-215.991 1326.5,-205.991 1319.5,-205.991"/>
</g>
<!-- BrowserModule -->
<g id="node14" class="node"><title>BrowserModule</title>
<polygon fill="#8dd3c7" stroke="black" points="843.473,-122 840.473,-126 819.473,-126 816.473,-122 736.527,-122 736.527,-86 843.473,-86 843.473,-122"/>
<text text-anchor="middle" x="790" y="-99.8" font-family="Times,serif" font-size="14.00">BrowserModule</text>
</g>
<!-- BrowserModule&#45;&gt;AppModule -->
<g id="edge13" class="edge"><title>BrowserModule&#45;&gt;AppModule</title>
<path fill="none" stroke="black" d="M790,-122.023C790,-139.373 790,-163 790,-163 790,-163 1271.18,-163 1271.18,-163"/>
<polygon fill="black" stroke="black" points="1271.18,-166.5 1281.18,-163 1271.18,-159.5 1271.18,-166.5"/>
</g>
<!-- FormsModule -->
<g id="node15" class="node"><title>FormsModule</title>
<polygon fill="#8dd3c7" stroke="black" points="718.829,-122 715.829,-126 694.829,-126 691.829,-122 623.171,-122 623.171,-86 718.829,-86 718.829,-122"/>
<text text-anchor="middle" x="671" y="-99.8" font-family="Times,serif" font-size="14.00">FormsModule</text>
</g>
<!-- FormsModule&#45;&gt;AppModule -->
<g id="edge14" class="edge"><title>FormsModule&#45;&gt;AppModule</title>
<path fill="none" stroke="black" d="M671,-122.222C671,-140.829 671,-167 671,-167 671,-167 1271.22,-167 1271.22,-167"/>
<polygon fill="black" stroke="black" points="1271.22,-170.5 1281.22,-167 1271.22,-163.5 1271.22,-170.5"/>
</g>
<!-- HttpModule -->
<g id="node16" class="node"><title>HttpModule</title>
<polygon fill="#8dd3c7" stroke="black" points="605.439,-122 602.439,-126 581.439,-126 578.439,-122 520.561,-122 520.561,-86 605.439,-86 605.439,-122"/>
<text text-anchor="middle" x="563" y="-99.8" font-family="Times,serif" font-size="14.00">HttpModule</text>
</g>
<!-- HttpModule&#45;&gt;AppModule -->
<g id="edge15" class="edge"><title>HttpModule&#45;&gt;AppModule</title>
<path fill="none" stroke="black" d="M563,-122.308C563,-142.146 563,-171 563,-171 563,-171 1271.33,-171 1271.33,-171"/>
<polygon fill="black" stroke="black" points="1271.33,-174.5 1281.33,-171 1271.33,-167.5 1271.33,-174.5"/>
</g>
<!-- SidebarModule -->
<g id="node17" class="node"><title>SidebarModule</title>
<polygon fill="#8dd3c7" stroke="black" points="503.313,-122 500.313,-126 479.313,-126 476.313,-122 400.687,-122 400.687,-86 503.313,-86 503.313,-122"/>
<text text-anchor="middle" x="452" y="-99.8" font-family="Times,serif" font-size="14.00">SidebarModule</text>
</g>
<!-- SidebarModule&#45;&gt;AppModule -->
<g id="edge16" class="edge"><title>SidebarModule&#45;&gt;AppModule</title>
<path fill="none" stroke="black" d="M452,-122.284C452,-143.321 452,-175 452,-175 452,-175 1271.28,-175 1271.28,-175"/>
<polygon fill="black" stroke="black" points="1271.28,-178.5 1281.28,-175 1271.28,-171.5 1271.28,-178.5"/>
</g>
<!-- MaterialModule.forRoot() -->
<g id="node18" class="node"><title>MaterialModule.forRoot()</title>
<polygon fill="#8dd3c7" stroke="black" points="382.841,-122 379.841,-126 358.841,-126 355.841,-122 219.159,-122 219.159,-86 382.841,-86 382.841,-122"/>
<text text-anchor="middle" x="301" y="-99.8" font-family="Times,serif" font-size="14.00">MaterialModule.forRoot()</text>
</g>
<!-- MaterialModule.forRoot()&#45;&gt;AppModule -->
<g id="edge17" class="edge"><title>MaterialModule.forRoot()&#45;&gt;AppModule</title>
<path fill="none" stroke="black" d="M301,-122.155C301,-144.352 301,-179 301,-179 301,-179 1271.03,-179 1271.03,-179"/>
<polygon fill="black" stroke="black" points="1271.03,-182.5 1281.03,-179 1271.03,-175.5 1271.03,-182.5"/>
</g>
<!-- RouterModule.forRoot(args) -->
<g id="node19" class="node"><title>RouterModule.forRoot(args)</title>
<polygon fill="#8dd3c7" stroke="black" points="201.842,-122 198.842,-126 177.842,-126 174.842,-122 24.1581,-122 24.1581,-86 201.842,-86 201.842,-122"/>
<text text-anchor="middle" x="113" y="-99.8" font-family="Times,serif" font-size="14.00">RouterModule.forRoot(args)</text>
</g>
<!-- RouterModule.forRoot(args)&#45;&gt;AppModule -->
<g id="edge18" class="edge"><title>RouterModule.forRoot(args)&#45;&gt;AppModule</title>
<path fill="none" stroke="black" d="M113,-122.323C113,-145.66 113,-183 113,-183 113,-183 1271,-183 1271,-183"/>
<polygon fill="black" stroke="black" points="1271,-186.5 1281,-183 1271,-179.5 1271,-186.5"/>
</g>
</g>
</svg>
